<svg width="1900" height="250" viewBox="0 0 1900 250" fill="none" xmlns="http://www.w3.org/2000/svg">
<path opacity="0.1" d="M172.877 6.9546V11.9174H99.9743V245H73.4487V11.9174H0.546268V6.9546H172.877ZM413.831 77.2901C420.449 92.5779 423.757 108.893 423.757 126.234C423.757 143.575 420.449 160.004 413.831 175.52C407.328 190.922 398.429 203.985 387.135 214.71C375.954 225.434 362.606 233.933 347.09 240.208C331.688 246.483 315.373 249.621 298.146 249.621C281.033 249.621 264.718 246.483 249.202 240.208C233.686 233.933 220.28 225.434 208.986 214.71C197.805 203.985 188.906 190.922 182.289 175.52C175.672 160.004 172.363 142.206 172.363 122.127C172.363 102.047 177.954 82.4811 189.134 63.4283C200.429 44.3756 215.717 29.4871 234.998 18.7627C254.279 7.92435 273.959 2.50516 294.039 2.50516C314.118 2.50516 331.859 5.69963 347.261 12.0886C362.663 18.3634 375.954 26.9771 387.135 37.9296C398.429 48.8821 407.328 62.0022 413.831 77.2901ZM228.324 211.8C246.121 233.705 269.396 244.658 298.146 244.658C326.896 244.658 350.113 233.705 367.797 211.8C385.595 189.781 394.493 161.259 394.493 126.234C394.493 91.2089 385.595 62.6297 367.797 40.4966C350.113 18.3634 326.896 7.29687 298.146 7.29687C269.396 7.29687 246.121 18.3634 228.324 40.4966C210.64 62.6297 201.798 91.2089 201.798 126.234C201.798 161.259 210.64 189.781 228.324 211.8ZM705.441 6.9546V11.9174H632.539V245H606.013V11.9174H533.111V6.9546H705.441ZM872.98 11.9174H768.76V121.1H856.038V126.063H768.76V240.037H872.98V245H742.064V6.9546H872.98V11.9174ZM1088.61 6.9546H1093.57V249.107L917.817 49.2243V245H912.854V3.01855L1088.61 202.559V6.9546ZM1291.06 245L1261.96 170.728H1162.02L1132.93 245H1127.63L1223.46 0.964963L1319.29 245H1291.06ZM1211.99 43.577L1164.08 165.766H1260.08L1211.99 43.577ZM1529.1 6.9546H1534.07V249.107L1358.31 49.2243V245H1353.35V3.01855L1529.1 202.559V6.9546ZM1743.19 6.9546V11.9174H1670.29V245H1643.76V11.9174H1570.86V6.9546H1743.19ZM1783.06 46.6574C1783.06 52.59 1783.86 57.2105 1785.46 60.5191C1787.17 63.7136 1788.54 66.1665 1789.57 67.8778C1790.59 69.5891 1792.48 71.7568 1795.21 74.3808C1797.95 76.8908 1800.06 78.8873 1801.55 80.3705C1803.14 81.8536 1806.05 84.1354 1810.27 87.2158C1814.49 90.2962 1817.63 92.5779 1819.69 94.0611C1821.85 95.5442 1825.73 98.2253 1831.32 102.104C1837.03 105.869 1841.13 108.664 1843.64 110.49C1846.15 112.201 1849.86 114.825 1854.77 118.362C1859.67 121.899 1863.27 124.694 1865.55 126.747C1867.94 128.801 1871.03 131.596 1874.79 135.133C1878.67 138.556 1882.72 143.119 1886.94 148.823C1891.16 154.528 1894.3 160.346 1896.35 166.279C1898.41 172.098 1899.43 179 1899.43 186.986C1899.43 194.858 1897.78 202.388 1894.47 209.576C1891.16 216.763 1886.88 222.696 1881.64 227.373C1876.5 232.051 1870.45 235.987 1863.5 239.181C1856.54 242.262 1849.52 244.43 1842.45 245.685C1835.49 247.054 1826.53 247.738 1815.58 247.738C1804.63 247.738 1793.62 245.399 1782.55 240.722C1771.6 236.044 1764.01 231.994 1759.79 228.571L1756.71 226.347V214.71C1758.53 216.877 1765.15 222.125 1776.56 230.454C1787.97 238.782 1803.77 242.946 1823.96 242.946C1838.8 242.946 1851.12 238.668 1860.93 230.111C1870.74 221.555 1875.65 211.002 1875.65 198.452C1875.65 185.902 1871.94 174.95 1864.52 165.594C1857.11 156.239 1844.33 145.116 1826.19 132.224C1819.23 127.204 1814.04 123.496 1810.62 121.1C1807.31 118.704 1802.91 115.396 1797.44 111.174C1791.96 106.839 1786.43 102.047 1780.84 96.7992C1775.36 91.437 1770.91 85.3904 1767.49 78.6591C1764.18 71.8138 1762.53 64.284 1762.53 56.0696C1762.53 47.8553 1764.52 40.3255 1768.52 33.4802C1772.51 26.5208 1779.47 19.8466 1789.39 13.4576C1799.32 6.9546 1812.21 3.70308 1828.07 3.70308C1843.93 3.70308 1857.85 6.15598 1869.83 11.0618L1875.3 13.4576V24.239C1874.73 23.7826 1873.54 22.8129 1871.71 21.3297C1869.88 19.8466 1864.86 17.3937 1856.65 13.971C1848.44 10.4343 1838.57 8.66593 1827.04 8.66593C1815.52 8.66593 1805.31 12.2027 1796.41 19.2761C1787.51 26.2355 1783.06 35.3626 1783.06 46.6574Z" fill="black"/>
</svg>
