<svg width="38" height="38" viewBox="0 0 38 38" fill="none" xmlns="http://www.w3.org/2000/svg">
<path d="M19 10C15.4054 10 12.4811 12.9244 12.4811 16.5189C12.4811 20.9798 18.3149 27.5287 18.5633 27.8053C18.7965 28.0651 19.2039 28.0647 19.4367 27.8053C19.6851 27.5287 25.5189 20.9798 25.5189 16.5189C25.5188 12.9244 22.5945 10 19 10ZM19 19.7987C17.1915 19.7987 15.7202 18.3274 15.7202 16.5189C15.7202 14.7104 17.1915 13.2391 19 13.2391C20.8085 13.2391 22.2798 14.7104 22.2798 16.5189C22.2798 18.3274 20.8085 19.7987 19 19.7987Z" fill="#F57D02"/>
<rect x="0.5" y="0.5" width="37" height="37" rx="3.5" stroke="#DBDBDB" stroke-opacity="0.2"/>
</svg>
