<svg width="894" height="164" viewBox="0 0 894 164" fill="none" xmlns="http://www.w3.org/2000/svg">
<path opacity="0.05" d="M17.6191 30.8389C17.6191 34.7321 18.1432 37.7643 19.1914 39.9355C20.3145 42.0319 21.2129 43.6416 21.8867 44.7646C22.5605 45.8877 23.7959 47.3102 25.5928 49.0322C27.3896 50.6794 28.7747 51.9896 29.748 52.9629C30.7962 53.9362 32.7054 55.4336 35.4756 57.4551C38.2458 59.4766 40.3047 60.974 41.6523 61.9473C43.0749 62.9206 45.6204 64.68 49.2891 67.2256C53.0326 69.6963 55.7279 71.5306 57.375 72.7285C59.0221 73.8516 61.4554 75.5736 64.6748 77.8945C67.8942 80.2155 70.2526 82.0498 71.75 83.3975C73.3223 84.7451 75.3438 86.5794 77.8145 88.9004C80.36 91.1465 83.0179 94.1413 85.7881 97.8848C88.5583 101.628 90.6172 105.447 91.9648 109.34C93.3125 113.158 93.9863 117.688 93.9863 122.929C93.9863 128.095 92.9007 133.036 90.7295 137.753C88.5583 142.47 85.7507 146.363 82.3066 149.433C78.9375 152.502 74.9694 155.085 70.4023 157.182C65.8353 159.203 61.2308 160.626 56.5889 161.449C52.0218 162.348 46.1445 162.797 38.957 162.797C31.7695 162.797 24.5446 161.262 17.2822 158.192C10.0947 155.123 5.11589 152.465 2.3457 150.219L0.324219 148.759V141.122C1.52214 142.545 5.86458 145.989 13.3516 151.454C20.8385 156.92 31.208 159.652 44.46 159.652C54.193 159.652 62.279 156.845 68.7178 151.229C75.1566 145.614 78.376 138.689 78.376 130.453C78.376 122.217 75.9427 115.03 71.0762 108.891C66.2096 102.751 57.8242 95.4515 45.9199 86.9912C41.3529 83.6969 37.9463 81.2637 35.7002 79.6914C33.529 78.1191 30.6465 75.9479 27.0527 73.1777C23.459 70.3327 19.8278 67.1882 16.1592 63.7441C12.5654 60.2253 9.64551 56.2572 7.39941 51.8398C5.22819 47.3477 4.14258 42.4062 4.14258 37.0156C4.14258 31.625 5.4528 26.6836 8.07324 22.1914C10.6937 17.6243 15.2607 13.2445 21.7744 9.05176C28.2881 4.78418 36.7484 2.65039 47.1553 2.65039C57.5622 2.65039 66.6963 4.26009 74.5576 7.47949L78.1514 9.05176V16.127C77.777 15.8275 76.9909 15.1911 75.793 14.2178C74.5951 13.2445 71.3008 11.6348 65.9102 9.38867C60.5195 7.06771 54.0433 5.90723 46.4814 5.90723C38.9196 5.90723 32.2188 8.22819 26.3789 12.8701C20.5391 17.4372 17.6191 23.4268 17.6191 30.8389ZM242.229 4.78418V161H224.709V82.9482H135.202V161H117.683V4.78418H135.202V79.6914H224.709V4.78418H242.229ZM371.94 161L352.849 112.26H287.263L268.171 161H264.689L327.58 0.853516L390.471 161H371.94ZM320.056 28.8174L288.61 109.003H351.613L320.056 28.8174ZM496.823 4.78418V8.04102H448.981V161H431.574V8.04102H383.732V4.78418H496.823ZM628.444 4.78418V97.6602C628.444 109.49 627.359 119.522 625.188 127.758C623.091 135.919 619.086 143.181 613.171 149.545C604.336 158.979 591.608 163.695 574.987 163.695C558.366 163.695 545.189 159.053 535.456 149.77C528.493 143.106 523.739 135.095 521.193 125.736C518.723 116.378 517.487 103.65 517.487 87.5527V4.78418H534.895V92.0449C534.895 107.468 535.456 118.961 536.579 126.522C537.702 134.084 540.061 140.448 543.654 145.614C550.542 155.497 561.324 160.438 575.998 160.438C590.673 160.438 602.202 156.096 610.588 147.411C616.278 141.571 620.096 134.534 622.043 126.298C624.064 117.987 625.075 108.329 625.075 97.3232V4.78418H628.444ZM696.501 89.3496H674.377L762.087 161H757.146L672.917 92.2695V161H655.397V4.78418H696.501C711.55 4.78418 724.353 8.30306 734.909 15.3408C745.466 22.3786 750.744 32.9727 750.744 47.123C750.744 56.4818 747.038 65.8779 739.626 75.3115C732.289 84.6702 717.914 89.3496 696.501 89.3496ZM672.917 86.0928H690.661C704.961 86.0928 715.406 82.8734 721.994 76.4346C728.658 69.9958 731.989 60.2253 731.989 47.123C731.989 34.0208 728.695 24.2503 722.106 17.8115C715.518 11.2979 705.036 8.04102 690.661 8.04102H672.917V86.0928ZM874.616 161L855.524 112.26H789.938L770.847 161H767.365L830.256 0.853516L893.146 161H874.616ZM822.731 28.8174L791.286 109.003H854.289L822.731 28.8174Z" fill="#37474F"/>
</svg>
