<svg width="1170" height="214" viewBox="0 0 1170 214" fill="none" xmlns="http://www.w3.org/2000/svg">
<path opacity="0.4" d="M23.2258 39.5358C23.2258 44.6345 23.9122 48.6056 25.2849 51.4491C26.7557 54.1946 27.9323 56.3027 28.8148 57.7735C29.6973 59.2443 31.3151 61.1073 33.6684 63.3625C36.0217 65.5197 37.8356 67.2356 39.1103 68.5103C40.4831 69.785 42.9834 71.746 46.6113 74.3934C50.2393 77.0408 52.9357 79.0019 54.7007 80.2766C56.5637 81.5512 59.8974 83.8555 64.702 87.1893C69.6046 90.425 73.1345 92.8273 75.2917 94.3961C77.4488 95.8669 80.6355 98.1221 84.8518 101.162C89.0681 104.201 92.1567 106.604 94.1178 108.369C96.1769 110.134 98.8243 112.536 102.06 115.575C105.394 118.517 108.875 122.439 112.503 127.342C116.131 132.244 118.827 137.245 120.592 142.344C122.357 147.344 123.239 153.277 123.239 160.14C123.239 166.906 121.818 173.377 118.974 179.555C116.131 185.732 112.454 190.831 107.943 194.851C103.531 198.871 98.334 202.254 92.3528 204.999C86.3716 207.647 80.3414 209.51 74.2621 210.588C68.2809 211.765 60.5838 212.353 51.1708 212.353C41.7577 212.353 32.2957 210.343 22.7846 206.323C13.3715 202.303 6.85105 198.822 3.22311 195.88L0.575692 193.968V183.967C2.14453 185.83 7.83158 190.34 17.6368 197.498C27.4421 204.656 41.0223 208.235 58.3776 208.235C71.1245 208.235 81.7141 204.558 90.1466 197.204C98.5791 189.85 102.795 180.78 102.795 169.995C102.795 159.209 99.6087 149.796 93.2353 141.755C86.8619 133.715 75.88 124.155 60.2897 113.075C54.3085 108.761 49.8471 105.574 46.9055 103.515C44.062 101.456 40.2869 98.6124 35.5804 94.9844C30.8739 91.2584 26.1184 87.1402 21.3138 82.6298C16.6073 78.0214 12.7832 72.8246 9.84165 67.0395C6.99813 61.1563 5.57637 54.6849 5.57637 47.6251C5.57637 40.5653 7.29229 34.0938 10.7241 28.2107C14.156 22.2295 20.1372 16.4934 28.6677 11.0025C37.1983 5.4135 48.2782 2.619 61.9075 2.619C75.5368 2.619 87.4992 4.72713 97.7947 8.94339L102.501 11.0025V20.2684C102.011 19.8762 100.981 19.0428 99.4126 17.7681C97.8438 16.4934 93.5294 14.3853 86.4697 11.4437C79.4099 8.4041 70.9283 6.88428 61.025 6.88428C51.1217 6.88428 42.346 9.92391 34.698 16.0032C27.0499 21.9844 23.2258 29.8286 23.2258 39.5358ZM317.383 5.4135V210H294.439V107.78H177.217V210H154.273V5.4135H177.217V103.515H294.439V5.4135H317.383ZM487.259 210L462.256 146.168H376.362L351.358 210H346.799L429.163 0.265741L511.527 210H487.259ZM419.309 36.8883L378.127 141.903H460.638L419.309 36.8883ZM650.811 5.4135V9.67878H588.155V210H565.358V9.67878H502.702V5.4135H650.811ZM823.187 5.4135V127.048C823.187 142.54 821.765 155.679 818.922 166.465C816.176 177.152 810.93 186.664 803.184 194.998C791.614 207.353 774.945 213.53 753.178 213.53C731.41 213.53 714.153 207.451 701.406 195.292C692.287 186.565 686.061 176.074 682.727 163.817C679.491 151.561 677.873 134.892 677.873 113.811V5.4135H700.67V119.694C700.67 139.892 701.406 154.944 702.877 164.847C704.347 174.75 707.436 183.085 712.143 189.85C721.163 202.793 735.283 209.265 754.501 209.265C773.72 209.265 788.82 203.578 799.802 192.203C807.253 184.555 812.254 175.338 814.804 164.553C817.451 153.669 818.775 141.02 818.775 126.606V5.4135H823.187ZM912.317 116.164H883.342L998.211 210H991.739L881.43 119.988V210H858.486V5.4135H912.317C932.025 5.4135 948.792 10.022 962.618 19.2389C976.443 28.4558 983.356 42.3303 983.356 60.8622C983.356 73.1187 978.502 85.4243 968.795 97.7789C959.186 110.035 940.36 116.164 912.317 116.164ZM881.43 111.898H904.669C923.397 111.898 937.075 107.682 945.704 99.2497C954.43 90.8172 958.794 78.0214 958.794 60.8622C958.794 43.703 954.479 30.9071 945.851 22.4746C937.222 13.9441 923.495 9.67878 904.669 9.67878H881.43V111.898ZM1145.58 210L1120.58 146.168H1034.69L1009.68 210H1005.12L1087.49 0.265741L1169.85 210H1145.58ZM1077.63 36.8883L1036.45 141.903H1118.96L1077.63 36.8883Z" fill="black"/>
</svg>
