<svg width="583" height="218" viewBox="0 0 583 218" fill="none" xmlns="http://www.w3.org/2000/svg">
<path d="M51.4765 164H13.9596V18.2293H51.4765C65.7985 18.2293 78.9329 21.3382 90.8796 27.5561C102.826 33.7041 112.328 42.3672 119.384 53.5454C126.51 64.7236 130.073 77.2641 130.073 91.167C130.073 105 126.51 117.541 119.384 128.789C112.328 139.967 102.826 148.63 90.8796 154.778C78.9329 160.926 65.7985 164 51.4765 164ZM30.3077 21.2683V160.961H51.0573C68.1739 160.961 81.0638 156.35 89.7269 147.128C98.4598 137.836 104.468 128.789 107.752 119.986C111.035 111.113 112.677 101.507 112.677 91.167C112.677 80.7573 111.035 71.1511 107.752 62.3482C104.468 53.4755 98.4598 44.4282 89.7269 35.2061C81.0638 25.9143 68.1739 21.2683 51.0573 21.2683H30.3077ZM221.874 152.577C215.028 161.171 203.779 165.467 188.13 165.467C182.541 165.467 176.812 164.175 170.943 161.59C165.145 158.935 159.276 154.184 153.338 147.337C147.469 140.421 144.535 130.151 144.535 116.528C144.535 102.904 148.587 91.4115 156.691 82.0498C164.795 72.6881 175.031 68.0072 187.396 68.0072C199.762 68.0072 209.613 72.3387 216.949 81.0018C224.354 89.5951 228.372 100.494 229 113.698H160.15V116.842C160.15 139.268 164.202 152.507 172.306 156.56C180.48 160.542 186.733 162.533 191.064 162.533C195.396 162.533 199.902 161.729 204.583 160.123C209.264 158.516 213.141 155.931 216.215 152.368C219.289 148.735 221.176 146.15 221.874 144.613V152.577ZM186.872 70.9415C179.118 70.9415 172.9 74.5394 168.219 81.7354C163.608 88.9314 160.953 98.5726 160.254 110.659H213.071C212.163 95.4986 209.508 85.0889 205.107 79.4299C200.705 73.7709 194.627 70.9415 186.872 70.9415ZM308.855 82.6786C301.03 74.8538 290.515 70.9415 277.311 70.9415C272.49 70.9415 267.879 72.2689 263.478 74.9237C259.147 77.5087 256.981 81.3512 256.981 86.4512C256.981 92.2499 259.845 96.4767 265.574 99.1315C271.303 101.716 276.088 103.847 279.931 105.524C283.773 107.201 286.743 108.528 288.839 109.506C291.004 110.414 293.694 111.672 296.908 113.279C300.122 114.886 303.405 116.877 306.759 119.252C310.182 121.628 312.872 124.492 314.828 127.846C316.854 131.199 317.867 135.146 317.867 139.687C317.867 147.233 314.688 153.416 308.331 158.236C302.043 163.057 291.808 165.467 277.625 165.467C263.443 165.467 252.509 161.974 244.824 154.988V147.023C250.134 153.381 256.247 157.573 263.164 159.599C270.15 161.555 275.704 162.533 279.826 162.533C288.14 162.533 294.428 160.786 298.689 157.293C303.021 153.8 305.187 149.783 305.187 145.242C305.187 140.7 303.615 137.242 300.471 134.867C297.327 132.491 295.266 130.954 294.288 130.256C293.38 129.487 291.668 128.474 289.153 127.217C286.638 125.889 282.97 124.143 278.149 121.977C268.718 117.715 261.033 113.314 255.094 108.773C249.226 104.162 246.292 98.1883 246.292 90.8526C246.292 83.5169 249.505 77.8929 255.933 73.9805C262.43 69.9983 270.988 68.0072 281.608 68.0072C292.227 68.0072 301.309 70.5223 308.855 75.5525V82.6786ZM341.132 164V69.7887H356.222V164H341.132ZM342.389 47.6768C340.712 45.9302 339.874 43.8693 339.874 41.4939C339.874 39.0487 340.712 36.9877 342.389 35.3109C344.136 33.5643 346.232 32.6911 348.677 32.6911C351.122 32.6911 353.183 33.5643 354.86 35.3109C356.606 36.9877 357.48 39.0487 357.48 41.4939C357.48 43.8693 356.606 45.9302 354.86 47.6768C353.183 49.4234 351.122 50.2967 348.677 50.2967C346.232 50.2967 344.136 49.4234 342.389 47.6768ZM394.368 78.4867C402.053 71.5004 412.113 68.0072 424.549 68.0072C436.985 68.0072 447.115 72.5134 454.94 81.5258C458.782 78.382 460.703 73.2819 460.703 66.2257H472.755C472.755 69.9983 471.183 73.5963 468.039 77.0196C464.895 80.3731 461.193 82.7484 456.931 84.1457C461.332 90.2937 463.568 97.2452 463.638 105C463.638 115.549 460.179 123.898 453.263 130.046C446.416 136.194 437.299 140.107 425.911 141.783C406.14 144.648 396.289 147.861 396.359 151.425C396.359 153.87 399.293 155.966 405.162 157.712C411.1 159.459 420.148 161.24 432.304 163.057C444.46 164.873 454.206 167.947 461.542 172.279C468.947 176.68 472.65 181.71 472.65 187.369C472.65 193.028 470.38 197.884 465.838 201.936C461.297 205.988 455.289 209.097 447.814 211.263C440.338 213.498 432.304 214.616 423.711 214.616C415.117 214.616 407.083 213.498 399.608 211.263C392.132 209.097 386.124 205.988 381.583 201.936C377.042 197.884 374.771 193.378 374.771 188.417C374.771 181.71 378.753 175.947 386.718 171.126C394.752 166.375 404.498 164 415.956 164H417.528C412.777 163.651 405.721 162.568 396.359 160.751C387.067 158.935 382.421 155.826 382.421 151.425C382.421 147.372 387.067 144.718 396.359 143.46C405.651 142.133 411.519 141.364 413.965 141.155C404.743 139.338 397.232 135.146 391.434 128.579C385.705 122.012 382.84 113.768 382.84 103.847C382.84 93.9266 386.683 85.4731 394.368 78.4867ZM434.924 73.6662C431.64 71.8497 427.763 70.9415 423.291 70.9415C418.82 70.9415 414.908 71.8497 411.554 73.6662C408.201 75.4127 405.581 77.9278 403.695 81.2114C401.808 84.4252 400.411 88.0232 399.503 92.0054C398.595 95.9178 398.14 101.472 398.14 108.668C398.14 115.794 400.062 122.641 403.904 129.208C407.747 135.705 414.174 138.954 423.187 138.954C435.832 138.954 443.168 134.483 445.194 125.54C447.29 116.528 448.338 109.681 448.338 105C448.338 100.249 447.883 95.9178 446.975 92.0054C446.067 88.0232 444.67 84.4252 442.783 81.2114C440.897 77.9278 438.277 75.4127 434.924 73.6662ZM398.979 205.08C405.406 209.481 413.65 211.682 423.711 211.682C433.771 211.682 442.015 209.481 448.442 205.08C454.87 200.748 458.084 195.194 458.084 188.417C458.084 181.71 454.835 176.191 448.338 171.86C441.91 167.528 433.701 165.362 423.711 165.362C413.72 165.362 405.476 167.528 398.979 171.86C392.551 176.191 389.338 181.71 389.338 188.417C389.338 195.194 392.551 200.748 398.979 205.08ZM555.334 164V103.952C555.334 95.0095 554.74 88.4423 553.552 84.2505C552.435 79.9888 550.478 76.7052 547.684 74.3997C544.959 72.0942 541.082 70.9415 536.052 70.9415C531.021 70.9415 526.445 72.5134 522.323 75.6573C518.271 78.8011 514.533 84.1806 511.11 91.7958C507.687 99.4109 505.975 109.367 505.975 121.663V164H490.989V69.7887H505.975V104.371C508.351 87.0451 513.241 76.6703 520.647 73.247C528.122 69.7538 534.27 68.0072 539.091 68.0072C548.732 68.0072 556.347 71.2559 561.936 77.7532C567.595 84.2505 570.425 92.9835 570.425 103.952V164H555.334Z" fill="#F57D02"/>
<path d="M153.437 32.0012H155.966L160.611 44.1309L166.272 31.6227L172.122 44.1309L176.784 32.0012H177.335L171.244 47.8473L165.291 35.081L159.528 47.8473L153.437 32.0012ZM191.202 45.5934C190.078 47.0042 188.232 47.7096 185.662 47.7096C184.745 47.7096 183.804 47.4974 182.841 47.073C181.889 46.6372 180.925 45.8572 179.95 44.7331C178.987 43.5976 178.505 41.9115 178.505 39.6748C178.505 37.4381 179.17 35.5512 180.501 34.0142C181.831 32.4772 183.512 31.7087 185.542 31.7087C187.572 31.7087 189.189 32.4199 190.394 33.8422C191.61 35.253 192.269 37.0424 192.372 39.2102H181.069V39.7264C181.069 43.4083 181.734 45.5819 183.064 46.2472C184.406 46.901 185.433 47.2279 186.144 47.2279C186.855 47.2279 187.595 47.096 188.364 46.8322C189.132 46.5683 189.769 46.1439 190.273 45.559C190.778 44.9625 191.088 44.5381 191.202 44.2858V45.5934ZM185.456 32.1905C184.183 32.1905 183.162 32.7812 182.393 33.9626C181.636 35.1441 181.2 36.7269 181.086 38.7113H189.757C189.608 36.2222 189.172 34.5132 188.45 33.5841C187.727 32.655 186.729 32.1905 185.456 32.1905ZM196.054 47.4688V23.5362H198.532V47.4688H196.054ZM204.502 34.0314C205.982 32.483 207.742 31.7087 209.784 31.7087C211.826 31.7087 213.489 32.1733 214.774 33.1024V34.4616C214.212 33.5325 213.437 32.9246 212.451 32.6378C211.464 32.3396 210.65 32.1905 210.008 32.1905C208.861 32.1905 207.714 32.7009 206.567 33.7217C205.42 34.7426 204.846 36.7441 204.846 39.7264C204.846 41.9745 205.328 43.7868 206.291 45.1632C207.255 46.5397 208.649 47.2279 210.472 47.2279C211.723 47.2279 212.726 46.9583 213.483 46.4192C214.252 45.8801 214.797 45.341 215.118 44.8019V46.1612C214.475 46.8035 213.644 47.2221 212.623 47.4171C211.614 47.6121 210.805 47.7096 210.197 47.7096C207.937 47.7096 206.051 46.9698 204.537 45.4901C203.034 43.999 202.283 42.1007 202.283 39.7952C202.283 37.4897 203.022 35.5684 204.502 34.0314ZM219.677 34.0486C221.088 32.4887 222.837 31.7087 224.925 31.7087C227.012 31.7087 228.762 32.4887 230.172 34.0486C231.583 35.6086 232.289 37.5184 232.289 39.778C232.289 42.0262 231.583 43.913 230.172 45.4385C228.773 46.9526 227.024 47.7096 224.925 47.7096C222.826 47.7096 221.071 46.9526 219.66 45.4385C218.261 43.913 217.561 42.0262 217.561 39.778C217.561 37.5184 218.266 35.6086 219.677 34.0486ZM224.718 47.2279C226.496 47.2279 227.775 46.5167 228.555 45.0944C229.335 43.6607 229.725 41.8828 229.725 39.7608C229.725 37.6388 229.335 35.8495 228.555 34.3928C227.775 32.9246 226.387 32.1905 224.391 32.1905C222.407 32.1905 221.197 33.1884 220.761 35.1842C220.337 37.18 220.124 38.7973 220.124 40.0361C220.124 41.2749 220.285 42.4391 220.606 43.5287C220.927 44.6069 221.449 45.4959 222.172 46.1956C222.906 46.8838 223.755 47.2279 224.718 47.2279ZM246.053 47.4688V37.6101C246.053 35.9126 245.95 34.8114 245.743 34.3067C245.537 33.802 245.273 33.326 244.952 32.8787C244.642 32.4199 244.063 32.1905 243.214 32.1905C242.365 32.1905 241.62 32.4486 240.977 32.9647C240.335 33.4809 239.727 34.3698 239.153 35.6315C238.58 36.8933 238.293 38.5105 238.293 40.4834V47.4688H235.833V32.0012H238.293V37.6962C238.718 34.8172 239.521 33.1024 240.702 32.5518C241.895 31.9898 242.841 31.7087 243.541 31.7087C245.112 31.7087 246.334 32.2421 247.206 33.3088C248.077 34.3641 248.513 35.7979 248.513 37.6101V37.7306C248.949 34.8172 249.758 33.0852 250.939 32.5346C252.132 31.984 253.078 31.7087 253.778 31.7087C255.349 31.7087 256.571 32.2421 257.443 33.3088C258.314 34.3641 258.75 35.7979 258.75 37.6101V47.4688H256.29V37.6101C256.29 35.9126 256.187 34.8114 255.98 34.3067C255.774 33.802 255.51 33.326 255.189 32.8787C254.879 32.4199 254.3 32.1905 253.451 32.1905C252.602 32.1905 251.857 32.4486 251.214 32.9647C250.572 33.4809 249.958 34.3755 249.373 35.6487C248.8 36.9219 248.513 38.5335 248.513 40.4834V47.4688H246.053ZM274.889 45.5934C273.765 47.0042 271.918 47.7096 269.349 47.7096C268.431 47.7096 267.491 47.4974 266.527 47.073C265.575 46.6372 264.612 45.8572 263.637 44.7331C262.673 43.5976 262.191 41.9115 262.191 39.6748C262.191 37.4381 262.857 35.5512 264.187 34.0142C265.518 32.4772 267.198 31.7087 269.228 31.7087C271.259 31.7087 272.876 32.4199 274.08 33.8422C275.296 35.253 275.956 37.0424 276.059 39.2102H264.755V39.7264C264.755 43.4083 265.42 45.5819 266.751 46.2472C268.093 46.901 269.119 47.2279 269.83 47.2279C270.542 47.2279 271.281 47.096 272.05 46.8322C272.818 46.5683 273.455 46.1439 273.96 45.559C274.464 44.9625 274.774 44.5381 274.889 44.2858V45.5934ZM269.142 32.1905C267.869 32.1905 266.848 32.7812 266.08 33.9626C265.323 35.1441 264.887 36.7269 264.772 38.7113H273.444C273.294 36.2222 272.859 34.5132 272.136 33.5841C271.413 32.655 270.415 32.1905 269.142 32.1905ZM293.075 46.9182C293.373 47.0558 293.717 47.1246 294.107 47.1246C294.497 47.1246 294.921 47.0558 295.38 46.9182V47.4171C294.979 47.5433 294.468 47.6064 293.849 47.6064C293.23 47.6064 292.501 47.4401 291.664 47.1074C290.827 46.7748 290.207 46.0694 289.806 44.9912C289.404 43.913 289.204 42.5653 289.204 40.948V32.5002H286.571V32.0012H289.204V28.13L291.681 26.3579V32.0012H296.155V32.5002H291.681V42.1695C291.681 43.8212 291.756 44.8421 291.905 45.2321C292.054 45.6221 292.215 45.9662 292.387 46.2644C292.559 46.5511 292.788 46.7691 293.075 46.9182ZM299.75 34.0486C301.161 32.4887 302.91 31.7087 304.998 31.7087C307.086 31.7087 308.835 32.4887 310.246 34.0486C311.656 35.6086 312.362 37.5184 312.362 39.778C312.362 42.0262 311.656 43.913 310.246 45.4385C308.846 46.9526 307.097 47.7096 304.998 47.7096C302.899 47.7096 301.144 46.9526 299.733 45.4385C298.334 43.913 297.634 42.0262 297.634 39.778C297.634 37.5184 298.34 35.6086 299.75 34.0486ZM304.792 47.2279C306.569 47.2279 307.848 46.5167 308.628 45.0944C309.408 43.6607 309.798 41.8828 309.798 39.7608C309.798 37.6388 309.408 35.8495 308.628 34.3928C307.848 32.9246 306.46 32.1905 304.465 32.1905C302.48 32.1905 301.27 33.1884 300.834 35.1842C300.41 37.18 300.198 38.7973 300.198 40.0361C300.198 41.2749 300.358 42.4391 300.679 43.5287C301.001 44.6069 301.523 45.4959 302.245 46.1956C302.979 46.8838 303.828 47.2279 304.792 47.2279Z" fill="white"/>
<path d="M492.363 198.042C492.363 201.529 493.263 204.391 495.064 206.628C496.865 208.853 499.136 209.966 501.877 209.966C503.391 209.966 504.837 209.679 506.213 209.105C507.589 208.52 508.782 207.74 509.792 206.765V208.107C507.704 209.667 505.066 210.453 501.877 210.465C500.134 210.465 498.488 210.143 496.939 209.501C495.402 208.859 494.083 207.993 492.982 206.903C491.881 205.802 491.003 204.483 490.35 202.946C489.707 201.409 489.386 199.774 489.386 198.042C489.386 196.31 489.707 194.676 490.35 193.139C491.003 191.602 491.881 190.283 492.982 189.182C494.083 188.081 495.402 187.215 496.939 186.584C498.488 185.941 500.134 185.62 501.877 185.62C504.561 185.62 506.981 186.182 509.138 187.306V188.562C507.073 186.933 504.653 186.113 501.877 186.102C500.076 186.102 498.453 186.607 497.008 187.616C495.563 188.625 494.427 190.042 493.601 191.866C492.776 193.678 492.363 195.737 492.363 198.042ZM525.053 208.125C523.929 209.535 522.082 210.241 519.513 210.241C518.595 210.241 517.654 210.029 516.691 209.604C515.739 209.168 514.775 208.388 513.8 207.264C512.837 206.129 512.355 204.443 512.355 202.206C512.355 199.969 513.02 198.082 514.351 196.545C515.682 195.008 517.362 194.24 519.392 194.24C521.422 194.24 523.04 194.951 524.244 196.373C525.46 197.784 526.119 199.574 526.223 201.741H514.919V202.258C514.919 205.94 515.584 208.113 516.915 208.778C518.257 209.432 519.283 209.759 519.994 209.759C520.706 209.759 521.445 209.627 522.214 209.363C522.982 209.1 523.619 208.675 524.124 208.09C524.628 207.494 524.938 207.069 525.053 206.817V208.125ZM519.306 194.722C518.033 194.722 517.012 195.312 516.244 196.494C515.487 197.675 515.051 199.258 514.936 201.243H523.607C523.458 198.753 523.022 197.044 522.3 196.115C521.577 195.186 520.579 194.722 519.306 194.722ZM540.262 210V200.141C540.262 198.673 540.165 197.595 539.97 196.907C539.786 196.207 539.465 195.668 539.006 195.29C538.559 194.911 537.922 194.722 537.096 194.722C536.271 194.722 535.519 194.98 534.842 195.496C534.177 196.012 533.564 196.895 533.002 198.146C532.439 199.396 532.158 201.03 532.158 203.049V210H529.698V194.532H532.158V200.21C532.548 197.366 533.351 195.662 534.567 195.1C535.795 194.527 536.804 194.24 537.595 194.24C539.178 194.24 540.428 194.773 541.346 195.84C542.275 196.907 542.74 198.341 542.74 200.141V210H540.262ZM551.807 209.449C552.105 209.587 552.449 209.656 552.839 209.656C553.229 209.656 553.654 209.587 554.112 209.449V209.948C553.711 210.075 553.2 210.138 552.581 210.138C551.962 210.138 551.233 209.971 550.396 209.639C549.559 209.306 548.939 208.601 548.538 207.522C548.136 206.444 547.936 205.097 547.936 203.479V195.031H545.303V194.532H547.936V190.661L550.413 188.889V194.532H554.887V195.031H550.413V204.701C550.413 206.352 550.488 207.373 550.637 207.763C550.786 208.153 550.947 208.497 551.119 208.796C551.291 209.082 551.52 209.3 551.807 209.449ZM569.064 208.125C567.94 209.535 566.093 210.241 563.524 210.241C562.606 210.241 561.665 210.029 560.702 209.604C559.75 209.168 558.786 208.388 557.811 207.264C556.848 206.129 556.366 204.443 556.366 202.206C556.366 199.969 557.032 198.082 558.362 196.545C559.693 195.008 561.373 194.24 563.403 194.24C565.433 194.24 567.051 194.951 568.255 196.373C569.471 197.784 570.13 199.574 570.234 201.741H558.93V202.258C558.93 205.94 559.595 208.113 560.926 208.778C562.268 209.432 563.294 209.759 564.005 209.759C564.717 209.759 565.456 209.627 566.225 209.363C566.993 209.1 567.63 208.675 568.135 208.09C568.639 207.494 568.949 207.069 569.064 206.817V208.125ZM563.317 194.722C562.044 194.722 561.023 195.312 560.255 196.494C559.498 197.675 559.062 199.258 558.947 201.243H567.618C567.469 198.753 567.034 197.044 566.311 196.115C565.588 195.186 564.59 194.722 563.317 194.722ZM581.847 194.206V195.84C579.989 195.84 578.578 196.523 577.615 197.887C576.651 199.252 576.17 201.042 576.17 203.256V210H573.709V194.532H576.17V200.021C576.445 198.541 576.995 197.285 577.821 196.253C578.911 194.888 580.253 194.206 581.847 194.206Z" fill="white"/>
</svg>
