<svg width="1920" height="381" viewBox="0 0 1920 381" fill="none" xmlns="http://www.w3.org/2000/svg">
<path opacity="0.1" d="M1758.22 371.151V210.05L1638.34 7.05571H1690.79L1800.68 194.028L1910.28 7.05571H1926L1804.79 214.459V374.239H1758.22V371.151ZM1446.47 194.91H1484.37C1500.68 194.91 1514.63 193.146 1526.39 189.471C1537.99 185.943 1547.54 180.505 1554.74 173.449C1561.94 166.394 1567.52 157.28 1571.2 146.55C1574.87 135.525 1576.78 122.737 1576.78 107.891C1576.78 78.493 1569.43 56.5913 1554.89 42.1862C1547.69 34.9837 1538.14 29.6921 1526.53 26.1643C1514.78 22.4896 1500.68 20.7257 1484.37 20.7257H1446.47V195.057V194.91ZM1497.89 208.58H1455.43L1651.41 368.8L1649.5 374.239H1638.04L1636.13 373.503L1446.61 218.722V374.239H1400.04V7.05571H1498.03C1515.66 7.05571 1531.97 9.11333 1547.1 13.2291C1562.24 17.3448 1576.05 23.6657 1588.53 31.8972C1601.17 40.4226 1610.72 51.006 1617.04 63.6472C1623.35 76.2884 1626.58 91.1342 1626.58 107.891C1626.58 119.062 1624.38 130.234 1619.97 141.552C1615.57 152.723 1609.1 163.748 1600.43 174.919C1591.47 186.237 1578.4 194.763 1561.21 200.348C1544.31 205.934 1523.3 208.727 1498.18 208.727L1497.89 208.58ZM1342.45 20.5786H1187.45V180.064H1319.82V193.734H1187.45V360.421H1345.39V374.091H1140.73V6.90858H1345.39V20.5786H1342.3H1342.45ZM907.136 371.005V6.90858H953.708V360.421H1092.69V374.091H906.989V371.005H907.136ZM673.392 371.005V6.90858H719.965V360.421H858.947V374.091H673.245V371.005H673.392ZM579.366 372.18L536.025 261.497H417.758L423.047 247.973H530.736L462.42 74.0834C423.194 174.184 383.82 274.138 344.594 374.385H329.902L476.818 0H482.548L629.464 374.385H580.1L579.366 372.474V372.18ZM149.93 367.477C169.322 367.477 187.099 365.566 203.26 361.597C218.833 357.922 232.937 352.337 245.572 345.134V183.592H291.998V339.842L290.675 340.724C272.017 354.247 250.861 364.243 227.354 371.005C203.848 377.766 178.137 381 149.93 381C132.153 381 115.257 378.942 98.9496 374.826C82.6419 370.71 67.2157 364.39 52.3771 356.159C37.5386 347.927 24.3161 337.932 12.5628 326.613C0.809547 315.148 -9.3277 302.066 -17.9958 287.514C-26.6638 272.962 -33.1282 258.116 -37.5356 243.123C-41.9431 227.983 -44 212.696 -44 197.262C-44 181.828 -42.6777 167.423 -40.1801 153.753C-37.6826 140.082 -33.8628 127.441 -28.7207 115.535C-23.5786 103.776 -17.702 92.8982 -10.7969 82.7558C-3.89183 72.6135 3.89476 63.3531 12.4159 54.8277C21.084 46.4492 30.6336 38.8056 40.9177 32.191C51.2018 25.5764 62.3674 19.6969 74.4146 14.8462C86.4617 9.99551 98.6557 6.32089 111.29 3.96903C123.925 1.47019 136.707 0.294268 149.93 0.294268C172.702 0.294268 194.151 2.7928 214.279 7.79049C234.406 12.7882 253.065 20.2847 270.401 30.28L271.87 31.1619V58.6496L266.728 54.0925C259.529 47.6249 251.596 41.8926 242.781 37.0419C234.113 32.0443 224.563 27.7811 214.279 24.2534C203.995 20.7256 193.417 18.0801 182.692 16.3162C171.967 14.5523 161.095 13.67 149.783 13.67C129.508 13.67 110.85 17.7862 93.9544 26.0176C76.9121 34.2491 61.6328 46.743 47.9696 63.3529C34.1595 79.9629 23.8753 98.9249 16.9703 120.092C10.0652 141.258 6.68618 164.777 6.68618 190.647C6.68618 216.517 10.506 240.33 17.9987 262.378C21.8185 273.403 26.226 283.545 31.2212 292.952C36.3632 302.36 42.0929 310.885 48.4103 318.529C54.7277 326.172 61.7797 333.081 69.4194 339.108C76.9121 345.134 85.1395 350.279 93.8075 354.541C102.622 358.804 111.731 362.038 120.987 364.243C130.243 366.448 139.939 367.477 149.93 367.477Z" fill="white"/>
</svg>
