<svg width="819" height="114" viewBox="0 0 819 114" fill="none" xmlns="http://www.w3.org/2000/svg">
<path opacity="0.05" d="M-574.36 102.867C-564.333 102.867 -555.903 100.848 -549.07 96.8106V55.7476H-538.755V94.6144C-548.205 101.403 -560.074 104.797 -574.36 104.797C-583.323 104.797 -591.553 102.712 -599.051 98.541C-606.505 94.326 -612.428 88.5359 -616.821 81.1707C-621.169 73.8056 -623.343 66.2185 -623.343 58.4097C-623.343 50.6008 -622.056 43.7237 -619.483 37.7784C-616.91 31.833 -613.449 26.7306 -609.101 22.4712C-604.708 18.2119 -599.495 14.8621 -593.461 12.4218C-587.382 9.93715 -581.016 8.69484 -574.36 8.69484C-562.78 8.69484 -552.62 11.2238 -543.879 16.2818V21.1402C-547.65 17.7682 -552.22 15.1726 -557.589 13.3535C-562.958 11.49 -568.548 10.5583 -574.36 10.5583C-585.009 10.5583 -593.927 14.9064 -601.114 23.6026C-608.302 32.2989 -611.896 43.3466 -611.896 56.7459C-611.896 63.4455 -610.92 69.6571 -608.968 75.3806C-607.015 81.1042 -604.376 85.9847 -601.048 90.0222C-597.676 94.0598 -593.705 97.2099 -589.135 99.4727C-584.521 101.735 -579.596 102.867 -574.36 102.867ZM-430.673 37.7784C-428.1 43.7237 -426.813 50.0684 -426.813 56.8124C-426.813 63.5564 -428.1 69.9455 -430.673 75.9796C-433.202 81.9693 -436.663 87.0495 -441.055 91.2202C-445.403 95.3908 -450.594 98.6963 -456.629 101.137C-462.618 103.577 -468.963 104.797 -475.663 104.797C-482.318 104.797 -488.663 103.577 -494.697 101.137C-500.731 98.6963 -505.944 95.3908 -510.337 91.2202C-514.685 87.0495 -518.145 81.9693 -520.719 75.9796C-523.292 69.9455 -524.579 63.024 -524.579 55.2152C-524.579 47.4063 -522.405 39.7971 -518.057 32.3876C-513.664 24.9781 -507.719 19.188 -500.221 15.0173C-492.722 10.8023 -485.069 8.69484 -477.26 8.69484C-469.451 8.69484 -462.552 9.93715 -456.562 12.4218C-450.572 14.8621 -445.403 18.2119 -441.055 22.4712C-436.663 26.7306 -433.202 31.833 -430.673 37.7784ZM-502.816 90.0888C-495.895 98.6075 -486.843 102.867 -475.663 102.867C-464.482 102.867 -455.453 98.6075 -448.576 90.0888C-441.654 81.5257 -438.193 70.4335 -438.193 56.8124C-438.193 43.1913 -441.654 32.077 -448.576 23.4695C-455.453 14.8621 -464.482 10.5583 -475.663 10.5583C-486.843 10.5583 -495.895 14.8621 -502.816 23.4695C-509.693 32.077 -513.132 43.1913 -513.132 56.8124C-513.132 70.4335 -509.693 81.5257 -502.816 90.0888ZM-321.527 37.7784C-318.953 43.7237 -317.667 50.0684 -317.667 56.8124C-317.667 63.5564 -318.953 69.9455 -321.527 75.9796C-324.056 81.9693 -327.516 87.0495 -331.909 91.2202C-336.257 95.3908 -341.448 98.6963 -347.482 101.137C-353.472 103.577 -359.817 104.797 -366.516 104.797C-373.171 104.797 -379.516 103.577 -385.55 101.137C-391.584 98.6963 -396.798 95.3908 -401.19 91.2202C-405.538 87.0495 -408.999 81.9693 -411.572 75.9796C-414.146 69.9455 -415.432 63.024 -415.432 55.2152C-415.432 47.4063 -413.258 39.7971 -408.91 32.3876C-404.518 24.9781 -398.572 19.188 -391.074 15.0173C-383.576 10.8023 -375.922 8.69484 -368.113 8.69484C-360.305 8.69484 -353.405 9.93715 -347.416 12.4218C-341.426 14.8621 -336.257 18.2119 -331.909 22.4712C-327.516 26.7306 -324.056 31.833 -321.527 37.7784ZM-393.67 90.0888C-386.748 98.6075 -377.697 102.867 -366.516 102.867C-355.335 102.867 -346.306 98.6075 -339.429 90.0888C-332.508 81.5257 -329.047 70.4335 -329.047 56.8124C-329.047 43.1913 -332.508 32.077 -339.429 23.4695C-346.306 14.8621 -355.335 10.5583 -366.516 10.5583C-377.697 10.5583 -386.748 14.8621 -393.67 23.4695C-400.547 32.077 -403.985 43.1913 -403.985 56.8124C-403.985 70.4335 -400.547 81.5257 -393.67 90.0888ZM-279.465 103H-303.291V10.4252H-279.465C-270.37 10.4252 -262.028 12.3996 -254.441 16.3484C-246.854 20.2528 -240.82 25.7545 -236.339 32.8535C-231.814 39.9524 -229.551 47.9166 -229.551 56.7459C-229.551 65.5308 -231.814 73.495 -236.339 80.6383C-240.82 87.7372 -246.854 93.2389 -254.441 97.1434C-262.028 101.048 -270.37 103 -279.465 103ZM-292.909 12.3552V101.07H-279.731C-268.861 101.07 -260.675 98.1417 -255.174 92.285C-249.627 86.384 -245.812 80.6383 -243.726 75.0479C-241.641 69.4131 -240.599 63.3124 -240.599 56.7459C-240.599 50.135 -241.641 44.0343 -243.726 38.4439C-245.812 32.8091 -249.627 27.0634 -255.174 21.2067C-260.675 15.3057 -268.861 12.3552 -279.731 12.3552H-292.909ZM-213.245 25.8654C-213.245 28.1726 -212.935 29.9695 -212.314 31.2562C-211.648 32.4985 -211.116 33.4524 -210.716 34.118C-210.317 34.7835 -209.585 35.6265 -208.52 36.647C-207.455 37.6231 -206.634 38.3995 -206.058 38.9763C-205.436 39.5531 -204.305 40.4405 -202.663 41.6384C-201.022 42.8364 -199.802 43.7237 -199.003 44.3005C-198.16 44.8773 -196.652 45.92 -194.477 47.4285C-192.259 48.8927 -190.662 49.9797 -189.686 50.6896C-188.71 51.3551 -187.268 52.3756 -185.36 53.751C-183.452 55.1264 -182.054 56.2135 -181.167 57.0121C-180.235 57.8107 -179.037 58.8977 -177.573 60.2732C-176.065 61.6042 -174.489 63.379 -172.848 65.5974C-171.206 67.8158 -169.986 70.0786 -169.187 72.3858C-168.389 74.6486 -167.99 77.3328 -167.99 80.4386C-167.99 83.5001 -168.633 86.4284 -169.92 89.2236C-171.206 92.0188 -172.87 94.326 -174.911 96.1451C-176.908 97.9642 -179.259 99.4949 -181.966 100.737C-184.672 101.935 -187.401 102.778 -190.152 103.266C-192.858 103.799 -196.341 104.065 -200.6 104.065C-204.86 104.065 -209.141 103.155 -213.445 101.336C-217.704 99.5171 -220.655 97.942 -222.297 96.6109L-223.494 95.7458V91.2202C-222.785 92.0632 -220.211 94.1041 -215.774 97.343C-211.337 100.582 -205.192 102.201 -197.339 102.201C-191.571 102.201 -186.78 100.538 -182.964 97.2099C-179.148 93.8823 -177.24 89.7782 -177.24 84.8977C-177.24 80.0171 -178.682 75.7578 -181.566 72.1196C-184.45 68.4813 -189.419 64.1554 -196.474 59.1418C-199.181 57.1896 -201.199 55.7476 -202.53 54.8159C-203.817 53.8841 -205.525 52.5974 -207.655 50.9558C-209.785 49.2698 -211.936 47.4063 -214.111 45.3654C-216.24 43.2801 -217.971 40.9285 -219.302 38.3108C-220.588 35.6487 -221.232 32.7204 -221.232 29.5258C-221.232 26.3313 -220.455 23.403 -218.902 20.7409C-217.349 18.0344 -214.643 15.4388 -210.783 12.9542C-206.923 10.4252 -201.909 9.16071 -195.742 9.16071C-189.575 9.16071 -184.162 10.1146 -179.503 12.0225L-177.373 12.9542V17.147C-177.595 16.9696 -178.061 16.5924 -178.771 16.0156C-179.481 15.4388 -181.433 14.4849 -184.628 13.1539C-187.822 11.7784 -191.66 11.0907 -196.141 11.0907C-200.623 11.0907 -204.593 12.4662 -208.054 15.217C-211.515 17.9235 -213.245 21.473 -213.245 25.8654ZM-124.863 113.116H-126.86L-82.669 0.309198H-80.6058L-124.863 113.116ZM-28.6282 25.8654C-28.6282 28.1726 -28.3176 29.9695 -27.6964 31.2562C-27.0309 32.4985 -26.4985 33.4524 -26.0992 34.118C-25.6999 34.7835 -24.9678 35.6265 -23.9029 36.647C-22.8381 37.6231 -22.0173 38.3995 -21.4405 38.9763C-20.8193 39.5531 -19.6879 40.4405 -18.0463 41.6384C-16.4047 42.8364 -15.1845 43.7237 -14.3859 44.3005C-13.5429 44.8773 -12.0344 45.92 -9.86033 47.4285C-7.6419 48.8927 -6.04464 49.9797 -5.06853 50.6896C-4.09243 51.3551 -2.65045 52.3756 -0.742607 53.751C1.16524 55.1264 2.56284 56.2135 3.45021 57.0121C4.38195 57.8107 5.5799 58.8977 7.04406 60.2732C8.55259 61.6042 10.1277 63.379 11.7693 65.5974C13.4109 67.8158 14.6311 70.0786 15.4297 72.3858C16.2283 74.6486 16.6276 77.3328 16.6276 80.4386C16.6276 83.5001 15.9843 86.4284 14.6976 89.2236C13.4109 92.0188 11.7471 94.326 9.70617 96.1451C7.70958 97.9642 5.35806 99.4949 2.65158 100.737C-0.0548957 101.935 -2.78356 102.778 -5.5344 103.266C-8.24088 103.799 -11.7238 104.065 -15.9832 104.065C-20.2425 104.065 -24.5241 103.155 -28.8278 101.336C-33.0872 99.5171 -36.0377 97.942 -37.6794 96.6109L-38.8773 95.7458V91.2202C-38.1674 92.0632 -35.594 94.1041 -31.1572 97.343C-26.7203 100.582 -20.5753 102.201 -12.7221 102.201C-6.95419 102.201 -2.1624 100.538 1.65329 97.2099C5.46898 93.8823 7.37682 89.7782 7.37682 84.8977C7.37682 80.0171 5.93485 75.7578 3.0509 72.1196C0.166947 68.4813 -4.80232 64.1554 -11.8569 59.1418C-14.5634 57.1896 -16.5821 55.7476 -17.9132 54.8159C-19.1999 53.8841 -20.9081 52.5974 -23.0378 50.9558C-25.1674 49.2698 -27.3193 47.4063 -29.4934 45.3654C-31.6231 43.2801 -33.3534 40.9285 -34.6845 38.3108C-35.9712 35.6487 -36.6145 32.7204 -36.6145 29.5258C-36.6145 26.3313 -35.8381 23.403 -34.2852 20.7409C-32.7323 18.0344 -30.0258 15.4388 -26.1657 12.9542C-22.3057 10.4252 -17.292 9.16071 -11.1248 9.16071C-4.95761 9.16071 0.455342 10.1146 5.11403 12.0225L7.24372 12.9542V17.147C7.02187 16.9696 6.556 16.5924 5.84611 16.0156C5.13621 15.4388 3.184 14.4849 -0.0105272 13.1539C-3.20506 11.7784 -7.04293 11.0907 -11.5241 11.0907C-16.0054 11.0907 -19.9763 12.4662 -23.4371 15.217C-26.8978 17.9235 -28.6282 21.473 -28.6282 25.8654ZM104.477 10.4252V103H94.095V56.7459H41.0525V103H30.6703V10.4252H41.0525V54.8159H94.095V10.4252H104.477ZM212.758 37.7784C215.332 43.7237 216.618 50.0684 216.618 56.8124C216.618 63.5564 215.332 69.9455 212.758 75.9796C210.229 81.9693 206.769 87.0495 202.376 91.2202C198.028 95.3908 192.837 98.6963 186.803 101.137C180.813 103.577 174.468 104.797 167.769 104.797C161.114 104.797 154.769 103.577 148.735 101.137C142.701 98.6963 137.487 95.3908 133.095 91.2202C128.747 87.0495 125.286 81.9693 122.713 75.9796C120.139 69.9455 118.853 63.024 118.853 55.2152C118.853 47.4063 121.027 39.7971 125.375 32.3876C129.767 24.9781 135.713 19.188 143.211 15.0173C150.709 10.8023 158.363 8.69484 166.172 8.69484C173.98 8.69484 180.88 9.93715 186.869 12.4218C192.859 14.8621 198.028 18.2119 202.376 22.4712C206.769 26.7306 210.229 31.833 212.758 37.7784ZM140.615 90.0888C147.537 98.6075 156.588 102.867 167.769 102.867C178.95 102.867 187.979 98.6075 194.856 90.0888C201.777 81.5257 205.238 70.4335 205.238 56.8124C205.238 43.1913 201.777 32.077 194.856 23.4695C187.979 14.8621 178.95 10.5583 167.769 10.5583C156.588 10.5583 147.537 14.8621 140.615 23.4695C133.738 32.077 130.3 43.1913 130.3 56.8124C130.3 70.4335 133.738 81.5257 140.615 90.0888ZM218.016 10.4252H228.864L256.883 86.4949L284.835 8.89449L315.582 86.8277L342.203 10.4252H344.333L311.656 104.597L280.576 26.0651L252.69 104.597L218.016 10.4252ZM382.068 60.5394H368.958L420.935 103H418.007L368.092 62.2698V103H357.71V10.4252H382.068C390.987 10.4252 398.574 12.5105 404.83 16.6812C411.085 20.8518 414.213 27.1299 414.213 35.5156C414.213 41.0616 412.017 46.6299 407.625 52.2203C403.277 57.7664 394.758 60.5394 382.068 60.5394ZM368.092 58.6094H378.608C387.082 58.6094 393.272 56.7015 397.176 52.8858C401.125 49.0701 403.099 43.2801 403.099 35.5156C403.099 27.7511 401.147 21.961 397.242 18.1453C393.338 14.2853 387.126 12.3552 378.608 12.3552H368.092V58.6094ZM517.703 37.7784C520.276 43.7237 521.563 50.0684 521.563 56.8124C521.563 63.5564 520.276 69.9455 517.703 75.9796C515.174 81.9693 511.713 87.0495 507.321 91.2202C502.973 95.3908 497.781 98.6963 491.747 101.137C485.758 103.577 479.413 104.797 472.713 104.797C466.058 104.797 459.713 103.577 453.679 101.137C447.645 98.6963 442.432 95.3908 438.039 91.2202C433.691 87.0495 430.23 81.9693 427.657 75.9796C425.084 69.9455 423.797 63.024 423.797 55.2152C423.797 47.4063 425.971 39.7971 430.319 32.3876C434.712 24.9781 440.657 19.188 448.155 15.0173C455.654 10.8023 463.307 8.69484 471.116 8.69484C478.925 8.69484 485.824 9.93715 491.814 12.4218C497.804 14.8621 502.973 18.2119 507.321 22.4712C511.713 26.7306 515.174 31.833 517.703 37.7784ZM445.56 90.0888C452.481 98.6075 461.532 102.867 472.713 102.867C483.894 102.867 492.923 98.6075 499.8 90.0888C506.722 81.5257 510.182 70.4335 510.182 56.8124C510.182 43.1913 506.722 32.077 499.8 23.4695C492.923 14.8621 483.894 10.5583 472.713 10.5583C461.532 10.5583 452.481 14.8621 445.56 23.4695C438.683 32.077 435.244 43.1913 435.244 56.8124C435.244 70.4335 438.683 81.5257 445.56 90.0888ZM626.849 37.7784C629.423 43.7237 630.709 50.0684 630.709 56.8124C630.709 63.5564 629.423 69.9455 626.849 75.9796C624.32 81.9693 620.86 87.0495 616.467 91.2202C612.119 95.3908 606.928 98.6963 600.894 101.137C594.904 103.577 588.559 104.797 581.86 104.797C575.204 104.797 568.86 103.577 562.826 101.137C556.792 98.6963 551.578 95.3908 547.186 91.2202C542.838 87.0495 539.377 81.9693 536.804 75.9796C534.23 69.9455 532.943 63.024 532.943 55.2152C532.943 47.4063 535.118 39.7971 539.466 32.3876C543.858 24.9781 549.803 19.188 557.302 15.0173C564.8 10.8023 572.454 8.69484 580.262 8.69484C588.071 8.69484 594.971 9.93715 600.96 12.4218C606.95 14.8621 612.119 18.2119 616.467 22.4712C620.86 26.7306 624.32 31.833 626.849 37.7784ZM554.706 90.0888C561.628 98.6075 570.679 102.867 581.86 102.867C593.041 102.867 602.07 98.6075 608.947 90.0888C615.868 81.5257 619.329 70.4335 619.329 56.8124C619.329 43.1913 615.868 32.077 608.947 23.4695C602.07 14.8621 593.041 10.5583 581.86 10.5583C570.679 10.5583 561.628 14.8621 554.706 23.4695C547.829 32.077 544.391 43.1913 544.391 56.8124C544.391 70.4335 547.829 81.5257 554.706 90.0888ZM736.062 8.89449L749.972 103H739.057L728.142 29.1931L690.74 104.597L651.407 29.3927L640.626 103H638.696L652.539 8.89449L695.132 91.0205L736.062 8.89449ZM773.199 25.8654C773.199 28.1726 773.509 29.9695 774.13 31.2562C774.796 32.4985 775.328 33.4524 775.728 34.118C776.127 34.7835 776.859 35.6265 777.924 36.647C778.989 37.6231 779.81 38.3995 780.386 38.9763C781.008 39.5531 782.139 40.4405 783.781 41.6384C785.422 42.8364 786.642 43.7237 787.441 44.3005C788.284 44.8773 789.793 45.92 791.967 47.4285C794.185 48.8927 795.782 49.9797 796.758 50.6896C797.734 51.3551 799.176 52.3756 801.084 53.751C802.992 55.1264 804.39 56.2135 805.277 57.0121C806.209 57.8107 807.407 58.8977 808.871 60.2732C810.379 61.6042 811.955 63.379 813.596 65.5974C815.238 67.8158 816.458 70.0786 817.257 72.3858C818.055 74.6486 818.455 77.3328 818.455 80.4386C818.455 83.5001 817.811 86.4284 816.525 89.2236C815.238 92.0188 813.574 94.326 811.533 96.1451C809.536 97.9642 807.185 99.4949 804.478 100.737C801.772 101.935 799.043 102.778 796.293 103.266C793.586 103.799 790.103 104.065 785.844 104.065C781.584 104.065 777.303 103.155 772.999 101.336C768.74 99.5171 765.789 97.942 764.148 96.6109L762.95 95.7458V91.2202C763.66 92.0632 766.233 94.1041 770.67 97.343C775.107 100.582 781.252 102.201 789.105 102.201C794.873 102.201 799.665 100.538 803.48 97.2099C807.296 93.8823 809.204 89.7782 809.204 84.8977C809.204 80.0171 807.762 75.7578 804.878 72.1196C801.994 68.4813 797.025 64.1554 789.97 59.1418C787.264 57.1896 785.245 55.7476 783.914 54.8159C782.627 53.8841 780.919 52.5974 778.789 50.9558C776.659 49.2698 774.508 47.4063 772.334 45.3654C770.204 43.2801 768.473 40.9285 767.142 38.3108C765.856 35.6487 765.212 32.7204 765.212 29.5258C765.212 26.3313 765.989 23.403 767.542 20.7409C769.095 18.0344 771.801 15.4388 775.661 12.9542C779.521 10.4252 784.535 9.16071 790.702 9.16071C796.869 9.16071 802.282 10.1146 806.941 12.0225L809.071 12.9542V17.147C808.849 16.9696 808.383 16.5924 807.673 16.0156C806.963 15.4388 805.011 14.4849 801.816 13.1539C798.622 11.7784 794.784 11.0907 790.303 11.0907C785.822 11.0907 781.851 12.4662 778.39 15.217C774.929 17.9235 773.199 21.473 773.199 25.8654Z" fill="#37474F"/>
</svg>
