<svg width="1313" height="328" viewBox="0 0 1313 328" fill="none" xmlns="http://www.w3.org/2000/svg">
<path opacity="0.4" d="M69.6016 134.811C83.8428 134.811 95.8154 131.944 105.52 126.21V67.8902H120.17V123.09C106.748 132.731 89.8921 137.552 69.6016 137.552C56.8728 137.552 45.1837 134.59 34.5344 128.667C23.9481 122.681 15.5357 114.457 9.29732 103.997C3.12196 93.5368 0.034275 82.7615 0.034275 71.671C0.034275 60.5806 1.86168 50.8134 5.51649 42.3695C9.17129 33.9257 14.0864 26.6791 20.2617 20.6297C26.5001 14.5804 33.9043 9.82285 42.4742 6.35708C51.1071 2.8283 60.1496 1.06391 69.6016 1.06391C86.0483 1.06391 100.478 4.6557 112.892 11.8393V18.7393C107.536 13.9503 101.046 10.2639 93.4209 7.68037C85.7962 5.03379 77.8565 3.7105 69.6016 3.7105C54.4783 3.7105 41.8125 9.88586 31.6042 22.2366C21.396 34.5873 16.2919 50.2778 16.2919 69.308C16.2919 78.8231 17.6782 87.645 20.4508 95.7738C23.2234 103.903 26.9727 110.834 31.6988 116.568C36.4878 122.303 42.1276 126.777 48.618 129.99C55.1715 133.204 62.166 134.811 69.6016 134.811ZM227.168 135L211.099 93.9779H155.899L139.831 135H136.901L189.832 0.213223L242.764 135H227.168ZM183.499 23.7489L157.033 91.2368H210.06L183.499 23.7489ZM261.574 135V3.52145H276.319V132.259H326.982V135H261.574ZM346.831 135V3.52145H361.577V132.259H412.24V135H346.831ZM504.398 6.26256H446.834V66.5669H495.04V69.308H446.834V132.259H504.398V135H432.089V3.52145H504.398V6.26256ZM561.016 74.6957H542.395L616.216 135H612.057L541.166 77.1532V135H526.421V3.52145H561.016C573.682 3.52145 584.457 6.48311 593.342 12.4064C602.227 18.3297 606.669 27.2462 606.669 39.1558C606.669 47.0326 603.55 54.9408 597.312 62.8806C591.136 70.7573 579.038 74.6957 561.016 74.6957ZM541.166 71.9546H556.101C568.136 71.9546 576.927 69.245 582.472 63.8258C588.08 58.4066 590.884 50.1833 590.884 39.1558C590.884 28.1284 588.112 19.9051 582.566 14.4859C577.021 9.00366 568.199 6.26256 556.101 6.26256H541.166V71.9546ZM656.954 135V76.019L614.136 3.52145H630.678L671.322 72.7107L711.871 3.52145H714.99L671.7 77.6258V135H656.954ZM771.703 132.259H812.536V135H716.219V132.259H757.052V14.864L730.775 32.8229V29.5147L771.703 1.06391V132.259ZM871.328 132.259H912.161V135H815.844V132.259H856.677V14.864L830.4 32.8229V29.5147L871.328 1.06391V132.259ZM38.1262 325H4.28771V193.521H38.1262C51.044 193.521 62.8907 196.326 73.666 201.934C84.4414 207.479 93.0113 215.293 99.3757 225.375C105.803 235.457 109.017 246.768 109.017 259.308C109.017 271.785 105.803 283.096 99.3757 293.241C93.0113 303.323 84.4414 311.137 73.666 316.682C62.8907 322.227 51.044 325 38.1262 325ZM19.033 196.263V322.259H37.7481C53.1865 322.259 64.8126 318.1 72.6263 309.782C80.5031 301.401 85.9222 293.241 88.8839 285.301C91.8456 277.298 93.3264 268.634 93.3264 259.308C93.3264 249.919 91.8456 241.254 88.8839 233.315C85.9222 225.312 80.5031 217.152 72.6263 208.834C64.8126 200.453 53.1865 196.263 37.7481 196.263H19.033ZM200.608 196.263H143.044V256.567H191.25V259.308H143.044V322.259H200.608V325H128.299V193.521H200.608V196.263ZM231.989 215.45C231.989 218.727 232.43 221.279 233.312 223.106C234.257 224.871 235.013 226.226 235.58 227.171C236.147 228.116 237.187 229.313 238.7 230.763C240.212 232.149 241.378 233.252 242.197 234.071C243.079 234.89 244.686 236.15 247.017 237.852C249.349 239.553 251.082 240.813 252.216 241.633C253.413 242.452 255.556 243.933 258.643 246.075C261.794 248.155 264.063 249.698 265.449 250.707C266.835 251.652 268.883 253.101 271.593 255.055C274.302 257.008 276.287 258.552 277.548 259.686C278.871 260.82 280.572 262.364 282.652 264.318C284.794 266.208 287.031 268.729 289.363 271.879C291.694 275.03 293.427 278.244 294.561 281.52C295.696 284.734 296.263 288.546 296.263 292.957C296.263 297.305 295.349 301.464 293.522 305.434C291.694 309.404 289.331 312.681 286.433 315.264C283.597 317.848 280.257 320.022 276.413 321.786C272.569 323.488 268.694 324.685 264.787 325.378C260.943 326.134 255.997 326.512 249.947 326.512C243.898 326.512 237.817 325.221 231.705 322.637C225.656 320.053 221.465 317.816 219.134 315.926L217.432 314.697V308.27C218.441 309.467 222.095 312.366 228.397 316.966C234.698 321.566 243.426 323.866 254.579 323.866C262.771 323.866 269.576 321.503 274.996 316.777C280.415 312.051 283.124 306.222 283.124 299.29C283.124 292.359 281.076 286.309 276.98 281.142C272.885 275.975 265.827 269.831 255.808 262.711C251.964 259.938 249.097 257.89 247.206 256.567C245.379 255.244 242.953 253.416 239.928 251.085C236.904 248.69 233.847 246.044 230.76 243.145C227.735 240.183 225.278 236.844 223.387 233.126C221.56 229.345 220.646 225.186 220.646 220.649C220.646 216.112 221.749 211.953 223.954 208.172C226.16 204.328 230.004 200.642 235.486 197.113C240.968 193.521 248.089 191.726 256.848 191.726C265.606 191.726 273.294 193.08 279.911 195.79L282.935 197.113V203.068C282.62 202.816 281.959 202.28 280.95 201.461C279.942 200.642 277.169 199.287 272.632 197.397C268.095 195.443 262.645 194.467 256.28 194.467C249.916 194.467 244.276 196.42 239.361 200.327C234.446 204.171 231.989 209.212 231.989 215.45ZM317.341 325V193.521H331.992V325H317.341ZM423.11 324.811C437.351 324.811 449.324 321.944 459.028 316.21V257.89H473.678V313.09C460.256 322.731 443.4 327.552 423.11 327.552C410.381 327.552 398.692 324.59 388.042 318.667C377.456 312.681 369.044 304.457 362.805 293.997C356.63 283.537 353.542 272.761 353.542 261.671C353.542 250.581 355.37 240.813 359.025 232.37C362.679 223.926 367.594 216.679 373.77 210.63C380.008 204.58 387.412 199.823 395.982 196.357C404.615 192.828 413.658 191.064 423.11 191.064C439.556 191.064 453.987 194.656 466.4 201.839V208.739C461.044 203.95 454.554 200.264 446.929 197.68C439.304 195.034 431.365 193.71 423.11 193.71C407.986 193.71 395.321 199.886 385.112 212.237C374.904 224.587 369.8 240.278 369.8 259.308C369.8 268.823 371.186 277.645 373.959 285.774C376.731 293.903 380.481 300.834 385.207 306.568C389.996 312.303 395.636 316.777 402.126 319.99C408.68 323.204 415.674 324.811 423.11 324.811ZM595.138 193.521H597.879V327.269L500.806 216.868V325H498.065V191.347L595.138 301.559V193.521ZM678.789 259.308C678.789 278.464 683.735 294.186 693.629 306.474C703.522 318.699 715.998 324.811 731.059 324.811C739.377 324.811 747.316 323.236 754.878 320.085C762.44 316.871 768.993 312.586 774.538 307.23V314.603C763.07 323.173 748.577 327.489 731.059 327.552C721.481 327.552 712.438 325.788 703.931 322.259C695.487 318.73 688.241 313.973 682.191 307.986C676.142 301.937 671.322 294.69 667.73 286.246C664.201 277.803 662.437 268.823 662.437 259.308C662.437 249.793 664.201 240.813 667.73 232.37C671.322 223.926 676.142 216.679 682.191 210.63C688.241 204.58 695.487 199.823 703.931 196.357C712.438 192.828 721.481 191.064 731.059 191.064C745.804 191.064 759.1 194.152 770.947 200.327V207.227C759.604 198.279 746.308 193.774 731.059 193.71C721.166 193.71 712.249 196.483 704.309 202.028C696.37 207.574 690.131 215.356 685.594 225.375C681.057 235.331 678.789 246.642 678.789 259.308ZM870.383 196.263H812.819V256.567H861.025V259.308H812.819V322.259H870.383V325H798.074V193.521H870.383V196.263ZM989.479 193.521H992.22V327.269L895.147 216.868V325H892.406V191.347L989.479 301.559V193.521ZM1107.72 193.521V196.263H1067.46V325H1052.81V196.263H1012.54V193.521H1107.72ZM1200.26 196.263H1142.7V256.567H1190.9V259.308H1142.7V322.259H1200.26V325H1127.95V193.521H1200.26V196.263ZM1256.88 264.696H1238.26L1312.08 325H1307.92L1237.03 267.153V325H1222.28V193.521H1256.88C1269.54 193.521 1280.32 196.483 1289.2 202.406C1298.09 208.33 1302.53 217.246 1302.53 229.156C1302.53 237.033 1299.41 244.941 1293.17 252.881C1287 260.757 1274.9 264.696 1256.88 264.696ZM1237.03 261.955H1251.96C1264 261.955 1272.79 259.245 1278.33 253.826C1283.94 248.407 1286.75 240.183 1286.75 229.156C1286.75 218.128 1283.97 209.905 1278.43 204.486C1272.88 199.004 1264.06 196.263 1251.96 196.263H1237.03V261.955Z" fill="black"/>
</svg>
