<svg width="23" height="23" viewBox="0 0 23 23" fill="none" xmlns="http://www.w3.org/2000/svg">
<path d="M11.2492 6.7796C12.0405 6.7796 12.6819 6.13812 12.6819 5.34683C12.6819 4.55553 12.0405 3.91406 11.2492 3.91406C10.4579 3.91406 9.81641 4.55553 9.81641 5.34683C9.81641 6.13812 10.4579 6.7796 11.2492 6.7796Z" fill="white"/>
<path d="M12.8125 7.02344C12.4027 7.40599 11.8533 7.64076 11.2498 7.64076C10.6464 7.64076 10.097 7.40599 9.68716 7.02344C9.07964 7.34002 8.64138 7.93809 8.54688 8.6437H13.9528C13.8583 7.93809 13.4201 7.34002 12.8125 7.02344Z" fill="white"/>
<path d="M6.08902 15.8655C6.88031 15.8655 7.52178 15.2241 7.52178 14.4328C7.52178 13.6415 6.88031 13 6.08902 13C5.29772 13 4.65625 13.6415 4.65625 14.4328C4.65625 15.2241 5.29772 15.8655 6.08902 15.8655Z" fill="white"/>
<path d="M16.4054 15.8655C17.1967 15.8655 17.8382 15.2241 17.8382 14.4328C17.8382 13.6415 17.1967 13 16.4054 13C15.6141 13 14.9727 13.6415 14.9727 14.4328C14.9727 15.2241 15.6141 15.8655 16.4054 15.8655Z" fill="white"/>
<path d="M7.6325 16.125C7.22502 16.496 6.68375 16.7225 6.09056 16.7225C5.49736 16.7225 4.95609 16.496 4.54861 16.125C4.18142 16.3844 3.94141 16.8119 3.94141 17.2957V18.1553C3.94141 18.3927 4.13386 18.5851 4.37124 18.5851H7.80988C8.04726 18.5851 8.23971 18.3927 8.23971 18.1553V17.2957C8.23971 16.8119 7.99969 16.3844 7.6325 16.125Z" fill="white"/>
<path d="M17.9489 16.125C17.5414 16.496 17.0002 16.7225 16.407 16.7225C15.8138 16.7225 15.2725 16.496 14.865 16.125C14.4978 16.3844 14.2578 16.8119 14.2578 17.2957V18.1553C14.2578 18.3927 14.4503 18.5851 14.6876 18.5851H18.1263C18.3637 18.5851 18.5561 18.3927 18.5561 18.1553V17.2957C18.5561 16.8119 18.3161 16.3844 17.9489 16.125Z" fill="white"/>
<path d="M12.7888 16.125C12.3813 16.496 11.84 16.7225 11.2468 16.7225C10.6536 16.7225 10.1123 16.496 9.70486 16.125C9.33767 16.3844 9.09766 16.8119 9.09766 17.2957V18.1553C9.09766 18.3927 9.29011 18.5851 9.52749 18.5851H12.9661C13.2035 18.5851 13.396 18.3927 13.396 18.1553V17.2957C13.396 16.8119 13.1559 16.3844 12.7888 16.125Z" fill="white"/>
<path d="M14.1146 14.4322C14.1146 13.4183 14.7765 12.5566 15.6906 12.255V10.3632H15.8339C16.0713 10.3632 16.2637 10.1707 16.2637 9.93332C16.2637 9.69594 16.0713 9.50349 15.8339 9.50349H15.4041V7.78417C15.4041 7.67018 15.3588 7.56086 15.2782 7.48025L14.7051 6.90715C14.5372 6.73928 14.2651 6.73928 14.0972 6.90715C13.9293 7.07501 13.9293 7.34715 14.0972 7.51501L14.5444 7.96221V9.50349H6.66421C6.42682 9.50349 6.23438 9.69594 6.23438 9.93332C6.23438 10.1707 6.42682 10.3632 6.66421 10.3632H6.80748V12.255C7.72164 12.5566 8.38353 13.4183 8.38353 14.4322C8.38353 14.7936 8.29916 15.1356 8.14958 15.4399C8.35255 15.5867 8.52758 15.7638 8.67008 15.9627C8.81258 15.7638 8.98764 15.5867 9.19057 15.4399C9.04099 15.1356 8.95663 14.7936 8.95663 14.4322C8.95663 13.1682 9.98502 12.1398 11.2491 12.1398C12.5131 12.1398 13.5415 13.1682 13.5415 14.4322C13.5415 14.7936 13.4571 15.1356 13.3075 15.4399C13.5105 15.5867 13.6855 15.7638 13.828 15.9627C13.9705 15.7638 14.1456 15.5867 14.3485 15.4399C14.199 15.1356 14.1146 14.7936 14.1146 14.4322Z" fill="white"/>
<path d="M11.2492 15.8655C12.0405 15.8655 12.6819 15.2241 12.6819 14.4328C12.6819 13.6415 12.0405 13 11.2492 13C10.4579 13 9.81641 13.6415 9.81641 14.4328C9.81641 15.2241 10.4579 15.8655 11.2492 15.8655Z" fill="white"/>
<rect x="0.244526" y="0.244526" width="22.0073" height="22.0073" rx="5.13504" stroke="white" stroke-width="0.489051"/>
</svg>
