<svg width="23" height="23" viewBox="0 0 23 23" fill="none" xmlns="http://www.w3.org/2000/svg">
<path d="M4.34389 17.7262C4.10631 17.7262 3.91406 17.9185 3.91406 18.1561C3.91406 18.3937 4.10631 18.5859 4.34389 18.5859H6.06321C6.30079 18.5859 6.49304 18.3937 6.49304 18.1561C6.49304 17.9185 6.30079 17.7262 6.06321 17.7262H5.63338V15.0276C6.17829 15.5076 7.04566 15.9783 8.24102 15.9783C9.43638 15.9783 10.2751 15.5076 10.82 15.0276V17.7262H10.3902C10.1526 17.7262 9.96034 17.9185 9.96034 18.1561C9.96034 18.3937 10.1526 18.5859 10.3902 18.5859H12.1095C12.3471 18.5859 12.5393 18.3937 12.5393 18.1561C12.5393 17.9185 12.3471 17.7262 12.1095 17.7262H11.6797V15.0276C12.2246 15.5076 13.0633 15.9783 14.2586 15.9783C15.454 15.9783 16.3214 15.5076 16.8663 15.0276V17.7262H16.4364C16.1989 17.7262 16.0066 17.9185 16.0066 18.1561C16.0066 18.3937 16.1989 18.5859 16.4364 18.5859H18.1558C18.3933 18.5859 18.5856 18.3937 18.5856 18.1561C18.5856 17.9185 18.3933 17.7262 18.1558 17.7262H17.7259V13.3201C18.2252 13.1421 18.5856 12.6694 18.5856 12.1098C18.5856 11.3987 18.0072 10.8203 17.2961 10.8203C16.5851 10.8203 16.0066 11.3987 16.0066 12.1098C16.0066 12.6694 16.367 13.1421 16.8663 13.3201V13.715C16.6825 14.0171 15.874 15.1186 14.2586 15.1186C12.6443 15.1186 11.8687 14.0287 11.6797 13.7164V13.3201C12.1789 13.1421 12.5393 12.6694 12.5393 12.1098C12.5393 11.3987 11.9609 10.8203 11.2498 10.8203C10.5388 10.8203 9.96034 11.3987 9.96034 12.1098C9.96034 12.6694 10.3208 13.1421 10.82 13.3201V13.715C10.6362 14.0171 9.85635 15.1186 8.24102 15.1186C6.62663 15.1186 5.82242 14.0287 5.63338 13.7164V13.3201C6.13262 13.1421 6.49304 12.6694 6.49304 12.1098C6.49304 11.3987 5.91461 10.8203 5.20355 10.8203C4.4925 10.8203 3.91406 11.3987 3.91406 12.1098C3.91406 12.6694 4.27449 13.1421 4.77372 13.3201V17.7262H4.34389Z" fill="white"/>
<path d="M4.34389 9.96034H10.3902C10.6278 9.96034 10.82 9.76809 10.82 9.53051V4.34389C10.82 4.10631 10.6278 3.91406 10.3902 3.91406H4.34389C4.10631 3.91406 3.91406 4.10631 3.91406 4.34389V9.53051C3.91406 9.76809 4.10631 9.96034 4.34389 9.96034Z" fill="white"/>
<path d="M12.1095 9.96034H18.1558C18.3934 9.96034 18.5856 9.76809 18.5856 9.53051V4.34389C18.5856 4.10631 18.3934 3.91406 18.1558 3.91406H12.1095C11.8719 3.91406 11.6797 4.10631 11.6797 4.34389V9.53051C11.6797 9.76809 11.8719 9.96034 12.1095 9.96034Z" fill="white"/>
<rect x="0.244526" y="0.244526" width="22.0073" height="22.0073" rx="5.13504" stroke="white" stroke-width="0.489051"/>
</svg>
