<svg width="1873" height="369" viewBox="0 0 1873 369" fill="none" xmlns="http://www.w3.org/2000/svg">
<path opacity="0.1" d="M89.6558 200.299H40.4866V362H0.948458V9.4515H89.6558C123.787 9.4515 152.765 17.3929 176.589 33.2758C200.413 49.1586 212.325 73.0674 212.325 105.002C212.325 126.123 203.877 147.328 186.981 168.618C170.253 189.739 137.811 200.299 89.6558 200.299ZM40.4866 16.8015V192.949H76.7299C109.003 192.949 132.573 185.684 147.442 171.152C162.48 156.621 169.999 134.571 169.999 105.002C169.999 75.4329 162.565 53.3828 147.696 38.8517C132.827 24.1516 109.171 16.8015 76.7299 16.8015H40.4866ZM438.403 362L395.316 252.003H247.302L204.215 362H196.358L338.29 0.580759L480.222 362H438.403ZM321.309 63.6897L250.343 244.653H392.528L321.309 63.6897ZM623.421 200.299H573.491L771.435 362H760.284L570.196 206.889V362H530.658V9.4515H623.421C657.383 9.4515 686.276 17.3929 710.101 33.2758C733.925 49.1586 745.837 73.0674 745.837 105.002C745.837 126.123 737.473 147.328 720.746 168.618C704.187 189.739 671.745 200.299 623.421 200.299ZM570.196 192.949H610.241C642.514 192.949 666.085 185.684 680.954 171.152C695.992 156.621 703.511 134.571 703.511 105.002C703.511 75.4329 696.076 53.3828 681.207 38.8517C666.338 24.1516 642.683 16.8015 610.241 16.8015H570.196V192.949ZM850.512 9.4515V233.754L1024.12 9.4515H1034.01L931.362 141.752L1075.07 362H1028.18L906.524 173.687L850.512 246.173V362H810.974V9.4515H850.512ZM1119.68 362V9.4515H1158.96V362H1119.68ZM1488.44 9.4515H1495.79V368.083L1235.5 72.0536V362H1228.15V3.62215L1488.44 299.144V9.4515ZM1736.83 361.493C1775.01 361.493 1807.12 353.805 1833.14 338.429V182.051H1872.42V330.065C1836.43 355.917 1791.23 368.843 1736.83 368.843C1702.69 368.843 1671.35 360.902 1642.8 345.019C1614.41 328.967 1591.85 306.917 1575.12 278.869C1558.57 250.82 1550.29 221.927 1550.29 192.189C1550.29 162.451 1555.19 136.261 1564.99 113.619C1574.79 90.9778 1587.97 71.5467 1604.52 55.3259C1621.25 39.1051 1641.11 26.3481 1664.09 17.055C1687.23 7.59287 1711.48 2.86181 1736.83 2.86181C1780.93 2.86181 1819.62 12.4929 1852.91 31.7551V50.2569C1838.54 37.4154 1821.14 27.5309 1800.69 20.6033C1780.25 13.5067 1758.96 9.9584 1736.83 9.9584C1696.27 9.9584 1662.31 26.5171 1634.94 59.6345C1607.57 92.752 1593.88 134.825 1593.88 185.852C1593.88 211.366 1597.6 235.022 1605.03 256.818C1612.47 278.615 1622.52 297.201 1635.19 312.577C1648.03 327.953 1663.16 339.95 1680.56 348.567C1698.13 357.184 1716.89 361.493 1736.83 361.493Z" fill="black"/>
</svg>
