<svg width="1920" height="355" viewBox="0 0 1920 355" fill="none" xmlns="http://www.w3.org/2000/svg">
<path opacity="0.1" d="M30.0862 63.7554C30.0862 72.2574 31.2307 78.8792 33.5197 83.6207C35.9722 88.1987 37.9342 91.7139 39.4057 94.1664C40.8772 96.6189 43.575 99.7254 47.4989 103.486C51.4229 107.083 54.4477 109.944 56.5732 112.07C58.8622 114.195 63.0314 117.465 69.0809 121.88C75.1304 126.294 79.6267 129.564 82.5697 131.69C85.6762 133.815 91.2352 137.657 99.2467 143.216C107.422 148.612 113.308 152.618 116.905 155.234C120.502 157.686 125.815 161.447 132.846 166.515C139.876 171.584 145.027 175.589 148.297 178.532C151.73 181.475 156.145 185.481 161.54 190.55C167.099 195.455 172.903 201.995 178.953 210.17C185.002 218.345 189.499 226.683 192.442 235.185C195.385 243.524 196.856 253.415 196.856 264.86C196.856 276.142 194.485 286.933 189.744 297.233C185.002 307.534 178.871 316.036 171.35 322.739C163.993 329.443 155.327 335.084 145.354 339.662C135.38 344.076 125.325 347.183 115.188 348.981C105.214 350.943 92.3797 351.924 76.6837 351.924C60.9877 351.924 45.21 348.572 29.3505 341.869C13.6545 335.165 2.78173 329.361 -3.26777 324.456L-7.68226 321.268V304.591C-5.06627 307.697 4.41673 315.218 20.7667 327.154C37.1167 339.089 59.7614 345.057 88.7009 345.057C109.956 345.057 127.614 338.926 141.675 326.663C155.736 314.401 162.766 299.277 162.766 281.292C162.766 263.307 157.453 247.611 146.825 234.204C136.198 220.797 117.886 204.856 91.8892 186.38C81.9157 179.186 74.4764 173.873 69.5714 170.439C64.8299 167.006 58.5352 162.264 50.6872 156.215C42.8392 150.002 34.9095 143.135 26.898 135.614C19.05 127.929 12.6735 119.264 7.76847 109.617C3.02698 99.8072 0.65623 89.0162 0.65623 77.2442C0.65623 65.4722 3.51748 54.6812 9.23997 44.8712C14.9625 34.8977 24.936 25.333 39.1605 16.177C53.3849 6.85748 71.8604 2.19773 94.5869 2.19773C117.313 2.19773 137.26 5.71298 154.428 12.7435L162.276 16.177V31.6277C161.458 30.9737 159.742 29.584 157.126 27.4585C154.51 25.333 147.316 21.8177 135.544 16.9127C123.772 11.8442 109.629 9.30997 93.1154 9.30997C76.6019 9.30997 61.9687 14.3785 49.2157 24.5155C36.4627 34.489 30.0862 47.5689 30.0862 63.7554ZM484.044 6.85748V209.679C484.044 235.512 481.673 257.421 476.931 275.406C472.353 293.228 463.606 309.087 450.69 322.985C431.397 343.586 403.602 353.886 367.305 353.886C331.008 353.886 302.232 343.749 280.977 323.475C265.771 308.924 255.389 291.429 249.83 270.992C244.435 250.554 241.737 222.759 241.737 187.607V6.85748H279.751V197.417C279.751 231.098 280.977 256.195 283.429 272.708C285.882 289.222 291.032 303.119 298.88 314.401C313.922 335.983 337.466 346.774 369.512 346.774C401.558 346.774 426.737 337.291 445.049 318.325C457.475 305.572 465.813 290.203 470.064 272.218C474.479 254.069 476.686 232.978 476.686 208.943V6.85748H484.044ZM628.741 191.531H581.163V348H542.904V6.85748H628.741C661.768 6.85748 689.808 14.542 712.862 29.911C735.915 45.28 747.442 68.4152 747.442 99.3167C747.442 119.754 739.267 140.273 722.917 160.874C706.73 181.312 675.339 191.531 628.741 191.531ZM581.163 13.9697V184.418H616.233C647.462 184.418 670.27 177.388 684.658 163.327C699.209 149.266 706.485 127.929 706.485 99.3167C706.485 70.7042 699.291 49.3674 684.903 35.3065C670.515 21.082 647.625 13.9697 616.233 13.9697H581.163ZM880.858 191.531H833.279V348H795.02V6.85748H880.858C913.885 6.85748 941.925 14.542 964.979 29.911C988.032 45.28 999.559 68.4152 999.559 99.3167C999.559 119.754 991.384 140.273 975.034 160.874C958.847 181.312 927.455 191.531 880.858 191.531ZM833.279 13.9697V184.418H868.35C899.579 184.418 922.387 177.388 936.775 163.327C951.326 149.266 958.602 127.929 958.602 99.3167C958.602 70.7042 951.408 49.3674 937.02 35.3065C922.632 21.082 899.742 13.9697 868.35 13.9697H833.279ZM1379.21 107.655C1388.69 129.564 1393.43 152.945 1393.43 177.797C1393.43 202.649 1388.69 226.193 1379.21 248.429C1369.89 270.501 1357.13 289.222 1340.95 304.591C1324.92 319.96 1305.79 332.141 1283.56 341.133C1261.49 350.125 1238.11 354.622 1213.42 354.622C1188.89 354.622 1165.51 350.125 1143.28 341.133C1121.04 332.141 1101.83 319.96 1085.64 304.591C1069.62 289.222 1056.87 270.501 1047.38 248.429C1037.9 226.193 1033.16 200.687 1033.16 171.911C1033.16 143.135 1041.17 115.094 1057.19 87.7899C1073.38 60.4854 1095.29 39.1487 1122.92 23.7797C1150.55 8.24722 1178.75 0.48098 1207.53 0.48098C1236.31 0.48098 1261.73 5.05898 1283.8 14.215C1305.88 23.2075 1324.92 35.5517 1340.95 51.2477C1357.13 66.9437 1369.89 85.7462 1379.21 107.655ZM1113.35 300.422C1138.86 331.814 1172.21 347.51 1213.42 347.51C1254.62 347.51 1287.89 331.814 1313.23 300.422C1338.74 268.866 1351.49 227.991 1351.49 177.797C1351.49 127.602 1338.74 86.6454 1313.23 54.9264C1287.89 23.2075 1254.62 7.34798 1213.42 7.34798C1172.21 7.34798 1138.86 23.2075 1113.35 54.9264C1088.01 86.6454 1075.34 127.602 1075.34 177.797C1075.34 227.991 1088.01 268.866 1113.35 300.422ZM1536.17 191.531H1487.85L1679.39 348H1668.6L1484.66 197.907V348H1446.4V6.85748H1536.17C1569.03 6.85748 1596.99 14.542 1620.04 29.911C1643.09 45.28 1654.62 68.4152 1654.62 99.3167C1654.62 119.754 1646.53 140.273 1630.34 160.874C1614.32 181.312 1582.93 191.531 1536.17 191.531ZM1484.66 184.418H1523.41C1554.64 184.418 1577.45 177.388 1591.84 163.327C1606.39 149.266 1613.66 127.929 1613.66 99.3167C1613.66 70.7042 1606.47 49.3674 1592.08 35.3065C1577.69 21.082 1554.8 13.9697 1523.41 13.9697H1484.66V184.418ZM1922.68 6.85748V13.9697H1818.2V348H1780.19V13.9697H1675.71V6.85748H1922.68Z" fill="black"/>
</svg>
