<svg width="471" height="87" viewBox="0 0 471 87" fill="none" xmlns="http://www.w3.org/2000/svg">
<path opacity="0.1" d="M9.63933 15.747C9.63933 17.8184 9.91818 19.4317 10.4759 20.5869C11.0734 21.7023 11.5514 22.5588 11.9099 23.1563C12.2684 23.7538 12.9257 24.5107 13.8818 25.4269C14.8378 26.3032 15.5747 27.0004 16.0926 27.5182C16.6503 28.0361 17.6661 28.8328 19.14 29.9083C20.6139 30.9838 21.7093 31.7805 22.4263 32.2984C23.1832 32.8163 24.5376 33.7524 26.4895 35.1068C28.4812 36.4213 29.9153 37.3973 30.7917 38.0346C31.668 38.6322 32.9627 39.5484 34.6756 40.7832C36.3885 42.0181 37.6433 42.9941 38.44 43.7111C39.2765 44.4281 40.3521 45.4041 41.6666 46.639C43.021 47.834 44.4351 49.4274 45.909 51.4192C47.3829 53.4109 48.4784 55.4425 49.1954 57.5139C49.9124 59.5455 50.271 61.9555 50.271 64.7439C50.271 67.4926 49.6933 70.1217 48.5381 72.6313C47.3829 75.1409 45.8891 77.2123 44.0567 78.8455C42.2641 80.4787 40.1529 81.853 37.723 82.9684C35.293 84.044 32.8432 84.8008 30.3734 85.239C27.9435 85.717 24.8164 85.956 20.9923 85.956C17.1681 85.956 13.3241 85.1394 9.46008 83.5062C5.63592 81.873 2.9869 80.4588 1.51301 79.2638L0.437466 78.487V74.4238C1.07483 75.1807 3.38525 77.0131 7.36874 79.921C11.3522 82.829 16.8694 84.283 23.9202 84.283C29.0987 84.283 33.4009 82.7892 36.8267 79.8015C40.2525 76.8139 41.9654 73.1292 41.9654 68.7474C41.9654 64.3655 40.6707 60.5414 38.0815 57.2749C35.4922 54.0084 31.0307 50.1245 24.6969 45.6232C22.267 43.8704 20.4545 42.5758 19.2595 41.7393C18.1043 40.9027 16.5706 39.7475 14.6585 38.2736C12.7465 36.7599 10.8145 35.0868 8.86255 33.2544C6.95048 31.3822 5.39691 29.2709 4.20187 26.9207C3.04665 24.5306 2.46905 21.9015 2.46905 19.0334C2.46905 16.1653 3.16616 13.5362 4.56038 11.1461C5.9546 8.71613 8.38453 6.38579 11.8502 4.15503C15.3158 1.88444 19.8172 0.749146 25.3542 0.749146C30.8913 0.749146 35.7511 1.6056 39.9338 3.3185L41.8459 4.15503V7.91943C41.6467 7.76009 41.2284 7.4215 40.5911 6.90364C39.9537 6.38579 38.201 5.52934 35.3329 4.33429C32.4647 3.09941 29.019 2.48197 24.9957 2.48197C20.9724 2.48197 17.4071 3.71685 14.3 6.18661C11.1929 8.61654 9.63933 11.8033 9.63933 15.747ZM120.241 1.88444V51.2997C120.241 57.5936 119.663 62.9315 118.508 67.3133C117.393 71.6553 115.262 75.5193 112.115 78.9053C107.414 83.9245 100.642 86.4341 91.7989 86.4341C82.9555 86.4341 75.9446 83.9643 70.766 79.0248C67.0614 75.4795 64.5319 71.2171 63.1775 66.2378C61.8629 61.2584 61.2056 54.4865 61.2056 45.9219V1.88444H70.4673V48.312C70.4673 56.518 70.766 62.6327 71.3635 66.656C71.9611 70.6793 73.2159 74.0653 75.1279 76.8139C78.7928 82.0721 84.529 84.7012 92.3366 84.7012C100.144 84.7012 106.279 82.3908 110.74 77.77C113.768 74.6628 115.799 70.9184 116.835 66.5365C117.911 62.1148 118.448 56.9761 118.448 51.1204V1.88444H120.241ZM155.495 46.878H143.903V85H134.582V1.88444H155.495C163.542 1.88444 170.373 3.75668 175.99 7.50116C181.607 11.2456 184.415 16.8823 184.415 24.4111C184.415 29.3905 182.423 34.3897 178.44 39.4089C174.496 44.3883 166.848 46.878 155.495 46.878ZM143.903 3.61726V45.1452H152.448C160.056 45.1452 165.613 43.4323 169.118 40.0065C172.664 36.5807 174.436 31.3822 174.436 24.4111C174.436 17.44 172.684 12.2415 169.178 8.81572C165.673 5.35008 160.096 3.61726 152.448 3.61726H143.903ZM216.92 46.878H205.328V85H196.007V1.88444H216.92C224.967 1.88444 231.799 3.75668 237.415 7.50116C243.032 11.2456 245.84 16.8823 245.84 24.4111C245.84 29.3905 243.849 34.3897 239.865 39.4089C235.922 44.3883 228.273 46.878 216.92 46.878ZM205.328 3.61726V45.1452H213.873C221.481 45.1452 227.038 43.4323 230.544 40.0065C234.089 36.5807 235.862 31.3822 235.862 24.4111C235.862 17.44 234.109 12.2415 230.604 8.81572C227.098 5.35008 221.521 3.61726 213.873 3.61726H205.328ZM338.337 26.4427C340.648 31.7805 341.803 37.4769 341.803 43.5318C341.803 49.5868 340.648 55.323 338.337 60.7405C336.067 66.1182 332.959 70.6793 329.016 74.4238C325.112 78.1683 320.451 81.136 315.034 83.3269C309.656 85.5179 303.96 86.6133 297.945 86.6133C291.969 86.6133 286.273 85.5179 280.855 83.3269C275.438 81.136 270.757 78.1683 266.814 74.4238C262.91 70.6793 259.803 66.1182 257.492 60.7405C255.182 55.323 254.027 49.1087 254.027 42.0978C254.027 35.0868 255.978 28.2552 259.882 21.6027C263.826 14.9503 269.164 9.75184 275.896 6.00736C282.628 2.22304 289.5 0.33088 296.51 0.33088C303.521 0.33088 309.716 1.44626 315.093 3.67701C320.471 5.86793 325.112 8.87547 329.016 12.6996C332.959 16.5238 336.067 21.1048 338.337 26.4427ZM273.566 73.408C279.78 81.0563 287.906 84.8805 297.945 84.8805C307.983 84.8805 316.089 81.0563 322.264 73.408C328.478 65.7199 331.585 55.7612 331.585 43.5318C331.585 31.3025 328.478 21.3239 322.264 13.5959C316.089 5.86793 307.983 2.00395 297.945 2.00395C287.906 2.00395 279.78 5.86793 273.566 13.5959C267.391 21.3239 264.304 31.3025 264.304 43.5318C264.304 55.7612 267.391 65.7199 273.566 73.408ZM376.579 46.878H364.807L411.474 85H408.845L364.031 48.4315V85H354.709V1.88444H376.579C384.585 1.88444 391.397 3.75668 397.014 7.50116C402.631 11.2456 405.439 16.8823 405.439 24.4111C405.439 29.3905 403.467 34.3897 399.524 39.4089C395.62 44.3883 387.971 46.878 376.579 46.878ZM364.031 45.1452H373.472C381.08 45.1452 386.637 43.4323 390.142 40.0065C393.688 36.5807 395.46 31.3822 395.46 24.4111C395.46 17.44 393.708 12.2415 390.202 8.81572C386.697 5.35008 381.12 3.61726 373.472 3.61726H364.031V45.1452ZM470.748 1.88444V3.61726H445.294V85H436.032V3.61726H410.578V1.88444H470.748Z" fill="black"/>
</svg>
