<svg width="377" height="87" viewBox="0 0 377 87" fill="none" xmlns="http://www.w3.org/2000/svg">
<path opacity="0.1" d="M22.1592 85H0.767809V1.88444H22.1592C30.3253 1.88444 37.8143 3.6571 44.6261 7.2024C51.4378 10.7079 56.8554 15.6474 60.8787 22.021C64.9419 28.3946 66.9734 35.5449 66.9734 43.4721C66.9734 51.3594 64.9419 58.5098 60.8787 64.9232C56.8554 71.2968 51.4378 76.2363 44.6261 79.7418C37.8143 83.2473 30.3253 85 22.1592 85ZM10.0892 3.61726V83.2672H21.9202C31.6797 83.2672 39.0292 80.6381 43.9688 75.3799C48.9481 70.0818 52.3739 64.9232 54.2462 59.904C56.1184 54.845 57.0545 49.3677 57.0545 43.4721C57.0545 37.5367 56.1184 32.0594 54.2462 27.0402C52.3739 21.9812 48.9481 16.8225 43.9688 11.5643C39.0292 6.26628 31.6797 3.61726 21.9202 3.61726H10.0892ZM124.873 3.61726H88.4843V41.7393H118.958V43.4721H88.4843V83.2672H124.873V85H79.1629V1.88444H124.873V3.61726ZM144.711 15.747C144.711 17.8184 144.99 19.4317 145.548 20.5869C146.145 21.7023 146.623 22.5588 146.982 23.1563C147.34 23.7538 147.998 24.5107 148.954 25.4269C149.91 26.3032 150.647 27.0004 151.165 27.5182C151.722 28.0361 152.738 28.8328 154.212 29.9083C155.686 30.9838 156.781 31.7805 157.498 32.2984C158.255 32.8163 159.61 33.7524 161.561 35.1068C163.553 36.4213 164.987 37.3973 165.864 38.0346C166.74 38.6322 168.035 39.5484 169.748 40.7832C171.46 42.0181 172.715 42.9941 173.512 43.7111C174.348 44.4281 175.424 45.4041 176.739 46.639C178.093 47.834 179.507 49.4274 180.981 51.4192C182.455 53.4109 183.55 55.4425 184.267 57.5139C184.984 59.5455 185.343 61.9555 185.343 64.7439C185.343 67.4926 184.765 70.1217 183.61 72.6313C182.455 75.1409 180.961 77.2123 179.129 78.8455C177.336 80.4787 175.225 81.853 172.795 82.9684C170.365 84.044 167.915 84.8008 165.445 85.239C163.015 85.717 159.888 85.956 156.064 85.956C152.24 85.956 148.396 85.1394 144.532 83.5062C140.708 81.873 138.059 80.4588 136.585 79.2638L135.509 78.487V74.4238C136.147 75.1807 138.457 77.0131 142.441 79.921C146.424 82.829 151.941 84.283 158.992 84.283C164.171 84.283 168.473 82.7892 171.899 79.8015C175.324 76.8139 177.037 73.1292 177.037 68.7474C177.037 64.3655 175.743 60.5414 173.153 57.2749C170.564 54.0084 166.103 50.1245 159.769 45.6232C157.339 43.8704 155.526 42.5758 154.331 41.7393C153.176 40.9027 151.643 39.7475 149.73 38.2736C147.818 36.7599 145.886 35.0868 143.935 33.2544C142.022 31.3822 140.469 29.2709 139.274 26.9207C138.119 24.5306 137.541 21.9015 137.541 19.0334C137.541 16.1653 138.238 13.5362 139.632 11.1461C141.027 8.71613 143.456 6.38579 146.922 4.15503C150.388 1.88444 154.889 0.749146 160.426 0.749146C165.963 0.749146 170.823 1.6056 175.006 3.3185L176.918 4.15503V7.91943C176.719 7.76009 176.3 7.4215 175.663 6.90364C175.026 6.38579 173.273 5.52934 170.405 4.33429C167.537 3.09941 164.091 2.48197 160.068 2.48197C156.044 2.48197 152.479 3.71685 149.372 6.18661C146.265 8.61654 144.711 11.8033 144.711 15.747ZM198.668 85V1.88444H207.929V85H198.668ZM265.531 84.8805C274.533 84.8805 282.102 83.068 288.236 79.443V42.5758H297.498V77.4712C289.013 83.5659 278.357 86.6133 265.531 86.6133C257.484 86.6133 250.095 84.7411 243.362 80.9966C236.67 77.2123 231.352 72.0138 227.409 65.4012C223.505 58.7886 221.553 51.9769 221.553 44.9659C221.553 37.955 222.708 31.7805 225.018 26.4427C227.329 21.1048 230.436 16.5238 234.34 12.6996C238.284 8.87547 242.964 5.86793 248.382 3.67701C253.839 1.44626 259.555 0.33088 265.531 0.33088C275.928 0.33088 285.05 2.60147 292.897 7.14265V11.5046C289.511 8.47712 285.408 6.14678 280.588 4.51355C275.768 2.84048 270.749 2.00395 265.531 2.00395C255.97 2.00395 247.963 5.90777 241.51 13.7154C235.057 21.5231 231.83 31.442 231.83 43.4721C231.83 49.4872 232.707 55.0641 234.459 60.2028C236.212 65.3415 238.582 69.7233 241.57 73.3483C244.597 76.9733 248.163 79.8015 252.266 81.8331C256.408 83.8647 260.83 84.8805 265.531 84.8805ZM374.28 1.88444H376.013V86.4341L314.647 16.6433V85H312.914V0.510137L374.28 70.1814V1.88444Z" fill="black"/>
</svg>
