<svg width="24" height="24" viewBox="0 0 24 24" fill="none" xmlns="http://www.w3.org/2000/svg">
<path d="M12.0039 6.32774e-07C9.63036 -0.000769998 7.3099 0.702366 5.336 2.02047C3.36209 3.33858 1.82342 5.21246 0.914569 7.4051C0.00572056 9.59775 -0.232475 12.0107 0.230107 14.3387C0.69269 16.6667 1.83527 18.8053 3.51335 20.4839C5.19142 22.1625 7.32961 23.3058 9.65749 23.7691C11.9854 24.2325 14.3984 23.9951 16.5913 23.0869C18.7842 22.1788 20.6586 20.6407 21.9774 18.6673C23.2961 16.6938 24 14.3735 24 12C24 8.81808 22.7363 5.76642 20.4867 3.5161C18.2371 1.26577 15.1858 0.00103372 12.0039 6.32774e-07ZM18.0623 16.5896H16.5818C16.0169 16.5896 15.8532 16.1494 14.8481 15.1636C13.9675 14.3299 13.5896 14.2208 13.3714 14.2208C12.9 14.2208 12.9818 14.3766 12.9818 16.0247C12.9818 16.3831 12.8649 16.5896 11.9221 16.5896C10.3636 16.5896 8.63377 15.6546 7.4065 13.9325C5.57143 11.4039 5.06884 9.49092 5.06884 9.1052C5.06884 8.89092 5.15455 8.71559 5.57533 8.71559H7.05585C7.44546 8.71559 7.57793 8.87533 7.72598 9.28053C8.45065 11.3533 9.67403 13.1766 10.1727 13.1766C10.3636 13.1766 10.4455 13.0909 10.4455 12.6234V10.4805C10.3909 9.49481 9.85715 9.41299 9.85715 9.06234C9.86005 9.01468 9.87256 8.96809 9.89391 8.92537C9.91526 8.88266 9.94503 8.8447 9.98141 8.81377C10.0178 8.78284 10.0601 8.75959 10.1057 8.74539C10.1513 8.7312 10.1992 8.72636 10.2468 8.73117H12.5844C12.8961 8.73117 13.0052 8.89481 13.0052 9.26494V12.1442C13.0052 12.452 13.1455 12.561 13.239 12.561C13.426 12.561 13.5857 12.452 13.9286 12.113C14.676 11.2156 15.2889 10.2142 15.7481 9.14027C15.8 9.01467 15.8908 8.90904 16.0072 8.83891C16.1237 8.76878 16.2595 8.73784 16.3948 8.75066H17.8481C18.2961 8.75066 18.3896 8.97663 18.2961 9.28442C18.1091 10.1299 16.3052 12.6273 16.3013 12.6312C16.1455 12.8766 16.0831 13.0208 16.3013 13.2779C16.387 13.3948 18.2883 15.1675 18.5688 16.0286C18.7052 16.3831 18.4909 16.5896 18.0701 16.5896H18.0623Z" fill="#F57D02"/>
</svg>
