<svg width="263" height="87" viewBox="0 0 263 87" fill="none" xmlns="http://www.w3.org/2000/svg">
<path opacity="0.1" d="M22.6372 46.878H10.866L57.5326 85H54.9035L10.0892 48.4315V85H0.767809V1.88444H22.6372C30.644 1.88444 37.4558 3.75668 43.0725 7.50116C48.6892 11.2456 51.4976 16.8823 51.4976 24.4111C51.4976 29.3905 49.5258 34.3897 45.5821 39.4089C41.6783 44.3883 34.03 46.878 22.6372 46.878ZM10.0892 45.1452H19.5301C27.1385 45.1452 32.6955 43.4323 36.201 40.0065C39.7463 36.5807 41.5189 31.3822 41.5189 24.4111C41.5189 17.44 39.7662 12.2415 36.2607 8.81572C32.7552 5.35008 27.1784 3.61726 19.5301 3.61726H10.0892V45.1452ZM112.565 3.61726H76.1753V41.7393H106.649V43.4721H76.1753V83.2672H112.565V85H66.8539V1.88444H112.565V3.61726ZM187.853 1.88444H189.585V86.4341L128.22 16.6433V85H126.487V0.510137L187.853 70.1814V1.88444ZM262.603 1.88444V3.61726H237.148V85H227.887V3.61726H202.432V1.88444H262.603Z" fill="black"/>
</svg>
