<svg width="32" height="32" viewBox="0 0 32 32" fill="none" xmlns="http://www.w3.org/2000/svg">
<g clip-path="url(#clip0_10360_11023)">
<path d="M16 0C7.16089 0 0 7.16089 0 16C0 24.8391 7.16089 32 16 32C24.8391 32 32 24.8391 32 16C32 7.16089 24.8391 0 16 0Z" fill="#F57D02"/>
<path d="M16.0006 13.1445H16.0006C14.7382 13.1445 13.7148 14.1679 13.7148 15.4302V22.2874C13.7148 23.5498 14.7382 24.5731 16.0006 24.5731H16.0006C17.2629 24.5731 18.2863 23.5498 18.2863 22.2874V15.4302C18.2863 14.1679 17.2629 13.1445 16.0006 13.1445Z" fill="#37474F"/>
<path d="M16.0006 12.5703H16.0006C14.7382 12.5703 13.7148 11.547 13.7148 10.2846V10.2846C13.7148 9.02223 14.7382 7.99888 16.0006 7.99888H16.0006C17.2629 7.99888 18.2863 9.02223 18.2863 10.2846V10.2846C18.2863 11.547 17.2629 12.5703 16.0006 12.5703Z" fill="#37474F"/>
</g>
<defs>
<clipPath id="clip0_10360_11023">
<rect width="32" height="32" fill="white"/>
</clipPath>
</defs>
</svg>
