<svg width="24" height="24" viewBox="0 0 24 24" fill="none" xmlns="http://www.w3.org/2000/svg">
<path fill-rule="evenodd" clip-rule="evenodd" d="M12 24C18.6274 24 24 18.6274 24 12C24 5.37258 18.6274 0 12 0C5.37258 0 0 5.37258 0 12C0 18.6274 5.37258 24 12 24ZM7.47316 13.0487L4.24728 11.8447C3.91963 11.722 3.91679 11.2594 4.2435 11.1334L17.4826 6.02615C17.7632 5.91761 18.0529 6.1635 17.9917 6.45824L15.6159 17.8865C15.5599 18.1563 15.2435 18.2787 15.0202 18.1164L11.777 15.7617C11.58 15.6187 11.3115 15.6264 11.1231 15.78L9.32489 17.2458C9.11615 17.4165 8.80167 17.3214 8.72177 17.0643L7.47316 13.0487ZM14.8251 8.52483L8.52055 12.4078C8.27891 12.557 8.16513 12.8488 8.24321 13.122L8.92487 15.5171C8.97326 15.6869 9.21961 15.6694 9.24308 15.4941L9.42033 14.1806C9.45374 13.9333 9.57171 13.7055 9.7546 13.5352L14.9577 8.69871C15.055 8.60845 14.9384 8.45525 14.8251 8.52483Z" fill="#F57D02"/>
</svg>
