<svg width="1926" height="386" viewBox="0 0 1926 386" fill="none" xmlns="http://www.w3.org/2000/svg">
<path opacity="0.4" d="M376.028 116.97C386.327 140.765 391.477 166.158 391.477 193.148C391.477 220.139 386.327 245.709 376.028 269.859C365.906 293.831 352.056 314.163 334.476 330.855C317.074 347.547 296.299 360.776 272.149 370.542C248.177 380.308 222.784 385.192 195.971 385.192C169.335 385.192 143.943 380.308 119.793 370.542C95.6432 360.776 74.7786 347.547 57.199 330.855C39.797 314.163 25.9465 293.831 15.6474 269.859C5.34824 245.709 0.198672 218.008 0.198672 186.756C0.198672 155.503 8.89966 125.05 26.3016 95.3955C43.8812 65.7411 67.6757 42.5681 97.6852 25.8764C127.695 9.00713 158.326 0.572504 189.578 0.572504C220.831 0.572504 248.443 5.5445 272.415 15.4885C296.387 25.2549 317.074 38.6615 334.476 55.7083C352.056 72.7552 365.906 93.1759 376.028 116.97ZM87.2973 326.327C114.998 360.42 151.223 377.467 195.971 377.467C240.719 377.467 276.855 360.42 304.378 326.327C332.079 292.056 345.93 247.663 345.93 193.148C345.93 138.634 332.079 94.1525 304.378 59.7037C276.855 25.2549 240.719 8.03049 195.971 8.03049C151.223 8.03049 114.998 25.2549 87.2973 59.7037C59.7738 94.1525 46.012 138.634 46.012 193.148C46.012 247.663 59.7738 292.056 87.2973 326.327ZM652.773 15.2221H490.561V185.158H626.403V192.882H490.561V378H449.01V7.49778H652.773V15.2221ZM910.606 15.2221H748.395V185.158H884.237V192.882H748.395V378H706.843V7.49778H910.606V15.2221ZM967.873 378V7.49778H1009.16V378H967.873ZM1115.97 192.882C1115.97 246.864 1129.91 291.168 1157.78 325.794C1185.66 360.243 1220.82 377.467 1263.26 377.467C1286.7 377.467 1309.08 373.028 1330.38 364.149C1351.69 355.093 1370.16 343.018 1385.79 327.925V348.701C1353.47 372.85 1312.63 385.014 1263.26 385.192C1236.27 385.192 1210.79 380.22 1186.82 370.276C1163.02 360.332 1142.6 346.925 1125.56 330.056C1108.51 313.009 1094.92 292.588 1084.8 268.794C1074.86 244.999 1069.89 219.695 1069.89 192.882C1069.89 166.069 1074.86 140.765 1084.8 116.97C1094.92 93.1759 1108.51 72.7552 1125.56 55.7083C1142.6 38.6615 1163.02 25.2549 1186.82 15.4885C1210.79 5.5445 1236.27 0.572504 1263.26 0.572504C1304.81 0.572504 1342.28 9.27349 1375.66 26.6755V46.1195C1343.7 20.9044 1306.23 8.20806 1263.26 8.03049C1235.38 8.03049 1210.26 15.8436 1187.88 31.4699C1165.51 47.0961 1147.93 69.0262 1135.14 97.26C1122.36 125.316 1115.97 157.19 1115.97 192.882ZM1655.87 15.2221H1493.66V185.158H1629.5V192.882H1493.66V370.276H1655.87V378H1452.11V7.49778H1655.87V15.2221ZM1744.3 69.2925C1744.3 78.5262 1745.55 85.7179 1748.03 90.8674C1750.7 95.8394 1752.83 99.6572 1754.42 102.321C1756.02 104.984 1758.95 108.358 1763.21 112.442C1767.48 116.349 1770.76 119.456 1773.07 121.765C1775.56 124.073 1780.08 127.625 1786.65 132.419C1793.22 137.214 1798.11 140.765 1801.3 143.073C1804.68 145.382 1810.71 149.555 1819.42 155.592C1828.29 161.452 1834.69 165.802 1838.59 168.644C1842.5 171.307 1848.27 175.391 1855.91 180.896C1863.54 186.401 1869.14 190.751 1872.69 193.947C1876.42 197.144 1881.21 201.494 1887.07 206.999C1893.11 212.326 1899.41 219.429 1905.98 228.308C1912.55 237.186 1917.43 246.242 1920.63 255.476C1923.83 264.532 1925.43 275.275 1925.43 287.705C1925.43 299.957 1922.85 311.677 1917.7 322.864C1912.55 334.051 1905.89 343.285 1897.72 350.565C1889.73 357.846 1880.32 363.972 1869.49 368.944C1858.66 373.738 1847.74 377.112 1836.73 379.065C1825.9 381.196 1811.96 382.262 1794.91 382.262C1777.86 382.262 1760.73 378.621 1743.5 371.341C1726.46 364.061 1714.65 357.757 1708.08 352.43L1703.28 348.967V330.855C1706.12 334.229 1716.42 342.397 1734.18 355.36C1751.94 368.322 1776.53 374.804 1807.96 374.804C1831.05 374.804 1850.22 368.145 1865.49 354.827C1880.77 341.509 1888.4 325.084 1888.4 305.551C1888.4 286.018 1882.63 268.971 1871.09 254.41C1859.55 239.85 1839.66 222.536 1811.42 202.471C1800.59 194.658 1792.51 188.887 1787.19 185.158C1782.04 181.429 1775.2 176.279 1766.68 169.709C1758.15 162.961 1749.54 155.503 1740.84 147.335C1732.32 138.989 1725.39 129.578 1720.06 119.101C1714.91 108.447 1712.34 96.7273 1712.34 83.9422C1712.34 71.157 1715.45 59.4373 1721.66 48.7831C1727.88 37.9512 1738.71 27.5633 1754.16 17.6193C1769.61 7.49778 1789.67 2.437 1814.35 2.437C1839.04 2.437 1860.7 6.25478 1879.35 13.8903L1887.87 17.6193V34.3998C1886.98 33.6895 1885.12 32.1802 1882.28 29.8717C1879.43 27.5633 1871.62 23.7455 1858.84 18.4184C1846.05 12.9137 1830.69 10.1613 1812.76 10.1613C1794.82 10.1613 1778.93 15.6661 1765.08 26.6755C1751.23 37.5073 1744.3 51.713 1744.3 69.2925Z" fill="black"/>
</svg>
