<svg width="1896" height="214" viewBox="0 0 1896 214" fill="none" xmlns="http://www.w3.org/2000/svg">
<path opacity="0.4" d="M23.0686 38.6998C23.0686 43.7986 23.755 47.7697 25.1277 50.6132C26.5985 53.3587 27.7751 55.4668 28.6576 56.9376C29.5401 58.4084 31.1579 60.2714 33.5112 62.5266C35.8644 64.6837 37.6784 66.3996 38.9531 67.6743C40.3258 68.949 42.8262 70.9101 46.4541 73.5575C50.082 76.2049 52.7785 78.1659 54.5434 79.4406C56.4064 80.7153 59.7402 83.0195 64.5448 86.3533C69.4474 89.5891 72.9773 91.9913 75.1345 93.5602C77.2916 95.031 80.4783 97.2862 84.6946 100.326C88.9108 103.365 91.9995 105.768 93.9605 107.533C96.0196 109.298 98.6671 111.7 101.903 114.74C105.237 117.681 108.717 121.603 112.345 126.506C115.973 131.408 118.67 136.409 120.435 141.508C122.2 146.509 123.082 152.441 123.082 159.304C123.082 166.07 121.66 172.541 118.817 178.719C115.973 184.896 112.296 189.995 107.786 194.015C103.374 198.035 98.1768 201.418 92.1956 204.163C86.2144 206.811 80.1842 208.674 74.1049 209.752C68.1237 210.929 60.4266 211.517 51.0135 211.517C41.6005 211.517 32.1384 209.507 22.6274 205.487C13.2143 201.467 6.69382 197.986 3.06588 195.045L0.418466 193.132V183.131C1.98731 184.994 7.67435 189.505 17.4796 196.662C27.2848 203.82 40.8651 207.399 58.2204 207.399C70.9672 207.399 81.5569 203.722 89.9894 196.368C98.4219 189.014 102.638 179.944 102.638 169.159C102.638 158.373 99.4515 148.96 93.0781 140.92C86.7046 132.879 75.7228 123.319 60.1324 112.239C54.1512 107.925 49.6898 104.738 46.7483 102.679C43.9047 100.62 40.1297 97.7764 35.4232 94.1485C30.7167 90.4225 25.9611 86.3043 21.1566 81.7939C16.45 77.1854 12.626 71.9886 9.68443 66.2035C6.8409 60.3204 5.41914 53.8489 5.41914 46.7892C5.41914 39.7294 7.13506 33.2579 10.5669 27.3748C13.9987 21.3936 19.9799 15.6575 28.5105 10.1666C37.0411 4.57756 48.121 1.78306 61.7503 1.78306C75.3796 1.78306 87.342 3.89119 97.6375 8.10745L102.344 10.1666V19.4325C101.854 19.0403 100.824 18.2069 99.2554 16.9322C97.6865 15.6575 93.3722 13.5494 86.3124 10.6078C79.2527 7.56816 70.7711 6.04835 60.8678 6.04835C50.9645 6.04835 42.1888 9.08797 34.5407 15.1672C26.8926 21.1484 23.0686 28.9926 23.0686 38.6998ZM317.226 4.57756V209.164H294.282V106.944H177.06V209.164H154.116V4.57756H177.06V102.679H294.282V4.57756H317.226ZM556.523 65.0269C562.21 78.1659 565.054 92.1875 565.054 107.091C565.054 121.995 562.21 136.115 556.523 149.45C550.934 162.687 543.286 173.914 533.579 183.131C523.97 192.348 512.498 199.653 499.162 205.046C485.925 210.439 471.904 213.135 457.098 213.135C442.39 213.135 428.369 210.439 415.033 205.046C401.698 199.653 390.177 192.348 380.47 183.131C370.861 173.914 363.213 162.687 357.526 149.45C351.839 136.115 348.995 120.819 348.995 103.562C348.995 86.3043 353.8 69.4883 363.409 53.1135C373.116 36.7388 386.255 23.9429 402.826 14.726C419.397 5.41101 436.311 0.753512 453.568 0.753512C470.825 0.753512 486.072 3.49898 499.309 8.98992C512.547 14.3828 523.97 21.7858 533.579 31.1988C543.286 40.6118 550.934 51.8879 556.523 65.0269ZM397.09 180.631C412.386 199.457 432.389 208.87 457.098 208.87C481.807 208.87 501.761 199.457 516.959 180.631C532.255 161.707 539.903 137.194 539.903 107.091C539.903 76.9893 532.255 52.4272 516.959 33.405C501.761 14.3828 481.807 4.87172 457.098 4.87172C432.389 4.87172 412.386 14.3828 397.09 33.405C381.892 52.4272 374.293 76.9893 374.293 107.091C374.293 137.194 381.892 161.707 397.09 180.631ZM568.142 4.57756H592.116L654.036 172.689L715.809 1.19475L783.76 173.424L842.591 4.57756H847.298L775.082 212.694L706.396 39.1411L644.77 212.694L568.142 4.57756ZM930.691 115.328H901.717L1016.59 209.164H1010.11L899.805 119.152V209.164H876.861V4.57756H930.691C950.4 4.57756 967.167 9.18603 980.992 18.403C994.818 27.6199 1001.73 41.4943 1001.73 60.0262C1001.73 72.2828 996.877 84.5884 987.17 96.943C977.56 109.2 958.734 115.328 930.691 115.328ZM899.805 111.063H923.043C941.771 111.063 955.45 106.846 964.078 98.4138C972.805 89.9813 977.168 77.1854 977.168 60.0262C977.168 42.8671 972.854 30.0712 964.225 21.6387C955.597 13.1081 941.869 8.84284 923.043 8.84284H899.805V111.063ZM1230.44 65.0269C1236.12 78.1659 1238.97 92.1875 1238.97 107.091C1238.97 121.995 1236.12 136.115 1230.44 149.45C1224.85 162.687 1217.2 173.914 1207.49 183.131C1197.88 192.348 1186.41 199.653 1173.08 205.046C1159.84 210.439 1145.82 213.135 1131.01 213.135C1116.3 213.135 1102.28 210.439 1088.95 205.046C1075.61 199.653 1064.09 192.348 1054.38 183.131C1044.78 173.914 1037.13 162.687 1031.44 149.45C1025.75 136.115 1022.91 120.819 1022.91 103.562C1022.91 86.3043 1027.71 69.4883 1037.32 53.1135C1047.03 36.7388 1060.17 23.9429 1076.74 14.726C1093.31 5.41101 1110.23 0.753512 1127.48 0.753512C1144.74 0.753512 1159.99 3.49898 1173.22 8.98992C1186.46 14.3828 1197.88 21.7858 1207.49 31.1988C1217.2 40.6118 1224.85 51.8879 1230.44 65.0269ZM1071 180.631C1086.3 199.457 1106.3 208.87 1131.01 208.87C1155.72 208.87 1175.68 199.457 1190.87 180.631C1206.17 161.707 1213.82 137.194 1213.82 107.091C1213.82 76.9893 1206.17 52.4272 1190.87 33.405C1175.68 14.3828 1155.72 4.87172 1131.01 4.87172C1106.3 4.87172 1086.3 14.3828 1071 33.405C1055.81 52.4272 1048.21 76.9893 1048.21 107.091C1048.21 137.194 1055.81 161.707 1071 180.631ZM1471.65 65.0269C1477.33 78.1659 1480.18 92.1875 1480.18 107.091C1480.18 121.995 1477.33 136.115 1471.65 149.45C1466.06 162.687 1458.41 173.914 1448.7 183.131C1439.09 192.348 1427.62 199.653 1414.29 205.046C1401.05 210.439 1387.03 213.135 1372.22 213.135C1357.51 213.135 1343.49 210.439 1330.16 205.046C1316.82 199.653 1305.3 192.348 1295.59 183.131C1285.98 173.914 1278.34 162.687 1272.65 149.45C1266.96 136.115 1264.12 120.819 1264.12 103.562C1264.12 86.3043 1268.92 69.4883 1278.53 53.1135C1288.24 36.7388 1301.38 23.9429 1317.95 14.726C1334.52 5.41101 1351.43 0.753512 1368.69 0.753512C1385.95 0.753512 1401.2 3.49898 1414.43 8.98992C1427.67 14.3828 1439.09 21.7858 1448.7 31.1988C1458.41 40.6118 1466.06 51.8879 1471.65 65.0269ZM1312.21 180.631C1327.51 199.457 1347.51 208.87 1372.22 208.87C1396.93 208.87 1416.88 199.457 1432.08 180.631C1447.38 161.707 1455.03 137.194 1455.03 107.091C1455.03 76.9893 1447.38 52.4272 1432.08 33.405C1416.88 14.3828 1396.93 4.87172 1372.22 4.87172C1347.51 4.87172 1327.51 14.3828 1312.21 33.405C1297.02 52.4272 1289.42 76.9893 1289.42 107.091C1289.42 137.194 1297.02 161.707 1312.21 180.631ZM1713 1.19475L1743.74 209.164H1719.62L1695.5 46.0538L1612.84 212.694L1525.92 46.495L1502.09 209.164H1497.83L1528.42 1.19475L1622.55 182.69L1713 1.19475ZM1795.07 38.6998C1795.07 43.7986 1795.76 47.7697 1797.13 50.6132C1798.6 53.3587 1799.78 55.4668 1800.66 56.9376C1801.54 58.4084 1803.16 60.2714 1805.52 62.5266C1807.87 64.6837 1809.68 66.3996 1810.96 67.6743C1812.33 68.949 1814.83 70.9101 1818.46 73.5575C1822.09 76.2049 1824.78 78.1659 1826.55 79.4406C1828.41 80.7153 1831.74 83.0195 1836.55 86.3533C1841.45 89.5891 1844.98 91.9913 1847.14 93.5602C1849.3 95.031 1852.48 97.2862 1856.7 100.326C1860.92 103.365 1864 105.768 1865.96 107.533C1868.02 109.298 1870.67 111.7 1873.91 114.74C1877.24 117.681 1880.72 121.603 1884.35 126.506C1887.98 131.408 1890.67 136.409 1892.44 141.508C1894.2 146.509 1895.09 152.441 1895.09 159.304C1895.09 166.07 1893.66 172.541 1890.82 178.719C1887.98 184.896 1884.3 189.995 1879.79 194.015C1875.38 198.035 1870.18 201.418 1864.2 204.163C1858.22 206.811 1852.19 208.674 1846.11 209.752C1840.13 210.929 1832.43 211.517 1823.02 211.517C1813.6 211.517 1804.14 209.507 1794.63 205.487C1785.22 201.467 1778.7 197.986 1775.07 195.045L1772.42 193.132V183.131C1773.99 184.994 1779.68 189.505 1789.48 196.662C1799.29 203.82 1812.87 207.399 1830.22 207.399C1842.97 207.399 1853.56 203.722 1861.99 196.368C1870.43 189.014 1874.64 179.944 1874.64 169.159C1874.64 158.373 1871.46 148.96 1865.08 140.92C1858.71 132.879 1847.73 123.319 1832.14 112.239C1826.16 107.925 1821.69 104.738 1818.75 102.679C1815.91 100.62 1812.13 97.7764 1807.43 94.1485C1802.72 90.4225 1797.97 86.3043 1793.16 81.7939C1788.45 77.1854 1784.63 71.9886 1781.69 66.2035C1778.85 60.3204 1777.42 53.8489 1777.42 46.7892C1777.42 39.7294 1779.14 33.2579 1782.57 27.3748C1786 21.3936 1791.98 15.6575 1800.51 10.1666C1809.05 4.57756 1820.13 1.78306 1833.75 1.78306C1847.38 1.78306 1859.35 3.89119 1869.64 8.10745L1874.35 10.1666V19.4325C1873.86 19.0403 1872.83 18.2069 1871.26 16.9322C1869.69 15.6575 1865.38 13.5494 1858.32 10.6078C1851.26 7.56816 1842.78 6.04835 1832.87 6.04835C1822.97 6.04835 1814.19 9.08797 1806.55 15.1672C1798.9 21.1484 1795.07 28.9926 1795.07 38.6998Z" fill="black"/>
</svg>
