<svg width="892" height="536" viewBox="0 0 892 536" fill="none" xmlns="http://www.w3.org/2000/svg">
<path opacity="0.2" d="M281.121 338.683H352.087V345.035H281.121V439H246.952V345.035H108.743L281.121 128.413V338.683ZM246.952 338.683V182.514L122.323 338.683H246.952ZM593.022 220.187C599.155 240.484 602.221 262.679 602.221 286.773C602.221 310.866 599.155 333.062 593.022 353.359C586.889 373.51 578.785 390.156 568.709 403.298C558.634 416.44 547.171 426.661 534.321 433.962C521.617 441.263 508.475 444.914 494.896 444.914C481.316 444.914 468.174 441.263 455.47 433.962C442.766 426.661 431.303 416.44 421.082 403.298C411.006 390.156 402.902 373.51 396.769 353.359C390.636 333.062 387.57 312.108 387.57 290.496C387.57 268.885 390.417 245.887 396.112 221.502C401.953 196.97 414.292 175.359 433.129 156.668C451.965 137.977 472.554 128.632 494.896 128.632C508.475 128.632 521.617 132.283 534.321 139.584C547.171 146.885 558.634 157.106 568.709 170.248C578.785 183.244 586.889 199.89 593.022 220.187ZM548.777 399.574C561.043 373.583 567.176 335.982 567.176 286.773C567.176 237.564 561.043 199.963 548.777 173.972C536.658 147.834 518.77 134.765 495.115 134.765C471.459 134.765 453.499 147.834 441.233 173.972C428.967 199.963 422.834 237.564 422.834 286.773C422.834 335.982 428.894 373.583 441.014 399.574C453.279 425.566 471.24 438.562 494.896 438.562C518.551 438.562 536.512 425.566 548.777 399.574ZM807.235 338.683H878.201V345.035H807.235V439H773.066V345.035H634.857L807.235 128.413V338.683ZM773.066 338.683V182.514L648.437 338.683H773.066Z" fill="black"/>
<path d="M180.801 237.602H250.41V243.832H180.801V336H147.285V243.832H11.7188L180.801 31.3516V237.602ZM147.285 237.602V84.418L25.0391 237.602H147.285ZM486.738 121.371C492.754 141.28 495.762 163.051 495.762 186.684C495.762 210.316 492.754 232.087 486.738 251.996C480.723 271.762 472.773 288.09 462.891 300.98C453.008 313.871 441.764 323.897 429.16 331.059C416.699 338.22 403.809 341.801 390.488 341.801C377.168 341.801 364.277 338.22 351.816 331.059C339.355 323.897 328.112 313.871 318.086 300.98C308.203 288.09 300.254 271.762 294.238 251.996C288.223 232.087 285.215 211.534 285.215 190.336C285.215 169.138 288.008 146.579 293.594 122.66C299.323 98.5977 311.426 77.3997 329.902 59.0664C348.379 40.7331 368.574 31.5664 390.488 31.5664C403.809 31.5664 416.699 35.1471 429.16 42.3086C441.764 49.4701 453.008 59.4961 462.891 72.3867C472.773 85.1341 480.723 101.462 486.738 121.371ZM443.34 297.328C455.371 271.833 461.387 234.952 461.387 186.684C461.387 138.415 455.371 101.534 443.34 76.0391C431.452 50.401 413.906 37.582 390.703 37.582C367.5 37.582 349.883 50.401 337.852 76.0391C325.82 101.534 319.805 138.415 319.805 186.684C319.805 234.952 325.749 271.833 337.637 297.328C349.668 322.823 367.285 335.57 390.488 335.57C413.691 335.57 431.309 322.823 443.34 297.328ZM696.855 237.602H766.465V243.832H696.855V336H663.34V243.832H527.773L696.855 31.3516V237.602ZM663.34 237.602V84.418L541.094 237.602H663.34Z" fill="#F57D02"/>
</svg>
