<svg width="1891" height="198" viewBox="0 0 1891 198" fill="none" xmlns="http://www.w3.org/2000/svg">
<path opacity="0.4" d="M104.349 8.38262H21.5935V95.0786H90.8959V99.0194H21.5935V189.52H104.349V193.461H0.395067V4.4419H104.349V8.38262ZM124.052 4.4419H146.474L209.118 163.022L272.034 4.4419H276.382L200.285 196.722L124.052 4.4419ZM406.29 8.38262H323.535V95.0786H392.837V99.0194H323.535V189.52H406.29V193.461H302.336V4.4419H406.29V8.38262ZM577.508 4.4419H581.449V196.722L441.892 38.006V193.461H437.952V1.31649L577.508 159.761V4.4419ZM747.503 4.4419V8.38262H689.615V193.461H668.552V8.38262H610.664V4.4419H747.503ZM779.164 35.9677C779.164 40.6785 779.799 44.3474 781.067 46.9746C782.426 49.5111 783.513 51.4589 784.328 52.8177C785.143 54.1766 786.638 55.8978 788.812 57.9814C790.987 59.9744 792.662 61.5598 793.84 62.7375C795.108 63.9152 797.419 65.727 800.77 68.173C804.122 70.6189 806.614 72.4308 808.244 73.6085C809.965 74.7862 813.046 76.915 817.485 79.9952C822.014 82.9847 825.275 85.2042 827.268 86.6536C829.261 88.0125 832.206 90.0961 836.101 92.9044C839.997 95.7128 842.85 97.9323 844.662 99.5629C846.564 101.194 849.01 103.413 852 106.221C855.08 108.939 858.296 112.563 861.648 117.092C865 121.622 867.491 126.242 869.122 130.953C870.752 135.573 871.568 141.054 871.568 147.395C871.568 153.646 870.254 159.625 867.627 165.332C865 171.04 861.603 175.75 857.435 179.465C853.359 183.179 848.557 186.304 843.031 188.841C837.505 191.287 831.934 193.008 826.317 194.004C820.791 195.092 813.68 195.635 804.983 195.635C796.286 195.635 787.544 193.778 778.757 190.064C770.06 186.35 764.036 183.134 760.684 180.416L758.238 178.649V169.409C759.687 171.13 764.942 175.297 774.001 181.911C783.06 188.524 795.607 191.83 811.641 191.83C823.418 191.83 833.202 188.433 840.993 181.639C848.784 174.844 852.679 166.465 852.679 156.5C852.679 146.535 849.735 137.838 843.847 130.409C837.958 122.981 827.812 114.148 813.408 103.911C807.882 99.9253 803.76 96.9811 801.042 95.0786C798.415 93.1762 794.927 90.5491 790.579 87.1972C786.23 83.7547 781.837 79.9499 777.398 75.7827C773.049 71.5249 769.516 66.7235 766.799 61.3786C764.171 55.9431 762.858 49.9641 762.858 43.4415C762.858 36.9189 764.443 30.9399 767.614 25.5044C770.785 19.9783 776.311 14.6787 784.192 9.60561C792.074 4.4419 802.31 1.86004 814.903 1.86004C827.495 1.86004 838.547 3.80776 848.059 7.70319L852.408 9.60561V18.1665C851.955 17.8041 851.003 17.0341 849.554 15.8564C848.104 14.6787 844.118 12.731 837.596 10.0133C831.073 7.20494 823.237 5.80077 814.087 5.80077C804.938 5.80077 796.83 8.6091 789.764 14.2258C782.697 19.7519 779.164 26.9992 779.164 35.9677ZM983.403 36.9189C983.403 26.4103 986.302 17.8041 992.1 11.1004C997.988 4.30601 1006.23 0.908831 1016.83 0.908831C1027.43 0.908831 1035.54 3.71717 1041.15 9.33383C1046.86 14.8599 1049.72 21.8807 1049.72 30.3963C1049.72 38.9119 1047.18 46.2046 1042.11 52.2742C1037.03 58.3438 1029.88 64.5493 1020.64 70.8907L1088.31 157.587C1097.1 143.183 1102.35 125.019 1104.07 103.096H1107.47C1105.47 126.469 1099.86 145.674 1090.62 160.712L1116.16 193.461H1091.03L1077.71 176.475C1062.94 190.245 1042.69 197.13 1016.97 197.13C996.403 197.13 980.413 192.51 968.999 183.269C957.584 174.029 951.877 162.162 951.877 147.667C951.877 133.172 955.048 122.075 961.389 114.375C967.821 106.674 973.845 100.514 979.462 95.894C985.169 91.2738 992.688 85.7477 1002.02 79.3157C989.608 64.6399 983.403 50.5076 983.403 36.9189ZM1019.55 193.189C1042.74 193.189 1061.31 186.621 1075.26 173.486L1004.47 82.577C994.138 91.002 986.392 100.016 981.229 109.619C976.155 119.131 973.619 130.726 973.619 144.406C973.619 158.085 977.514 169.635 985.305 179.057C993.187 188.478 1004.6 193.189 1019.55 193.189ZM998.894 25.9121C998.894 31.257 999.619 36.4207 1001.07 41.4032C1002.61 46.2951 1007.14 53.5878 1014.66 63.281L1018.33 68.0371C1030.92 58.1626 1037.26 45.661 1037.35 30.5322C1037.35 23.1943 1035.76 17.0794 1032.59 12.1875C1029.51 7.20494 1024.62 4.71367 1017.92 4.71367C1011.21 4.71367 1006.37 6.93316 1003.38 11.3721C1000.39 15.8111 998.894 20.6578 998.894 25.9121ZM1341.47 4.4419H1345.41V196.722L1205.85 38.006V193.461H1201.91V1.31649L1341.47 159.761V4.4419ZM1484.69 8.38262H1401.94V95.0786H1471.24V99.0194H1401.94V189.52H1484.69V193.461H1380.74V4.4419H1484.69V8.38262ZM1505.89 4.4419H1528.04L1585.25 159.761L1642.32 1.31649L1705.1 160.44L1759.45 4.4419H1763.8L1697.08 196.722L1633.62 36.3754L1576.69 196.722L1505.89 4.4419ZM1798.59 35.9677C1798.59 40.6785 1799.22 44.3474 1800.49 46.9746C1801.85 49.5111 1802.94 51.4589 1803.75 52.8177C1804.57 54.1766 1806.06 55.8978 1808.24 57.9814C1810.41 59.9744 1812.09 61.5598 1813.27 62.7375C1814.53 63.9152 1816.84 65.727 1820.2 68.173C1823.55 70.6189 1826.04 72.4308 1827.67 73.6085C1829.39 74.7862 1832.47 76.915 1836.91 79.9952C1841.44 82.9847 1844.7 85.2042 1846.69 86.6536C1848.69 88.0125 1851.63 90.0961 1855.53 92.9044C1859.42 95.7128 1862.28 97.9323 1864.09 99.5629C1865.99 101.194 1868.44 103.413 1871.43 106.221C1874.51 108.939 1877.72 112.563 1881.07 117.092C1884.43 121.622 1886.92 126.242 1888.55 130.953C1890.18 135.573 1890.99 141.054 1890.99 147.395C1890.99 153.646 1889.68 159.625 1887.05 165.332C1884.43 171.04 1881.03 175.75 1876.86 179.465C1872.78 183.179 1867.98 186.304 1862.46 188.841C1856.93 191.287 1851.36 193.008 1845.74 194.004C1840.22 195.092 1833.11 195.635 1824.41 195.635C1815.71 195.635 1806.97 193.778 1798.18 190.064C1789.49 186.35 1783.46 183.134 1780.11 180.416L1777.66 178.649V169.409C1779.11 171.13 1784.37 175.297 1793.43 181.911C1802.49 188.524 1815.03 191.83 1831.07 191.83C1842.84 191.83 1852.63 188.433 1860.42 181.639C1868.21 174.844 1872.1 166.465 1872.1 156.5C1872.1 146.535 1869.16 137.838 1863.27 130.409C1857.38 122.981 1847.24 114.148 1832.83 103.911C1827.31 99.9253 1823.19 96.9811 1820.47 95.0786C1817.84 93.1762 1814.35 90.5491 1810 87.1972C1805.66 83.7547 1801.26 79.9499 1796.82 75.7827C1792.47 71.5249 1788.94 66.7235 1786.22 61.3786C1783.6 55.9431 1782.28 49.9641 1782.28 43.4415C1782.28 36.9189 1783.87 30.9399 1787.04 25.5044C1790.21 19.9783 1795.74 14.6787 1803.62 9.60561C1811.5 4.4419 1821.74 1.86004 1834.33 1.86004C1846.92 1.86004 1857.97 3.80776 1867.48 7.70319L1871.83 9.60561V18.1665C1871.38 17.8041 1870.43 17.0341 1868.98 15.8564C1867.53 14.6787 1863.54 12.731 1857.02 10.0133C1850.5 7.20494 1842.66 5.80077 1833.51 5.80077C1824.36 5.80077 1816.26 8.6091 1809.19 14.2258C1802.12 19.7519 1798.59 26.9992 1798.59 35.9677Z" fill="black"/>
</svg>
