<svg width="56" height="56" viewBox="0 0 56 56" fill="none" xmlns="http://www.w3.org/2000/svg">
<path d="M33.948 15.9141H22.0636C18.6787 15.9141 15.916 18.6643 15.916 22.0616V33.9461C15.916 37.331 18.6662 40.0936 22.0636 40.0936H33.948C37.3329 40.0936 40.0956 37.3434 40.0956 33.9461V22.0616C40.0831 18.6643 37.3329 15.9141 33.948 15.9141ZM27.9996 35.9496C23.6191 35.9496 20.0476 32.3781 20.0476 27.9976C20.0476 23.6172 23.6191 20.0456 27.9996 20.0456C32.38 20.0456 35.9516 23.6172 35.9516 27.9976C35.9516 32.3781 32.38 35.9496 27.9996 35.9496ZM36.3498 20.9292C35.6031 20.9292 35.0058 20.3318 35.0058 19.5852C35.0058 18.8385 35.6031 18.2412 36.3498 18.2412C37.0965 18.2412 37.6938 18.8385 37.6938 19.5852C37.6938 20.3318 37.0965 20.9292 36.3498 20.9292Z" fill="#37474F"/>
<path d="M32.834 28.0609C32.866 25.3942 30.7301 23.2065 28.0635 23.1745C25.3968 23.1425 23.2091 25.2783 23.1771 27.945C23.1451 30.6117 25.2809 32.7994 27.9476 32.8314C30.6143 32.8634 32.802 30.7276 32.834 28.0609Z" fill="#37474F"/>
<path d="M28 0C12.5316 0 0 12.5316 0 28C0 43.4684 12.5316 56 28 56C43.4684 56 56 43.4684 56 28C56 12.5316 43.4684 0 28 0ZM43.5555 33.9484C43.5555 39.2498 39.2498 43.5555 33.9484 43.5555H22.064C16.7627 43.5555 12.4569 39.2498 12.4569 33.9484V22.064C12.4569 16.7627 16.7627 12.4569 22.064 12.4569H33.9484C39.2498 12.4569 43.5555 16.7627 43.5555 22.064V33.9484Z" fill="#37474F"/>
</svg>
