<svg width="24" height="24" viewBox="0 0 24 24" fill="none" xmlns="http://www.w3.org/2000/svg">
<path d="M1.47 5.41C1.73841 4.98053 2.11118 4.626 2.55357 4.37945C2.99595 4.13291 3.49356 4.00237 4 4H20C20.5064 4.00237 21.004 4.13291 21.4464 4.37945C21.8888 4.626 22.2616 4.98053 22.53 5.41L12 12.78L1.47 5.41ZM23 7.52L16.1 12.35L22.7 18.28C22.8967 17.8819 22.9993 17.444 23 17V7.52ZM1 7.52V17C1.00069 17.444 1.10333 17.8819 1.3 18.28L7.9 12.35L1 7.52ZM14.42 13.52L12.57 14.81C12.4026 14.9261 12.2037 14.9884 12 14.9884C11.7963 14.9884 11.5974 14.9261 11.43 14.81L9.58 13.53L2.72 19.7C3.11807 19.8967 3.55599 19.9993 4 20H20C20.447 19.9974 20.8877 19.8949 21.29 19.7L14.42 13.52Z" fill="#7A7A7A"/>
</svg>
