<svg width="233" height="65" viewBox="0 0 233 65" fill="none" xmlns="http://www.w3.org/2000/svg">
<g clip-path="url(#clip0_9725_270)">
<path d="M232.746 45.4029H1199.5V46.8077H1.10938V45.4029H203.863V5.21177L196.039 10.564V8.86424C200.295 5.90013 204.552 2.95007 208.808 0V45.4029H227.787V5.21177L219.962 10.564V8.86424C224.219 5.90013 228.475 2.95007 232.732 0V45.4029H232.746Z" fill="#F57D02"/>
<path d="M172.326 36.9007V21.5042L160.863 2.104H165.878L176.386 19.973L186.866 2.104H188.369L176.779 21.9256V37.1958H172.326V36.9007ZM142.516 20.0573H146.141C147.7 20.0573 149.035 19.8887 150.158 19.5375C151.268 19.2003 152.181 18.6806 152.87 18.0063C153.558 17.332 154.092 16.461 154.443 15.4355C154.794 14.3819 154.977 13.1597 154.977 11.7409C154.977 8.93128 154.274 6.83814 152.884 5.46144C152.195 4.77309 151.282 4.26737 150.172 3.93022C149.049 3.57902 147.7 3.41045 146.141 3.41045H142.516V20.0713V20.0573ZM147.433 21.3637H143.373L162.113 36.676L161.931 37.1958H160.835L160.652 37.1255L142.53 22.333V37.1958H138.077V2.104H147.447C149.133 2.104 150.692 2.30065 152.139 2.69399C153.586 3.08734 154.907 3.69142 156.101 4.47811C157.309 5.29289 158.222 6.30435 158.826 7.51247C159.43 8.72059 159.739 10.1394 159.739 11.7409C159.739 12.8085 159.528 13.8762 159.107 14.9579C158.685 16.0255 158.067 17.0791 157.239 18.1467C156.382 19.2284 155.131 20.0432 153.488 20.577C151.872 21.1109 149.863 21.3778 147.461 21.3778L147.433 21.3637ZM132.57 3.39639H117.75V18.6384H130.407V19.9449H117.75V35.8753H132.851V37.1817H113.283V2.08994H132.851V3.39639H132.556H132.57ZM90.9463 36.8867V2.08994H95.3995V35.8753H108.689V37.1817H90.9323V36.8867H90.9463ZM68.5961 36.8867V2.08994H73.0493V35.8753H86.3386V37.1817H68.582V36.8867H68.5961ZM59.6054 36.9991L55.4613 26.421H44.1527L44.6584 25.1285H54.9555L48.4232 8.50986C44.6724 18.0765 40.9076 27.6291 37.1568 37.2098H35.752L49.7999 1.42969H50.3478L64.3957 37.2098H59.6756L59.6054 37.0272V36.9991ZM18.5433 36.5495C20.3976 36.5495 22.0974 36.3669 23.6427 35.9876C25.1318 35.6364 26.4804 35.1026 27.6885 34.4143V18.9756H32.1276V33.9085L32.0012 33.9928C30.2171 35.2852 28.1942 36.2405 25.9465 36.8867C23.6989 37.5329 21.2405 37.842 18.5433 37.842C16.8435 37.842 15.228 37.6453 13.6686 37.2519C12.1093 36.8586 10.6343 36.2545 9.21545 35.4679C7.79661 34.6812 6.5323 33.7259 5.40846 32.6442C4.28463 31.5485 3.31532 30.2982 2.48649 28.9074C1.65766 27.5167 1.03955 26.0979 0.618113 24.665C0.196675 23.218 0 21.7571 0 20.282C0 18.807 0.126434 17.4303 0.365249 16.1239C0.604064 14.8174 0.969309 13.6093 1.46099 12.4714C1.95266 11.3476 2.51458 10.308 3.17484 9.33868C3.83509 8.36937 4.57963 7.48436 5.39441 6.66958C6.22324 5.86885 7.13636 5.13835 8.11972 4.50619C9.10307 3.87403 10.1707 3.31212 11.3226 2.84854C12.4746 2.38496 13.6405 2.03378 14.8487 1.80901C16.0568 1.57019 17.279 1.45781 18.5433 1.45781C20.7207 1.45781 22.7717 1.6966 24.6963 2.17423C26.6208 2.65186 28.4049 3.3683 30.0626 4.32356L30.2031 4.40784V7.03484L29.7114 6.59932C29.023 5.98121 28.2645 5.43338 27.4216 4.96979C26.5927 4.49217 25.6796 4.08474 24.6963 3.74759C23.7129 3.41044 22.7015 3.15761 21.676 2.98903C20.6505 2.82046 19.6109 2.73614 18.5292 2.73614C16.5906 2.73614 14.8065 3.12952 13.191 3.9162C11.5615 4.70288 10.1005 5.89693 8.79401 7.48434C7.47351 9.07176 6.49015 10.884 5.8299 12.9069C5.16964 14.9298 4.84654 17.1774 4.84654 19.6499C4.84654 22.1223 5.21179 24.3981 5.92823 26.5053C6.29348 27.5589 6.71492 28.5281 7.19255 29.4272C7.68422 30.3263 8.23209 31.1411 8.83615 31.8716C9.44021 32.6021 10.1145 33.2623 10.845 33.8383C11.5615 34.4143 12.3481 34.9059 13.177 35.3133C14.0198 35.7207 14.8908 36.0298 15.7758 36.2405C16.6609 36.4512 17.588 36.5495 18.5433 36.5495Z" fill="#37474F"/>
<path d="M172.958 60.3514H175.599C176.147 60.3514 176.583 60.1828 176.92 59.8597C177.243 59.5366 177.412 59.1011 177.412 58.5392C177.412 57.9773 177.243 57.5559 176.92 57.2188C176.597 56.8957 176.161 56.7271 175.599 56.7271H172.958V60.3374V60.3514ZM171.989 64.8608V55.842H175.599C176.4 55.842 177.06 56.0949 177.58 56.6147C178.1 57.1344 178.367 57.7807 178.367 58.5533C178.367 59.3821 178.058 60.0705 177.426 60.6183C177.131 60.8572 176.822 61.0257 176.498 61.1381L178.62 64.8749H177.524L175.529 61.2645H172.944V64.8749H171.975L171.989 64.8608ZM161.903 64.8608V55.842H168.098V56.7411H162.872V59.7052H167.058V60.6043H162.872V63.9618H168.224V64.8608H161.903ZM154.654 64.8608V56.7411H151.816V55.842H158.461V56.7411H155.623V64.8608H154.654ZM141.013 64.8608V55.842H141.856L147.405 63.1329V55.842H148.375V64.8608H147.532L141.983 57.57V64.8608H141.013ZM130.927 64.8608V55.842H137.122V56.7411H131.896V59.7052H136.083V60.6043H131.896V63.9618H137.249V64.8608H130.927ZM126.572 62.5429L127.218 63.1189C126.923 63.4982 126.6 63.8072 126.263 64.0601C125.42 64.6782 124.493 64.9873 123.482 64.9873C122.189 64.9873 121.093 64.5377 120.194 63.6386C119.295 62.7396 118.846 61.6438 118.846 60.3514C118.846 59.059 119.295 57.9633 120.194 57.0642C121.093 56.1651 122.189 55.7156 123.482 55.7156C124.493 55.7156 125.406 56.0247 126.235 56.6568C126.6 56.9378 126.895 57.2468 127.148 57.584L126.502 58.16C126.291 57.8649 126.038 57.5981 125.757 57.3873C125.111 56.8676 124.353 56.6147 123.482 56.6147C122.456 56.6147 121.585 56.9799 120.869 57.6964C120.166 58.4128 119.801 59.2978 119.801 60.3655C119.801 61.4331 120.152 62.3041 120.869 63.0346C121.571 63.751 122.442 64.1163 123.482 64.1163C124.367 64.1163 125.139 63.8634 125.799 63.3436C126.094 63.1189 126.347 62.866 126.572 62.571V62.5429ZM103.519 64.8608V55.842H104.362L109.911 63.1329V55.842H110.881V64.8608H110.038L104.489 57.57V64.8608H103.519ZM96.2707 61.1241V60.225H99.3051V63.1329C99.0241 63.4841 98.701 63.7932 98.3217 64.0741C97.4507 64.6922 96.5095 65.0013 95.4981 65.0013C94.2057 65.0013 93.1099 64.5518 92.2109 63.6527C91.3118 62.7536 90.8623 61.6579 90.8623 60.3655C90.8623 59.0731 91.3118 57.9773 92.2109 57.0783C93.1099 56.1792 94.2057 55.7296 95.4981 55.7296C96.5095 55.7296 97.4227 56.0387 98.2515 56.6709C98.6167 56.9518 98.9117 57.2609 99.1646 57.598L98.5184 58.174C98.3077 57.879 98.0548 57.6121 97.7738 57.4013C97.1276 56.8816 96.3691 56.6287 95.4981 56.6287C94.4726 56.6287 93.6016 56.994 92.8852 57.7104C92.1828 58.4269 91.8175 59.3119 91.8175 60.3795C91.8175 61.4472 92.1687 62.3182 92.8852 63.0486C93.6016 63.7651 94.4585 64.1303 95.4981 64.1303C96.3269 64.1303 97.0434 63.9337 97.6334 63.5263C97.9143 63.3436 98.1391 63.1329 98.3358 62.9082V61.1662H96.2707V61.1241ZM85.9314 64.8608V55.842H86.9008V64.8608H85.9314ZM76.0417 63.6386L76.6177 62.9784C76.7862 63.1891 76.9829 63.3717 77.2077 63.5263C77.6993 63.8915 78.3315 64.0741 79.062 64.0741C79.7223 64.0741 80.228 63.9196 80.5932 63.6106C80.9444 63.3015 81.1271 62.8941 81.1271 62.3884C81.1271 62.0793 81.0428 61.8124 80.8601 61.6017C80.6775 61.391 80.4387 61.2224 80.1577 61.096C79.8627 60.9695 79.5537 60.8572 79.2025 60.7588C78.8513 60.6605 78.5001 60.5481 78.1629 60.4217C77.8117 60.2953 77.5027 60.1548 77.2077 59.9721C76.9127 59.8036 76.6879 59.5647 76.5053 59.2557C76.3226 58.9466 76.2384 58.5674 76.2384 58.1319C76.2384 57.4576 76.5053 56.8675 77.0391 56.404C77.5729 55.9263 78.2753 55.6875 79.1463 55.6875C79.8768 55.6875 80.537 55.8842 81.113 56.2635C81.3659 56.432 81.5906 56.6147 81.7873 56.8394L81.1411 57.4856C81.0147 57.3452 80.8601 57.1907 80.6354 57.0361C80.1577 56.7411 79.652 56.5866 79.1463 56.5866C78.5563 56.5866 78.0787 56.7411 77.7275 57.0361C77.3763 57.3311 77.2077 57.6964 77.2077 58.1319C77.2077 58.4409 77.292 58.7078 77.4746 58.9186C77.6572 59.1433 77.896 59.3119 78.177 59.4243C78.472 59.5507 78.7811 59.649 79.1322 59.7474C79.4834 59.8457 79.8346 59.9581 80.1718 60.0845C80.523 60.2109 80.832 60.3514 81.1271 60.5341C81.4221 60.7026 81.6468 60.9415 81.8295 61.2505C82.0121 61.5596 82.0964 61.9388 82.0964 62.3743C82.0964 63.1329 81.8294 63.7651 81.2956 64.2427C80.7618 64.7204 80.0173 64.9591 79.076 64.9591C78.191 64.9591 77.4184 64.7344 76.7862 64.2849C76.4912 64.1022 76.2524 63.8634 76.0557 63.5965L76.0417 63.6386ZM66.7279 64.8608V55.842H72.923V56.7411H67.6972V59.7052H71.8835V60.6043H67.6972V63.9618H73.0495V64.8608H66.7279ZM56.192 63.9618H58.0603C59.1139 63.9618 59.999 63.6106 60.7294 62.9082C61.4459 62.2058 61.8111 61.3488 61.8111 60.3514C61.8111 59.354 61.4459 58.4971 60.7294 57.7947C60.013 57.0923 59.128 56.7411 58.0603 56.7411H56.192V63.9618ZM55.2227 64.8608V55.842H58.0603C59.3668 55.842 60.4766 56.2916 61.3897 57.1766C62.3028 58.0616 62.7664 59.1293 62.7664 60.3514C62.7664 61.5736 62.3028 62.6413 61.3897 63.5263C60.4766 64.4113 59.3668 64.8608 58.0603 64.8608H55.2227Z" fill="#37474F"/>
</g>
<defs>
<clipPath id="clip0_9725_270">
<rect width="233" height="65" fill="white"/>
</clipPath>
</defs>
</svg>
