<svg width="56" height="56" viewBox="0 0 56 56" fill="none" xmlns="http://www.w3.org/2000/svg">
<path fill-rule="evenodd" clip-rule="evenodd" d="M28 56C43.464 56 56 43.464 56 28C56 12.536 43.464 0 28 0C12.536 0 0 12.536 0 28C0 43.464 12.536 56 28 56ZM17.437 30.4471L9.90998 27.6377C9.14548 27.3512 9.13883 26.2719 9.90117 25.9779L40.7924 14.061C41.4472 13.8078 42.123 14.3815 41.9804 15.0692L36.4367 41.7351C36.306 42.3647 35.5679 42.6502 35.0469 42.2715L27.4793 36.7773C27.0197 36.4437 26.3932 36.4615 25.9534 36.8199L21.7577 40.2403C21.2707 40.6385 20.5369 40.4167 20.3505 39.8166L17.437 30.4471ZM34.5916 19.8913L19.8809 28.9516C19.3171 29.2996 19.0516 29.9805 19.2338 30.6179L20.8243 36.2066C20.9373 36.6026 21.5121 36.562 21.5669 36.1528L21.9804 33.088C22.0584 32.511 22.3337 31.9794 22.7604 31.5822L34.9009 20.297C35.128 20.0864 34.856 19.7289 34.5916 19.8913Z" fill="#37474F"/>
</svg>
