<svg width="56" height="56" viewBox="0 0 56 56" fill="none" xmlns="http://www.w3.org/2000/svg">
<path d="M28.0091 1.47647e-06C22.4708 -0.00179666 17.0564 1.63885 12.4507 4.71444C7.84488 7.79003 4.25464 12.1624 2.13399 17.2786C0.013348 22.3947 -0.542442 28.0249 0.536916 33.457C1.61628 38.889 4.2823 43.879 8.1978 47.7958C12.1133 51.7125 17.1024 54.3802 22.5341 55.4613C27.9658 56.5424 33.5962 55.9885 38.713 53.8695C43.8299 51.7505 48.2034 48.1617 51.2805 43.5569C54.3576 38.9521 56 33.5383 56 28C56 20.5755 53.0512 13.455 47.8022 8.20422C42.5531 2.95346 35.4336 0.00241202 28.0091 1.47647e-06V1.47647e-06ZM42.1454 38.7091H38.6909C37.3727 38.7091 36.9909 37.6818 34.6454 35.3818C32.5909 33.4364 31.7091 33.1818 31.2 33.1818C30.1 33.1818 30.2909 33.5455 30.2909 37.3909C30.2909 38.2273 30.0182 38.7091 27.8182 38.7091C24.1818 38.7091 20.1455 36.5273 17.2818 32.5091C13 26.6091 11.8273 22.1455 11.8273 21.2455C11.8273 20.7455 12.0273 20.3364 13.0091 20.3364H16.4636C17.3727 20.3364 17.6818 20.7091 18.0273 21.6546C19.7182 26.4909 22.5727 30.7455 23.7364 30.7455C24.1818 30.7455 24.3727 30.5455 24.3727 29.4546V24.4546C24.2455 22.1546 23 21.9636 23 21.1455C23.0068 21.0342 23.036 20.9255 23.0858 20.8259C23.1356 20.7262 23.2051 20.6376 23.29 20.5655C23.3749 20.4933 23.4735 20.439 23.5799 20.4059C23.6862 20.3728 23.7982 20.3615 23.9091 20.3727H29.3636C30.0909 20.3727 30.3454 20.7545 30.3454 21.6182V28.3364C30.3454 29.0545 30.6727 29.3091 30.8909 29.3091C31.3273 29.3091 31.7 29.0546 32.5 28.2636C34.244 26.1696 35.6741 23.833 36.7454 21.3273C36.8666 21.0342 37.0786 20.7877 37.3502 20.6241C37.6219 20.4605 37.9388 20.3883 38.2545 20.4182H41.6454C42.6909 20.4182 42.9091 20.9455 42.6909 21.6636C42.2545 23.6364 38.0454 29.4636 38.0364 29.4727C37.6727 30.0454 37.5273 30.3818 38.0364 30.9818C38.2364 31.2545 42.6727 35.3909 43.3273 37.4C43.6454 38.2273 43.1454 38.7091 42.1636 38.7091H42.1454Z" fill="white"/>
</svg>
