<svg width="16" height="16" viewBox="0 0 16 16" fill="none" xmlns="http://www.w3.org/2000/svg">
<path fill-rule="evenodd" clip-rule="evenodd" d="M7.99967 2.66927C5.05416 2.66927 2.66634 5.05709 2.66634 8.0026C2.66634 10.9481 5.05416 13.3359 7.99967 13.3359C10.9452 13.3359 13.333 10.9481 13.333 8.0026C13.333 5.05709 10.9452 2.66927 7.99967 2.66927ZM1.33301 8.0026C1.33301 4.32071 4.31778 1.33594 7.99967 1.33594C11.6816 1.33594 14.6663 4.32071 14.6663 8.0026C14.6663 11.6845 11.6816 14.6693 7.99967 14.6693C4.31778 14.6693 1.33301 11.6845 1.33301 8.0026ZM7.99967 4.93594C8.36786 4.93594 8.66634 5.23441 8.66634 5.6026L8.66634 7.83279C8.66634 8.03361 8.66709 8.13631 8.67429 8.20939C8.67441 8.21059 8.67453 8.21176 8.67465 8.2129C8.67558 8.21358 8.67653 8.21427 8.67752 8.21497C8.7372 8.25775 8.82577 8.30974 8.99968 8.41015L9.89189 8.92525C10.2108 9.10934 10.32 9.51707 10.1359 9.83593C9.95182 10.1548 9.5441 10.264 9.22523 10.08L8.33303 9.56486C8.32624 9.56094 8.31945 9.55702 8.31265 9.55309C8.16771 9.46945 8.02051 9.38451 7.9008 9.29871C7.76355 9.20034 7.62028 9.07252 7.51165 8.88437C7.40301 8.69622 7.36395 8.50823 7.34739 8.34019C7.33294 8.19362 7.33297 8.02368 7.33301 7.85635C7.33301 7.84849 7.33301 7.84064 7.33301 7.83279L7.33301 5.6026C7.33301 5.23441 7.63148 4.93594 7.99967 4.93594Z" fill="#7A7A7A"/>
</svg>
