<svg width="40" height="40" viewBox="0 0 40 40" fill="none" xmlns="http://www.w3.org/2000/svg">
<rect width="40" height="40" rx="4" fill="#26343C"/>
<path fill-rule="evenodd" clip-rule="evenodd" d="M20 11C18.1686 11 16.7143 12.454 16.7143 14.2105C16.7143 15.967 18.1686 17.4211 20 17.4211C21.8314 17.4211 23.2857 15.967 23.2857 14.2105C23.2857 12.454 21.8314 11 20 11ZM14.7143 14.2105C14.7143 11.3162 17.0975 9 20 9C22.9025 9 25.2857 11.3162 25.2857 14.2105C25.2857 17.1048 22.9025 19.4211 20 19.4211C17.0975 19.4211 14.7143 17.1048 14.7143 14.2105ZM11.5 25.7895C11.5 22.8952 13.8833 20.5789 16.7857 20.5789H23.2143C26.1167 20.5789 28.5 22.8952 28.5 25.7895C28.5 28.6838 26.1167 31 23.2143 31H16.7857C13.8833 31 11.5 28.6838 11.5 25.7895ZM16.7857 22.5789C14.9543 22.5789 13.5 24.033 13.5 25.7895C13.5 27.546 14.9543 29 16.7857 29H23.2143C25.0457 29 26.5 27.546 26.5 25.7895C26.5 24.033 25.0457 22.5789 23.2143 22.5789H16.7857Z" fill="#F57D02"/>
</svg>
