<svg width="40" height="40" viewBox="0 0 40 40" fill="none" xmlns="http://www.w3.org/2000/svg">
<rect x="-0.000976562" width="40" height="40" rx="20" fill="#37474F" fill-opacity="0.5"/>
<path d="M28.7791 27.7196L24.3024 23.2429C25.3614 21.9499 25.9989 20.2984 25.9989 18.4999C25.9989 14.3645 22.6344 11 18.4989 11C14.3635 11 10.999 14.3645 10.999 18.4999C10.999 22.6354 14.3635 25.9998 18.4989 25.9998C20.2974 25.9998 21.9489 25.3624 23.2419 24.3034L27.7186 28.7801C28.0118 29.0733 28.4858 29.0733 28.7791 28.7801C29.0723 28.4868 29.0723 28.0128 28.7791 27.7196ZM12.499 18.4999C12.499 15.1917 15.1907 12.5 18.4989 12.5C21.8072 12.5 24.4989 15.1917 24.4989 18.4999C24.4989 21.8081 21.8072 24.4999 18.4989 24.4999C15.1907 24.4999 12.499 21.8081 12.499 18.4999Z" fill="white"/>
<path d="M21.999 18.5C21.999 18.8864 21.6854 19.2 21.299 19.2H19.199V21.3C19.199 21.6864 18.8854 22 18.499 22C18.1126 22 17.799 21.6864 17.799 21.3V19.2H15.699C15.3126 19.2 14.999 18.8864 14.999 18.5C14.999 18.1136 15.3126 17.8 15.699 17.8H17.799V15.7C17.799 15.3136 18.1126 15 18.499 15C18.8854 15 19.199 15.3136 19.199 15.7V17.8H21.299C21.6854 17.8 21.999 18.1136 21.999 18.5Z" fill="white"/>
</svg>
