<svg width="60" height="61" viewBox="0 0 60 61" fill="none" xmlns="http://www.w3.org/2000/svg">
<path d="M56 0.5H4C1.79086 0.5 0 1.84315 0 3.5V57.5C0 59.1569 1.79086 60.5 4 60.5H56C58.2091 60.5 60 59.1569 60 57.5V3.5C60 1.84315 58.2091 0.5 56 0.5Z" fill="#FB6A6A"/>
<path opacity="0.6" d="M30.0847 26.275C30.8034 26.5238 30.654 26.8463 30.4329 28.3699C30.2071 29.9414 29.4502 32.8122 27.992 35.6362C26.5322 38.4556 24.3663 41.2259 22.4788 43.2764C20.5928 45.3281 18.9787 46.6613 17.7479 47.4313C16.5123 48.2012 15.6584 48.4069 15.1002 48.4746C14.5469 48.5424 14.2956 48.4746 14.1461 48.2678C13.9967 48.0622 13.9442 47.7234 14.073 47.3097C14.1986 46.9008 14.4992 46.4218 15.3515 45.8083C16.2118 45.1926 17.6191 44.439 19.583 43.7391C21.5469 43.0381 24.0626 42.3884 26.1283 41.9433C28.1939 41.5004 29.8032 41.2597 31.2121 41.0716C32.6242 40.8824 33.8312 40.748 35.0143 40.6779C36.1974 40.6125 37.3582 40.6125 38.4904 40.6779C39.6227 40.748 40.7294 40.8824 41.6883 41.0553C42.6424 41.2259 43.4503 41.4303 44.1547 41.7575C44.8576 42.08 45.4634 42.5251 45.764 43.0229C46.0693 43.5171 46.0693 44.0663 45.8165 44.4577C45.5652 44.8514 45.0595 45.0898 44.4823 45.2288C43.9035 45.3632 43.2499 45.3971 42.4675 45.2288C41.6883 45.0559 40.7787 44.6797 39.8246 44.1843C38.8689 43.6877 37.8607 43.0719 36.5536 42.115C35.2433 41.1581 33.6308 39.86 32.2728 38.5946C30.9147 37.3292 29.8032 36.0989 29.0479 35.0555C28.2957 34.0121 27.8918 33.158 27.5642 32.3039C27.2366 31.4475 26.9854 30.5934 26.8852 29.8246C26.785 29.0558 26.8311 28.3699 26.9329 27.8219C27.0331 27.2775 27.1873 26.8638 27.437 26.5893C27.6882 26.3205 28.0429 26.1803 28.2941 26.1126C28.5454 26.0448 28.698 26.0448 28.8475 26.0273C28.997 26.0097 29.1464 25.9759 29.377 26.0273C29.5965 26.0763 29.8875 26.2072 30.1785 26.3404" stroke="white" stroke-miterlimit="10" stroke-linejoin="round"/>
<path fill-rule="evenodd" clip-rule="evenodd" d="M40.7 9.5C40.4867 9.5 40.3133 9.545 40.18 9.635C40.06 9.715 40 9.82 40 9.95V11H42V12.5H40V17H42V18.5H36V17H38V12.5H36V11H38V9.65C38 9.14 38.1933 8.74 38.58 8.45C38.9667 8.15 39.4667 8 40.08 8H43V9.5L40.7 9.5ZM17.6 11V11.36C18.0133 11.12 18.5467 11 19.2 11H20.6C21.7733 11 22.6333 11.19 23.18 11.57C23.7267 11.94 24 12.55 24 13.4V16.1C24 16.94 23.72 17.55 23.16 17.93C22.6133 18.31 21.76 18.5 20.6 18.5H18.02V21.5H16V11H17.6ZM19.3 12.5C18.86 12.5 18.5333 12.59 18.32 12.77C18.1067 12.94 18 13.125 18 13.325L18.02 17H20.5C20.9933 17 21.3667 16.915 21.62 16.745C21.8733 16.575 22 16.335 22 16.025V13.475C22 13.165 21.8733 12.925 21.62 12.755C21.3667 12.585 20.9933 12.5 20.5 12.5H19.3ZM30.4 18.5C31.0267 18.5 31.56 18.385 32 18.155V18.5H34V8H32V11H29.52C28.36 11 27.38 11.19 26.82 11.57C26.2733 11.95 26 12.56 26 13.4V16.1C26 16.95 26.2733 17.565 26.82 17.945C27.3667 18.315 28.2267 18.5 29.4 18.5H30.4ZM31.68 16.745C31.4667 16.915 31.14 17 30.7 17H29.5C29.0067 17 28.6333 16.915 28.38 16.745C28.1267 16.575 28 16.335 28 16.025V13.475C28 13.165 28.1267 12.925 28.38 12.755C28.6333 12.585 29.0067 12.5 29.5 12.5H32V16.175C32 16.375 31.8933 16.565 31.68 16.745Z" fill="white"/>
</svg>
