<svg width="1914" height="440" viewBox="0 0 1914 440" fill="none" xmlns="http://www.w3.org/2000/svg">
<path opacity="0.05" d="M107.054 237.066H48.0831V431H0.663599V8.17602H107.054C147.988 8.17602 182.742 17.7004 211.316 36.7493C239.889 55.7982 254.176 84.4728 254.176 122.773C254.176 148.104 244.043 173.536 223.778 199.07C203.716 224.401 164.808 237.066 107.054 237.066ZM48.0831 16.9912V228.251H91.551C130.257 228.251 158.526 219.537 176.359 202.11C194.395 184.682 203.412 158.236 203.412 122.773C203.412 87.3099 194.496 60.8644 176.663 43.4367C158.83 25.8063 130.459 16.9912 91.551 16.9912H48.0831ZM650.25 8.17602V431H602.831V219.74H360.566V431H313.146V8.17602H360.566V210.925H602.831V8.17602H650.25ZM1144.81 133.108C1156.56 160.263 1162.44 189.242 1162.44 220.044C1162.44 250.846 1156.56 280.028 1144.81 307.588C1133.26 334.945 1117.45 358.148 1097.39 377.197C1077.53 396.246 1053.82 411.343 1026.26 422.489C998.905 433.634 969.926 439.207 939.327 439.207C908.93 439.207 879.951 433.634 852.391 422.489C824.831 411.343 801.02 396.246 780.958 377.197C761.098 358.148 745.292 334.945 733.538 307.588C721.785 280.028 715.908 248.415 715.908 212.749C715.908 177.083 725.838 142.329 745.697 108.487C765.759 74.6444 792.914 48.1989 827.161 29.15C861.409 9.89852 896.365 0.272766 932.031 0.272766C967.697 0.272766 999.209 5.9469 1026.57 17.2952C1053.92 28.4408 1077.53 43.7407 1097.39 63.1948C1117.45 82.649 1133.26 105.953 1144.81 133.108ZM815.306 372.03C846.919 410.938 888.26 430.392 939.327 430.392C990.394 430.392 1031.63 410.938 1063.04 372.03C1094.66 332.919 1110.46 282.257 1110.46 220.044C1110.46 157.831 1094.66 107.068 1063.04 67.7544C1031.63 28.4408 990.394 8.78396 939.327 8.78396C888.26 8.78396 846.919 28.4408 815.306 67.7544C783.896 107.068 768.191 157.831 768.191 220.044C768.191 282.257 783.896 332.919 815.306 372.03ZM1468.24 8.17602V16.9912H1338.75V431H1291.63V16.9912H1162.14V8.17602H1468.24ZM1896.23 133.108C1907.98 160.263 1913.86 189.242 1913.86 220.044C1913.86 250.846 1907.98 280.028 1896.23 307.588C1884.68 334.945 1868.87 358.148 1848.81 377.197C1828.95 396.246 1805.24 411.343 1777.68 422.489C1750.32 433.634 1721.34 439.207 1690.74 439.207C1660.35 439.207 1631.37 433.634 1603.81 422.489C1576.25 411.343 1552.44 396.246 1532.37 377.197C1512.52 358.148 1496.71 334.945 1484.96 307.588C1473.2 280.028 1467.32 248.415 1467.32 212.749C1467.32 177.083 1477.25 142.329 1497.11 108.487C1517.18 74.6444 1544.33 48.1989 1578.58 29.15C1612.83 9.89852 1647.78 0.272766 1683.45 0.272766C1719.11 0.272766 1750.63 5.9469 1777.98 17.2952C1805.34 28.4408 1828.95 43.7407 1848.81 63.1948C1868.87 82.649 1884.68 105.953 1896.23 133.108ZM1566.72 372.03C1598.34 410.938 1639.68 430.392 1690.74 430.392C1741.81 430.392 1783.05 410.938 1814.46 372.03C1846.07 332.919 1861.88 282.257 1861.88 220.044C1861.88 157.831 1846.07 107.068 1814.46 67.7544C1783.05 28.4408 1741.81 8.78396 1690.74 8.78396C1639.68 8.78396 1598.34 28.4408 1566.72 67.7544C1535.31 107.068 1519.61 157.831 1519.61 220.044C1519.61 282.257 1535.31 332.919 1566.72 372.03Z" fill="#37474F"/>
</svg>
