<svg width="957" height="114" viewBox="0 0 957 114" fill="none" xmlns="http://www.w3.org/2000/svg">
<path opacity="0.05" d="M49.6398 102.867C59.667 102.867 68.097 100.848 74.9298 96.8106V55.7476H85.2454V94.6144C75.795 101.403 63.9264 104.797 49.6398 104.797C40.6773 104.797 32.447 102.712 24.9487 98.541C17.4948 94.326 11.5716 88.5359 7.17914 81.1707C2.83103 73.8056 0.656979 66.2185 0.656979 58.4097C0.656979 50.6008 1.94366 43.7237 4.51703 37.7784C7.09041 31.833 10.5511 26.7306 14.8993 22.4712C19.2917 18.2119 24.505 14.8621 30.5391 12.4218C36.6176 9.93715 42.9845 8.69484 49.6398 8.69484C61.2199 8.69484 71.3803 11.2238 80.1209 16.2818V21.1402C76.3496 17.7682 71.7796 15.1726 66.411 13.3535C61.0425 11.49 55.452 10.5583 49.6398 10.5583C38.9913 10.5583 30.0733 14.9064 22.8856 23.6026C15.6979 32.2989 12.104 43.3466 12.104 56.7459C12.104 63.4455 13.0801 69.6571 15.0324 75.3806C16.9846 81.1042 19.6245 85.9847 22.9521 90.0222C26.3241 94.0598 30.2951 97.2099 34.8651 99.4727C39.4794 101.735 44.4043 102.867 49.6398 102.867ZM193.327 37.7784C195.9 43.7237 197.187 50.0684 197.187 56.8124C197.187 63.5564 195.9 69.9455 193.327 75.9796C190.798 81.9693 187.337 87.0495 182.945 91.2202C178.597 95.3908 173.406 98.6963 167.371 101.137C161.382 103.577 155.037 104.797 148.337 104.797C141.682 104.797 135.337 103.577 129.303 101.137C123.269 98.6963 118.056 95.3908 113.663 91.2202C109.315 87.0495 105.855 81.9693 103.281 75.9796C100.708 69.9455 99.4212 63.024 99.4212 55.2152C99.4212 47.4063 101.595 39.7971 105.943 32.3876C110.336 24.9781 116.281 19.188 123.779 15.0173C131.278 10.8023 138.931 8.69484 146.74 8.69484C154.549 8.69484 161.448 9.93715 167.438 12.4218C173.428 14.8621 178.597 18.2119 182.945 22.4712C187.337 26.7306 190.798 31.833 193.327 37.7784ZM121.184 90.0888C128.105 98.6075 137.157 102.867 148.337 102.867C159.518 102.867 168.547 98.6075 175.424 90.0888C182.346 81.5257 185.807 70.4335 185.807 56.8124C185.807 43.1913 182.346 32.077 175.424 23.4695C168.547 14.8621 159.518 10.5583 148.337 10.5583C137.157 10.5583 128.105 14.8621 121.184 23.4695C114.307 32.077 110.868 43.1913 110.868 56.8124C110.868 70.4335 114.307 81.5257 121.184 90.0888ZM302.473 37.7784C305.047 43.7237 306.333 50.0684 306.333 56.8124C306.333 63.5564 305.047 69.9455 302.473 75.9796C299.944 81.9693 296.484 87.0495 292.091 91.2202C287.743 95.3908 282.552 98.6963 276.518 101.137C270.528 103.577 264.183 104.797 257.484 104.797C250.829 104.797 244.484 103.577 238.45 101.137C232.416 98.6963 227.202 95.3908 222.81 91.2202C218.462 87.0495 215.001 81.9693 212.428 75.9796C209.854 69.9455 208.568 63.024 208.568 55.2152C208.568 47.4063 210.742 39.7971 215.09 32.3876C219.482 24.9781 225.428 19.188 232.926 15.0173C240.424 10.8023 248.078 8.69484 255.887 8.69484C263.695 8.69484 270.595 9.93715 276.584 12.4218C282.574 14.8621 287.743 18.2119 292.091 22.4712C296.484 26.7306 299.944 31.833 302.473 37.7784ZM230.33 90.0888C237.252 98.6075 246.303 102.867 257.484 102.867C268.665 102.867 277.694 98.6075 284.571 90.0888C291.492 81.5257 294.953 70.4335 294.953 56.8124C294.953 43.1913 291.492 32.077 284.571 23.4695C277.694 14.8621 268.665 10.5583 257.484 10.5583C246.303 10.5583 237.252 14.8621 230.33 23.4695C223.453 32.077 220.015 43.1913 220.015 56.8124C220.015 70.4335 223.453 81.5257 230.33 90.0888ZM344.535 103H320.709V10.4252H344.535C353.63 10.4252 361.972 12.3996 369.559 16.3484C377.146 20.2528 383.18 25.7545 387.661 32.8535C392.186 39.9524 394.449 47.9166 394.449 56.7459C394.449 65.5308 392.186 73.495 387.661 80.6383C383.18 87.7372 377.146 93.2389 369.559 97.1434C361.972 101.048 353.63 103 344.535 103ZM331.091 12.3552V101.07H344.269C355.139 101.07 363.325 98.1417 368.826 92.285C374.373 86.384 378.188 80.6383 380.274 75.0479C382.359 69.4131 383.401 63.3124 383.401 56.7459C383.401 50.135 382.359 44.0343 380.274 38.4439C378.188 32.8091 374.373 27.0634 368.826 21.2067C363.325 15.3057 355.139 12.3552 344.269 12.3552H331.091ZM410.755 25.8654C410.755 28.1726 411.065 29.9695 411.686 31.2562C412.352 32.4985 412.884 33.4524 413.284 34.118C413.683 34.7835 414.415 35.6265 415.48 36.647C416.545 37.6231 417.366 38.3995 417.942 38.9763C418.564 39.5531 419.695 40.4405 421.337 41.6384C422.978 42.8364 424.198 43.7237 424.997 44.3005C425.84 44.8773 427.348 45.92 429.523 47.4285C431.741 48.8927 433.338 49.9797 434.314 50.6896C435.29 51.3551 436.732 52.3756 438.64 53.751C440.548 55.1264 441.946 56.2135 442.833 57.0121C443.765 57.8107 444.963 58.8977 446.427 60.2732C447.935 61.6042 449.511 63.379 451.152 65.5974C452.794 67.8158 454.014 70.0786 454.813 72.3858C455.611 74.6486 456.01 77.3328 456.01 80.4386C456.01 83.5001 455.367 86.4284 454.08 89.2236C452.794 92.0188 451.13 94.326 449.089 96.1451C447.092 97.9642 444.741 99.4949 442.034 100.737C439.328 101.935 436.599 102.778 433.848 103.266C431.142 103.799 427.659 104.065 423.4 104.065C419.14 104.065 414.859 103.155 410.555 101.336C406.296 99.5171 403.345 97.942 401.703 96.6109L400.506 95.7458V91.2202C401.215 92.0632 403.789 94.1041 408.226 97.343C412.663 100.582 418.808 102.201 426.661 102.201C432.429 102.201 437.22 100.538 441.036 97.2099C444.852 93.8823 446.76 89.7782 446.76 84.8977C446.76 80.0171 445.318 75.7578 442.434 72.1196C439.55 68.4813 434.581 64.1554 427.526 59.1418C424.819 57.1896 422.801 55.7476 421.47 54.8159C420.183 53.8841 418.475 52.5974 416.345 50.9558C414.215 49.2698 412.064 47.4063 409.889 45.3654C407.76 43.2801 406.029 40.9285 404.698 38.3108C403.412 35.6487 402.768 32.7204 402.768 29.5258C402.768 26.3313 403.545 23.403 405.098 20.7409C406.651 18.0344 409.357 15.4388 413.217 12.9542C417.077 10.4252 422.091 9.16071 428.258 9.16071C434.425 9.16071 439.838 10.1146 444.497 12.0225L446.627 12.9542V17.147C446.405 16.9696 445.939 16.5924 445.229 16.0156C444.519 15.4388 442.567 14.4849 439.372 13.1539C436.178 11.7784 432.34 11.0907 427.859 11.0907C423.377 11.0907 419.407 12.4662 415.946 15.217C412.485 17.9235 410.755 21.473 410.755 25.8654ZM499.137 113.116H497.14L541.331 0.309198H543.394L499.137 113.116ZM595.372 25.8654C595.372 28.1726 595.682 29.9695 596.304 31.2562C596.969 32.4985 597.502 33.4524 597.901 34.118C598.3 34.7835 599.032 35.6265 600.097 36.647C601.162 37.6231 601.983 38.3995 602.56 38.9763C603.181 39.5531 604.312 40.4405 605.954 41.6384C607.595 42.8364 608.815 43.7237 609.614 44.3005C610.457 44.8773 611.966 45.92 614.14 47.4285C616.358 48.8927 617.955 49.9797 618.931 50.6896C619.908 51.3551 621.35 52.3756 623.257 53.751C625.165 55.1264 626.563 56.2135 627.45 57.0121C628.382 57.8107 629.58 58.8977 631.044 60.2732C632.553 61.6042 634.128 63.379 635.769 65.5974C637.411 67.8158 638.631 70.0786 639.43 72.3858C640.228 74.6486 640.628 77.3328 640.628 80.4386C640.628 83.5001 639.984 86.4284 638.698 89.2236C637.411 92.0188 635.747 94.326 633.706 96.1451C631.71 97.9642 629.358 99.4949 626.652 100.737C623.945 101.935 621.216 102.778 618.466 103.266C615.759 103.799 612.276 104.065 608.017 104.065C603.757 104.065 599.476 103.155 595.172 101.336C590.913 99.5171 587.962 97.942 586.321 96.6109L585.123 95.7458V91.2202C585.833 92.0632 588.406 94.1041 592.843 97.343C597.28 100.582 603.425 102.201 611.278 102.201C617.046 102.201 621.838 100.538 625.653 97.2099C629.469 93.8823 631.377 89.7782 631.377 84.8977C631.377 80.0171 629.935 75.7578 627.051 72.1196C624.167 68.4813 619.198 64.1554 612.143 59.1418C609.437 57.1896 607.418 55.7476 606.087 54.8159C604.8 53.8841 603.092 52.5974 600.962 50.9558C598.833 49.2698 596.681 47.4063 594.507 45.3654C592.377 43.2801 590.647 40.9285 589.316 38.3108C588.029 35.6487 587.385 32.7204 587.385 29.5258C587.385 26.3313 588.162 23.403 589.715 20.7409C591.268 18.0344 593.974 15.4388 597.834 12.9542C601.694 10.4252 606.708 9.16071 612.875 9.16071C619.042 9.16071 624.455 10.1146 629.114 12.0225L631.244 12.9542V17.147C631.022 16.9696 630.556 16.5924 629.846 16.0156C629.136 15.4388 627.184 14.4849 623.989 13.1539C620.795 11.7784 616.957 11.0907 612.476 11.0907C607.995 11.0907 604.024 12.4662 600.563 15.217C597.102 17.9235 595.372 21.473 595.372 25.8654ZM728.477 10.4252V103H718.095V56.7459H665.053V103H654.67V10.4252H665.053V54.8159H718.095V10.4252H728.477ZM836.758 37.7784C839.332 43.7237 840.618 50.0684 840.618 56.8124C840.618 63.5564 839.332 69.9455 836.758 75.9796C834.229 81.9693 830.769 87.0495 826.376 91.2202C822.028 95.3908 816.837 98.6963 810.803 101.137C804.813 103.577 798.468 104.797 791.769 104.797C785.114 104.797 778.769 103.577 772.735 101.137C766.701 98.6963 761.487 95.3908 757.095 91.2202C752.747 87.0495 749.286 81.9693 746.713 75.9796C744.139 69.9455 742.853 63.024 742.853 55.2152C742.853 47.4063 745.027 39.7971 749.375 32.3876C753.767 24.9781 759.713 19.188 767.211 15.0173C774.709 10.8023 782.363 8.69484 790.172 8.69484C797.98 8.69484 804.88 9.93715 810.869 12.4218C816.859 14.8621 822.028 18.2119 826.376 22.4712C830.769 26.7306 834.229 31.833 836.758 37.7784ZM764.615 90.0888C771.537 98.6075 780.588 102.867 791.769 102.867C802.95 102.867 811.979 98.6075 818.856 90.0888C825.777 81.5257 829.238 70.4335 829.238 56.8124C829.238 43.1913 825.777 32.077 818.856 23.4695C811.979 14.8621 802.95 10.5583 791.769 10.5583C780.588 10.5583 771.537 14.8621 764.615 23.4695C757.738 32.077 754.3 43.1913 754.3 56.8124C754.3 70.4335 757.738 81.5257 764.615 90.0888ZM842.016 10.4252H852.864L880.883 86.4949L908.835 8.89449L939.582 86.8277L966.203 10.4252H968.333L935.656 104.597L904.576 26.0651L876.69 104.597L842.016 10.4252ZM1006.07 60.5394H992.958L1044.94 103H1042.01L992.092 62.2698V103H981.71V10.4252H1006.07C1014.99 10.4252 1022.57 12.5105 1028.83 16.6812C1035.09 20.8518 1038.21 27.1299 1038.21 35.5156C1038.21 41.0616 1036.02 46.6299 1031.62 52.2203C1027.28 57.7664 1018.76 60.5394 1006.07 60.5394ZM992.092 58.6094H1002.61C1011.08 58.6094 1017.27 56.7015 1021.18 52.8858C1025.12 49.0701 1027.1 43.2801 1027.1 35.5156C1027.1 27.7511 1025.15 21.961 1021.24 18.1453C1017.34 14.2853 1011.13 12.3552 1002.61 12.3552H992.092V58.6094ZM1141.7 37.7784C1144.28 43.7237 1145.56 50.0684 1145.56 56.8124C1145.56 63.5564 1144.28 69.9455 1141.7 75.9796C1139.17 81.9693 1135.71 87.0495 1131.32 91.2202C1126.97 95.3908 1121.78 98.6963 1115.75 101.137C1109.76 103.577 1103.41 104.797 1096.71 104.797C1090.06 104.797 1083.71 103.577 1077.68 101.137C1071.65 98.6963 1066.43 95.3908 1062.04 91.2202C1057.69 87.0495 1054.23 81.9693 1051.66 75.9796C1049.08 69.9455 1047.8 63.024 1047.8 55.2152C1047.8 47.4063 1049.97 39.7971 1054.32 32.3876C1058.71 24.9781 1064.66 19.188 1072.16 15.0173C1079.65 10.8023 1087.31 8.69484 1095.12 8.69484C1102.92 8.69484 1109.82 9.93715 1115.81 12.4218C1121.8 14.8621 1126.97 18.2119 1131.32 22.4712C1135.71 26.7306 1139.17 31.833 1141.7 37.7784ZM1069.56 90.0888C1076.48 98.6075 1085.53 102.867 1096.71 102.867C1107.89 102.867 1116.92 98.6075 1123.8 90.0888C1130.72 81.5257 1134.18 70.4335 1134.18 56.8124C1134.18 43.1913 1130.72 32.077 1123.8 23.4695C1116.92 14.8621 1107.89 10.5583 1096.71 10.5583C1085.53 10.5583 1076.48 14.8621 1069.56 23.4695C1062.68 32.077 1059.24 43.1913 1059.24 56.8124C1059.24 70.4335 1062.68 81.5257 1069.56 90.0888ZM1250.85 37.7784C1253.42 43.7237 1254.71 50.0684 1254.71 56.8124C1254.71 63.5564 1253.42 69.9455 1250.85 75.9796C1248.32 81.9693 1244.86 87.0495 1240.47 91.2202C1236.12 95.3908 1230.93 98.6963 1224.89 101.137C1218.9 103.577 1212.56 104.797 1205.86 104.797C1199.2 104.797 1192.86 103.577 1186.83 101.137C1180.79 98.6963 1175.58 95.3908 1171.19 91.2202C1166.84 87.0495 1163.38 81.9693 1160.8 75.9796C1158.23 69.9455 1156.94 63.024 1156.94 55.2152C1156.94 47.4063 1159.12 39.7971 1163.47 32.3876C1167.86 24.9781 1173.8 19.188 1181.3 15.0173C1188.8 10.8023 1196.45 8.69484 1204.26 8.69484C1212.07 8.69484 1218.97 9.93715 1224.96 12.4218C1230.95 14.8621 1236.12 18.2119 1240.47 22.4712C1244.86 26.7306 1248.32 31.833 1250.85 37.7784ZM1178.71 90.0888C1185.63 98.6075 1194.68 102.867 1205.86 102.867C1217.04 102.867 1226.07 98.6075 1232.95 90.0888C1239.87 81.5257 1243.33 70.4335 1243.33 56.8124C1243.33 43.1913 1239.87 32.077 1232.95 23.4695C1226.07 14.8621 1217.04 10.5583 1205.86 10.5583C1194.68 10.5583 1185.63 14.8621 1178.71 23.4695C1171.83 32.077 1168.39 43.1913 1168.39 56.8124C1168.39 70.4335 1171.83 81.5257 1178.71 90.0888ZM1360.06 8.89449L1373.97 103H1363.06L1352.14 29.1931L1314.74 104.597L1275.41 29.3927L1264.63 103H1262.7L1276.54 8.89449L1319.13 91.0205L1360.06 8.89449ZM1397.2 25.8654C1397.2 28.1726 1397.51 29.9695 1398.13 31.2562C1398.8 32.4985 1399.33 33.4524 1399.73 34.118C1400.13 34.7835 1400.86 35.6265 1401.92 36.647C1402.99 37.6231 1403.81 38.3995 1404.39 38.9763C1405.01 39.5531 1406.14 40.4405 1407.78 41.6384C1409.42 42.8364 1410.64 43.7237 1411.44 44.3005C1412.28 44.8773 1413.79 45.92 1415.97 47.4285C1418.19 48.8927 1419.78 49.9797 1420.76 50.6896C1421.73 51.3551 1423.18 52.3756 1425.08 53.751C1426.99 55.1264 1428.39 56.2135 1429.28 57.0121C1430.21 57.8107 1431.41 58.8977 1432.87 60.2732C1434.38 61.6042 1435.95 63.379 1437.6 65.5974C1439.24 67.8158 1440.46 70.0786 1441.26 72.3858C1442.06 74.6486 1442.45 77.3328 1442.45 80.4386C1442.45 83.5001 1441.81 86.4284 1440.52 89.2236C1439.24 92.0188 1437.57 94.326 1435.53 96.1451C1433.54 97.9642 1431.18 99.4949 1428.48 100.737C1425.77 101.935 1423.04 102.778 1420.29 103.266C1417.59 103.799 1414.1 104.065 1409.84 104.065C1405.58 104.065 1401.3 103.155 1397 101.336C1392.74 99.5171 1389.79 97.942 1388.15 96.6109L1386.95 95.7458V91.2202C1387.66 92.0632 1390.23 94.1041 1394.67 97.343C1399.11 100.582 1405.25 102.201 1413.1 102.201C1418.87 102.201 1423.66 100.538 1427.48 97.2099C1431.3 93.8823 1433.2 89.7782 1433.2 84.8977C1433.2 80.0171 1431.76 75.7578 1428.88 72.1196C1425.99 68.4813 1421.02 64.1554 1413.97 59.1418C1411.26 57.1896 1409.24 55.7476 1407.91 54.8159C1406.63 53.8841 1404.92 52.5974 1402.79 50.9558C1400.66 49.2698 1398.51 47.4063 1396.33 45.3654C1394.2 43.2801 1392.47 40.9285 1391.14 38.3108C1389.86 35.6487 1389.21 32.7204 1389.21 29.5258C1389.21 26.3313 1389.99 23.403 1391.54 20.7409C1393.09 18.0344 1395.8 15.4388 1399.66 12.9542C1403.52 10.4252 1408.53 9.16071 1414.7 9.16071C1420.87 9.16071 1426.28 10.1146 1430.94 12.0225L1433.07 12.9542V17.147C1432.85 16.9696 1432.38 16.5924 1431.67 16.0156C1430.96 15.4388 1429.01 14.4849 1425.82 13.1539C1422.62 11.7784 1418.78 11.0907 1414.3 11.0907C1409.82 11.0907 1405.85 12.4662 1402.39 15.217C1398.93 17.9235 1397.2 21.473 1397.2 25.8654Z" fill="#37474F"/>
</svg>
