<svg width="1252" height="135" viewBox="0 0 1252 135" fill="none" xmlns="http://www.w3.org/2000/svg">
<path opacity="0.05" d="M32.5371 72.8105H14.5391V132H0.0664062V2.95215H32.5371C45.0306 2.95215 55.6377 5.85905 64.3584 11.6729C73.0791 17.4867 77.4395 26.2383 77.4395 37.9277C77.4395 45.6589 74.347 53.4209 68.1621 61.2139C62.0391 68.945 50.1641 72.8105 32.5371 72.8105ZM14.5391 5.64258V70.1201H27.8057C39.6188 70.1201 48.2467 67.4606 53.6895 62.1416C59.194 56.8226 61.9463 48.7513 61.9463 37.9277C61.9463 27.1042 59.2249 19.0329 53.7822 13.7139C48.3395 8.33301 39.6807 5.64258 27.8057 5.64258H14.5391ZM198.323 2.95215V132H183.851V67.5225H109.91V132H95.4375V2.95215H109.91V64.832H183.851V2.95215H198.323ZM349.266 41.082C352.853 49.3698 354.646 58.2142 354.646 67.6152C354.646 77.0163 352.853 85.9225 349.266 94.334C345.74 102.684 340.916 109.765 334.793 115.579C328.732 121.393 321.495 126.001 313.084 129.402C304.734 132.804 295.89 134.505 286.551 134.505C277.273 134.505 268.429 132.804 260.018 129.402C251.606 126.001 244.339 121.393 238.216 115.579C232.155 109.765 227.33 102.684 223.743 94.334C220.156 85.9225 218.362 76.2741 218.362 65.3887C218.362 54.5033 221.393 43.8962 227.454 33.5674C233.577 23.2386 241.865 15.1673 252.317 9.35352C262.77 3.47786 273.439 0.540039 284.324 0.540039C295.21 0.540039 304.827 2.27181 313.177 5.73535C321.526 9.13704 328.732 13.8066 334.793 19.7441C340.916 25.6816 345.74 32.7943 349.266 41.082ZM248.699 114.002C258.348 125.877 270.965 131.814 286.551 131.814C302.137 131.814 314.723 125.877 324.31 114.002C333.958 102.065 338.782 86.6029 338.782 67.6152C338.782 48.6276 333.958 33.1344 324.31 21.1357C314.723 9.13704 302.137 3.1377 286.551 3.1377C270.965 3.1377 258.348 9.13704 248.699 21.1357C239.113 33.1344 234.319 48.6276 234.319 67.6152C234.319 86.6029 239.113 102.065 248.699 114.002ZM447.977 2.95215V5.64258H408.455V132H394.075V5.64258H354.554V2.95215H447.977ZM578.602 41.082C582.189 49.3698 583.982 58.2142 583.982 67.6152C583.982 77.0163 582.189 85.9225 578.602 94.334C575.076 102.684 570.252 109.765 564.129 115.579C558.068 121.393 550.831 126.001 542.42 129.402C534.07 132.804 525.226 134.505 515.887 134.505C506.609 134.505 497.765 132.804 489.354 129.402C480.942 126.001 473.675 121.393 467.552 115.579C461.491 109.765 456.666 102.684 453.079 94.334C449.492 85.9225 447.698 76.2741 447.698 65.3887C447.698 54.5033 450.729 43.8962 456.79 33.5674C462.913 23.2386 471.201 15.1673 481.653 9.35352C492.106 3.47786 502.775 0.540039 513.66 0.540039C524.546 0.540039 534.163 2.27181 542.513 5.73535C550.862 9.13704 558.068 13.8066 564.129 19.7441C570.252 25.6816 575.076 32.7943 578.602 41.082ZM478.035 114.002C487.684 125.877 500.301 131.814 515.887 131.814C531.473 131.814 544.059 125.877 553.646 114.002C563.294 102.065 568.118 86.6029 568.118 67.6152C568.118 48.6276 563.294 33.1344 553.646 21.1357C544.059 9.13704 531.473 3.1377 515.887 3.1377C500.301 3.1377 487.684 9.13704 478.035 21.1357C468.449 33.1344 463.655 48.6276 463.655 67.6152C463.655 86.6029 468.449 102.065 478.035 114.002ZM681.395 72.8105H663.118L735.574 132H731.492L661.912 75.2227V132H647.439V2.95215H681.395C693.826 2.95215 704.402 5.85905 713.123 11.6729C721.844 17.4867 726.204 26.2383 726.204 37.9277C726.204 45.6589 723.143 53.4209 717.02 61.2139C710.958 68.945 699.083 72.8105 681.395 72.8105ZM661.912 70.1201H676.57C688.383 70.1201 697.011 67.4606 702.454 62.1416C707.959 56.8226 710.711 48.7513 710.711 37.9277C710.711 27.1042 707.99 19.0329 702.547 13.7139C697.104 8.33301 688.445 5.64258 676.57 5.64258H661.912V70.1201ZM821.019 5.64258H764.52V64.832H811.834V67.5225H764.52V129.31H821.019V132H750.047V2.95215H821.019V5.64258ZM875.105 72.8105H857.107V132H842.635V2.95215H875.105C887.599 2.95215 898.206 5.85905 906.927 11.6729C915.647 17.4867 920.008 26.2383 920.008 37.9277C920.008 45.6589 916.915 53.4209 910.73 61.2139C904.607 68.945 892.732 72.8105 875.105 72.8105ZM857.107 5.64258V70.1201H870.374C882.187 70.1201 890.815 67.4606 896.258 62.1416C901.762 56.8226 904.515 48.7513 904.515 37.9277C904.515 27.1042 901.793 19.0329 896.351 13.7139C890.908 8.33301 882.249 5.64258 870.374 5.64258H857.107ZM1063.62 41.082C1067.21 49.3698 1069 58.2142 1069 67.6152C1069 77.0163 1067.21 85.9225 1063.62 94.334C1060.1 102.684 1055.27 109.765 1049.15 115.579C1043.09 121.393 1035.85 126.001 1027.44 129.402C1019.09 132.804 1010.25 134.505 1000.91 134.505C991.629 134.505 982.785 132.804 974.373 129.402C965.962 126.001 958.694 121.393 952.571 115.579C946.51 109.765 941.686 102.684 938.099 94.334C934.511 85.9225 932.718 76.2741 932.718 65.3887C932.718 54.5033 935.748 43.8962 941.81 33.5674C947.933 23.2386 956.22 15.1673 966.673 9.35352C977.125 3.47786 987.794 0.540039 998.68 0.540039C1009.57 0.540039 1019.18 2.27181 1027.53 5.73535C1035.88 9.13704 1043.09 13.8066 1049.15 19.7441C1055.27 25.6816 1060.1 32.7943 1063.62 41.082ZM963.055 114.002C972.703 125.877 985.32 131.814 1000.91 131.814C1016.49 131.814 1029.08 125.877 1038.67 114.002C1048.31 102.065 1053.14 86.6029 1053.14 67.6152C1053.14 48.6276 1048.31 33.1344 1038.67 21.1357C1029.08 9.13704 1016.49 3.1377 1000.91 3.1377C985.32 3.1377 972.703 9.13704 963.055 21.1357C953.468 33.1344 948.675 48.6276 948.675 67.6152C948.675 86.6029 953.468 102.065 963.055 114.002ZM1123 72.8105H1104.72L1177.18 132H1173.09L1103.51 75.2227V132H1089.04V2.95215H1123C1135.43 2.95215 1146 5.85905 1154.72 11.6729C1163.45 17.4867 1167.81 26.2383 1167.81 37.9277C1167.81 45.6589 1164.74 53.4209 1158.62 61.2139C1152.56 68.945 1140.68 72.8105 1123 72.8105ZM1103.51 70.1201H1118.17C1129.99 70.1201 1138.61 67.4606 1144.06 62.1416C1149.56 56.8226 1152.31 48.7513 1152.31 37.9277C1152.31 27.1042 1149.59 19.0329 1144.15 13.7139C1138.71 8.33301 1130.05 5.64258 1118.17 5.64258H1103.51V70.1201ZM1269.21 2.95215V5.64258H1229.69V132H1215.31V5.64258H1175.78V2.95215H1269.21Z" fill="#37474F"/>
</svg>
