<svg width="957" height="98" viewBox="0 0 957 98" fill="none" xmlns="http://www.w3.org/2000/svg">
<path opacity="0.05" d="M12.1706 49.7459C12.1706 63.2339 15.6535 74.3038 22.6194 82.9557C29.5852 91.5632 38.3702 95.8669 48.9742 95.8669C54.8309 95.8669 60.4213 94.7577 65.7455 92.5393C71.0697 90.2765 75.684 87.2594 79.5885 83.4881V88.6792C71.5134 94.7133 61.3087 97.7526 48.9742 97.7969C42.2302 97.7969 35.8634 96.5546 29.8736 94.07C23.9282 91.5853 18.8259 88.2355 14.5665 84.0205C10.3071 79.7611 6.91293 74.6588 4.38393 68.7134C1.8993 62.768 0.656979 56.4455 0.656979 49.7459C0.656979 43.0462 1.8993 36.7237 4.38393 30.7784C6.91293 24.833 10.3071 19.7306 14.5665 15.4712C18.8259 11.2119 23.9282 7.86205 29.8736 5.42179C35.8634 2.93715 42.2302 1.69484 48.9742 1.69484C59.3565 1.69484 68.7182 3.86889 77.0595 8.217V13.0753C69.0731 6.77503 59.7114 3.60268 48.9742 3.55831C42.0084 3.55831 35.7302 5.51052 30.1398 9.41495C24.5494 13.3194 20.1569 18.7989 16.9624 25.8535C13.7679 32.8637 12.1706 40.8278 12.1706 49.7459ZM169.967 3.42521V96H159.585V49.7459H106.542V96H96.1601V3.42521H106.542V47.8159H159.585V3.42521H169.967ZM188.136 96V3.42521H198.452V96H188.136ZM216.62 96V3.42521H227.003V94.07H262.675V96H216.62ZM300.477 96H276.651V3.42521H300.477C309.572 3.42521 317.914 5.3996 325.501 9.3484C333.088 13.2528 339.122 18.7545 343.603 25.8535C348.129 32.9524 350.391 40.9166 350.391 49.7459C350.391 58.5308 348.129 66.495 343.603 73.6383C339.122 80.7372 333.088 86.2389 325.501 90.1434C317.914 94.0478 309.572 96 300.477 96ZM287.033 5.35523V94.07H300.211C311.081 94.07 319.267 91.1417 324.769 85.285C330.315 79.384 334.13 73.6383 336.216 68.0479C338.301 62.4131 339.344 56.3124 339.344 49.7459C339.344 43.135 338.301 37.0343 336.216 31.4439C334.13 25.8091 330.315 20.0634 324.769 14.2067C319.267 8.30574 311.081 5.35523 300.211 5.35523H287.033ZM388.326 53.5394H375.216L427.193 96H424.265L374.35 55.2698V96H363.968V3.42521H388.326C397.244 3.42521 404.831 5.51052 411.087 9.68116C417.343 13.8518 420.471 20.1299 420.471 28.5156C420.471 34.0616 418.275 39.6299 413.883 45.2203C409.535 50.7664 401.016 53.5394 388.326 53.5394ZM374.35 51.6094H384.866C393.34 51.6094 399.529 49.7015 403.434 45.8858C407.383 42.0701 409.357 36.2801 409.357 28.5156C409.357 20.7511 407.405 14.961 403.5 11.1453C399.596 7.28526 393.384 5.35523 384.866 5.35523H374.35V51.6094ZM488.488 5.35523H447.958V47.8159H481.899V49.7459H447.958V94.07H488.488V96H437.575V3.42521H488.488V5.35523ZM572.345 3.42521H574.275V97.5973L505.925 19.8637V96H503.995V1.89449L572.345 79.4949V3.42521ZM590.513 2.0276C591.223 1.3177 592.066 0.962757 593.042 0.962757C594.063 0.962757 594.906 1.3177 595.571 2.0276C596.281 2.69313 596.636 3.66923 596.636 4.95592L593.775 32.3091H591.645L589.515 4.95592C589.515 3.66923 589.848 2.69313 590.513 2.0276ZM619.597 18.8654C619.597 21.1726 619.908 22.9695 620.529 24.2562C621.194 25.4985 621.727 26.4524 622.126 27.118C622.525 27.7835 623.257 28.6265 624.322 29.647C625.387 30.6231 626.208 31.3995 626.785 31.9763C627.406 32.5531 628.537 33.4405 630.179 34.6384C631.821 35.8364 633.041 36.7237 633.839 37.3005C634.682 37.8773 636.191 38.92 638.365 40.4285C640.583 41.8927 642.181 42.9797 643.157 43.6896C644.133 44.3551 645.575 45.3756 647.483 46.751C649.39 48.1264 650.788 49.2135 651.675 50.0121C652.607 50.8107 653.805 51.8977 655.269 53.2732C656.778 54.6042 658.353 56.379 659.995 58.5974C661.636 60.8158 662.856 63.0786 663.655 65.3858C664.454 67.6486 664.853 70.3328 664.853 73.4386C664.853 76.5001 664.21 79.4284 662.923 82.2236C661.636 85.0188 659.972 87.326 657.931 89.1451C655.935 90.9642 653.583 92.4949 650.877 93.7372C648.17 94.9352 645.442 95.7782 642.691 96.2662C639.984 96.7986 636.501 97.0648 632.242 97.0648C627.983 97.0648 623.701 96.1553 619.397 94.3362C615.138 92.5171 612.188 90.942 610.546 89.6109L609.348 88.7458V84.2202C610.058 85.0632 612.631 87.1041 617.068 90.343C621.505 93.5819 627.65 95.2014 635.503 95.2014C641.271 95.2014 646.063 93.5376 649.879 90.2099C653.694 86.8823 655.602 82.7782 655.602 77.8977C655.602 73.0171 654.16 68.7578 651.276 65.1196C648.392 61.4813 643.423 57.1554 636.368 52.1418C633.662 50.1896 631.643 48.7476 630.312 47.8159C629.025 46.8841 627.317 45.5974 625.187 43.9558C623.058 42.2698 620.906 40.4063 618.732 38.3654C616.602 36.2801 614.872 33.9285 613.541 31.3108C612.254 28.6487 611.611 25.7204 611.611 22.5258C611.611 19.3313 612.387 16.403 613.94 13.7409C615.493 11.0344 618.199 8.43884 622.059 5.95421C625.92 3.42521 630.933 2.16071 637.1 2.16071C643.268 2.16071 648.681 3.11463 653.339 5.02247L655.469 5.95421V10.147C655.247 9.96955 654.781 9.59242 654.071 9.01563C653.361 8.43884 651.409 7.48492 648.215 6.15387C645.02 4.77844 641.182 4.09073 636.701 4.09073C632.22 4.09073 628.249 5.46616 624.788 8.217C621.327 10.9235 619.597 14.473 619.597 18.8654ZM734.4 53.5394H721.29L773.267 96H770.339L720.424 55.2698V96H710.042V3.42521H734.4C743.318 3.42521 750.905 5.51052 757.161 9.68116C763.417 13.8518 766.545 20.1299 766.545 28.5156C766.545 34.0616 764.349 39.6299 759.957 45.2203C755.609 50.7664 747.09 53.5394 734.4 53.5394ZM720.424 51.6094H730.94C739.414 51.6094 745.603 49.7015 749.508 45.8858C753.457 42.0701 755.431 36.2801 755.431 28.5156C755.431 20.7511 753.479 14.961 749.574 11.1453C745.67 7.28526 739.458 5.35523 730.94 5.35523H720.424V51.6094ZM870.035 30.7784C872.608 36.7237 873.895 43.0684 873.895 49.8124C873.895 56.5564 872.608 62.9455 870.035 68.9796C867.506 74.9693 864.045 80.0495 859.653 84.2202C855.304 88.3908 850.113 91.6963 844.079 94.1365C838.09 96.5768 831.745 97.7969 825.045 97.7969C818.39 97.7969 812.045 96.5768 806.011 94.1365C799.977 91.6963 794.764 88.3908 790.371 84.2202C786.023 80.0495 782.562 74.9693 779.989 68.9796C777.416 62.9455 776.129 56.024 776.129 48.2152C776.129 40.4063 778.303 32.7971 782.651 25.3876C787.044 17.9781 792.989 12.188 800.487 8.01734C807.986 3.80234 815.639 1.69484 823.448 1.69484C831.257 1.69484 838.156 2.93715 844.146 5.42179C850.136 7.86205 855.304 11.2119 859.653 15.4712C864.045 19.7306 867.506 24.833 870.035 30.7784ZM797.892 83.0888C804.813 91.6075 813.864 95.8669 825.045 95.8669C836.226 95.8669 845.255 91.6075 852.132 83.0888C859.054 74.5257 862.514 63.4335 862.514 49.8124C862.514 36.1913 859.054 25.077 852.132 16.4695C845.255 7.86205 836.226 3.55831 825.045 3.55831C813.864 3.55831 804.813 7.86205 797.892 16.4695C791.015 25.077 787.576 36.1913 787.576 49.8124C787.576 63.4335 791.015 74.5257 797.892 83.0888ZM979.181 30.7784C981.755 36.7237 983.041 43.0684 983.041 49.8124C983.041 56.5564 981.755 62.9455 979.181 68.9796C976.652 74.9693 973.191 80.0495 968.799 84.2202C964.451 88.3908 959.26 91.6963 953.226 94.1365C947.236 96.5768 940.891 97.7969 934.192 97.7969C927.536 97.7969 921.192 96.5768 915.158 94.1365C909.123 91.6963 903.91 88.3908 899.518 84.2202C895.17 80.0495 891.709 74.9693 889.135 68.9796C886.562 62.9455 885.275 56.024 885.275 48.2152C885.275 40.4063 887.449 32.7971 891.798 25.3876C896.19 17.9781 902.135 12.188 909.634 8.01734C917.132 3.80234 924.786 1.69484 932.594 1.69484C940.403 1.69484 947.302 2.93715 953.292 5.42179C959.282 7.86205 964.451 11.2119 968.799 15.4712C973.191 19.7306 976.652 24.833 979.181 30.7784ZM907.038 83.0888C913.96 91.6075 923.011 95.8669 934.192 95.8669C945.372 95.8669 954.401 91.6075 961.279 83.0888C968.2 74.5257 971.661 63.4335 971.661 49.8124C971.661 36.1913 968.2 25.077 961.279 16.4695C954.401 7.86205 945.372 3.55831 934.192 3.55831C923.011 3.55831 913.96 7.86205 907.038 16.4695C900.161 25.077 896.722 36.1913 896.722 49.8124C896.722 63.4335 900.161 74.5257 907.038 83.0888ZM1088.39 1.89449L1102.3 96H1091.39L1080.47 22.1931L1043.07 97.5973L1003.74 22.3927L992.958 96H991.028L1004.87 1.89449L1047.46 84.0205L1088.39 1.89449ZM1125.53 18.8654C1125.53 21.1726 1125.84 22.9695 1126.46 24.2562C1127.13 25.4985 1127.66 26.4524 1128.06 27.118C1128.46 27.7835 1129.19 28.6265 1130.26 29.647C1131.32 30.6231 1132.14 31.3995 1132.72 31.9763C1133.34 32.5531 1134.47 33.4405 1136.11 34.6384C1137.75 35.8364 1138.97 36.7237 1139.77 37.3005C1140.62 37.8773 1142.12 38.92 1144.3 40.4285C1146.52 41.8927 1148.11 42.9797 1149.09 43.6896C1150.07 44.3551 1151.51 45.3756 1153.42 46.751C1155.32 48.1264 1156.72 49.2135 1157.61 50.0121C1158.54 50.8107 1159.74 51.8977 1161.2 53.2732C1162.71 54.6042 1164.29 56.379 1165.93 58.5974C1167.57 60.8158 1168.79 63.0786 1169.59 65.3858C1170.39 67.6486 1170.79 70.3328 1170.79 73.4386C1170.79 76.5001 1170.14 79.4284 1168.86 82.2236C1167.57 85.0188 1165.91 87.326 1163.86 89.1451C1161.87 90.9642 1159.52 92.4949 1156.81 93.7372C1154.1 94.9352 1151.38 95.7782 1148.62 96.2662C1145.92 96.7986 1142.44 97.0648 1138.18 97.0648C1133.92 97.0648 1129.63 96.1553 1125.33 94.3362C1121.07 92.5171 1118.12 90.942 1116.48 89.6109L1115.28 88.7458V84.2202C1115.99 85.0632 1118.56 87.1041 1123 90.343C1127.44 93.5819 1133.58 95.2014 1141.44 95.2014C1147.2 95.2014 1152 93.5376 1155.81 90.2099C1159.63 86.8823 1161.54 82.7782 1161.54 77.8977C1161.54 73.0171 1160.09 68.7578 1157.21 65.1196C1154.33 61.4813 1149.36 57.1554 1142.3 52.1418C1139.6 50.1896 1137.58 48.7476 1136.25 47.8159C1134.96 46.8841 1133.25 45.5974 1131.12 43.9558C1128.99 42.2698 1126.84 40.4063 1124.67 38.3654C1122.54 36.2801 1120.81 33.9285 1119.47 31.3108C1118.19 28.6487 1117.54 25.7204 1117.54 22.5258C1117.54 19.3313 1118.32 16.403 1119.87 13.7409C1121.43 11.0344 1124.13 8.43884 1127.99 5.95421C1131.85 3.42521 1136.87 2.16071 1143.03 2.16071C1149.2 2.16071 1154.61 3.11463 1159.27 5.02247L1161.4 5.95421V10.147C1161.18 9.96955 1160.71 9.59242 1160 9.01563C1159.3 8.43884 1157.34 7.48492 1154.15 6.15387C1150.95 4.77844 1147.12 4.09073 1142.63 4.09073C1138.15 4.09073 1134.18 5.46616 1130.72 8.217C1127.26 10.9235 1125.53 14.473 1125.53 18.8654Z" fill="#37474F"/>
</svg>
