<svg width="1896" height="319" viewBox="0 0 1896 319" fill="none" xmlns="http://www.w3.org/2000/svg">
<path opacity="0.2" d="M38.6504 160.773C38.6504 205.163 50.1131 241.596 73.0384 270.07C95.9637 298.398 124.876 312.562 159.775 312.562C179.05 312.562 197.448 308.911 214.971 301.61C232.494 294.163 247.68 284.234 260.53 271.822V288.907C233.954 308.765 200.369 318.768 159.775 318.914C137.58 318.914 116.626 314.825 96.9129 306.648C77.346 298.471 60.5536 287.446 46.5356 273.574C32.5176 259.556 21.3469 242.764 13.0237 223.197C4.84655 203.63 0.757955 182.822 0.757955 160.773C0.757955 138.724 4.84655 117.916 13.0237 98.3489C21.3469 78.7821 32.5176 61.9896 46.5356 47.9716C60.5536 33.9536 77.346 22.929 96.9129 14.8978C116.626 6.72064 137.58 2.63205 159.775 2.63205C193.944 2.63205 224.754 9.78709 252.206 24.0972V40.0865C225.923 19.3515 195.112 8.91096 159.775 8.76494C136.85 8.76494 116.188 15.1899 97.789 28.0397C79.3903 40.8896 64.9342 58.9232 54.4207 82.1406C43.9072 105.212 38.6504 131.423 38.6504 160.773ZM595.867 98.3489C604.336 117.916 608.571 138.797 608.571 160.992C608.571 183.187 604.336 204.214 595.867 224.073C587.544 243.786 576.154 260.505 561.698 274.231C547.388 287.957 530.304 298.836 510.445 306.867C490.732 314.898 469.851 318.914 447.802 318.914C425.899 318.914 405.017 314.898 385.159 306.867C365.3 298.836 348.142 287.957 333.686 274.231C319.376 260.505 307.986 243.786 299.517 224.073C291.048 204.214 286.813 181.435 286.813 155.735C286.813 130.036 293.968 104.993 308.278 80.6073C322.735 56.2218 342.301 37.1661 366.979 23.4401C391.657 9.56806 416.845 2.63205 442.545 2.63205C468.245 2.63205 490.951 6.72064 510.664 14.8978C530.377 22.929 547.388 33.9536 561.698 47.9716C576.154 61.9896 587.544 78.7821 595.867 98.3489ZM358.437 270.508C381.216 298.544 411.004 312.562 447.802 312.562C484.599 312.562 514.314 298.544 536.948 270.508C559.727 242.326 571.117 205.82 571.117 160.992C571.117 116.163 559.727 79.5852 536.948 51.2571C514.314 22.929 484.599 8.76494 447.802 8.76494C411.004 8.76494 381.216 22.929 358.437 51.2571C335.803 79.5852 324.487 116.163 324.487 160.992C324.487 205.82 335.803 242.326 358.437 270.508ZM880.827 8.32688H887.179V318.257L662.234 62.4277V313H655.882V3.28915L880.827 258.68V8.32688ZM1154.84 8.32688V14.6788H1061.53V313H1027.58V14.6788H934.271V8.32688H1154.84ZM1350.65 313L1313.42 217.94H1185.5L1148.27 313H1141.48L1264.13 0.660765L1386.79 313H1350.65ZM1249.46 55.1997L1188.13 211.588H1311.01L1249.46 55.1997ZM1428.63 160.773C1428.63 205.163 1440.09 241.596 1463.01 270.07C1485.94 298.398 1514.85 312.562 1549.75 312.562C1569.03 312.562 1587.42 308.911 1604.95 301.61C1622.47 294.163 1637.66 284.234 1650.5 271.822V288.907C1623.93 308.765 1590.34 318.768 1549.75 318.914C1527.56 318.914 1506.6 314.825 1486.89 306.648C1467.32 298.471 1450.53 287.446 1436.51 273.574C1422.49 259.556 1411.32 242.764 1403 223.197C1394.82 203.63 1390.73 182.822 1390.73 160.773C1390.73 138.724 1394.82 117.916 1403 98.3489C1411.32 78.7821 1422.49 61.9896 1436.51 47.9716C1450.53 33.9536 1467.32 22.929 1486.89 14.8978C1506.6 6.72064 1527.56 2.63205 1549.75 2.63205C1583.92 2.63205 1614.73 9.78709 1642.18 24.0972V40.0865C1615.9 19.3515 1585.09 8.91096 1549.75 8.76494C1526.83 8.76494 1506.16 15.1899 1487.76 28.0397C1469.37 40.8896 1454.91 58.9232 1444.4 82.1406C1433.88 105.212 1428.63 131.423 1428.63 160.773ZM1895.6 8.32688V14.6788H1802.29V313H1768.34V14.6788H1675.04V8.32688H1895.6Z" fill="black"/>
</svg>
