<svg width="1896" height="213" viewBox="0 0 1896 213" fill="none" xmlns="http://www.w3.org/2000/svg">
<path opacity="0.4" d="M23.0686 38.5358C23.0686 43.6345 23.755 47.6056 25.1277 50.4491C26.5985 53.1946 27.7751 55.3027 28.6576 56.7735C29.5401 58.2443 31.1579 60.1073 33.5112 62.3625C35.8644 64.5197 37.6784 66.2356 38.9531 67.5103C40.3258 68.785 42.8262 70.746 46.4541 73.3934C50.082 76.0408 52.7785 78.0019 54.5434 79.2766C56.4064 80.5512 59.7402 82.8555 64.5448 86.1893C69.4474 89.425 72.9773 91.8273 75.1345 93.3961C77.2916 94.8669 80.4783 97.1221 84.6946 100.162C88.9108 103.201 91.9995 105.604 93.9605 107.369C96.0196 109.134 98.6671 111.536 101.903 114.575C105.237 117.517 108.717 121.439 112.345 126.342C115.973 131.244 118.67 136.245 120.435 141.344C122.2 146.344 123.082 152.277 123.082 159.14C123.082 165.906 121.66 172.377 118.817 178.555C115.973 184.732 112.296 189.831 107.786 193.851C103.374 197.871 98.1768 201.254 92.1956 203.999C86.2144 206.647 80.1842 208.51 74.1049 209.588C68.1237 210.765 60.4266 211.353 51.0135 211.353C41.6005 211.353 32.1384 209.343 22.6274 205.323C13.2143 201.303 6.69382 197.822 3.06588 194.88L0.418466 192.968V182.967C1.98731 184.83 7.67435 189.34 17.4796 196.498C27.2848 203.656 40.8651 207.235 58.2204 207.235C70.9672 207.235 81.5569 203.558 89.9894 196.204C98.4219 188.85 102.638 179.78 102.638 168.995C102.638 158.209 99.4515 148.796 93.0781 140.755C86.7046 132.715 75.7228 123.155 60.1324 112.075C54.1512 107.761 49.6898 104.574 46.7483 102.515C43.9047 100.456 40.1297 97.6124 35.4232 93.9844C30.7167 90.2584 25.9611 86.1402 21.1566 81.6298C16.45 77.0214 12.626 71.8246 9.68443 66.0395C6.8409 60.1563 5.41914 53.6849 5.41914 46.6251C5.41914 39.5653 7.13506 33.0938 10.5669 27.2107C13.9987 21.2295 19.9799 15.4934 28.5105 10.0025C37.0411 4.4135 48.121 1.619 61.7503 1.619C75.3796 1.619 87.342 3.72713 97.6375 7.94339L102.344 10.0025V19.2684C101.854 18.8762 100.824 18.0428 99.2554 16.7681C97.6865 15.4934 93.3722 13.3853 86.3124 10.4437C79.2527 7.4041 70.7711 5.88428 60.8678 5.88428C50.9645 5.88428 42.1888 8.92391 34.5407 15.0032C26.8926 20.9844 23.0686 28.8286 23.0686 38.5358ZM317.226 4.4135V209H294.282V106.78H177.06V209H154.116V4.4135H177.06V102.515H294.282V4.4135H317.226ZM556.523 64.8629C562.21 78.0019 565.054 92.0234 565.054 106.927C565.054 121.831 562.21 135.951 556.523 149.286C550.934 162.523 543.286 173.75 533.579 182.967C523.97 192.184 512.498 199.489 499.162 204.882C485.925 210.275 471.904 212.971 457.098 212.971C442.39 212.971 428.369 210.275 415.033 204.882C401.698 199.489 390.177 192.184 380.47 182.967C370.861 173.75 363.213 162.523 357.526 149.286C351.839 135.951 348.995 120.655 348.995 103.397C348.995 86.1402 353.8 69.3242 363.409 52.9495C373.116 36.5747 386.255 23.7789 402.826 14.5619C419.397 5.24694 436.311 0.58945 453.568 0.58945C470.825 0.58945 486.072 3.33492 499.309 8.82586C512.547 14.2187 523.97 21.6217 533.579 31.0347C543.286 40.4478 550.934 51.7238 556.523 64.8629ZM397.09 180.467C412.386 199.293 432.389 208.706 457.098 208.706C481.807 208.706 501.761 199.293 516.959 180.467C532.255 161.543 539.903 137.029 539.903 106.927C539.903 76.8253 532.255 52.2631 516.959 33.2409C501.761 14.2187 481.807 4.70765 457.098 4.70765C432.389 4.70765 412.386 14.2187 397.09 33.2409C381.892 52.2631 374.293 76.8253 374.293 106.927C374.293 137.029 381.892 161.543 397.09 180.467ZM568.142 4.4135H592.116L654.036 172.524L715.809 1.03069L783.76 173.26L842.591 4.4135H847.298L775.082 212.53L706.396 38.977L644.77 212.53L568.142 4.4135ZM930.691 115.164H901.717L1016.59 209H1010.11L899.805 118.988V209H876.861V4.4135H930.691C950.4 4.4135 967.167 9.02196 980.992 18.2389C994.818 27.4558 1001.73 41.3303 1001.73 59.8622C1001.73 72.1187 996.877 84.4243 987.17 96.7789C977.56 109.035 958.734 115.164 930.691 115.164ZM899.805 110.898H923.043C941.771 110.898 955.45 106.682 964.078 98.2497C972.805 89.8172 977.168 77.0214 977.168 59.8622C977.168 42.703 972.854 29.9071 964.225 21.4746C955.597 12.9441 941.869 8.67878 923.043 8.67878H899.805V110.898ZM1230.44 64.8629C1236.12 78.0019 1238.97 92.0234 1238.97 106.927C1238.97 121.831 1236.12 135.951 1230.44 149.286C1224.85 162.523 1217.2 173.75 1207.49 182.967C1197.88 192.184 1186.41 199.489 1173.08 204.882C1159.84 210.275 1145.82 212.971 1131.01 212.971C1116.3 212.971 1102.28 210.275 1088.95 204.882C1075.61 199.489 1064.09 192.184 1054.38 182.967C1044.78 173.75 1037.13 162.523 1031.44 149.286C1025.75 135.951 1022.91 120.655 1022.91 103.397C1022.91 86.1402 1027.71 69.3242 1037.32 52.9495C1047.03 36.5747 1060.17 23.7789 1076.74 14.5619C1093.31 5.24694 1110.23 0.58945 1127.48 0.58945C1144.74 0.58945 1159.99 3.33492 1173.22 8.82586C1186.46 14.2187 1197.88 21.6217 1207.49 31.0347C1217.2 40.4478 1224.85 51.7238 1230.44 64.8629ZM1071 180.467C1086.3 199.293 1106.3 208.706 1131.01 208.706C1155.72 208.706 1175.68 199.293 1190.87 180.467C1206.17 161.543 1213.82 137.029 1213.82 106.927C1213.82 76.8253 1206.17 52.2631 1190.87 33.2409C1175.68 14.2187 1155.72 4.70765 1131.01 4.70765C1106.3 4.70765 1086.3 14.2187 1071 33.2409C1055.81 52.2631 1048.21 76.8253 1048.21 106.927C1048.21 137.029 1055.81 161.543 1071 180.467ZM1471.65 64.8629C1477.33 78.0019 1480.18 92.0234 1480.18 106.927C1480.18 121.831 1477.33 135.951 1471.65 149.286C1466.06 162.523 1458.41 173.75 1448.7 182.967C1439.09 192.184 1427.62 199.489 1414.29 204.882C1401.05 210.275 1387.03 212.971 1372.22 212.971C1357.51 212.971 1343.49 210.275 1330.16 204.882C1316.82 199.489 1305.3 192.184 1295.59 182.967C1285.98 173.75 1278.34 162.523 1272.65 149.286C1266.96 135.951 1264.12 120.655 1264.12 103.397C1264.12 86.1402 1268.92 69.3242 1278.53 52.9495C1288.24 36.5747 1301.38 23.7789 1317.95 14.5619C1334.52 5.24694 1351.43 0.58945 1368.69 0.58945C1385.95 0.58945 1401.2 3.33492 1414.43 8.82586C1427.67 14.2187 1439.09 21.6217 1448.7 31.0347C1458.41 40.4478 1466.06 51.7238 1471.65 64.8629ZM1312.21 180.467C1327.51 199.293 1347.51 208.706 1372.22 208.706C1396.93 208.706 1416.88 199.293 1432.08 180.467C1447.38 161.543 1455.03 137.029 1455.03 106.927C1455.03 76.8253 1447.38 52.2631 1432.08 33.2409C1416.88 14.2187 1396.93 4.70765 1372.22 4.70765C1347.51 4.70765 1327.51 14.2187 1312.21 33.2409C1297.02 52.2631 1289.42 76.8253 1289.42 106.927C1289.42 137.029 1297.02 161.543 1312.21 180.467ZM1713 1.03069L1743.74 209H1719.62L1695.5 45.8897L1612.84 212.53L1525.92 46.3309L1502.09 209H1497.83L1528.42 1.03069L1622.55 182.526L1713 1.03069ZM1795.07 38.5358C1795.07 43.6345 1795.76 47.6056 1797.13 50.4491C1798.6 53.1946 1799.78 55.3027 1800.66 56.7735C1801.54 58.2443 1803.16 60.1073 1805.52 62.3625C1807.87 64.5197 1809.68 66.2356 1810.96 67.5103C1812.33 68.785 1814.83 70.746 1818.46 73.3934C1822.09 76.0408 1824.78 78.0019 1826.55 79.2766C1828.41 80.5512 1831.74 82.8555 1836.55 86.1893C1841.45 89.425 1844.98 91.8273 1847.14 93.3961C1849.3 94.8669 1852.48 97.1221 1856.7 100.162C1860.92 103.201 1864 105.604 1865.96 107.369C1868.02 109.134 1870.67 111.536 1873.91 114.575C1877.24 117.517 1880.72 121.439 1884.35 126.342C1887.98 131.244 1890.67 136.245 1892.44 141.344C1894.2 146.344 1895.09 152.277 1895.09 159.14C1895.09 165.906 1893.66 172.377 1890.82 178.555C1887.98 184.732 1884.3 189.831 1879.79 193.851C1875.38 197.871 1870.18 201.254 1864.2 203.999C1858.22 206.647 1852.19 208.51 1846.11 209.588C1840.13 210.765 1832.43 211.353 1823.02 211.353C1813.6 211.353 1804.14 209.343 1794.63 205.323C1785.22 201.303 1778.7 197.822 1775.07 194.88L1772.42 192.968V182.967C1773.99 184.83 1779.68 189.34 1789.48 196.498C1799.29 203.656 1812.87 207.235 1830.22 207.235C1842.97 207.235 1853.56 203.558 1861.99 196.204C1870.43 188.85 1874.64 179.78 1874.64 168.995C1874.64 158.209 1871.46 148.796 1865.08 140.755C1858.71 132.715 1847.73 123.155 1832.14 112.075C1826.16 107.761 1821.69 104.574 1818.75 102.515C1815.91 100.456 1812.13 97.6124 1807.43 93.9844C1802.72 90.2584 1797.97 86.1402 1793.16 81.6298C1788.45 77.0214 1784.63 71.8246 1781.69 66.0395C1778.85 60.1563 1777.42 53.6849 1777.42 46.6251C1777.42 39.5653 1779.14 33.0938 1782.57 27.2107C1786 21.2295 1791.98 15.4934 1800.51 10.0025C1809.05 4.4135 1820.13 1.619 1833.75 1.619C1847.38 1.619 1859.35 3.72713 1869.64 7.94339L1874.35 10.0025V19.2684C1873.86 18.8762 1872.83 18.0428 1871.26 16.7681C1869.69 15.4934 1865.38 13.3853 1858.32 10.4437C1851.26 7.4041 1842.78 5.88428 1832.87 5.88428C1822.97 5.88428 1814.19 8.92391 1806.55 15.0032C1798.9 20.9844 1795.07 28.8286 1795.07 38.5358Z" fill="black"/>
</svg>
