<svg width="1168" height="384" viewBox="0 0 1168 384" fill="none" xmlns="http://www.w3.org/2000/svg">
<path opacity="0.4" d="M97.9374 207.064H45.4651L253.49 377H241.77L42.0025 213.99V377H0.450839V6.49778H97.9374C133.629 6.49778 163.994 14.8436 189.031 31.5353C214.069 48.227 226.588 73.3533 226.588 106.914C226.588 129.111 217.798 151.396 200.218 173.77C182.816 195.966 148.723 207.064 97.9374 207.064ZM42.0025 199.34H84.0869C118.003 199.34 142.774 191.704 158.4 176.433C174.204 161.162 182.106 137.989 182.106 106.914C182.106 75.8393 174.293 52.6663 158.667 37.3952C143.04 21.9465 118.181 14.2221 84.0869 14.2221H42.0025V199.34ZM498.804 14.2221H336.593V184.158H472.435V191.882H336.593V369.276H498.804V377H295.041V6.49778H498.804V14.2221ZM834.414 6.49778H842.138V383.393L568.59 72.2879V377H560.865V0.371575L834.414 310.944V6.49778ZM1167.63 6.49778V14.2221H1054.16V377H1012.87V14.2221H899.405V6.49778H1167.63Z" fill="black"/>
</svg>
