<svg width="1899" height="386" viewBox="0 0 1899 386" fill="none" xmlns="http://www.w3.org/2000/svg">
<path opacity="0.4" d="M349.028 116.97C359.327 140.765 364.477 166.158 364.477 193.148C364.477 220.139 359.327 245.709 349.028 269.859C338.906 293.831 325.056 314.163 307.476 330.855C290.074 347.547 269.299 360.776 245.149 370.542C221.177 380.308 195.784 385.192 168.971 385.192C142.335 385.192 116.943 380.308 92.7928 370.542C68.6432 360.776 47.7786 347.547 30.199 330.855C12.797 314.163 -1.05351 293.831 -11.3526 269.859C-21.6518 245.709 -26.8013 218.008 -26.8013 186.756C-26.8013 155.503 -18.1003 125.05 -0.698368 95.3955C16.8812 65.7411 40.6757 42.5681 70.6852 25.8764C100.695 9.00713 131.326 0.572504 162.578 0.572504C193.831 0.572504 221.443 5.5445 245.415 15.4885C269.387 25.2549 290.074 38.6615 307.476 55.7083C325.056 72.7552 338.906 93.1759 349.028 116.97ZM60.2973 326.327C87.9984 360.42 124.223 377.467 168.971 377.467C213.719 377.467 249.855 360.42 277.378 326.327C305.079 292.056 318.93 247.663 318.93 193.148C318.93 138.634 305.079 94.1525 277.378 59.7037C249.855 25.2549 213.719 8.03049 168.971 8.03049C124.223 8.03049 87.9984 25.2549 60.2973 59.7037C32.7738 94.1525 19.012 138.634 19.012 193.148C19.012 247.663 32.7738 292.056 60.2973 326.327ZM625.773 15.2221H463.561V185.158H599.403V192.882H463.561V378H422.01V7.49778H625.773V15.2221ZM883.606 15.2221H721.395V185.158H857.237V192.882H721.395V378H679.843V7.49778H883.606V15.2221ZM940.873 378V7.49778H982.158V378H940.873ZM1088.97 192.882C1088.97 246.864 1102.91 291.168 1130.78 325.794C1158.66 360.243 1193.82 377.467 1236.26 377.467C1259.7 377.467 1282.08 373.028 1303.38 364.149C1324.69 355.093 1343.16 343.018 1358.79 327.925V348.701C1326.47 372.85 1285.63 385.014 1236.26 385.192C1209.27 385.192 1183.79 380.22 1159.82 370.276C1136.02 360.332 1115.6 346.925 1098.56 330.056C1081.51 313.009 1067.92 292.588 1057.8 268.794C1047.86 244.999 1042.89 219.695 1042.89 192.882C1042.89 166.069 1047.86 140.765 1057.8 116.97C1067.92 93.1759 1081.51 72.7552 1098.56 55.7083C1115.6 38.6615 1136.02 25.2549 1159.82 15.4885C1183.79 5.5445 1209.27 0.572504 1236.26 0.572504C1277.81 0.572504 1315.28 9.27349 1348.66 26.6755V46.1195C1316.7 20.9044 1279.23 8.20806 1236.26 8.03049C1208.38 8.03049 1183.26 15.8436 1160.88 31.4699C1138.51 47.0961 1120.93 69.0262 1108.14 97.26C1095.36 125.316 1088.97 157.19 1088.97 192.882ZM1628.87 15.2221H1466.66V185.158H1602.5V192.882H1466.66V370.276H1628.87V378H1425.11V7.49778H1628.87V15.2221ZM1717.3 69.2925C1717.3 78.5262 1718.55 85.7179 1721.03 90.8674C1723.7 95.8394 1725.83 99.6572 1727.42 102.321C1729.02 104.984 1731.95 108.358 1736.21 112.442C1740.48 116.349 1743.76 119.456 1746.07 121.765C1748.56 124.073 1753.08 127.625 1759.65 132.419C1766.22 137.214 1771.11 140.765 1774.3 143.073C1777.68 145.382 1783.71 149.555 1792.42 155.592C1801.29 161.452 1807.69 165.802 1811.59 168.644C1815.5 171.307 1821.27 175.391 1828.91 180.896C1836.54 186.401 1842.14 190.751 1845.69 193.947C1849.42 197.144 1854.21 201.494 1860.07 206.999C1866.11 212.326 1872.41 219.429 1878.98 228.308C1885.55 237.186 1890.43 246.242 1893.63 255.476C1896.83 264.532 1898.43 275.275 1898.43 287.705C1898.43 299.957 1895.85 311.677 1890.7 322.864C1885.55 334.051 1878.89 343.285 1870.72 350.565C1862.73 357.846 1853.32 363.972 1842.49 368.944C1831.66 373.738 1820.74 377.112 1809.73 379.065C1798.9 381.196 1784.96 382.262 1767.91 382.262C1750.86 382.262 1733.73 378.621 1716.5 371.341C1699.46 364.061 1687.65 357.757 1681.08 352.43L1676.28 348.967V330.855C1679.12 334.229 1689.42 342.397 1707.18 355.36C1724.94 368.322 1749.53 374.804 1780.96 374.804C1804.05 374.804 1823.22 368.145 1838.49 354.827C1853.77 341.509 1861.4 325.084 1861.4 305.551C1861.4 286.018 1855.63 268.971 1844.09 254.41C1832.55 239.85 1812.66 222.536 1784.42 202.471C1773.59 194.658 1765.51 188.887 1760.19 185.158C1755.04 181.429 1748.2 176.279 1739.68 169.709C1731.15 162.961 1722.54 155.503 1713.84 147.335C1705.32 138.989 1698.39 129.578 1693.06 119.101C1687.91 108.447 1685.34 96.7273 1685.34 83.9422C1685.34 71.157 1688.45 59.4373 1694.66 48.7831C1700.88 37.9512 1711.71 27.5633 1727.16 17.6193C1742.61 7.49778 1762.67 2.437 1787.35 2.437C1812.04 2.437 1833.7 6.25478 1852.35 13.8903L1860.87 17.6193V34.3998C1859.98 33.6895 1858.12 32.1802 1855.28 29.8717C1852.43 27.5633 1844.62 23.7455 1831.84 18.4184C1819.05 12.9137 1803.69 10.1613 1785.76 10.1613C1767.82 10.1613 1751.93 15.6661 1738.08 26.6755C1724.23 37.5073 1717.3 51.713 1717.3 69.2925Z" fill="black"/>
</svg>
