<svg width="1165" height="214" viewBox="0 0 1165 214" fill="none" xmlns="http://www.w3.org/2000/svg">
<path opacity="0.2" d="M51.5657 116.206H23.0454V210H0.11155V5.50642H51.5657C71.3633 5.50642 88.1717 10.1128 101.991 19.3255C115.81 28.5383 122.719 42.4064 122.719 60.9299C122.719 73.1809 117.819 85.4809 108.018 97.8299C98.3155 110.081 79.498 116.206 51.5657 116.206ZM23.0454 9.76976V111.943H44.0681C62.7876 111.943 76.4597 107.729 85.0844 99.3C93.8071 90.8713 98.1685 78.0813 98.1685 60.9299C98.1685 43.7785 93.8562 30.9885 85.2315 22.5598C76.6068 14.0331 62.8856 9.76976 44.0681 9.76976H23.0454ZM293.547 5.50642V127.085C293.547 142.571 292.126 155.704 289.284 166.484C286.54 177.167 281.296 186.674 273.554 195.005C261.989 207.354 245.327 213.528 223.57 213.528C201.812 213.528 184.563 207.452 171.821 195.299C162.707 186.576 156.483 176.089 153.151 163.838C149.917 151.587 148.3 134.926 148.3 113.854V5.50642H171.086V119.735C171.086 139.924 171.821 154.969 173.292 164.867C174.762 174.766 177.849 183.097 182.553 189.859C191.57 202.796 205.683 209.265 224.893 209.265C244.102 209.265 259.196 203.58 270.172 192.212C277.621 184.567 282.619 175.354 285.168 164.573C287.814 153.694 289.137 141.051 289.137 126.644V5.50642H293.547ZM328.83 5.50642H368.67C386.998 5.50642 402.385 9.0347 414.832 16.0913C427.279 23.1478 433.503 34.3208 433.503 49.61C433.503 60.7829 430.023 69.9956 423.065 77.2482C416.106 84.4028 406.845 89.4992 395.28 92.5375C420.37 95.4777 437.227 103.22 445.852 115.765C454.574 128.31 458.936 139.63 458.936 149.725C458.936 169.131 451.34 184.028 436.149 194.417C421.056 204.806 403.071 210 382.196 210H328.83V5.50642ZM379.402 96.0658H351.764V205.737H379.402C397.142 205.737 410.716 200.64 420.125 190.447C429.631 180.255 434.385 167.122 434.385 151.048C434.385 134.877 429.631 121.695 420.125 111.502C410.716 101.211 397.142 96.0658 379.402 96.0658ZM371.17 9.76976H351.764V91.8024H371.17C385.283 91.8024 395.672 88.0781 402.336 80.6295C409.099 73.0829 412.48 63.1351 412.48 50.7861C412.48 38.4371 409.099 28.5383 402.336 21.0897C395.672 13.5431 385.283 9.76976 371.17 9.76976ZM487.897 210V5.50642H510.831V205.737H589.629V210H487.897ZM622.266 210V5.50642H645.053V210H622.266ZM704.005 107.827C704.005 137.621 711.698 162.074 727.086 181.186C742.473 200.199 761.878 209.706 785.302 209.706C798.239 209.706 810.588 207.256 822.349 202.355C834.11 197.357 844.303 190.692 852.928 182.362V193.829C835.09 207.158 812.548 213.871 785.302 213.969C770.405 213.969 756.341 211.225 743.11 205.737C729.977 200.248 718.706 192.849 709.297 183.538C699.888 174.129 692.391 162.858 686.804 149.725C681.316 136.592 678.572 122.626 678.572 107.827C678.572 93.0275 681.316 79.0614 686.804 65.9283C692.391 52.7953 699.888 41.5243 709.297 32.1156C718.706 22.7068 729.977 15.3072 743.11 9.91678C756.341 4.42833 770.405 1.68411 785.302 1.68411C808.236 1.68411 828.916 6.4865 847.341 16.0913V26.8231C829.7 12.906 809.02 5.89845 785.302 5.80044C769.915 5.80044 756.047 10.1128 743.698 18.7375C731.349 27.3622 721.646 39.4662 714.589 55.0494C707.533 70.5347 704.005 88.1271 704.005 107.827ZM975.242 39.6132C975.242 44.7096 975.928 48.6789 977.3 51.5211C978.77 54.2654 979.946 56.3725 980.828 57.8427C981.71 59.3128 983.327 61.1749 985.679 63.4291C988.032 65.5853 989.845 67.3004 991.119 68.5745C992.491 69.8486 994.99 71.8088 998.617 74.455C1002.24 77.1012 1004.94 79.0614 1006.7 80.3355C1008.56 81.6096 1011.9 83.9128 1016.7 87.245C1021.6 90.4793 1025.13 92.8805 1027.28 94.4486C1029.44 95.9187 1032.63 98.1729 1036.84 101.211C1041.05 104.249 1044.14 106.651 1046.1 108.415C1048.16 110.179 1050.81 112.58 1054.04 115.618C1057.37 118.559 1060.85 122.479 1064.48 127.379C1068.1 132.28 1070.8 137.278 1072.56 142.375C1074.33 147.373 1075.21 153.302 1075.21 160.163C1075.21 166.926 1073.79 173.394 1070.95 179.569C1068.1 185.743 1064.43 190.839 1059.92 194.858C1055.51 198.876 1050.32 202.257 1044.34 205.002C1038.36 207.648 1032.33 209.51 1026.25 210.588C1020.28 211.764 1012.58 212.352 1003.17 212.352C993.765 212.352 984.307 210.343 974.801 206.325C965.392 202.306 958.874 198.827 955.248 195.887L952.602 193.976V183.979C954.17 185.841 959.854 190.349 969.655 197.504C979.456 204.659 993.03 208.236 1010.38 208.236C1023.12 208.236 1033.7 204.561 1042.13 197.21C1050.56 189.859 1054.78 180.794 1054.78 170.013C1054.78 159.232 1051.59 149.823 1045.22 141.786C1038.85 133.75 1027.87 124.194 1012.29 113.119C1006.31 108.807 1001.85 105.622 998.911 103.563C996.068 101.505 992.295 98.663 987.591 95.0367C982.886 91.3124 978.133 87.196 973.33 82.6877C968.626 78.0813 964.804 72.8869 961.864 67.1044C959.021 61.2239 957.6 54.7554 957.6 47.6988C957.6 40.6423 959.315 34.1737 962.746 28.2933C966.176 22.3148 972.154 16.5813 980.681 11.0929C989.208 5.50642 1000.28 2.71319 1013.91 2.71319C1027.53 2.71319 1039.49 4.82036 1049.78 9.0347L1054.48 11.0929V20.3546C1053.99 19.9626 1052.96 19.1295 1051.39 17.8554C1049.83 16.5813 1045.51 14.4741 1038.46 11.5339C1031.4 8.49566 1022.92 6.97654 1013.02 6.97654C1003.12 6.97654 994.353 10.0148 986.709 16.0913C979.064 22.0698 975.242 29.9104 975.242 39.6132ZM1157.68 116.206H1129.16V210H1106.23V5.50642H1157.68C1177.48 5.50642 1194.29 10.1128 1208.11 19.3255C1221.93 28.5383 1228.84 42.4064 1228.84 60.9299C1228.84 73.1809 1223.94 85.4809 1214.14 97.8299C1204.43 110.081 1185.62 116.206 1157.68 116.206ZM1129.16 9.76976V111.943H1150.19C1168.91 111.943 1182.58 107.729 1191.2 99.3C1199.92 90.8713 1204.29 78.0813 1204.29 60.9299C1204.29 43.7785 1199.97 30.9885 1191.35 22.5598C1182.72 14.0331 1169 9.76976 1150.19 9.76976H1129.16ZM1359.97 210L1334.98 146.197H1249.12L1224.13 210H1219.58L1301.9 0.361001L1384.23 210H1359.97ZM1292.05 36.967L1250.89 141.933H1333.36L1292.05 36.967ZM1412.31 107.827C1412.31 137.621 1420 162.074 1435.39 181.186C1450.78 200.199 1470.18 209.706 1493.61 209.706C1506.54 209.706 1518.89 207.256 1530.65 202.355C1542.41 197.357 1552.61 190.692 1561.23 182.362V193.829C1543.39 207.158 1520.85 213.871 1493.61 213.969C1478.71 213.969 1464.64 211.225 1451.41 205.737C1438.28 200.248 1427.01 192.849 1417.6 183.538C1408.19 174.129 1400.69 162.858 1395.11 149.725C1389.62 136.592 1386.88 122.626 1386.88 107.827C1386.88 93.0275 1389.62 79.0614 1395.11 65.9283C1400.69 52.7953 1408.19 41.5243 1417.6 32.1156C1427.01 22.7068 1438.28 15.3072 1451.41 9.91678C1464.64 4.42833 1478.71 1.68411 1493.61 1.68411C1516.54 1.68411 1537.22 6.4865 1555.64 16.0913V26.8231C1538 12.906 1517.32 5.89845 1493.61 5.80044C1478.22 5.80044 1464.35 10.1128 1452 18.7375C1439.65 27.3622 1429.95 39.4662 1422.89 55.0494C1415.84 70.5347 1412.31 88.1271 1412.31 107.827ZM1710.3 9.76976H1620.77V103.563H1695.75V107.827H1620.77V205.737H1710.3V210H1597.84V5.50642H1710.3V9.76976ZM1759.11 39.6132C1759.11 44.7096 1759.8 48.6789 1761.17 51.5211C1762.64 54.2654 1763.81 56.3725 1764.7 57.8427C1765.58 59.3128 1767.19 61.1749 1769.55 63.4291C1771.9 65.5853 1773.71 67.3004 1774.99 68.5745C1776.36 69.8486 1778.86 71.8088 1782.48 74.455C1786.11 77.1012 1788.81 79.0614 1790.57 80.3355C1792.43 81.6096 1795.76 83.9128 1800.57 87.245C1805.47 90.4793 1809 92.8805 1811.15 94.4486C1813.31 95.9187 1816.49 98.1729 1820.71 101.211C1824.92 104.249 1828.01 106.651 1829.97 108.415C1832.03 110.179 1834.67 112.58 1837.91 115.618C1841.24 118.559 1844.72 122.479 1848.35 127.379C1851.97 132.28 1854.67 137.278 1856.43 142.375C1858.2 147.373 1859.08 153.302 1859.08 160.163C1859.08 166.926 1857.66 173.394 1854.81 179.569C1851.97 185.743 1848.3 190.839 1843.79 194.858C1839.38 198.876 1834.18 202.257 1828.2 205.002C1822.23 207.648 1816.2 209.51 1810.12 210.588C1804.14 211.764 1796.45 212.352 1787.04 212.352C1777.63 212.352 1768.17 210.343 1758.67 206.325C1749.26 202.306 1742.74 198.827 1739.12 195.887L1736.47 193.976V183.979C1738.04 185.841 1743.72 190.349 1753.52 197.504C1763.32 204.659 1776.9 208.236 1794.25 208.236C1806.99 208.236 1817.57 204.561 1826 197.21C1834.43 189.859 1838.64 180.794 1838.64 170.013C1838.64 159.232 1835.46 149.823 1829.09 141.786C1822.72 133.75 1811.74 124.194 1796.16 113.119C1790.18 108.807 1785.72 105.622 1782.78 103.563C1779.94 101.505 1776.16 98.663 1771.46 95.0367C1766.75 91.3124 1762 87.196 1757.2 82.6877C1752.49 78.0813 1748.67 72.8869 1745.73 67.1044C1742.89 61.2239 1741.47 54.7554 1741.47 47.6988C1741.47 40.6423 1743.18 34.1737 1746.61 28.2933C1750.04 22.3148 1756.02 16.5813 1764.55 11.0929C1773.08 5.50642 1784.15 2.71319 1797.77 2.71319C1811.4 2.71319 1823.35 4.82036 1833.64 9.0347L1838.35 11.0929V20.3546C1837.86 19.9626 1836.83 19.1295 1835.26 17.8554C1833.69 16.5813 1829.38 14.4741 1822.32 11.5339C1815.27 8.49566 1806.79 6.97654 1796.89 6.97654C1786.99 6.97654 1778.22 10.0148 1770.58 16.0913C1762.93 22.0698 1759.11 29.9104 1759.11 39.6132Z" fill="#DBDBDB"/>
</svg>
