<svg width="1912" height="152" viewBox="0 0 1912 152" fill="none" xmlns="http://www.w3.org/2000/svg">
<path opacity="0.05" d="M39.1856 82.4243H18.6285L100.126 149H95.5349L17.272 85.1375V149H0.993306V3.84838H39.1856C53.1686 3.84838 65.0645 7.11803 74.8735 13.6573C84.6824 20.1966 89.5869 30.0404 89.5869 43.1885C89.5869 51.8844 86.1434 60.6151 79.2562 69.3805C72.4387 78.0764 59.0818 82.4243 39.1856 82.4243ZM17.272 79.3982H33.7594C47.0467 79.3982 56.7513 76.4068 62.8732 70.424C69.0646 64.4413 72.1604 55.3628 72.1604 43.1885C72.1604 31.0143 69.0994 21.9358 62.9775 15.953C56.8556 9.90071 47.1163 6.87455 33.7594 6.87455H17.272V79.3982ZM196.233 6.87455H132.684V73.4502H185.902V76.4764H132.684V145.974H196.233V149H116.405V3.84838H196.233V6.87455ZM327.715 3.84838H330.741V151.504L223.573 29.623V149H220.547V1.44832L327.715 123.121V3.84838ZM458.257 3.84838V6.87455H413.804V149H397.63V6.87455H353.176V3.84838H458.257ZM551.547 149L533.807 103.712H472.867L455.127 149H451.892L510.328 0.196113L568.765 149H551.547ZM503.337 26.1794L474.119 100.686H532.659L503.337 26.1794ZM589.53 149V3.84838H605.809V145.974H661.741V149H589.53ZM875.034 46.7365C879.068 56.0584 881.086 66.0065 881.086 76.5807C881.086 87.1549 879.068 97.1726 875.034 106.634C871.068 116.025 865.642 123.991 858.755 130.53C851.937 137.069 843.798 142.252 834.337 146.078C824.945 149.904 814.997 151.817 804.493 151.817C794.058 151.817 784.109 149.904 774.648 146.078C765.187 142.252 757.013 137.069 750.126 130.53C743.308 123.991 737.882 116.025 733.847 106.634C729.812 97.1726 727.795 86.3201 727.795 74.0763C727.795 61.8325 731.204 49.9018 738.021 38.2841C744.908 26.6664 754.23 17.5879 765.987 11.0486C777.744 4.4397 789.744 1.13527 801.988 1.13527C814.232 1.13527 825.05 3.08314 834.441 6.9789C843.833 10.8051 851.937 16.0574 858.755 22.7358C865.642 29.4143 871.068 37.4145 875.034 46.7365ZM761.918 128.756C772.77 142.113 786.962 148.791 804.493 148.791C822.023 148.791 836.18 142.113 846.963 128.756C857.816 115.33 863.242 97.9378 863.242 76.5807C863.242 55.2236 857.816 37.7971 846.963 24.3011C836.18 10.8051 822.023 4.05708 804.493 4.05708C786.962 4.05708 772.77 10.8051 761.918 24.3011C751.135 37.7971 745.743 55.2236 745.743 76.5807C745.743 97.9378 751.135 115.33 761.918 128.756ZM983.454 6.87455H919.904V73.4502H973.123V76.4764H919.904V149H903.626V3.84838H983.454V6.87455ZM1090 82.4243H1069.75V149H1053.47V3.84838H1090C1104.05 3.84838 1115.98 7.11803 1125.79 13.6573C1135.6 20.1966 1140.5 30.0404 1140.5 43.1885C1140.5 51.8844 1137.02 60.6151 1130.07 69.3805C1123.18 78.0764 1109.82 82.4243 1090 82.4243ZM1069.75 6.87455V79.3982H1084.67C1097.96 79.3982 1107.67 76.4068 1113.79 70.424C1119.98 64.4413 1123.07 55.3628 1123.07 43.1885C1123.07 31.0143 1120.01 21.9358 1113.89 15.953C1107.77 9.90071 1098.03 6.87455 1084.67 6.87455H1069.75ZM1198.94 82.4243H1178.38L1259.88 149H1255.29L1177.02 85.1375V149H1160.75V3.84838H1198.94C1212.92 3.84838 1224.82 7.11803 1234.63 13.6573C1244.43 20.1966 1249.34 30.0404 1249.34 43.1885C1249.34 51.8844 1245.9 60.6151 1239.01 69.3805C1232.19 78.0764 1218.83 82.4243 1198.94 82.4243ZM1177.02 79.3982H1193.51C1206.8 79.3982 1216.5 76.4068 1222.63 70.424C1228.82 64.4413 1231.91 55.3628 1231.91 43.1885C1231.91 31.0143 1228.85 21.9358 1222.73 15.953C1216.61 9.90071 1206.87 6.87455 1193.51 6.87455H1177.02V79.3982ZM1355.99 6.87455H1292.44V73.4502H1345.65V76.4764H1292.44V145.974H1355.99V149H1276.16V3.84838H1355.99V6.87455ZM1528.37 1.44832L1550.18 149H1533.07L1515.95 33.2752L1457.31 151.504L1395.64 33.5883L1378.73 149H1375.71L1397.41 1.44832L1464.2 130.217L1528.37 1.44832ZM1576.48 149V3.84838H1592.65V149H1576.48ZM1633.14 28.0577C1633.14 31.6752 1633.63 34.4927 1634.6 36.5101C1635.64 38.458 1636.48 39.9537 1637.11 40.9972C1637.73 42.0407 1638.88 43.3625 1640.55 44.9625C1642.22 46.493 1643.51 47.7104 1644.41 48.6148C1645.38 49.5191 1647.16 50.9105 1649.73 52.7888C1652.31 54.6671 1654.22 56.0584 1655.47 56.9628C1656.79 57.8672 1659.16 59.502 1662.57 61.8673C1666.05 64.163 1668.55 65.8674 1670.08 66.9805C1671.61 68.024 1673.87 69.624 1676.86 71.7806C1679.85 73.9372 1682.05 75.6416 1683.44 76.8938C1684.9 78.146 1686.78 79.8504 1689.07 82.0069C1691.44 84.094 1693.91 86.8766 1696.48 90.355C1699.06 93.8333 1700.97 97.3813 1702.22 100.999C1703.47 104.547 1704.1 108.755 1704.1 113.625C1704.1 118.425 1703.09 123.017 1701.07 127.399C1699.06 131.782 1696.45 135.4 1693.25 138.252C1690.12 141.104 1686.43 143.504 1682.19 145.452C1677.94 147.33 1673.66 148.652 1669.35 149.417C1665.11 150.252 1659.65 150.67 1652.97 150.67C1646.29 150.67 1639.58 149.243 1632.83 146.391C1626.15 143.539 1621.52 141.069 1618.95 138.982L1617.07 137.626V130.53C1618.18 131.852 1622.22 135.052 1629.18 140.13C1636.13 145.209 1645.77 147.748 1658.08 147.748C1667.12 147.748 1674.64 145.139 1680.62 139.922C1686.6 134.704 1689.59 128.269 1689.59 120.617C1689.59 112.964 1687.33 106.286 1682.81 100.581C1678.29 94.8768 1670.5 88.0941 1659.44 80.233C1655.19 77.172 1652.03 74.9111 1649.94 73.4502C1647.92 71.9893 1645.25 69.9718 1641.91 67.3979C1638.57 64.7543 1635.19 61.8325 1631.78 58.6324C1628.44 55.3628 1625.73 51.6757 1623.64 47.5713C1621.63 43.3972 1620.62 38.8058 1620.62 33.797C1620.62 28.7882 1621.84 24.1967 1624.27 20.0227C1626.71 15.7791 1630.95 11.7095 1637 7.8137C1643.05 3.84838 1650.91 1.86572 1660.58 1.86572C1670.25 1.86572 1678.74 3.36141 1686.05 6.3528L1689.39 7.8137V14.3878C1689.04 14.1095 1688.31 13.5182 1687.19 12.6138C1686.08 11.7095 1683.02 10.2138 1678.01 8.12675C1673 5.97018 1666.98 4.89189 1659.96 4.89189C1652.93 4.89189 1646.71 7.04847 1641.28 11.3616C1635.85 15.6052 1633.14 21.1706 1633.14 28.0577ZM1805.94 6.87455H1742.4V73.4502H1795.61V76.4764H1742.4V145.974H1805.94V149H1726.12V3.84838H1805.94V6.87455ZM1840.59 28.0577C1840.59 31.6752 1841.08 34.4927 1842.05 36.5101C1843.09 38.458 1843.93 39.9537 1844.55 40.9972C1845.18 42.0407 1846.33 43.3625 1848 44.9625C1849.67 46.493 1850.95 47.7104 1851.86 48.6148C1852.83 49.5191 1854.61 50.9105 1857.18 52.7888C1859.75 54.6671 1861.67 56.0584 1862.92 56.9628C1864.24 57.8672 1866.61 59.502 1870.02 61.8673C1873.49 64.163 1876 65.8674 1877.53 66.9805C1879.06 68.024 1881.32 69.624 1884.31 71.7806C1887.3 73.9372 1889.49 75.6416 1890.89 76.8938C1892.35 78.146 1894.23 79.8504 1896.52 82.0069C1898.89 84.094 1901.36 86.8766 1903.93 90.355C1906.5 93.8333 1908.42 97.3813 1909.67 100.999C1910.92 104.547 1911.55 108.755 1911.55 113.625C1911.55 118.425 1910.54 123.017 1908.52 127.399C1906.5 131.782 1903.9 135.4 1900.7 138.252C1897.56 141.104 1893.88 143.504 1889.63 145.452C1885.39 147.33 1881.11 148.652 1876.8 149.417C1872.56 150.252 1867.09 150.67 1860.42 150.67C1853.74 150.67 1847.02 149.243 1840.28 146.391C1833.6 143.539 1828.97 141.069 1826.4 138.982L1824.52 137.626V130.53C1825.63 131.852 1829.67 135.052 1836.62 140.13C1843.58 145.209 1853.22 147.748 1865.53 147.748C1874.57 147.748 1882.09 145.139 1888.07 139.922C1894.05 134.704 1897.04 128.269 1897.04 120.617C1897.04 112.964 1894.78 106.286 1890.26 100.581C1885.74 94.8768 1877.95 88.0941 1866.89 80.233C1862.64 77.172 1859.48 74.9111 1857.39 73.4502C1855.37 71.9893 1852.69 69.9718 1849.35 67.3979C1846.02 64.7543 1842.64 61.8325 1839.23 58.6324C1835.89 55.3628 1833.18 51.6757 1831.09 47.5713C1829.08 43.3972 1828.07 38.8058 1828.07 33.797C1828.07 28.7882 1829.28 24.1967 1831.72 20.0227C1834.15 15.7791 1838.4 11.7095 1844.45 7.8137C1850.5 3.84838 1858.36 1.86572 1868.03 1.86572C1877.7 1.86572 1886.19 3.36141 1893.49 6.3528L1896.83 7.8137V14.3878C1896.49 14.1095 1895.76 13.5182 1894.64 12.6138C1893.53 11.7095 1890.47 10.2138 1885.46 8.12675C1880.45 5.97018 1874.43 4.89189 1867.41 4.89189C1860.38 4.89189 1854.15 7.04847 1848.73 11.3616C1843.3 15.6052 1840.59 21.1706 1840.59 28.0577Z" fill="black"/>
</svg>
