<svg width="1920" height="164" viewBox="0 0 1920 164" fill="none" xmlns="http://www.w3.org/2000/svg">
<path opacity="0.05" d="M-18.1123 29.8389C-18.1123 33.7321 -17.5882 36.7643 -16.54 38.9355C-15.417 41.0319 -14.5186 42.6416 -13.8447 43.7646C-13.1709 44.8877 -11.9355 46.3102 -10.1387 48.0322C-8.3418 49.6794 -6.95671 50.9896 -5.9834 51.9629C-4.93522 52.9362 -3.02604 54.4336 -0.255859 56.4551C2.51432 58.4766 4.57324 59.974 5.9209 60.9473C7.34342 61.9206 9.889 63.68 13.5576 66.2256C17.3011 68.6963 19.9964 70.5306 21.6436 71.7285C23.2907 72.8516 25.724 74.5736 28.9434 76.8945C32.1628 79.2155 34.5212 81.0498 36.0186 82.3975C37.5908 83.7451 39.6123 85.5794 42.083 87.9004C44.6286 90.1465 47.2865 93.1413 50.0566 96.8848C52.8268 100.628 54.8857 104.447 56.2334 108.34C57.5811 112.158 58.2549 116.688 58.2549 121.929C58.2549 127.095 57.1693 132.036 54.998 136.753C52.8268 141.47 50.0192 145.363 46.5752 148.433C43.2061 151.502 39.238 154.085 34.6709 156.182C30.1038 158.203 25.4993 159.626 20.8574 160.449C16.2904 161.348 10.4131 161.797 3.22559 161.797C-3.96191 161.797 -11.1868 160.262 -18.4492 157.192C-25.6367 154.123 -30.6156 151.465 -33.3857 149.219L-35.4072 147.759V140.122C-34.2093 141.545 -29.8669 144.989 -22.3799 150.454C-14.8929 155.92 -4.52344 158.652 8.72852 158.652C18.4616 158.652 26.5475 155.845 32.9863 150.229C39.4251 144.614 42.6445 137.689 42.6445 129.453C42.6445 121.217 40.2113 114.03 35.3447 107.891C30.4782 101.751 22.0928 94.4515 10.1885 85.9912C5.62142 82.6969 2.21484 80.2637 -0.03125 78.6914C-2.20247 77.1191 -5.08496 74.9479 -8.67871 72.1777C-12.2725 69.3327 -15.9036 66.1882 -19.5723 62.7441C-23.166 59.2253 -26.0859 55.2572 -28.332 50.8398C-30.5033 46.3477 -31.5889 41.4062 -31.5889 36.0156C-31.5889 30.625 -30.2786 25.6836 -27.6582 21.1914C-25.0378 16.6243 -20.4707 12.2445 -13.957 8.05176C-7.44336 3.78418 1.01693 1.65039 11.4238 1.65039C21.8307 1.65039 30.9648 3.26009 38.8262 6.47949L42.4199 8.05176V15.127C42.0456 14.8275 41.2594 14.1911 40.0615 13.2178C38.8636 12.2445 35.5693 10.6348 30.1787 8.38867C24.7881 6.06771 18.3118 4.90723 10.75 4.90723C3.18815 4.90723 -3.5127 7.22819 -9.35254 11.8701C-15.1924 16.4372 -18.1123 22.4268 -18.1123 29.8389ZM93.1816 81.9482C93.1816 104.709 99.0589 123.389 110.813 137.988C122.568 152.513 137.392 159.775 155.286 159.775C165.169 159.775 174.603 157.904 183.587 154.16C192.571 150.342 200.358 145.251 206.946 138.887V147.646C193.32 157.829 176.1 162.957 155.286 163.032C143.906 163.032 133.162 160.936 123.055 156.743C113.022 152.55 104.412 146.898 97.2246 139.785C90.0371 132.598 84.3096 123.988 80.042 113.955C75.8493 103.923 73.7529 93.2536 73.7529 81.9482C73.7529 70.6429 75.8493 59.974 80.042 49.9414C84.3096 39.9089 90.0371 31.2988 97.2246 24.1113C104.412 16.9238 113.022 11.2712 123.055 7.15332C133.162 2.96061 143.906 0.864258 155.286 0.864258C172.806 0.864258 188.603 4.53288 202.679 11.8701V20.0684C189.202 9.43685 173.405 4.08366 155.286 4.00879C143.532 4.00879 132.938 7.30306 123.504 13.8916C114.07 20.4801 106.658 29.7266 101.268 41.6309C95.877 53.4603 93.1816 66.8994 93.1816 81.9482ZM359.456 3.78418V160H341.937V81.9482H252.43V160H234.91V3.78418H252.43V78.6914H341.937V3.78418H359.456ZM542.176 49.9414C546.518 59.974 548.689 70.6803 548.689 82.0605C548.689 93.4408 546.518 104.222 542.176 114.404C537.908 124.512 532.068 133.084 524.656 140.122C517.319 147.16 508.559 152.738 498.377 156.855C488.27 160.973 477.563 163.032 466.258 163.032C455.027 163.032 444.321 160.973 434.139 156.855C423.956 152.738 415.159 147.16 407.747 140.122C400.41 133.084 394.57 124.512 390.228 114.404C385.885 104.222 383.714 92.5423 383.714 79.3652C383.714 66.1882 387.382 53.348 394.72 40.8447C402.132 28.3415 412.164 18.571 424.817 11.5332C437.47 4.42057 450.385 0.864258 463.562 0.864258C476.74 0.864258 488.382 2.96061 498.489 7.15332C508.597 11.2712 517.319 16.9238 524.656 24.1113C532.068 31.2988 537.908 39.9089 542.176 49.9414ZM420.438 138.213C432.117 152.588 447.391 159.775 466.258 159.775C485.125 159.775 500.361 152.588 511.966 138.213C523.646 123.763 529.485 105.046 529.485 82.0605C529.485 59.0755 523.646 40.3206 511.966 25.7959C500.361 11.2712 485.125 4.00879 466.258 4.00879C447.391 4.00879 432.117 11.2712 420.438 25.7959C408.833 40.3206 403.03 59.0755 403.03 82.0605C403.03 105.046 408.833 123.763 420.438 138.213ZM726.355 49.9414C730.698 59.974 732.869 70.6803 732.869 82.0605C732.869 93.4408 730.698 104.222 726.355 114.404C722.088 124.512 716.248 133.084 708.836 140.122C701.499 147.16 692.739 152.738 682.557 156.855C672.449 160.973 661.743 163.032 650.438 163.032C639.207 163.032 628.501 160.973 618.318 156.855C608.136 152.738 599.339 147.16 591.927 140.122C584.59 133.084 578.75 124.512 574.407 114.404C570.065 104.222 567.894 92.5423 567.894 79.3652C567.894 66.1882 571.562 53.348 578.899 40.8447C586.312 28.3415 596.344 18.571 608.997 11.5332C621.65 4.42057 634.565 0.864258 647.742 0.864258C660.919 0.864258 672.562 2.96061 682.669 7.15332C692.776 11.2712 701.499 16.9238 708.836 24.1113C716.248 31.2988 722.088 39.9089 726.355 49.9414ZM604.617 138.213C616.297 152.588 631.57 159.775 650.438 159.775C669.305 159.775 684.541 152.588 696.146 138.213C707.825 123.763 713.665 105.046 713.665 82.0605C713.665 59.0755 707.825 40.3206 696.146 25.7959C684.541 11.2712 669.305 4.00879 650.438 4.00879C631.57 4.00879 616.297 11.2712 604.617 25.7959C593.012 40.3206 587.21 59.0755 587.21 82.0605C587.21 105.046 593.012 123.763 604.617 138.213ZM757.127 160V3.78418H774.646V156.743H834.842V160H757.127ZM1064.39 49.9414C1068.74 59.974 1070.91 70.6803 1070.91 82.0605C1070.91 93.4408 1068.74 104.222 1064.39 114.404C1060.12 124.512 1054.29 133.084 1046.87 140.122C1039.54 147.16 1030.78 152.738 1020.59 156.855C1010.49 160.973 999.78 163.032 988.475 163.032C977.244 163.032 966.538 160.973 956.355 156.855C946.173 152.738 937.376 147.16 929.964 140.122C922.627 133.084 916.787 124.512 912.444 114.404C908.102 104.222 905.931 92.5423 905.931 79.3652C905.931 66.1882 909.599 53.348 916.937 40.8447C924.349 28.3415 934.381 18.571 947.034 11.5332C959.687 4.42057 972.602 0.864258 985.779 0.864258C998.956 0.864258 1010.6 2.96061 1020.71 7.15332C1030.81 11.2712 1039.54 16.9238 1046.87 24.1113C1054.29 31.2988 1060.12 39.9089 1064.39 49.9414ZM942.654 138.213C954.334 152.588 969.607 159.775 988.475 159.775C1007.34 159.775 1022.58 152.588 1034.18 138.213C1045.86 123.763 1051.7 105.046 1051.7 82.0605C1051.7 59.0755 1045.86 40.3206 1034.18 25.7959C1022.58 11.2712 1007.34 4.00879 988.475 4.00879C969.607 4.00879 954.334 11.2712 942.654 25.7959C931.049 40.3206 925.247 59.0755 925.247 82.0605C925.247 105.046 931.049 123.763 942.654 138.213ZM1181.08 7.04102H1112.68V78.6914H1169.96V81.9482H1112.68V160H1095.16V3.78418H1181.08V7.04102ZM1270.81 81.9482C1270.81 104.709 1276.69 123.389 1288.44 137.988C1300.19 152.513 1315.02 159.775 1332.91 159.775C1342.8 159.775 1352.23 157.904 1361.21 154.16C1370.2 150.342 1377.98 145.251 1384.57 138.887V147.646C1370.95 157.829 1353.73 162.957 1332.91 163.032C1321.53 163.032 1310.79 160.936 1300.68 156.743C1290.65 152.55 1282.04 146.898 1274.85 139.785C1267.66 132.598 1261.94 123.988 1257.67 113.955C1253.48 103.923 1251.38 93.2536 1251.38 81.9482C1251.38 70.6429 1253.48 59.974 1257.67 49.9414C1261.94 39.9089 1267.66 31.2988 1274.85 24.1113C1282.04 16.9238 1290.65 11.2712 1300.68 7.15332C1310.79 2.96061 1321.53 0.864258 1332.91 0.864258C1350.43 0.864258 1366.23 4.53288 1380.31 11.8701V20.0684C1366.83 9.43685 1351.03 4.08366 1332.91 4.00879C1321.16 4.00879 1310.56 7.30306 1301.13 13.8916C1291.7 20.4801 1284.29 29.7266 1278.89 41.6309C1273.5 53.4603 1270.81 66.8994 1270.81 81.9482ZM1556.51 49.9414C1560.85 59.974 1563.03 70.6803 1563.03 82.0605C1563.03 93.4408 1560.85 104.222 1556.51 114.404C1552.24 124.512 1546.4 133.084 1538.99 140.122C1531.65 147.16 1522.9 152.738 1512.71 156.855C1502.61 160.973 1491.9 163.032 1480.59 163.032C1469.36 163.032 1458.66 160.973 1448.47 156.855C1438.29 152.738 1429.5 147.16 1422.08 140.122C1414.75 133.084 1408.91 124.512 1404.56 114.404C1400.22 104.222 1398.05 92.5423 1398.05 79.3652C1398.05 66.1882 1401.72 53.348 1409.06 40.8447C1416.47 28.3415 1426.5 18.571 1439.15 11.5332C1451.81 4.42057 1464.72 0.864258 1477.9 0.864258C1491.08 0.864258 1502.72 2.96061 1512.83 7.15332C1522.93 11.2712 1531.65 16.9238 1538.99 24.1113C1546.4 31.2988 1552.24 39.9089 1556.51 49.9414ZM1434.77 138.213C1446.45 152.588 1461.73 159.775 1480.59 159.775C1499.46 159.775 1514.7 152.588 1526.3 138.213C1537.98 123.763 1543.82 105.046 1543.82 82.0605C1543.82 59.0755 1537.98 40.3206 1526.3 25.7959C1514.7 11.2712 1499.46 4.00879 1480.59 4.00879C1461.73 4.00879 1446.45 11.2712 1434.77 25.7959C1423.17 40.3206 1417.37 59.0755 1417.37 82.0605C1417.37 105.046 1423.17 123.763 1434.77 138.213ZM1587.28 160V3.78418H1604.8V156.743H1665V160H1587.28ZM1824.25 49.9414C1828.59 59.974 1830.76 70.6803 1830.76 82.0605C1830.76 93.4408 1828.59 104.222 1824.25 114.404C1819.98 124.512 1814.14 133.084 1806.73 140.122C1799.39 147.16 1790.63 152.738 1780.45 156.855C1770.34 160.973 1759.63 163.032 1748.33 163.032C1737.1 163.032 1726.39 160.973 1716.21 156.855C1706.03 152.738 1697.23 147.16 1689.82 140.122C1682.48 133.084 1676.64 124.512 1672.3 114.404C1667.96 104.222 1665.78 92.5423 1665.78 79.3652C1665.78 66.1882 1669.45 53.348 1676.79 40.8447C1684.2 28.3415 1694.23 18.571 1706.89 11.5332C1719.54 4.42057 1732.46 0.864258 1745.63 0.864258C1758.81 0.864258 1770.45 2.96061 1780.56 7.15332C1790.67 11.2712 1799.39 16.9238 1806.73 24.1113C1814.14 31.2988 1819.98 39.9089 1824.25 49.9414ZM1702.51 138.213C1714.19 152.588 1729.46 159.775 1748.33 159.775C1767.2 159.775 1782.43 152.588 1794.04 138.213C1805.72 123.763 1811.56 105.046 1811.56 82.0605C1811.56 59.0755 1805.72 40.3206 1794.04 25.7959C1782.43 11.2712 1767.2 4.00879 1748.33 4.00879C1729.46 4.00879 1714.19 11.2712 1702.51 25.7959C1690.9 40.3206 1685.1 59.0755 1685.1 82.0605C1685.1 105.046 1690.9 123.763 1702.51 138.213ZM1896.12 88.3496H1874L1961.71 160H1956.77L1872.54 91.2695V160H1855.02V3.78418H1896.12C1911.17 3.78418 1923.97 7.30306 1934.53 14.3408C1945.09 21.3786 1950.36 31.9727 1950.36 46.123C1950.36 55.4818 1946.66 64.8779 1939.25 74.3115C1931.91 83.6702 1917.53 88.3496 1896.12 88.3496ZM1872.54 85.0928H1890.28C1904.58 85.0928 1915.03 81.8734 1921.61 75.4346C1928.28 68.9958 1931.61 59.2253 1931.61 46.123C1931.61 33.0208 1928.32 23.2503 1921.73 16.8115C1915.14 10.2979 1904.66 7.04102 1890.28 7.04102H1872.54V85.0928Z" fill="#37474F"/>
</svg>
