<svg width="1893" height="372" viewBox="0 0 1893 372" fill="none" xmlns="http://www.w3.org/2000/svg">
<path opacity="0.4" d="M-3.55205 365V7.54708H36.5361V357.548H174.275V365H-3.55205ZM424.826 14.9994H268.328V178.95H399.386V186.402H268.328V357.548H424.826V365H228.24V7.54708H424.826V14.9994ZM501.148 186.402C501.148 238.482 514.596 281.226 541.493 314.633C568.39 347.868 602.311 364.486 643.255 364.486C665.869 364.486 687.455 360.203 708.013 351.637C728.571 342.9 746.388 331.251 761.464 316.689V336.733C730.284 360.032 690.881 371.767 643.255 371.938C617.215 371.938 592.631 367.141 569.503 357.548C546.547 347.954 526.845 335.02 510.399 318.744C493.953 302.298 480.847 282.597 471.082 259.64C461.488 236.684 456.691 212.271 456.691 186.402C456.691 160.533 461.488 136.12 471.082 113.164C480.847 90.2075 493.953 70.5061 510.399 54.0596C526.845 37.6132 546.547 24.6788 569.503 15.2563C592.631 5.66259 617.215 0.865714 643.255 0.865714C683.343 0.865714 719.491 9.26025 751.699 26.0493V44.8085C720.862 20.4815 684.714 8.23235 643.255 8.06103C616.359 8.06103 592.117 15.599 570.531 30.6749C548.945 45.7508 531.985 66.9084 519.65 94.1478C507.315 121.216 501.148 151.967 501.148 186.402ZM1049.02 7.54708V14.9994H939.548V365H899.717V14.9994H790.245V7.54708H1049.02ZM1350.19 7.54708V220.066C1350.19 247.134 1347.71 270.09 1342.74 288.935C1337.95 307.609 1328.78 324.227 1315.25 338.788C1295.03 360.374 1265.91 371.167 1227.87 371.167C1189.84 371.167 1159.69 360.546 1137.42 339.302C1121.49 324.055 1110.61 305.724 1104.78 284.31C1099.13 262.895 1096.3 233.771 1096.3 196.938V7.54708H1136.13V207.217C1136.13 242.508 1137.42 268.806 1139.99 286.109C1142.56 303.412 1147.96 317.973 1156.18 329.794C1171.94 352.408 1196.61 363.715 1230.19 363.715C1263.77 363.715 1290.15 353.779 1309.34 333.906C1322.36 320.543 1331.09 304.439 1335.55 285.595C1340.17 266.578 1342.49 244.478 1342.49 219.295V7.54708H1350.19ZM1505.92 201.05H1455.3L1656 365H1644.69L1451.96 207.731V365H1411.87V7.54708H1505.92C1540.36 7.54708 1569.65 15.599 1593.81 31.7028C1617.96 47.8066 1630.04 72.0479 1630.04 104.427C1630.04 125.841 1621.56 147.342 1604.6 168.928C1587.81 190.342 1554.92 201.05 1505.92 201.05ZM1451.96 193.597H1492.56C1525.28 193.597 1549.18 186.231 1564.26 171.497C1579.5 156.764 1587.13 134.407 1587.13 104.427C1587.13 74.4464 1579.59 52.0895 1564.51 37.3562C1549.44 22.4517 1525.45 14.9994 1492.56 14.9994H1451.96V193.597ZM1892.67 14.9994H1736.17V178.95H1867.23V186.402H1736.17V357.548H1892.67V365H1696.08V7.54708H1892.67V14.9994Z" fill="black"/>
</svg>
