<svg width="966" height="115" viewBox="0 0 966 115" fill="none" xmlns="http://www.w3.org/2000/svg">
<g clip-path="url(#clip0_10986_30733)">
<path opacity="0.5" d="M-1018.85 104L-1030.16 75.1161H-1069.03L-1080.34 104H-1082.41L-1045.14 9.09586L-1007.87 104H-1018.85ZM-1049.6 25.6675L-1068.23 73.1861H-1030.9L-1049.6 25.6675ZM-995.157 57.7459C-995.157 71.2339 -991.674 82.3038 -984.709 90.9557C-977.743 99.5632 -968.958 103.867 -958.354 103.867C-952.497 103.867 -946.907 102.758 -941.582 100.539C-936.258 98.2765 -931.644 95.2594 -927.739 91.4881V96.6792C-935.814 102.713 -946.019 105.753 -958.354 105.797C-965.098 105.797 -971.465 104.555 -977.454 102.07C-983.4 99.5853 -988.502 96.2355 -992.761 92.0205C-997.021 87.7611 -1000.41 82.6588 -1002.94 76.7134C-1005.43 70.768 -1006.67 64.4455 -1006.67 57.7459C-1006.67 51.0462 -1005.43 44.7237 -1002.94 38.7784C-1000.41 32.833 -997.021 27.7306 -992.761 23.4712C-988.502 19.2119 -983.4 15.8621 -977.454 13.4218C-971.465 10.9372 -965.098 9.69484 -958.354 9.69484C-947.971 9.69484 -938.61 11.8689 -930.268 16.217V21.0753C-938.255 14.775 -947.616 11.6027 -958.354 11.5583C-965.319 11.5583 -971.598 13.5105 -977.188 17.4149C-982.778 21.3194 -987.171 26.7989 -990.365 33.8535C-993.56 40.8637 -995.157 48.8278 -995.157 57.7459ZM-853.267 11.4252V13.3552H-881.618V104H-891.934V13.3552H-920.286V11.4252H-853.267ZM-838.226 104V11.4252H-827.91V104H-838.226ZM-718.831 38.7784C-716.257 44.7237 -714.97 51.0684 -714.97 57.8124C-714.97 64.5564 -716.257 70.9455 -718.831 76.9796C-721.36 82.9693 -724.82 88.0495 -729.213 92.2202C-733.561 96.3908 -738.752 99.6963 -744.786 102.137C-750.776 104.577 -757.12 105.797 -763.82 105.797C-770.475 105.797 -776.82 104.577 -782.854 102.137C-788.888 99.6963 -794.102 96.3908 -798.494 92.2202C-802.842 88.0495 -806.303 82.9693 -808.876 76.9796C-811.45 70.9455 -812.736 64.024 -812.736 56.2152C-812.736 48.4063 -810.562 40.7971 -806.214 33.3876C-801.822 25.9781 -795.876 20.188 -788.378 16.0173C-780.88 11.8023 -773.226 9.69484 -765.417 9.69484C-757.609 9.69484 -750.709 10.9372 -744.72 13.4218C-738.73 15.8621 -733.561 19.2119 -729.213 23.4712C-724.82 27.7306 -721.36 32.833 -718.831 38.7784ZM-790.974 91.0888C-784.052 99.6075 -775.001 103.867 -763.82 103.867C-752.639 103.867 -743.61 99.6075 -736.733 91.0888C-729.812 82.5257 -726.351 71.4335 -726.351 57.8124C-726.351 44.1913 -729.812 33.077 -736.733 24.4695C-743.61 15.8621 -752.639 11.5583 -763.82 11.5583C-775.001 11.5583 -784.052 15.8621 -790.974 24.4695C-797.851 33.077 -801.289 44.1913 -801.289 57.8124C-801.289 71.4335 -797.851 82.5257 -790.974 91.0888ZM-632.245 11.4252H-630.315V105.597L-698.665 27.8637V104H-700.595V9.89449L-632.245 87.4949V11.4252ZM-605.358 26.8654C-605.358 29.1726 -605.048 30.9695 -604.426 32.2562C-603.761 33.4985 -603.228 34.4524 -602.829 35.118C-602.43 35.7835 -601.698 36.6265 -600.633 37.647C-599.568 38.6231 -598.747 39.3995 -598.17 39.9763C-597.549 40.5531 -596.418 41.4405 -594.776 42.6384C-593.135 43.8364 -591.915 44.7237 -591.116 45.3005C-590.273 45.8773 -588.764 46.92 -586.59 48.4285C-584.372 49.8927 -582.775 50.9797 -581.799 51.6896C-580.822 52.3551 -579.38 53.3756 -577.473 54.751C-575.565 56.1264 -574.167 57.2135 -573.28 58.0121C-572.348 58.8107 -571.15 59.8977 -569.686 61.2732C-568.177 62.6042 -566.602 64.379 -564.961 66.5974C-563.319 68.8158 -562.099 71.0786 -561.3 73.3858C-560.502 75.6486 -560.102 78.3328 -560.102 81.4386C-560.102 84.5001 -560.746 87.4284 -562.032 90.2236C-563.319 93.0188 -564.983 95.326 -567.024 97.1451C-569.02 98.9642 -571.372 100.495 -574.078 101.737C-576.785 102.935 -579.514 103.778 -582.264 104.266C-584.971 104.799 -588.454 105.065 -592.713 105.065C-596.973 105.065 -601.254 104.155 -605.558 102.336C-609.817 100.517 -612.768 98.942 -614.409 97.6109L-615.607 96.7458V92.2202C-614.897 93.0632 -612.324 95.1041 -607.887 98.343C-603.45 101.582 -597.305 103.201 -589.452 103.201C-583.684 103.201 -578.892 101.538 -575.077 98.2099C-571.261 94.8823 -569.353 90.7782 -569.353 85.8977C-569.353 81.0171 -570.795 76.7578 -573.679 73.1196C-576.563 69.4813 -581.532 65.1554 -588.587 60.1418C-591.293 58.1896 -593.312 56.7476 -594.643 55.8159C-595.93 54.8841 -597.638 53.5974 -599.768 51.9558C-601.897 50.2698 -604.049 48.4063 -606.223 46.3654C-608.353 44.2801 -610.083 41.9285 -611.414 39.3108C-612.701 36.6487 -613.344 33.7204 -613.344 30.5258C-613.344 27.3313 -612.568 24.403 -611.015 21.7409C-609.462 19.0344 -606.756 16.4388 -602.896 13.9542C-599.036 11.4252 -594.022 10.1607 -587.855 10.1607C-581.688 10.1607 -576.275 11.1146 -571.616 13.0225L-569.486 13.9542V18.147C-569.708 17.9696 -570.174 17.5924 -570.884 17.0156C-571.594 16.4388 -573.546 15.4849 -576.741 14.1539C-579.935 12.7784 -583.773 12.0907 -588.254 12.0907C-592.735 12.0907 -596.706 13.4662 -600.167 16.217C-603.628 18.9235 -605.358 22.473 -605.358 26.8654ZM-537.674 102.203C-538.695 104.2 -540.159 105.198 -542.067 105.198C-543.974 105.198 -545.483 104.71 -546.592 103.734C-547.657 102.713 -548.189 101.338 -548.189 99.6075C-548.189 97.8772 -547.59 96.4574 -546.392 95.3482C-545.15 94.1946 -543.398 93.6178 -541.135 93.6178C-538.872 93.6178 -536.942 94.6604 -535.345 96.7458C-533.747 98.8311 -532.949 101.249 -532.949 104C-532.949 108.925 -534.036 112.807 -536.21 115.647C-538.384 118.486 -540.181 120.328 -541.601 121.171L-542.532 121.836V120.904C-539.959 118.997 -538.295 116.822 -537.541 114.382C-536.742 111.942 -536.343 109.701 -536.343 107.66C-536.343 105.619 -536.787 103.8 -537.674 102.203ZM-418.878 11.4252H-416.947V105.597L-485.297 27.8637V104H-487.227V9.89449L-418.878 87.4949V11.4252ZM-348.731 13.3552H-389.262V55.8159H-355.32V57.7459H-389.262V102.07H-348.731V104H-399.644V11.4252H-348.731V13.3552ZM-338.349 11.4252H-327.501L-299.482 87.4949L-271.53 9.89449L-240.783 87.8277L-214.161 11.4252H-212.032L-244.709 105.597L-275.789 27.0651L-303.675 105.597L-338.349 11.4252ZM-194.994 26.8654C-194.994 29.1726 -194.684 30.9695 -194.063 32.2562C-193.397 33.4985 -192.865 34.4524 -192.465 35.118C-192.066 35.7835 -191.334 36.6265 -190.269 37.647C-189.204 38.6231 -188.383 39.3995 -187.807 39.9763C-187.185 40.5531 -186.054 41.4405 -184.412 42.6384C-182.771 43.8364 -181.551 44.7237 -180.752 45.3005C-179.909 45.8773 -178.4 46.92 -176.226 48.4285C-174.008 49.8927 -172.411 50.9797 -171.435 51.6896C-170.459 52.3551 -169.017 53.3756 -167.109 54.751C-165.201 56.1264 -163.803 57.2135 -162.916 58.0121C-161.984 58.8107 -160.786 59.8977 -159.322 61.2732C-157.814 62.6042 -156.238 64.379 -154.597 66.5974C-152.955 68.8158 -151.735 71.0786 -150.936 73.3858C-150.138 75.6486 -149.738 78.3328 -149.738 81.4386C-149.738 84.5001 -150.382 87.4284 -151.668 90.2236C-152.955 93.0188 -154.619 95.326 -156.66 97.1451C-158.657 98.9642 -161.008 100.495 -163.715 101.737C-166.421 102.935 -169.15 103.778 -171.9 104.266C-174.607 104.799 -178.09 105.065 -182.349 105.065C-186.609 105.065 -190.89 104.155 -195.194 102.336C-199.453 100.517 -202.404 98.942 -204.045 97.6109L-205.243 96.7458V92.2202C-204.533 93.0632 -201.96 95.1041 -197.523 98.343C-193.086 101.582 -186.941 103.201 -179.088 103.201C-173.32 103.201 -168.528 101.538 -164.713 98.2099C-160.897 94.8823 -158.989 90.7782 -158.989 85.8977C-158.989 81.0171 -160.431 76.7578 -163.315 73.1196C-166.199 69.4813 -171.168 65.1554 -178.223 60.1418C-180.929 58.1896 -182.948 56.7476 -184.279 55.8159C-185.566 54.8841 -187.274 53.5974 -189.404 51.9558C-191.534 50.2698 -193.685 48.4063 -195.859 46.3654C-197.989 44.2801 -199.72 41.9285 -201.051 39.3108C-202.337 36.6487 -202.981 33.7204 -202.981 30.5258C-202.981 27.3313 -202.204 24.403 -200.651 21.7409C-199.098 19.0344 -196.392 16.4388 -192.532 13.9542C-188.672 11.4252 -183.658 10.1607 -177.491 10.1607C-171.324 10.1607 -165.911 11.1146 -161.252 13.0225L-159.122 13.9542V18.147C-159.344 17.9696 -159.81 17.5924 -160.52 17.0156C-161.23 16.4388 -163.182 15.4849 -166.377 14.1539C-169.571 12.7784 -173.409 12.0907 -177.89 12.0907C-182.371 12.0907 -186.342 13.4662 -189.803 16.217C-193.264 18.9235 -194.994 22.473 -194.994 26.8654ZM-94.9656 27.3313C-94.9656 22.1846 -93.5458 17.9696 -90.7062 14.6863C-87.8223 11.3587 -83.7848 9.69484 -78.5937 9.69484C-73.4025 9.69484 -69.4316 11.0703 -66.6807 13.8211C-63.8855 16.5276 -62.4879 19.9661 -62.4879 24.1368C-62.4879 28.3074 -63.7302 31.8791 -66.2148 34.8518C-68.6995 37.8244 -72.2046 40.8637 -76.7302 43.9695L-43.5869 86.4301C-39.2832 79.3755 -36.7098 70.4796 -35.8668 59.7425H-34.203C-35.1791 71.1895 -37.93 80.5956 -42.4555 87.9608L-29.9436 104H-42.2559L-48.778 95.6809C-56.0101 102.425 -65.9265 105.797 -78.5271 105.797C-88.5987 105.797 -96.4298 103.534 -102.02 99.0085C-107.611 94.483 -110.406 88.6707 -110.406 81.5717C-110.406 74.4728 -108.853 69.0377 -105.747 65.2663C-102.597 61.495 -99.6465 58.478 -96.8956 56.2152C-94.1004 53.9524 -90.4178 51.2459 -85.8479 48.0957C-91.9264 40.908 -94.9656 33.9866 -94.9656 27.3313ZM-77.2626 103.867C-65.9043 103.867 -56.8087 100.65 -49.976 94.2168L-84.6499 49.693C-89.7079 53.8193 -93.5015 58.2339 -96.0305 62.937C-98.5151 67.5957 -99.7574 73.2748 -99.7574 79.9745C-99.7574 86.6741 -97.8496 92.3311 -94.0339 96.9454C-90.1738 101.56 -84.5834 103.867 -77.2626 103.867ZM-87.3786 21.9405C-87.3786 24.5583 -87.0237 27.0873 -86.3138 29.5275C-85.5595 31.9234 -83.3411 35.4951 -79.6585 40.2425L-77.8616 42.5719C-71.6944 37.7357 -68.5886 31.6129 -68.5442 24.2033C-68.5442 20.6095 -69.3206 17.6146 -70.8735 15.2187C-72.3821 12.7784 -74.778 11.5583 -78.0612 11.5583C-81.3445 11.5583 -83.7182 12.6453 -85.1824 14.8194C-86.6465 16.9934 -87.3786 19.3672 -87.3786 21.9405ZM62.964 13.3552H22.4334V55.8159H56.3752V57.7459H22.4334V102.07H62.964V104H12.0511V11.4252H62.964V13.3552ZM72.6141 11.4252H83.5953L114.276 89.0922L145.09 11.4252H147.22L109.95 105.597L72.6141 11.4252ZM210.844 13.3552H170.313V55.8159H204.255V57.7459H170.313V102.07H210.844V104H159.931V11.4252H210.844V13.3552ZM294.7 11.4252H296.63V105.597L228.281 27.8637V104H226.351V9.89449L294.7 87.4949V11.4252ZM377.958 11.4252V13.3552H349.606V104H339.291V13.3552H310.939V11.4252H377.958ZM393.465 26.8654C393.465 29.1726 393.775 30.9695 394.396 32.2562C395.062 33.4985 395.594 34.4524 395.994 35.118C396.393 35.7835 397.125 36.6265 398.19 37.647C399.255 38.6231 400.075 39.3995 400.652 39.9763C401.273 40.5531 402.405 41.4405 404.046 42.6384C405.688 43.8364 406.908 44.7237 407.707 45.3005C408.55 45.8773 410.058 46.92 412.232 48.4285C414.451 49.8927 416.048 50.9797 417.024 51.6896C418 52.3551 419.442 53.3756 421.35 54.751C423.258 56.1264 424.656 57.2135 425.543 58.0121C426.475 58.8107 427.673 59.8977 429.137 61.2732C430.645 62.6042 432.22 64.379 433.862 66.5974C435.504 68.8158 436.724 71.0786 437.522 73.3858C438.321 75.6486 438.72 78.3328 438.72 81.4386C438.72 84.5001 438.077 87.4284 436.79 90.2236C435.504 93.0188 433.84 95.326 431.799 97.1451C429.802 98.9642 427.451 100.495 424.744 101.737C422.038 102.935 419.309 103.778 416.558 104.266C413.852 104.799 410.369 105.065 406.11 105.065C401.85 105.065 397.569 104.155 393.265 102.336C389.006 100.517 386.055 98.942 384.413 97.6109L383.215 96.7458V92.2202C383.925 93.0632 386.499 95.1041 390.936 98.343C395.372 101.582 401.517 103.201 409.371 103.201C415.139 103.201 419.93 101.538 423.746 98.2099C427.562 94.8823 429.47 90.7782 429.47 85.8977C429.47 81.0171 428.028 76.7578 425.144 73.1196C422.26 69.4813 417.29 65.1554 410.236 60.1418C407.529 58.1896 405.511 56.7476 404.18 55.8159C402.893 54.8841 401.185 53.5974 399.055 51.9558C396.925 50.2698 394.773 48.4063 392.599 46.3654C390.47 44.2801 388.739 41.9285 387.408 39.3108C386.122 36.6487 385.478 33.7204 385.478 30.5258C385.478 27.3313 386.255 24.403 387.808 21.7409C389.361 19.0344 392.067 16.4388 395.927 13.9542C399.787 11.4252 404.801 10.1607 410.968 10.1607C417.135 10.1607 422.548 11.1146 427.207 13.0225L429.336 13.9542V18.147C429.115 17.9696 428.649 17.5924 427.939 17.0156C427.229 16.4388 425.277 15.4849 422.082 14.1539C418.888 12.7784 415.05 12.0907 410.569 12.0907C406.087 12.0907 402.116 13.4662 398.656 16.217C395.195 18.9235 393.465 22.473 393.465 26.8654Z" fill="black"/>
</g>
<g clip-path="url(#clip1_10986_30733)">
<path opacity="0.5" d="M88.15 104L76.836 75.1161H37.9692L26.6553 104H24.5921L61.8616 9.09586L99.1311 104H88.15ZM57.4026 25.6675L38.7679 73.1861H76.1039L57.4026 25.6675ZM111.843 57.7459C111.843 71.2339 115.326 82.3038 122.291 90.9557C129.257 99.5632 138.042 103.867 148.646 103.867C154.503 103.867 160.093 102.758 165.418 100.539C170.742 98.2765 175.356 95.2594 179.261 91.4881V96.6792C171.186 102.713 160.981 105.753 148.646 105.797C141.902 105.797 135.535 104.555 129.546 102.07C123.6 99.5853 118.498 96.2355 114.239 92.0205C109.979 87.7611 106.585 82.6588 104.056 76.7134C101.571 70.768 100.329 64.4455 100.329 57.7459C100.329 51.0462 101.571 44.7237 104.056 38.7784C106.585 32.833 109.979 27.7306 114.239 23.4712C118.498 19.2119 123.6 15.8621 129.546 13.4218C135.535 10.9372 141.902 9.69484 148.646 9.69484C159.029 9.69484 168.39 11.8689 176.732 16.217V21.0753C168.745 14.775 159.384 11.6027 148.646 11.5583C141.681 11.5583 135.402 13.5105 129.812 17.4149C124.222 21.3194 119.829 26.7989 116.635 33.8535C113.44 40.8637 111.843 48.8278 111.843 57.7459ZM253.733 11.4252V13.3552H225.382V104H215.066V13.3552H186.714V11.4252H253.733ZM268.774 104V11.4252H279.09V104H268.774ZM388.169 38.7784C390.743 44.7237 392.03 51.0684 392.03 57.8124C392.03 64.5564 390.743 70.9455 388.169 76.9796C385.64 82.9693 382.18 88.0495 377.787 92.2202C373.439 96.3908 368.248 99.6963 362.214 102.137C356.224 104.577 349.88 105.797 343.18 105.797C336.525 105.797 330.18 104.577 324.146 102.137C318.112 99.6963 312.898 96.3908 308.506 92.2202C304.158 88.0495 300.697 82.9693 298.124 76.9796C295.55 70.9455 294.264 64.024 294.264 56.2152C294.264 48.4063 296.438 40.7971 300.786 33.3876C305.178 25.9781 311.124 20.188 318.622 16.0173C326.12 11.8023 333.774 9.69484 341.583 9.69484C349.391 9.69484 356.291 10.9372 362.28 13.4218C368.27 15.8621 373.439 19.2119 377.787 23.4712C382.18 27.7306 385.64 32.833 388.169 38.7784ZM316.026 91.0888C322.948 99.6075 331.999 103.867 343.18 103.867C354.361 103.867 363.39 99.6075 370.267 91.0888C377.188 82.5257 380.649 71.4335 380.649 57.8124C380.649 44.1913 377.188 33.077 370.267 24.4695C363.39 15.8621 354.361 11.5583 343.18 11.5583C331.999 11.5583 322.948 15.8621 316.026 24.4695C309.149 33.077 305.711 44.1913 305.711 57.8124C305.711 71.4335 309.149 82.5257 316.026 91.0888ZM474.755 11.4252H476.685V105.597L408.335 27.8637V104H406.405V9.89449L474.755 87.4949V11.4252ZM501.642 26.8654C501.642 29.1726 501.952 30.9695 502.574 32.2562C503.239 33.4985 503.772 34.4524 504.171 35.118C504.57 35.7835 505.302 36.6265 506.367 37.647C507.432 38.6231 508.253 39.3995 508.83 39.9763C509.451 40.5531 510.582 41.4405 512.224 42.6384C513.865 43.8364 515.085 44.7237 515.884 45.3005C516.727 45.8773 518.236 46.92 520.41 48.4285C522.628 49.8927 524.225 50.9797 525.201 51.6896C526.178 52.3551 527.62 53.3756 529.527 54.751C531.435 56.1264 532.833 57.2135 533.72 58.0121C534.652 58.8107 535.85 59.8977 537.314 61.2732C538.823 62.6042 540.398 64.379 542.039 66.5974C543.681 68.8158 544.901 71.0786 545.7 73.3858C546.498 75.6486 546.898 78.3328 546.898 81.4386C546.898 84.5001 546.254 87.4284 544.968 90.2236C543.681 93.0188 542.017 95.326 539.976 97.1451C537.98 98.9642 535.628 100.495 532.922 101.737C530.215 102.935 527.486 103.778 524.736 104.266C522.029 104.799 518.546 105.065 514.287 105.065C510.027 105.065 505.746 104.155 501.442 102.336C497.183 100.517 494.232 98.942 492.591 97.6109L491.393 96.7458V92.2202C492.103 93.0632 494.676 95.1041 499.113 98.343C503.55 101.582 509.695 103.201 517.548 103.201C523.316 103.201 528.108 101.538 531.923 98.2099C535.739 94.8823 537.647 90.7782 537.647 85.8977C537.647 81.0171 536.205 76.7578 533.321 73.1196C530.437 69.4813 525.468 65.1554 518.413 60.1418C515.707 58.1896 513.688 56.7476 512.357 55.8159C511.07 54.8841 509.362 53.5974 507.232 51.9558C505.103 50.2698 502.951 48.4063 500.777 46.3654C498.647 44.2801 496.917 41.9285 495.586 39.3108C494.299 36.6487 493.656 33.7204 493.656 30.5258C493.656 27.3313 494.432 24.403 495.985 21.7409C497.538 19.0344 500.244 16.4388 504.104 13.9542C507.964 11.4252 512.978 10.1607 519.145 10.1607C525.312 10.1607 530.725 11.1146 535.384 13.0225L537.514 13.9542V18.147C537.292 17.9696 536.826 17.5924 536.116 17.0156C535.406 16.4388 533.454 15.4849 530.259 14.1539C527.065 12.7784 523.227 12.0907 518.746 12.0907C514.265 12.0907 510.294 13.4662 506.833 16.217C503.372 18.9235 501.642 22.473 501.642 26.8654ZM569.326 102.203C568.305 104.2 566.841 105.198 564.933 105.198C563.026 105.198 561.517 104.71 560.408 103.734C559.343 102.713 558.811 101.338 558.811 99.6075C558.811 97.8772 559.41 96.4574 560.608 95.3482C561.85 94.1946 563.602 93.6178 565.865 93.6178C568.128 93.6178 570.058 94.6604 571.655 96.7458C573.253 98.8311 574.051 101.249 574.051 104C574.051 108.925 572.964 112.807 570.79 115.647C568.616 118.486 566.819 120.328 565.399 121.171L564.468 121.836V120.904C567.041 118.997 568.705 116.822 569.459 114.382C570.258 111.942 570.657 109.701 570.657 107.66C570.657 105.619 570.213 103.8 569.326 102.203ZM688.122 11.4252H690.053V105.597L621.703 27.8637V104H619.773V9.89449L688.122 87.4949V11.4252ZM758.269 13.3552H717.738V55.8159H751.68V57.7459H717.738V102.07H758.269V104H707.356V11.4252H758.269V13.3552ZM768.651 11.4252H779.499L807.518 87.4949L835.47 9.89449L866.217 87.8277L892.839 11.4252H894.968L862.291 105.597L831.211 27.0651L803.325 105.597L768.651 11.4252ZM912.006 26.8654C912.006 29.1726 912.316 30.9695 912.937 32.2562C913.603 33.4985 914.135 34.4524 914.535 35.118C914.934 35.7835 915.666 36.6265 916.731 37.647C917.796 38.6231 918.617 39.3995 919.193 39.9763C919.815 40.5531 920.946 41.4405 922.588 42.6384C924.229 43.8364 925.449 44.7237 926.248 45.3005C927.091 45.8773 928.6 46.92 930.774 48.4285C932.992 49.8927 934.589 50.9797 935.565 51.6896C936.541 52.3551 937.983 53.3756 939.891 54.751C941.799 56.1264 943.197 57.2135 944.084 58.0121C945.016 58.8107 946.214 59.8977 947.678 61.2732C949.186 62.6042 950.762 64.379 952.403 66.5974C954.045 68.8158 955.265 71.0786 956.064 73.3858C956.862 75.6486 957.262 78.3328 957.262 81.4386C957.262 84.5001 956.618 87.4284 955.332 90.2236C954.045 93.0188 952.381 95.326 950.34 97.1451C948.343 98.9642 945.992 100.495 943.285 101.737C940.579 102.935 937.85 103.778 935.1 104.266C932.393 104.799 928.91 105.065 924.651 105.065C920.391 105.065 916.11 104.155 911.806 102.336C907.547 100.517 904.596 98.942 902.955 97.6109L901.757 96.7458V92.2202C902.467 93.0632 905.04 95.1041 909.477 98.343C913.914 101.582 920.059 103.201 927.912 103.201C933.68 103.201 938.472 101.538 942.287 98.2099C946.103 94.8823 948.011 90.7782 948.011 85.8977C948.011 81.0171 946.569 76.7578 943.685 73.1196C940.801 69.4813 935.832 65.1554 928.777 60.1418C926.071 58.1896 924.052 56.7476 922.721 55.8159C921.434 54.8841 919.726 53.5974 917.596 51.9558C915.466 50.2698 913.315 48.4063 911.141 46.3654C909.011 44.2801 907.28 41.9285 905.949 39.3108C904.663 36.6487 904.019 33.7204 904.019 30.5258C904.019 27.3313 904.796 24.403 906.349 21.7409C907.902 19.0344 910.608 16.4388 914.468 13.9542C918.328 11.4252 923.342 10.1607 929.509 10.1607C935.676 10.1607 941.089 11.1146 945.748 13.0225L947.878 13.9542V18.147C947.656 17.9696 947.19 17.5924 946.48 17.0156C945.77 16.4388 943.818 15.4849 940.623 14.1539C937.429 12.7784 933.591 12.0907 929.11 12.0907C924.629 12.0907 920.658 13.4662 917.197 16.217C913.736 18.9235 912.006 22.473 912.006 26.8654ZM1012.03 27.3313C1012.03 22.1846 1013.45 17.9696 1016.29 14.6863C1019.18 11.3587 1023.22 9.69484 1028.41 9.69484C1033.6 9.69484 1037.57 11.0703 1040.32 13.8211C1043.11 16.5276 1044.51 19.9661 1044.51 24.1368C1044.51 28.3074 1043.27 31.8791 1040.79 34.8518C1038.3 37.8244 1034.8 40.8637 1030.27 43.9695L1063.41 86.4301C1067.72 79.3755 1070.29 70.4796 1071.13 59.7425H1072.8C1071.82 71.1895 1069.07 80.5956 1064.54 87.9608L1077.06 104H1064.74L1058.22 95.6809C1050.99 102.425 1041.07 105.797 1028.47 105.797C1018.4 105.797 1010.57 103.534 1004.98 99.0085C999.389 94.483 996.594 88.6707 996.594 81.5717C996.594 74.4728 998.147 69.0377 1001.25 65.2663C1004.4 61.495 1007.35 58.478 1010.1 56.2152C1012.9 53.9524 1016.58 51.2459 1021.15 48.0957C1015.07 40.908 1012.03 33.9866 1012.03 27.3313ZM1029.74 103.867C1041.1 103.867 1050.19 100.65 1057.02 94.2168L1022.35 49.693C1017.29 53.8193 1013.5 58.2339 1010.97 62.937C1008.48 67.5957 1007.24 73.2748 1007.24 79.9745C1007.24 86.6741 1009.15 92.3311 1012.97 96.9454C1016.83 101.56 1022.42 103.867 1029.74 103.867ZM1019.62 21.9405C1019.62 24.5583 1019.98 27.0873 1020.69 29.5275C1021.44 31.9234 1023.66 35.4951 1027.34 40.2425L1029.14 42.5719C1035.31 37.7357 1038.41 31.6129 1038.46 24.2033C1038.46 20.6095 1037.68 17.6146 1036.13 15.2187C1034.62 12.7784 1032.22 11.5583 1028.94 11.5583C1025.66 11.5583 1023.28 12.6453 1021.82 14.8194C1020.35 16.9934 1019.62 19.3672 1019.62 21.9405ZM1169.96 13.3552H1129.43V55.8159H1163.38V57.7459H1129.43V102.07H1169.96V104H1119.05V11.4252H1169.96V13.3552ZM1179.61 11.4252H1190.6L1221.28 89.0922L1252.09 11.4252H1254.22L1216.95 105.597L1179.61 11.4252ZM1317.84 13.3552H1277.31V55.8159H1311.26V57.7459H1277.31V102.07H1317.84V104H1266.93V11.4252H1317.84V13.3552ZM1401.7 11.4252H1403.63V105.597L1335.28 27.8637V104H1333.35V9.89449L1401.7 87.4949V11.4252ZM1484.96 11.4252V13.3552H1456.61V104H1446.29V13.3552H1417.94V11.4252H1484.96ZM1500.46 26.8654C1500.46 29.1726 1500.78 30.9695 1501.4 32.2562C1502.06 33.4985 1502.59 34.4524 1502.99 35.118C1503.39 35.7835 1504.12 36.6265 1505.19 37.647C1506.25 38.6231 1507.08 39.3995 1507.65 39.9763C1508.27 40.5531 1509.4 41.4405 1511.05 42.6384C1512.69 43.8364 1513.91 44.7237 1514.71 45.3005C1515.55 45.8773 1517.06 46.92 1519.23 48.4285C1521.45 49.8927 1523.05 50.9797 1524.02 51.6896C1525 52.3551 1526.44 53.3756 1528.35 54.751C1530.26 56.1264 1531.66 57.2135 1532.54 58.0121C1533.47 58.8107 1534.67 59.8977 1536.14 61.2732C1537.65 62.6042 1539.22 64.379 1540.86 66.5974C1542.5 68.8158 1543.72 71.0786 1544.52 73.3858C1545.32 75.6486 1545.72 78.3328 1545.72 81.4386C1545.72 84.5001 1545.08 87.4284 1543.79 90.2236C1542.5 93.0188 1540.84 95.326 1538.8 97.1451C1536.8 98.9642 1534.45 100.495 1531.74 101.737C1529.04 102.935 1526.31 103.778 1523.56 104.266C1520.85 104.799 1517.37 105.065 1513.11 105.065C1508.85 105.065 1504.57 104.155 1500.26 102.336C1496.01 100.517 1493.06 98.942 1491.41 97.6109L1490.22 96.7458V92.2202C1490.93 93.0632 1493.5 95.1041 1497.94 98.343C1502.37 101.582 1508.52 103.201 1516.37 103.201C1522.14 103.201 1526.93 101.538 1530.75 98.2099C1534.56 94.8823 1536.47 90.7782 1536.47 85.8977C1536.47 81.0171 1535.03 76.7578 1532.14 73.1196C1529.26 69.4813 1524.29 65.1554 1517.24 60.1418C1514.53 58.1896 1512.51 56.7476 1511.18 55.8159C1509.89 54.8841 1508.18 53.5974 1506.06 51.9558C1503.93 50.2698 1501.77 48.4063 1499.6 46.3654C1497.47 44.2801 1495.74 41.9285 1494.41 39.3108C1493.12 36.6487 1492.48 33.7204 1492.48 30.5258C1492.48 27.3313 1493.25 24.403 1494.81 21.7409C1496.36 19.0344 1499.07 16.4388 1502.93 13.9542C1506.79 11.4252 1511.8 10.1607 1517.97 10.1607C1524.14 10.1607 1529.55 11.1146 1534.21 13.0225L1536.34 13.9542V18.147C1536.11 17.9696 1535.65 17.5924 1534.94 17.0156C1534.23 16.4388 1532.28 15.4849 1529.08 14.1539C1525.89 12.7784 1522.05 12.0907 1517.57 12.0907C1513.09 12.0907 1509.12 13.4662 1505.66 16.217C1502.19 18.9235 1500.46 22.473 1500.46 26.8654Z" fill="black"/>
</g>
<g clip-path="url(#clip2_10986_30733)">
<path opacity="0.5" d="M-424.85 104L-436.164 75.1161H-475.031L-486.345 104H-488.408L-451.138 9.09586L-413.869 104H-424.85ZM-455.597 25.6675L-474.232 73.1861H-436.896L-455.597 25.6675ZM-401.157 57.7459C-401.157 71.2339 -397.674 82.3038 -390.709 90.9557C-383.743 99.5632 -374.958 103.867 -364.354 103.867C-358.497 103.867 -352.907 102.758 -347.582 100.539C-342.258 98.2765 -337.644 95.2594 -333.739 91.4881V96.6792C-341.814 102.713 -352.019 105.753 -364.354 105.797C-371.098 105.797 -377.465 104.555 -383.454 102.07C-389.4 99.5853 -394.502 96.2355 -398.761 92.0205C-403.021 87.7611 -406.415 82.6588 -408.944 76.7134C-411.429 70.768 -412.671 64.4455 -412.671 57.7459C-412.671 51.0462 -411.429 44.7237 -408.944 38.7784C-406.415 32.833 -403.021 27.7306 -398.761 23.4712C-394.502 19.2119 -389.4 15.8621 -383.454 13.4218C-377.465 10.9372 -371.098 9.69484 -364.354 9.69484C-353.971 9.69484 -344.61 11.8689 -336.268 16.217V21.0753C-344.255 14.775 -353.616 11.6027 -364.354 11.5583C-371.319 11.5583 -377.598 13.5105 -383.188 17.4149C-388.778 21.3194 -393.171 26.7989 -396.365 33.8535C-399.56 40.8637 -401.157 48.8278 -401.157 57.7459ZM-259.267 11.4252V13.3552H-287.618V104H-297.934V13.3552H-326.286V11.4252H-259.267ZM-244.226 104V11.4252H-233.91V104H-244.226ZM-124.831 38.7784C-122.257 44.7237 -120.97 51.0684 -120.97 57.8124C-120.97 64.5564 -122.257 70.9455 -124.831 76.9796C-127.36 82.9693 -130.82 88.0495 -135.213 92.2202C-139.561 96.3908 -144.752 99.6963 -150.786 102.137C-156.776 104.577 -163.12 105.797 -169.82 105.797C-176.475 105.797 -182.82 104.577 -188.854 102.137C-194.888 99.6963 -200.102 96.3908 -204.494 92.2202C-208.842 88.0495 -212.303 82.9693 -214.876 76.9796C-217.45 70.9455 -218.736 64.024 -218.736 56.2152C-218.736 48.4063 -216.562 40.7971 -212.214 33.3876C-207.822 25.9781 -201.876 20.188 -194.378 16.0173C-186.88 11.8023 -179.226 9.69484 -171.417 9.69484C-163.609 9.69484 -156.709 10.9372 -150.72 13.4218C-144.73 15.8621 -139.561 19.2119 -135.213 23.4712C-130.82 27.7306 -127.36 32.833 -124.831 38.7784ZM-196.974 91.0888C-190.052 99.6075 -181.001 103.867 -169.82 103.867C-158.639 103.867 -149.61 99.6075 -142.733 91.0888C-135.812 82.5257 -132.351 71.4335 -132.351 57.8124C-132.351 44.1913 -135.812 33.077 -142.733 24.4695C-149.61 15.8621 -158.639 11.5583 -169.82 11.5583C-181.001 11.5583 -190.052 15.8621 -196.974 24.4695C-203.851 33.077 -207.289 44.1913 -207.289 57.8124C-207.289 71.4335 -203.851 82.5257 -196.974 91.0888ZM-38.2455 11.4252H-36.3154V105.597L-104.665 27.8637V104H-106.595V9.89449L-38.2455 87.4949V11.4252ZM-11.3582 26.8654C-11.3582 29.1726 -11.0476 30.9695 -10.4264 32.2562C-9.7609 33.4985 -9.22848 34.4524 -8.82916 35.118C-8.42985 35.7835 -7.69777 36.6265 -6.63292 37.647C-5.56808 38.6231 -4.74726 39.3995 -4.17047 39.9763C-3.54932 40.5531 -2.41792 41.4405 -0.776287 42.6384C0.865346 43.8364 2.08548 44.7237 2.88411 45.3005C3.72711 45.8773 5.23564 46.92 7.40969 48.4285C9.62812 49.8927 11.2254 50.9797 12.2015 51.6896C13.1776 52.3551 14.6196 53.3756 16.5274 54.751C18.4353 56.1264 19.8329 57.2135 20.7202 58.0121C21.652 58.8107 22.8499 59.8977 24.3141 61.2732C25.8226 62.6042 27.3977 64.379 29.0393 66.5974C30.681 68.8158 31.9011 71.0786 32.6997 73.3858C33.4983 75.6486 33.8977 78.3328 33.8977 81.4386C33.8977 84.5001 33.2543 87.4284 31.9676 90.2236C30.681 93.0188 29.0171 95.326 26.9762 97.1451C24.9796 98.9642 22.6281 100.495 19.9216 101.737C17.2151 102.935 14.4865 103.778 11.7356 104.266C9.02914 104.799 5.54622 105.065 1.28685 105.065C-2.97253 105.065 -7.25408 104.155 -11.5578 102.336C-15.8172 100.517 -18.7677 98.942 -20.4093 97.6109L-21.6073 96.7458V92.2202C-20.8974 93.0632 -18.324 95.1041 -13.8872 98.343C-9.45032 101.582 -3.30529 103.201 4.54793 103.201C10.3158 103.201 15.1076 101.538 18.9233 98.2099C22.739 94.8823 24.6468 90.7782 24.6468 85.8977C24.6468 81.0171 23.2049 76.7578 20.3209 73.1196C17.437 69.4813 12.4677 65.1554 5.41311 60.1418C2.70664 58.1896 0.687872 56.7476 -0.643182 55.8159C-1.92987 54.8841 -3.63805 53.5974 -5.76774 51.9558C-7.89742 50.2698 -10.0493 48.4063 -12.2233 46.3654C-14.353 44.2801 -16.0834 41.9285 -17.4145 39.3108C-18.7011 36.6487 -19.3445 33.7204 -19.3445 30.5258C-19.3445 27.3313 -18.568 24.403 -17.0151 21.7409C-15.4622 19.0344 -12.7558 16.4388 -8.89572 13.9542C-5.03566 11.4252 -0.0220232 10.1607 6.14519 10.1607C12.3124 10.1607 17.7254 11.1146 22.384 13.0225L24.5137 13.9542V18.147C24.2919 17.9696 23.826 17.5924 23.1161 17.0156C22.4062 16.4388 20.454 15.4849 17.2595 14.1539C14.065 12.7784 10.2271 12.0907 5.74588 12.0907C1.26466 12.0907 -2.70632 13.4662 -6.16705 16.217C-9.62779 18.9235 -11.3582 22.473 -11.3582 26.8654ZM56.3259 102.203C55.3055 104.2 53.8413 105.198 51.9335 105.198C50.0256 105.198 48.5171 104.71 47.4079 103.734C46.343 102.713 45.8106 101.338 45.8106 99.6075C45.8106 97.8772 46.4096 96.4574 47.6075 95.3482C48.8498 94.1946 50.6024 93.6178 52.8652 93.6178C55.128 93.6178 57.058 94.6604 58.6553 96.7458C60.2525 98.8311 61.0512 101.249 61.0512 104C61.0512 108.925 59.9641 112.807 57.7901 115.647C55.616 118.486 53.8191 120.328 52.3993 121.171L51.4676 121.836V120.904C54.041 118.997 55.7048 116.822 56.459 114.382C57.2577 111.942 57.657 109.701 57.657 107.66C57.657 105.619 57.2133 103.8 56.3259 102.203ZM175.122 11.4252H177.053V105.597L108.703 27.8637V104H106.773V9.89449L175.122 87.4949V11.4252ZM245.269 13.3552H204.738V55.8159H238.68V57.7459H204.738V102.07H245.269V104H194.356V11.4252H245.269V13.3552ZM255.651 11.4252H266.499L294.518 87.4949L322.47 9.89449L353.217 87.8277L379.839 11.4252H381.968L349.291 105.597L318.211 27.0651L290.325 105.597L255.651 11.4252ZM399.006 26.8654C399.006 29.1726 399.316 30.9695 399.937 32.2562C400.603 33.4985 401.135 34.4524 401.535 35.118C401.934 35.7835 402.666 36.6265 403.731 37.647C404.796 38.6231 405.617 39.3995 406.193 39.9763C406.815 40.5531 407.946 41.4405 409.588 42.6384C411.229 43.8364 412.449 44.7237 413.248 45.3005C414.091 45.8773 415.6 46.92 417.774 48.4285C419.992 49.8927 421.589 50.9797 422.565 51.6896C423.541 52.3551 424.983 53.3756 426.891 54.751C428.799 56.1264 430.197 57.2135 431.084 58.0121C432.016 58.8107 433.214 59.8977 434.678 61.2732C436.186 62.6042 437.762 64.379 439.403 66.5974C441.045 68.8158 442.265 71.0786 443.064 73.3858C443.862 75.6486 444.262 78.3328 444.262 81.4386C444.262 84.5001 443.618 87.4284 442.332 90.2236C441.045 93.0188 439.381 95.326 437.34 97.1451C435.343 98.9642 432.992 100.495 430.285 101.737C427.579 102.935 424.85 103.778 422.1 104.266C419.393 104.799 415.91 105.065 411.651 105.065C407.391 105.065 403.11 104.155 398.806 102.336C394.547 100.517 391.596 98.942 389.955 97.6109L388.757 96.7458V92.2202C389.467 93.0632 392.04 95.1041 396.477 98.343C400.914 101.582 407.059 103.201 414.912 103.201C420.68 103.201 425.472 101.538 429.287 98.2099C433.103 94.8823 435.011 90.7782 435.011 85.8977C435.011 81.0171 433.569 76.7578 430.685 73.1196C427.801 69.4813 422.832 65.1554 415.777 60.1418C413.071 58.1896 411.052 56.7476 409.721 55.8159C408.434 54.8841 406.726 53.5974 404.596 51.9558C402.466 50.2698 400.315 48.4063 398.141 46.3654C396.011 44.2801 394.28 41.9285 392.949 39.3108C391.663 36.6487 391.019 33.7204 391.019 30.5258C391.019 27.3313 391.796 24.403 393.349 21.7409C394.902 19.0344 397.608 16.4388 401.468 13.9542C405.328 11.4252 410.342 10.1607 416.509 10.1607C422.676 10.1607 428.089 11.1146 432.748 13.0225L434.878 13.9542V18.147C434.656 17.9696 434.19 17.5924 433.48 17.0156C432.77 16.4388 430.818 15.4849 427.623 14.1539C424.429 12.7784 420.591 12.0907 416.11 12.0907C411.629 12.0907 407.658 13.4662 404.197 16.217C400.736 18.9235 399.006 22.473 399.006 26.8654ZM499.034 27.3313C499.034 22.1846 500.454 17.9696 503.294 14.6863C506.178 11.3587 510.215 9.69484 515.406 9.69484C520.597 9.69484 524.568 11.0703 527.319 13.8211C530.114 16.5276 531.512 19.9661 531.512 24.1368C531.512 28.3074 530.27 31.8791 527.785 34.8518C525.301 37.8244 521.795 40.8637 517.27 43.9695L550.413 86.4301C554.717 79.3755 557.29 70.4796 558.133 59.7425H559.797C558.821 71.1895 556.07 80.5956 551.544 87.9608L564.056 104H551.744L545.222 95.6809C537.99 102.425 528.074 105.797 515.473 105.797C505.401 105.797 497.57 103.534 491.98 99.0085C486.389 94.483 483.594 88.6707 483.594 81.5717C483.594 74.4728 485.147 69.0377 488.253 65.2663C491.403 61.495 494.354 58.478 497.104 56.2152C499.9 53.9524 503.582 51.2459 508.152 48.0957C502.074 40.908 499.034 33.9866 499.034 27.3313ZM516.737 103.867C528.096 103.867 537.191 100.65 544.024 94.2168L509.35 49.693C504.292 53.8193 500.499 58.2339 497.97 62.937C495.485 67.5957 494.243 73.2748 494.243 79.9745C494.243 86.6741 496.15 92.3311 499.966 96.9454C503.826 101.56 509.417 103.867 516.737 103.867ZM506.621 21.9405C506.621 24.5583 506.976 27.0873 507.686 29.5275C508.441 31.9234 510.659 35.4951 514.342 40.2425L516.138 42.5719C522.306 37.7357 525.411 31.6129 525.456 24.2033C525.456 20.6095 524.679 17.6146 523.126 15.2187C521.618 12.7784 519.222 11.5583 515.939 11.5583C512.656 11.5583 510.282 12.6453 508.818 14.8194C507.353 16.9934 506.621 19.3672 506.621 21.9405ZM656.964 13.3552H616.433V55.8159H650.375V57.7459H616.433V102.07H656.964V104H606.051V11.4252H656.964V13.3552ZM666.614 11.4252H677.595L708.276 89.0922L739.09 11.4252H741.22L703.95 105.597L666.614 11.4252ZM804.844 13.3552H764.313V55.8159H798.255V57.7459H764.313V102.07H804.844V104H753.931V11.4252H804.844V13.3552ZM888.7 11.4252H890.63V105.597L822.281 27.8637V104H820.351V9.89449L888.7 87.4949V11.4252ZM971.958 11.4252V13.3552H943.606V104H933.291V13.3552H904.939V11.4252H971.958ZM987.465 26.8654C987.465 29.1726 987.775 30.9695 988.396 32.2562C989.062 33.4985 989.594 34.4524 989.994 35.118C990.393 35.7835 991.125 36.6265 992.19 37.647C993.255 38.6231 994.075 39.3995 994.652 39.9763C995.273 40.5531 996.405 41.4405 998.046 42.6384C999.688 43.8364 1000.91 44.7237 1001.71 45.3005C1002.55 45.8773 1004.06 46.92 1006.23 48.4285C1008.45 49.8927 1010.05 50.9797 1011.02 51.6896C1012 52.3551 1013.44 53.3756 1015.35 54.751C1017.26 56.1264 1018.66 57.2135 1019.54 58.0121C1020.47 58.8107 1021.67 59.8977 1023.14 61.2732C1024.65 62.6042 1026.22 64.379 1027.86 66.5974C1029.5 68.8158 1030.72 71.0786 1031.52 73.3858C1032.32 75.6486 1032.72 78.3328 1032.72 81.4386C1032.72 84.5001 1032.08 87.4284 1030.79 90.2236C1029.5 93.0188 1027.84 95.326 1025.8 97.1451C1023.8 98.9642 1021.45 100.495 1018.74 101.737C1016.04 102.935 1013.31 103.778 1010.56 104.266C1007.85 104.799 1004.37 105.065 1000.11 105.065C995.85 105.065 991.569 104.155 987.265 102.336C983.006 100.517 980.055 98.942 978.413 97.6109L977.215 96.7458V92.2202C977.925 93.0632 980.499 95.1041 984.936 98.343C989.372 101.582 995.517 103.201 1003.37 103.201C1009.14 103.201 1013.93 101.538 1017.75 98.2099C1021.56 94.8823 1023.47 90.7782 1023.47 85.8977C1023.47 81.0171 1022.03 76.7578 1019.14 73.1196C1016.26 69.4813 1011.29 65.1554 1004.24 60.1418C1001.53 58.1896 999.511 56.7476 998.18 55.8159C996.893 54.8841 995.185 53.5974 993.055 51.9558C990.925 50.2698 988.773 48.4063 986.599 46.3654C984.47 44.2801 982.739 41.9285 981.408 39.3108C980.122 36.6487 979.478 33.7204 979.478 30.5258C979.478 27.3313 980.255 24.403 981.808 21.7409C983.361 19.0344 986.067 16.4388 989.927 13.9542C993.787 11.4252 998.801 10.1607 1004.97 10.1607C1011.14 10.1607 1016.55 11.1146 1021.21 13.0225L1023.34 13.9542V18.147C1023.11 17.9696 1022.65 17.5924 1021.94 17.0156C1021.23 16.4388 1019.28 15.4849 1016.08 14.1539C1012.89 12.7784 1009.05 12.0907 1004.57 12.0907C1000.09 12.0907 996.116 13.4662 992.656 16.217C989.195 18.9235 987.465 22.473 987.465 26.8654Z" fill="black"/>
</g>
<defs>
<clipPath id="clip0_10986_30733">
<rect width="445" height="115" fill="white"/>
</clipPath>
<clipPath id="clip1_10986_30733">
<rect width="364" height="115" fill="white" transform="translate(602)"/>
</clipPath>
<clipPath id="clip2_10986_30733">
<rect width="97" height="115" fill="white" transform="translate(475)"/>
</clipPath>
</defs>
</svg>
