<svg width="581" height="171" viewBox="0 0 581 171" fill="none" xmlns="http://www.w3.org/2000/svg">
<path opacity="0.2" d="M69.0104 76.52L68.3719 84.008C66.0887 85.5559 63.4573 86.8523 60.4775 87.8971C57.7687 88.8259 54.847 89.5418 51.7125 90.0448C48.578 90.5479 45.3854 90.7994 42.1348 90.7994C35.6336 90.7994 29.7902 89.832 24.6047 87.8971C19.4579 85.9235 15.0851 83.0792 11.4862 79.3643C7.8873 75.6493 5.12041 71.1216 3.18552 65.7814C1.25063 60.4411 0.283191 54.5977 0.283191 48.2513C0.283191 39.5443 2.23743 32.0369 6.1459 25.7292C10.0544 19.3828 15.4334 14.5649 22.2829 11.2756C29.1324 7.94757 36.7365 6.28357 45.0952 6.28357C47.9975 6.28357 50.9192 6.47705 53.8602 6.86403C56.8012 7.25101 59.6842 7.87017 62.5092 8.72152C65.3728 9.57287 68.0816 10.579 70.6357 11.7399C69.6683 14.2166 68.8362 17.2544 68.1397 20.8533L67.327 21.0274C66.3983 19.8278 64.9278 18.4927 62.9155 17.0222C60.9419 15.513 58.3298 14.1005 55.0792 12.7848C51.8286 11.4304 48.3458 10.7532 44.6308 10.7532C37.6652 10.7532 31.7251 12.4559 26.8105 15.8613C21.9346 19.228 18.2389 23.8717 15.7236 29.7924C13.2082 35.6745 11.9506 41.9822 11.9506 48.7156C11.9506 56.1456 13.2856 62.7049 15.9558 68.3934C18.6259 74.0433 22.3796 78.4162 27.2168 81.512C32.0927 84.6078 37.6072 86.1557 43.7601 86.1557C47.7073 86.1557 51.4029 85.5752 54.847 84.4143C58.3298 83.2147 61.1934 81.899 63.4379 80.4671C65.7211 78.9966 67.5786 77.6809 69.0104 76.52ZM79.2266 60.4411C79.2266 56.1843 79.9619 52.3339 81.4324 48.8898C82.9416 45.4457 85.0893 42.4273 87.8755 39.8345C90.6618 37.2418 93.8543 35.2682 97.4532 33.9138C101.091 32.5206 105.077 31.8241 109.411 31.8241C114.829 31.8241 119.608 33.0044 123.748 35.3649C127.928 37.6868 131.178 41.0535 133.5 45.465C135.822 49.8766 136.983 55.004 136.983 60.8474C136.983 64.6011 136.344 68.258 135.067 71.8182C133.79 75.3784 131.875 78.571 129.321 81.3959C126.805 84.1821 123.652 86.3686 119.859 87.9552C116.067 89.5418 111.868 90.3351 107.263 90.3351C102.155 90.3351 97.4339 89.1548 93.0997 86.7942C88.8043 84.395 85.4182 80.9122 82.9416 76.3458C80.4649 71.7795 79.2266 66.4779 79.2266 60.4411ZM109.295 35.481C104.574 35.481 100.743 36.7774 97.8015 39.3701C94.8992 41.9242 92.8095 45.2522 91.5325 49.3542C90.2942 53.4561 89.675 57.7516 89.675 62.2405C89.675 66.6134 90.2942 70.5992 91.5325 74.1981C92.8095 77.7583 94.8411 80.7187 97.6274 83.0792C100.414 85.4398 103.935 86.6201 108.192 86.6201C112.371 86.6201 115.835 85.1883 118.582 82.3246C121.368 79.461 123.381 75.9589 124.619 71.8182C125.896 67.6775 126.535 63.8078 126.535 60.2089C126.535 57.2678 126.244 54.3655 125.664 51.5019C125.083 48.5996 124.116 45.9681 122.762 43.6075C121.446 41.247 119.666 39.3121 117.421 37.8029C115.177 36.255 112.468 35.481 109.295 35.481ZM150.392 89.3483V32.5206L153.12 32.7528L155.152 32.8689L157.067 32.7528L159.911 32.5206V43.3754C164.284 35.6745 170.65 31.8241 179.009 31.8241C185.858 31.8241 190.754 33.7009 193.695 37.4546C196.674 41.2083 198.164 47.0516 198.164 54.9847V89.3483L196.191 89.1741C195.61 89.1741 195.184 89.1354 194.914 89.058L193.404 89L191.779 89.058L190.444 89.1741L188.644 89.3483V57.7129C188.644 53.6883 188.296 50.2442 187.6 47.3806C186.903 44.4782 185.568 42.1951 183.594 40.5311C181.66 38.8284 178.951 37.977 175.468 37.977C169.663 37.977 165.619 39.97 163.336 43.9558C161.053 47.9417 159.911 53.8818 159.911 61.7761V89.3483L157.938 89.1741C157.357 89.1741 156.932 89.1354 156.661 89.058L155.152 89H153.7L152.423 89.1161L150.392 89.3483ZM217.842 89.3483V37.0483H209.657L209.89 34.7845C209.89 33.7009 209.812 32.9463 209.657 32.5206H217.842L218.074 31.5919C218.771 26.4838 219.99 21.5885 221.731 16.9061C223.472 12.185 226.123 8.1991 229.683 4.94849C233.244 1.69788 237.733 0.0725776 243.15 0.0725776C242.763 2.31705 242.57 5.49026 242.57 9.59222L241.989 10.0566L239.609 8.89566C238.526 8.46999 237.133 8.25715 235.43 8.25715C228.774 8.25715 225.446 12.3785 225.446 20.6211C225.446 22.2464 225.581 24.0652 225.852 26.0775C226.123 28.051 226.549 30.1988 227.129 32.5206H239.261L239.029 34.7845C239.029 35.1327 239.029 35.4036 239.029 35.5971C239.029 35.7519 239.106 36.2356 239.261 37.0483H227.362V89.3483L225.388 89.1741C224.808 89.1741 224.382 89.1354 224.111 89.058L222.602 89L220.976 89.058L219.641 89.1741L217.842 89.3483ZM293.128 77.1004L293.012 83.3114C289.955 85.4785 286.608 87.2006 282.97 88.4776C281.19 89.0967 279.468 89.5611 277.804 89.8707C276.14 90.1803 274.399 90.3351 272.58 90.3351C267.162 90.3351 262.306 89.1741 258.01 86.8523C253.753 84.5304 250.445 81.1444 248.084 76.6941C245.724 72.2052 244.543 67.0003 244.543 61.0796C244.543 55.5071 245.588 50.5151 247.678 46.1035C249.768 41.692 252.863 38.2092 256.965 35.6552C261.106 33.1011 266.04 31.8241 271.767 31.8241C275.057 31.8241 278.133 32.3658 280.997 33.4494C283.86 34.5329 286.414 36.1582 288.659 38.3253C290.903 40.4537 292.683 43.2206 293.999 46.626C295.315 50.0314 295.973 53.9398 295.973 58.3514L295.915 59.7445L295.857 60.9635C293.186 60.9635 289.181 60.9054 283.841 60.7893C278.501 60.6732 274.476 60.6152 271.767 60.6152H254.992L254.876 63.1112C254.876 66.207 255.321 69.09 256.211 71.7602C257.101 74.3916 258.417 76.7328 260.158 78.7838C261.938 80.7961 264.163 82.402 266.833 83.6017C269.503 84.7626 272.406 85.3431 275.54 85.3431C281.616 85.3431 287.479 82.5955 293.128 77.1004ZM254.992 56.2037H286.627C286.627 53.2239 286.318 50.4957 285.698 48.0191C285.118 45.5037 284.247 43.2593 283.086 41.2857C280.842 37.4159 277.069 35.481 271.767 35.481C268.323 35.481 265.382 36.4485 262.944 38.3833C260.506 40.3182 258.61 42.8916 257.256 46.1035C256.52 47.9223 255.959 49.6444 255.572 51.2697C255.185 52.8563 254.992 54.501 254.992 56.2037ZM309.323 89.3483V32.5206L312.052 32.7528L314.083 32.8689L315.999 32.7528L318.843 32.5206V44.4202L319.424 42.969C324.067 35.5391 329.059 31.8241 334.4 31.8241C335.947 31.8241 337.166 32.0176 338.056 32.4045L336.431 42.3886C335.967 42.3112 335.096 41.9822 333.819 41.4018C332.581 40.7826 331.575 40.473 330.801 40.473C329.369 40.473 327.976 40.7246 326.621 41.2276C325.267 41.692 324.125 42.4466 323.197 43.4914C321.378 45.6198 320.197 47.7869 319.656 49.9927C319.114 52.1597 318.843 55.0234 318.843 58.5836V89.3483L316.869 89.1741C316.289 89.1741 315.863 89.1354 315.592 89.058L314.083 89H312.632L311.355 89.1161L309.323 89.3483ZM392.156 77.1004L392.04 83.3114C388.983 85.4785 385.635 87.2006 381.998 88.4776C380.218 89.0967 378.496 89.5611 376.832 89.8707C375.168 90.1803 373.426 90.3351 371.607 90.3351C366.19 90.3351 361.333 89.1741 357.038 86.8523C352.781 84.5304 349.472 81.1444 347.112 76.6941C344.751 72.2052 343.571 67.0003 343.571 61.0796C343.571 55.5071 344.616 50.5151 346.705 46.1035C348.795 41.692 351.891 38.2092 355.993 35.6552C360.134 33.1011 365.068 31.8241 370.795 31.8241C374.084 31.8241 377.161 32.3658 380.024 33.4494C382.888 34.5329 385.442 36.1582 387.686 38.3253C389.931 40.4537 391.711 43.2206 393.027 46.626C394.342 50.0314 395 53.9398 395 58.3514L394.942 59.7445L394.884 60.9635C392.214 60.9635 388.209 60.9054 382.868 60.7893C377.528 60.6732 373.504 60.6152 370.795 60.6152H354.019L353.903 63.1112C353.903 66.207 354.348 69.09 355.238 71.7602C356.128 74.3916 357.444 76.7328 359.185 78.7838C360.966 80.7961 363.191 82.402 365.861 83.6017C368.531 84.7626 371.433 85.3431 374.568 85.3431C380.643 85.3431 386.506 82.5955 392.156 77.1004ZM354.019 56.2037H385.655C385.655 53.2239 385.345 50.4957 384.726 48.0191C384.146 45.5037 383.275 43.2593 382.114 41.2857C379.869 37.4159 376.096 35.481 370.795 35.481C367.351 35.481 364.41 36.4485 361.972 38.3833C359.534 40.3182 357.638 42.8916 356.283 46.1035C355.548 47.9223 354.987 49.6444 354.6 51.2697C354.213 52.8563 354.019 54.501 354.019 56.2037ZM408.119 89.3483V32.5206L410.847 32.7528L412.879 32.8689L414.794 32.7528L417.638 32.5206V43.3754C422.011 35.6745 428.377 31.8241 436.736 31.8241C443.585 31.8241 448.481 33.7009 451.422 37.4546C454.401 41.2083 455.891 47.0516 455.891 54.9847V89.3483L453.918 89.1741C453.337 89.1741 452.911 89.1354 452.641 89.058L451.131 89L449.506 89.058L448.171 89.1741L446.371 89.3483V57.7129C446.371 53.6883 446.023 50.2442 445.327 47.3806C444.63 44.4782 443.295 42.1951 441.321 40.5311C439.387 38.8284 436.678 37.977 433.195 37.977C427.39 37.977 423.346 39.97 421.063 43.9558C418.78 47.9417 417.638 53.8818 417.638 61.7761V89.3483L415.665 89.1741C415.084 89.1741 414.659 89.1354 414.388 89.058L412.879 89H411.427L410.15 89.1161L408.119 89.3483ZM519.568 36.7L516.84 44.5363H515.853C514.305 42.3692 513.241 41.0535 512.661 40.5891C511.5 39.196 509.758 38.0738 507.437 37.2224C505.115 36.3324 502.928 35.8873 500.877 35.8873C494.492 35.8873 489.461 38.2673 485.785 43.0271C484.005 45.4263 482.67 48.0384 481.78 50.8634C480.89 53.6883 480.445 56.8035 480.445 60.2089C480.445 62.7629 480.658 65.1235 481.083 67.2906C481.509 69.4576 482.206 71.586 483.173 73.6757C484.953 77.5842 487.488 80.6606 490.777 82.9051C494.066 85.1496 497.839 86.2718 502.096 86.2718C505.192 86.2718 507.978 85.6526 510.455 84.4143C512.932 83.1373 515.621 81.1831 518.523 78.5516L519.22 78.8999L518.64 84.3563C513.144 88.3421 507.069 90.3351 500.413 90.3351C494.028 90.3351 488.552 89.0774 483.986 86.562C479.419 84.008 475.937 80.4865 473.537 75.9976C471.177 71.5086 469.996 66.4586 469.996 60.8474C469.996 54.8879 471.293 49.7218 473.886 45.3489C476.478 40.9761 480.097 37.6287 484.74 35.3069C489.423 32.985 494.763 31.8241 500.761 31.8241C508.075 31.8241 514.344 33.4494 519.568 36.7ZM577.209 77.1004L577.092 83.3114C574.035 85.4785 570.688 87.2006 567.05 88.4776C565.27 89.0967 563.548 89.5611 561.884 89.8707C560.22 90.1803 558.479 90.3351 556.66 90.3351C551.242 90.3351 546.386 89.1741 542.09 86.8523C537.834 84.5304 534.525 81.1444 532.164 76.6941C529.804 72.2052 528.624 67.0003 528.624 61.0796C528.624 55.5071 529.668 50.5151 531.758 46.1035C533.848 41.692 536.944 38.2092 541.046 35.6552C545.186 33.1011 550.12 31.8241 555.847 31.8241C559.137 31.8241 562.213 32.3658 565.077 33.4494C567.94 34.5329 570.495 36.1582 572.739 38.3253C574.983 40.4537 576.764 43.2206 578.079 46.626C579.395 50.0314 580.053 53.9398 580.053 58.3514L579.995 59.7445L579.937 60.9635C577.267 60.9635 573.261 60.9054 567.921 60.7893C562.581 60.6732 558.556 60.6152 555.847 60.6152H539.072L538.956 63.1112C538.956 66.207 539.401 69.09 540.291 71.7602C541.181 74.3916 542.497 76.7328 544.238 78.7838C546.018 80.7961 548.243 82.402 550.913 83.6017C553.584 84.7626 556.486 85.3431 559.62 85.3431C565.696 85.3431 571.559 82.5955 577.209 77.1004ZM539.072 56.2037H570.707C570.707 53.2239 570.398 50.4957 569.779 48.0191C569.198 45.5037 568.327 43.2593 567.167 41.2857C564.922 37.4159 561.149 35.481 555.847 35.481C552.403 35.481 549.462 36.4485 547.024 38.3833C544.586 40.3182 542.69 42.8916 541.336 46.1035C540.601 47.9223 540.039 49.6444 539.652 51.2697C539.265 52.8563 539.072 54.501 539.072 56.2037ZM276.121 169.348V112.521L278.849 112.753L280.881 112.869L282.796 112.753L285.64 112.521V124.42L286.221 122.969C290.865 115.539 295.857 111.824 301.197 111.824C302.745 111.824 303.964 112.018 304.854 112.405L303.228 122.389C302.764 122.311 301.893 121.982 300.616 121.402C299.378 120.783 298.372 120.473 297.598 120.473C296.166 120.473 294.773 120.725 293.419 121.228C292.064 121.692 290.923 122.447 289.994 123.491C288.175 125.62 286.995 127.787 286.453 129.993C285.911 132.16 285.64 135.023 285.64 138.584V169.348L283.667 169.174C283.086 169.174 282.661 169.135 282.39 169.058L280.881 169H279.429L278.152 169.116L276.121 169.348ZM310.484 140.441C310.484 136.184 311.22 132.334 312.69 128.89C314.199 125.446 316.347 122.427 319.133 119.835C321.92 117.242 325.112 115.268 328.711 113.914C332.349 112.521 336.334 111.824 340.669 111.824C346.086 111.824 350.865 113.004 355.006 115.365C359.185 117.687 362.436 121.053 364.758 125.465C367.08 129.877 368.241 135.004 368.241 140.847C368.241 144.601 367.602 148.258 366.325 151.818C365.048 155.378 363.133 158.571 360.579 161.396C358.063 164.182 354.909 166.369 351.117 167.955C347.325 169.542 343.126 170.335 338.521 170.335C333.413 170.335 328.692 169.155 324.357 166.794C320.062 164.395 316.676 160.912 314.199 156.346C311.723 151.78 310.484 146.478 310.484 140.441ZM340.552 115.481C335.831 115.481 332 116.777 329.059 119.37C326.157 121.924 324.067 125.252 322.79 129.354C321.552 133.456 320.933 137.752 320.933 142.241C320.933 146.613 321.552 150.599 322.79 154.198C324.067 157.758 326.099 160.719 328.885 163.079C331.671 165.44 335.193 166.62 339.45 166.62C343.629 166.62 347.092 165.188 349.84 162.325C352.626 159.461 354.638 155.959 355.877 151.818C357.154 147.678 357.792 143.808 357.792 140.209C357.792 137.268 357.502 134.366 356.922 131.502C356.341 128.6 355.374 125.968 354.019 123.608C352.704 121.247 350.923 119.312 348.679 117.803C346.435 116.255 343.726 115.481 340.552 115.481ZM376.657 140.441C376.657 136.184 377.393 132.334 378.863 128.89C380.372 125.446 382.52 122.427 385.306 119.835C388.093 117.242 391.285 115.268 394.884 113.914C398.522 112.521 402.508 111.824 406.842 111.824C412.259 111.824 417.039 113.004 421.179 115.365C425.359 117.687 428.609 121.053 430.931 125.465C433.253 129.877 434.414 135.004 434.414 140.847C434.414 144.601 433.775 148.258 432.498 151.818C431.221 155.378 429.306 158.571 426.752 161.396C424.236 164.182 421.082 166.369 417.29 167.955C413.498 169.542 409.299 170.335 404.694 170.335C399.586 170.335 394.865 169.155 390.531 166.794C386.235 164.395 382.849 160.912 380.372 156.346C377.896 151.78 376.657 146.478 376.657 140.441ZM406.726 115.481C402.004 115.481 398.173 116.777 395.232 119.37C392.33 121.924 390.24 125.252 388.963 129.354C387.725 133.456 387.106 137.752 387.106 142.241C387.106 146.613 387.725 150.599 388.963 154.198C390.24 157.758 392.272 160.719 395.058 163.079C397.844 165.44 401.366 166.62 405.623 166.62C409.802 166.62 413.266 165.188 416.013 162.325C418.799 159.461 420.812 155.959 422.05 151.818C423.327 147.678 423.965 143.808 423.965 140.209C423.965 137.268 423.675 134.366 423.095 131.502C422.514 128.6 421.547 125.968 420.192 123.608C418.877 121.247 417.097 119.312 414.852 117.803C412.608 116.255 409.899 115.481 406.726 115.481ZM447.068 169.348V112.521L449.738 112.753L451.828 112.869L453.801 112.753L456.588 112.521V122.737C457.865 120.492 459.335 118.557 460.999 116.932C462.663 115.307 464.617 114.049 466.862 113.159C469.106 112.269 471.544 111.824 474.176 111.824C478.162 111.824 481.741 112.869 484.914 114.959C488.088 117.048 490.293 119.931 491.532 123.608C496.175 115.752 502.406 111.824 510.223 111.824C517.188 111.824 522.122 113.759 525.025 117.629C527.927 121.46 529.378 127.245 529.378 134.985V169.348L527.405 169.174C526.824 169.174 526.398 169.135 526.128 169.058L524.618 169H523.167L521.89 169.116L519.858 169.348V137.713C519.858 135.701 519.781 133.843 519.626 132.14C519.471 130.438 519.22 128.87 518.872 127.439C518.291 124.691 517.014 122.427 515.041 120.647C513.106 118.867 510.3 117.977 506.624 117.977C501.284 117.977 497.665 119.796 495.769 123.433C493.912 127.071 492.983 131.676 492.983 137.248V169.348L491.009 169.174C490.429 169.174 490.003 169.135 489.732 169.058L488.223 169L486.598 169.058L485.263 169.174L483.463 169.348V134.52C483.463 128.909 482.457 124.749 480.445 122.04C478.433 119.331 475.24 117.977 470.867 117.977C467.036 117.977 464.076 118.732 461.986 120.241C459.896 121.75 458.464 123.724 457.691 126.162C457.342 127.4 457.071 128.735 456.878 130.167C456.684 131.56 456.588 133.088 456.588 134.752V169.348L454.614 169.174C454.034 169.174 453.608 169.135 453.337 169.058L451.828 169L449.622 169.116L447.068 169.348ZM545.167 157.797H546.096C547.605 160.312 549.617 162.421 552.132 164.124C554.648 165.788 557.202 166.62 559.795 166.62C561.691 166.62 563.529 166.156 565.309 165.227C567.128 164.298 568.598 163.002 569.721 161.338C570.881 159.674 571.462 157.836 571.462 155.823C571.462 152.302 570.398 149.883 568.269 148.568C566.141 147.252 562.658 145.878 557.821 144.446C553.022 143.014 549.404 141.312 546.966 139.338C544.567 137.326 543.367 134.017 543.367 129.412C543.367 123.956 545.186 119.66 548.824 116.526C552.5 113.391 557.144 111.824 562.755 111.824C565.541 111.824 568.192 112.153 570.707 112.811C573.223 113.43 575.061 114.127 576.222 114.901C575.177 117.184 574.21 120.009 573.319 123.375H572.275C571.81 122.098 571.017 120.841 569.895 119.602C568.85 118.325 567.65 117.319 566.296 116.584C564.98 115.849 563.606 115.481 562.175 115.481C559.117 115.481 556.544 116.352 554.454 118.093C552.403 119.835 551.378 122.253 551.378 125.349C551.378 128.716 552.442 131.096 554.57 132.489C556.737 133.843 560.201 135.294 564.961 136.842C569.721 138.351 573.319 140.112 575.757 142.124C578.195 144.137 579.414 147.271 579.414 151.528C579.414 155.514 578.35 158.939 576.222 161.802C574.132 164.666 571.385 166.814 567.979 168.245C564.574 169.639 561.091 170.335 557.531 170.335C551.997 170.335 547.044 169.058 542.671 166.504C544.064 162.209 544.896 159.306 545.167 157.797Z" fill="white"/>
</svg>
