<svg width="355" height="91" viewBox="0 0 355 91" fill="none" xmlns="http://www.w3.org/2000/svg">
<path opacity="0.2" d="M78.3682 47.8449C78.3682 43.9365 78.1747 40.6278 77.7877 37.919C77.4007 35.2101 76.6268 32.4432 75.4658 29.6183C74.3436 26.7547 72.815 24.1039 70.8801 21.6659C68.9453 19.228 66.6814 17.177 64.0887 15.513C61.5346 13.8103 58.671 12.4946 55.4978 11.5658C52.3246 10.6371 49.2094 10.1727 46.1523 10.1727C41.0055 10.1727 36.3424 11.1208 32.163 13.017C27.9837 14.9132 24.4428 17.622 21.5405 21.1435C18.6382 24.6263 16.4324 28.8637 14.9232 33.8557C13.414 38.809 12.6594 44.2267 12.6594 50.1088C12.6594 55.8747 13.4527 61.0409 15.0393 65.6072C16.6646 70.1348 18.9865 74.0046 22.0049 77.2165C25.062 80.4284 28.5835 82.8471 32.5694 84.4724C36.5552 86.059 40.7346 86.8523 45.1074 86.8523C50.7186 86.8523 55.6332 85.6526 59.8513 83.2534C64.108 80.8154 67.5715 77.6422 70.2416 73.7337C72.9505 69.7866 74.9821 65.4718 76.3365 60.7893C77.6909 56.0682 78.3682 51.7534 78.3682 47.8449ZM44.7592 90.7994C38.2966 90.7994 32.3372 89.8127 26.8808 87.8391C21.4631 85.8655 16.8194 83.0212 12.9496 79.3062C9.11854 75.5525 6.15816 71.0636 4.06848 65.8394C3.02364 63.208 2.24969 60.5185 1.74662 57.7709C1.24354 54.9847 0.992009 51.9663 0.992009 48.7156C0.992009 42.3692 2.0949 36.5646 4.30067 31.3017C6.50644 26.0388 9.6603 21.5111 13.7623 17.7188C17.7094 14.0812 22.3338 11.2756 27.6354 9.30199C32.9757 7.28971 38.761 6.28357 44.9913 6.28357C50.7186 6.28357 56.2911 7.09622 61.7088 8.72152C67.1265 10.3081 71.9443 12.7654 76.1624 16.0934C80.4191 19.4215 83.7858 23.6782 86.2625 28.8637C88.7778 34.0105 90.0355 40.028 90.0355 46.9162C90.0355 55.5071 88.12 63.1306 84.2889 69.7866C80.4578 76.4426 75.0788 81.6087 68.1519 85.285C61.2251 88.9613 53.4275 90.7994 44.7592 90.7994ZM105.476 89.3483V37.0483H97.2914L97.5235 34.7845C97.5235 33.7009 97.4461 32.9463 97.2914 32.5206H105.476L105.708 31.5919C106.405 26.4838 107.624 21.5885 109.365 16.9061C111.106 12.185 113.757 8.1991 117.317 4.94849C120.878 1.69788 125.367 0.0725776 130.784 0.0725776C130.397 2.31705 130.204 5.49026 130.204 9.59222L129.623 10.0566L127.243 8.89566C126.16 8.46999 124.767 8.25715 123.064 8.25715C116.408 8.25715 113.08 12.3785 113.08 20.6211C113.08 22.2464 113.215 24.0652 113.486 26.0775C113.757 28.051 114.183 30.1988 114.763 32.5206H126.895L126.663 34.7845C126.663 35.1327 126.663 35.4036 126.663 35.5971C126.663 35.7519 126.74 36.2356 126.895 37.0483H114.996V89.3483L113.022 89.1741C112.442 89.1741 112.016 89.1354 111.745 89.058L110.236 89L108.61 89.058L107.275 89.1741L105.476 89.3483ZM138.562 89.3483V37.0483H130.378L130.61 34.7845C130.61 33.7009 130.533 32.9463 130.378 32.5206H138.562L138.795 31.5919C139.491 26.4838 140.71 21.5885 142.452 16.9061C144.193 12.185 146.844 8.1991 150.404 4.94849C153.964 1.69788 158.453 0.0725776 163.871 0.0725776C163.484 2.31705 163.29 5.49026 163.29 9.59222L162.71 10.0566L160.33 8.89566C159.246 8.46999 157.853 8.25715 156.151 8.25715C149.495 8.25715 146.167 12.3785 146.167 20.6211C146.167 22.2464 146.302 24.0652 146.573 26.0775C146.844 28.051 147.269 30.1988 147.85 32.5206H159.982L159.75 34.7845C159.75 35.1327 159.75 35.4036 159.75 35.5971C159.75 35.7519 159.827 36.2356 159.982 37.0483H148.082V89.3483L146.109 89.1741C145.528 89.1741 145.102 89.1354 144.832 89.058L143.322 89L141.697 89.058L140.362 89.1741L138.562 89.3483ZM182.504 32.5206V89.3483L180.53 89.1741C179.95 89.1741 179.524 89.1354 179.253 89.058L177.744 89H176.293L175.016 89.1161L172.984 89.3483V32.5206L175.712 32.7528L177.744 32.8689L179.66 32.7528L182.504 32.5206ZM183.781 12.2043C183.781 13.8296 183.181 15.2421 181.981 16.4417C180.782 17.6414 179.369 18.2412 177.744 18.2412C176.119 18.2412 174.687 17.6414 173.449 16.4417C172.249 15.2421 171.649 13.8296 171.649 12.2043C171.649 10.5403 172.23 9.12785 173.39 7.96692C174.59 6.76729 176.041 6.16747 177.744 6.16747C179.331 6.16747 180.724 6.76729 181.923 7.96692C183.162 9.12785 183.781 10.5403 183.781 12.2043ZM248.735 36.7L246.007 44.5363H245.02C243.472 42.3692 242.408 41.0535 241.827 40.5891C240.667 39.196 238.925 38.0738 236.603 37.2224C234.281 36.3324 232.095 35.8873 230.044 35.8873C223.659 35.8873 218.628 38.2673 214.952 43.0271C213.172 45.4263 211.837 48.0384 210.947 50.8634C210.057 53.6883 209.612 56.8035 209.612 60.2089C209.612 62.7629 209.824 65.1235 210.25 67.2906C210.676 69.4576 211.372 71.586 212.34 73.6757C214.12 77.5842 216.655 80.6606 219.944 82.9051C223.233 85.1496 227.006 86.2718 231.263 86.2718C234.359 86.2718 237.145 85.6526 239.622 84.4143C242.098 83.1373 244.788 81.1831 247.69 78.5516L248.387 78.8999L247.806 84.3563C242.311 88.3421 236.236 90.3351 229.58 90.3351C223.194 90.3351 217.719 89.0774 213.152 86.562C208.586 84.008 205.103 80.4865 202.704 75.9976C200.343 71.5086 199.163 66.4586 199.163 60.8474C199.163 54.8879 200.46 49.7218 203.052 45.3489C205.645 40.9761 209.263 37.6287 213.907 35.3069C218.589 32.985 223.93 31.8241 229.928 31.8241C237.242 31.8241 243.511 33.4494 248.735 36.7ZM306.375 77.1004L306.259 83.3114C303.202 85.4785 299.855 87.2006 296.217 88.4776C294.437 89.0967 292.715 89.5611 291.051 89.8707C289.387 90.1803 287.646 90.3351 285.827 90.3351C280.409 90.3351 275.553 89.1741 271.257 86.8523C267 84.5304 263.692 81.1444 261.331 76.6941C258.971 72.2052 257.79 67.0003 257.79 61.0796C257.79 55.5071 258.835 50.5151 260.925 46.1035C263.014 41.692 266.11 38.2092 270.212 35.6552C274.353 33.1011 279.287 31.8241 285.014 31.8241C288.303 31.8241 291.38 32.3658 294.244 33.4494C297.107 34.5329 299.661 36.1582 301.906 38.3253C304.15 40.4537 305.93 43.2206 307.246 46.626C308.562 50.0314 309.22 53.9398 309.22 58.3514L309.162 59.7445L309.103 60.9635C306.433 60.9635 302.428 60.9054 297.088 60.7893C291.748 60.6732 287.723 60.6152 285.014 60.6152H268.239L268.123 63.1112C268.123 66.207 268.568 69.09 269.458 71.7602C270.348 74.3916 271.663 76.7328 273.405 78.7838C275.185 80.7961 277.41 82.402 280.08 83.6017C282.75 84.7626 285.653 85.3431 288.787 85.3431C294.863 85.3431 300.725 82.5955 306.375 77.1004ZM268.239 56.2037H299.874C299.874 53.2239 299.564 50.4957 298.945 48.0191C298.365 45.5037 297.494 43.2593 296.333 41.2857C294.089 37.4159 290.316 35.481 285.014 35.481C281.57 35.481 278.629 36.4485 276.191 38.3833C273.753 40.3182 271.857 42.8916 270.502 46.1035C269.767 47.9223 269.206 49.6444 268.819 51.2697C268.432 52.8563 268.239 54.501 268.239 56.2037ZM320.655 77.797H321.584C323.093 80.3124 325.105 82.4214 327.62 84.1241C330.136 85.7881 332.69 86.6201 335.283 86.6201C337.179 86.6201 339.017 86.1557 340.797 85.227C342.616 84.2982 344.086 83.0018 345.208 81.3378C346.369 79.6738 346.95 77.8357 346.95 75.8234C346.95 72.3019 345.886 69.8833 343.757 68.5676C341.629 67.2519 338.146 65.8781 333.309 64.4463C328.51 63.0145 324.892 61.3118 322.454 59.3382C320.055 57.3259 318.855 54.0172 318.855 49.4122C318.855 43.9558 320.674 39.6604 324.312 36.5259C327.988 33.3913 332.632 31.8241 338.243 31.8241C341.029 31.8241 343.68 32.153 346.195 32.8109C348.711 33.43 350.549 34.1266 351.71 34.9005C350.665 37.1837 349.697 40.0087 348.807 43.3754H347.763C347.298 42.0983 346.505 40.8407 345.383 39.6023C344.338 38.3253 343.138 37.3192 341.784 36.5839C340.468 35.8486 339.094 35.481 337.662 35.481C334.605 35.481 332.032 36.3517 329.942 38.0931C327.891 39.8345 326.866 42.2531 326.866 45.3489C326.866 48.7156 327.93 51.0956 330.058 52.4887C332.225 53.8431 335.689 55.2943 340.449 56.8422C345.208 58.3514 348.807 60.1121 351.245 62.1244C353.683 64.1367 354.902 67.2712 354.902 71.528C354.902 75.5138 353.838 78.9386 351.71 81.8022C349.62 84.6659 346.872 86.8136 343.467 88.2454C340.062 89.6385 336.579 90.3351 333.019 90.3351C327.485 90.3351 322.532 89.058 318.159 86.504C319.552 82.2085 320.384 79.3062 320.655 77.797Z" fill="white"/>
</svg>
