<svg width="293" height="97" viewBox="0 0 293 97" fill="none" xmlns="http://www.w3.org/2000/svg">
<path opacity="0.05" d="M25.0101 52.5394H11.8993L63.8769 95H60.9486L11.0341 54.2698V95H0.65185V2.42521H25.0101C33.9282 2.42521 41.5152 4.51052 47.7712 8.68116C54.0271 12.8518 57.1551 19.1299 57.1551 27.5156C57.1551 33.0616 54.9588 38.6299 50.5664 44.2203C46.2183 49.7664 37.6995 52.5394 25.0101 52.5394ZM11.0341 50.6094H21.5494C30.0238 50.6094 36.2132 48.7015 40.1176 44.8858C44.0664 41.0701 46.0408 35.2801 46.0408 27.5156C46.0408 19.7511 44.0886 13.961 40.1841 10.1453C36.2797 6.28526 30.0681 4.35523 21.5494 4.35523H11.0341V50.6094ZM125.172 4.35523H84.6413V46.8159H118.583V48.7459H84.6413V93.07H125.172V95H74.2591V2.42521H125.172V4.35523ZM209.028 2.42521H210.958V96.5973L142.609 18.8637V95H140.679V0.894495L209.028 78.4949V2.42521ZM292.286 2.42521V4.35523H263.934V95H253.619V4.35523H225.267V2.42521H292.286Z" fill="#37474F"/>
</svg>
