<svg width="623" height="91" viewBox="0 0 623 91" fill="none" xmlns="http://www.w3.org/2000/svg">
<path opacity="0.2" d="M21.7479 73.6757L0.502801 8.02496L3.69537 8.25715L6.07528 8.37324L8.16496 8.25715L11.5317 8.02496L15.0725 20.6211L22.0961 44.7685L32.0802 76.1717H33.183L41.0193 53.5335L50.3068 26.4257C53.5574 16.7513 55.531 10.6177 56.2276 8.02496L58.1431 8.25715L59.6523 8.37324L61.0454 8.25715L63.019 8.02496C63.406 9.53418 63.9091 11.2562 64.5282 13.1911C64.683 13.6555 65.2054 15.2034 66.0955 17.8348L70.7973 31.9402L78.0531 53.5335L85.5991 76.1717H86.644C87.3792 74.2755 88.1725 72.1278 89.0239 69.7285C89.8752 67.3293 90.6686 64.9494 91.4038 62.5888L105.335 17.7768L108.179 8.02496L110.501 8.25715L112.359 8.37324L113.984 8.25715L116.48 8.02496C114.119 13.4813 112.146 18.5508 110.559 23.2332L87.863 89.3483L86.2377 89.1741C85.7346 89.1741 85.3863 89.1354 85.1928 89.058L83.9158 89L82.1744 89.1161L80.0267 89.3483L77.2404 80.5832L72.8289 66.9423C72.0549 64.543 70.9907 61.215 69.6363 56.9583C68.2819 52.7015 66.5792 47.516 64.5282 41.4018L58.4914 22.6527H57.5626L34.4601 89.3483L32.8348 89.1741C32.3317 89.1741 31.9834 89.1354 31.7899 89.058L30.571 89L29.1778 89.058L28.0749 89.1741L26.5077 89.3483L24.0697 81.2218C23.141 77.9711 22.367 75.4558 21.7479 73.6757ZM167.039 51.7921V79.3643C167.039 80.0221 167.039 80.6606 167.039 81.2798C167.039 81.8603 167.077 82.4407 167.155 83.0212C167.271 83.563 167.561 84.0854 168.025 84.5885C168.49 85.0915 169.225 85.3431 170.231 85.3431C171.044 85.3431 172.205 85.1689 173.714 84.8206V87.4327C172.359 88.0132 171.102 88.4195 169.941 88.6517C168.78 88.8839 167.58 89 166.342 89C165.22 89 164.156 88.8452 163.149 88.5356C162.182 88.226 161.311 87.8004 160.537 87.2586C159.106 86.1751 158.215 84.3369 157.867 81.7442L156.822 82.8471C151.83 87.8391 145.968 90.3351 139.234 90.3351C134.939 90.3351 131.224 89 128.089 86.3299C124.955 83.621 123.387 80.1189 123.387 75.8234C123.387 71.6441 124.355 68.4128 126.29 66.1296C128.263 63.8078 130.643 62.2018 133.43 61.3118C136.254 60.4217 140.24 59.551 145.387 58.6997C149.141 58.1192 151.792 57.5968 153.34 57.1324C154.926 56.6293 156.087 55.9134 156.822 54.9847C157.596 54.0172 157.983 52.6048 157.983 50.7473C157.983 46.3357 156.764 42.911 154.326 40.473C151.927 38.0351 148.522 36.8161 144.11 36.8161C141.556 36.8161 139.254 37.2805 137.203 38.2092C135.152 39.138 133.526 40.2215 132.327 41.4598C131.166 42.6981 130.372 43.8784 129.947 45.0007H128.612V38.3833C135.036 34.0105 141.421 31.8241 147.767 31.8241C154.036 31.8241 158.815 33.5074 162.105 36.8741C165.394 40.2021 167.039 45.1748 167.039 51.7921ZM157.519 77.1004V59.7445L153.34 60.6152L146.084 62.0664C143.878 62.5307 141.808 63.1886 139.873 64.04C137.977 64.8526 136.371 66.0909 135.055 67.7549C133.778 69.4189 133.139 71.5473 133.139 74.1401C133.139 77.855 134.145 80.6606 136.158 82.5568C138.209 84.4143 141.092 85.3431 144.807 85.3431C146.2 85.3431 147.844 84.8787 149.741 83.9499C151.637 83.0212 153.165 81.9764 154.326 80.8154L155.603 79.5964L156.88 78.2033C157.229 77.739 157.442 77.3713 157.519 77.1004ZM186.774 89.3483V32.5206L189.503 32.7528L191.534 32.8689L193.45 32.7528L196.294 32.5206V44.4202L196.875 42.969C201.518 35.5391 206.51 31.8241 211.851 31.8241C213.398 31.8241 214.617 32.0176 215.507 32.4045L213.882 42.3886C213.418 42.3112 212.547 41.9822 211.27 41.4018C210.032 40.7826 209.026 40.473 208.252 40.473C206.82 40.473 205.427 40.7246 204.072 41.2276C202.718 41.692 201.576 42.4466 200.648 43.4914C198.829 45.6198 197.648 47.7869 197.107 49.9927C196.565 52.1597 196.294 55.0234 196.294 58.5836V89.3483L194.32 89.1741C193.74 89.1741 193.314 89.1354 193.043 89.058L191.534 89H190.083L188.806 89.1161L186.774 89.3483ZM269.607 77.1004L269.491 83.3114C266.434 85.4785 263.086 87.2006 259.449 88.4776C257.669 89.0967 255.947 89.5611 254.283 89.8707C252.619 90.1803 250.877 90.3351 249.058 90.3351C243.641 90.3351 238.784 89.1741 234.489 86.8523C230.232 84.5304 226.923 81.1444 224.563 76.6941C222.202 72.2052 221.022 67.0003 221.022 61.0796C221.022 55.5071 222.067 50.5151 224.156 46.1035C226.246 41.692 229.342 38.2092 233.444 35.6552C237.585 33.1011 242.519 31.8241 248.246 31.8241C251.535 31.8241 254.612 32.3658 257.475 33.4494C260.339 34.5329 262.893 36.1582 265.137 38.3253C267.382 40.4537 269.162 43.2206 270.478 46.626C271.793 50.0314 272.451 53.9398 272.451 58.3514L272.393 59.7445L272.335 60.9635C269.665 60.9635 265.66 60.9054 260.319 60.7893C254.979 60.6732 250.955 60.6152 248.246 60.6152H231.47L231.354 63.1112C231.354 66.207 231.799 69.09 232.689 71.7602C233.579 74.3916 234.895 76.7328 236.636 78.7838C238.417 80.7961 240.642 82.402 243.312 83.6017C245.982 84.7626 248.884 85.3431 252.019 85.3431C258.094 85.3431 263.957 82.5955 269.607 77.1004ZM231.47 56.2037H263.106C263.106 53.2239 262.796 50.4957 262.177 48.0191C261.596 45.5037 260.726 43.2593 259.565 41.2857C257.32 37.4159 253.547 35.481 248.246 35.481C244.802 35.481 241.861 36.4485 239.423 38.3833C236.985 40.3182 235.089 42.8916 233.734 46.1035C232.999 47.9223 232.438 49.6444 232.051 51.2697C231.664 52.8563 231.47 54.501 231.47 56.2037ZM285.57 89.3483V0.0725776L288.298 0.304764L290.33 0.420857L292.245 0.304764L295.089 0.0725776V43.3754C299.462 35.6745 305.828 31.8241 314.187 31.8241C320.92 31.8241 325.796 33.759 328.814 37.6287C331.833 41.4598 333.342 47.2451 333.342 54.9847V89.3483L331.369 89.1741C330.788 89.1741 330.362 89.1354 330.092 89.058L328.582 89L326.957 89.058L325.622 89.1741L323.822 89.3483V57.7129C323.822 54.2301 323.59 51.2697 323.126 48.8317C322.662 46.3551 321.926 44.3041 320.92 42.6788C318.985 39.5443 315.56 37.977 310.646 37.977C300.275 37.977 295.089 44.3235 295.089 57.0163V89.3483L293.116 89.1741C292.535 89.1741 292.11 89.1354 291.839 89.058L290.33 89H288.878L287.601 89.1161L285.57 89.3483ZM346.751 60.4411C346.751 56.1843 347.486 52.3339 348.957 48.8898C350.466 45.4457 352.614 42.4273 355.4 39.8345C358.186 37.2418 361.379 35.2682 364.978 33.9138C368.615 32.5206 372.601 31.8241 376.935 31.8241C382.353 31.8241 387.132 33.0044 391.273 35.3649C395.452 37.6868 398.703 41.0535 401.024 45.465C403.346 49.8766 404.507 55.004 404.507 60.8474C404.507 64.6011 403.869 68.258 402.592 71.8182C401.315 75.3784 399.399 78.571 396.845 81.3959C394.33 84.1821 391.176 86.3686 387.384 87.9552C383.591 89.5418 379.392 90.3351 374.787 90.3351C369.679 90.3351 364.958 89.1548 360.624 86.7942C356.329 84.395 352.943 80.9122 350.466 76.3458C347.989 71.7795 346.751 66.4779 346.751 60.4411ZM376.819 35.481C372.098 35.481 368.267 36.7774 365.326 39.3701C362.423 41.9242 360.334 45.2522 359.057 49.3542C357.818 53.4561 357.199 57.7516 357.199 62.2405C357.199 66.6134 357.818 70.5992 359.057 74.1981C360.334 77.7583 362.365 80.7187 365.152 83.0792C367.938 85.4398 371.459 86.6201 375.716 86.6201C379.896 86.6201 383.359 85.1883 386.106 82.3246C388.893 79.461 390.905 75.9589 392.143 71.8182C393.42 67.6775 394.059 63.8078 394.059 60.2089C394.059 57.2678 393.769 54.3655 393.188 51.5019C392.608 48.5996 391.64 45.9681 390.286 43.6075C388.97 41.247 387.19 39.3121 384.946 37.8029C382.701 36.255 379.992 35.481 376.819 35.481ZM464.992 32.5206V89.3483L463.018 89.1741C462.438 89.1741 462.012 89.1354 461.741 89.058L460.232 89H458.781L457.504 89.1161L455.472 89.3483V79.1321C454.195 81.57 452.628 83.6017 450.77 85.227C448.952 86.8523 446.823 88.11 444.385 89C441.947 89.89 439.335 90.3351 436.549 90.3351C429.932 90.3351 424.998 88.5163 421.747 84.8787C418.535 81.2411 416.929 75.4364 416.929 67.4647V32.5206L419.599 32.7528L421.689 32.8689L423.605 32.7528L426.449 32.5206V64.6204C426.449 68.8772 426.913 72.4761 427.842 75.4171C428.771 78.3581 430.299 80.6026 432.428 82.1505C434.556 83.6984 437.362 84.4724 440.844 84.4724C444.598 84.4724 447.539 83.5436 449.668 81.6861C451.796 79.8286 453.286 77.4294 454.137 74.4883C455.027 71.5086 455.472 68.4515 455.472 65.317V32.5206L458.2 32.7528L460.232 32.8689L462.148 32.7528L464.992 32.5206ZM482.406 77.797H483.335C484.844 80.3124 486.856 82.4214 489.371 84.1241C491.887 85.7881 494.441 86.6201 497.034 86.6201C498.93 86.6201 500.768 86.1557 502.548 85.227C504.367 84.2982 505.837 83.0018 506.96 81.3378C508.121 79.6738 508.701 77.8357 508.701 75.8234C508.701 72.3019 507.637 69.8833 505.508 68.5676C503.38 67.2519 499.897 65.8781 495.06 64.4463C490.262 63.0145 486.643 61.3118 484.205 59.3382C481.806 57.3259 480.606 54.0172 480.606 49.4122C480.606 43.9558 482.425 39.6604 486.063 36.5259C489.739 33.3913 494.383 31.8241 499.994 31.8241C502.78 31.8241 505.431 32.153 507.946 32.8109C510.462 33.43 512.3 34.1266 513.461 34.9005C512.416 37.1837 511.449 40.0087 510.558 43.3754H509.514C509.049 42.0983 508.256 40.8407 507.134 39.6023C506.089 38.3253 504.889 37.3192 503.535 36.5839C502.219 35.8486 500.845 35.481 499.414 35.481C496.356 35.481 493.783 36.3517 491.693 38.0931C489.642 39.8345 488.617 42.2531 488.617 45.3489C488.617 48.7156 489.681 51.0956 491.809 52.4887C493.976 53.8431 497.44 55.2943 502.2 56.8422C506.96 58.3514 510.558 60.1121 512.996 62.1244C515.434 64.1367 516.653 67.2712 516.653 71.528C516.653 75.5138 515.589 78.9386 513.461 81.8022C511.371 84.6659 508.624 86.8136 505.218 88.2454C501.813 89.6385 498.33 90.3351 494.77 90.3351C489.236 90.3351 484.283 89.058 479.91 86.504C481.303 82.2085 482.135 79.3062 482.406 77.797ZM573.887 77.1004L573.771 83.3114C570.714 85.4785 567.367 87.2006 563.729 88.4776C561.949 89.0967 560.227 89.5611 558.563 89.8707C556.899 90.1803 555.158 90.3351 553.339 90.3351C547.921 90.3351 543.065 89.1741 538.769 86.8523C534.512 84.5304 531.204 81.1444 528.843 76.6941C526.483 72.2052 525.302 67.0003 525.302 61.0796C525.302 55.5071 526.347 50.5151 528.437 46.1035C530.526 41.692 533.622 38.2092 537.724 35.6552C541.865 33.1011 546.799 31.8241 552.526 31.8241C555.815 31.8241 558.892 32.3658 561.756 33.4494C564.619 34.5329 567.173 36.1582 569.418 38.3253C571.662 40.4537 573.442 43.2206 574.758 46.626C576.074 50.0314 576.732 53.9398 576.732 58.3514L576.674 59.7445L576.615 60.9635C573.945 60.9635 569.94 60.9054 564.6 60.7893C559.26 60.6732 555.235 60.6152 552.526 60.6152H535.751L535.635 63.1112C535.635 66.207 536.08 69.09 536.97 71.7602C537.86 74.3916 539.175 76.7328 540.917 78.7838C542.697 80.7961 544.922 82.402 547.592 83.6017C550.262 84.7626 553.165 85.3431 556.299 85.3431C562.375 85.3431 568.237 82.5955 573.887 77.1004ZM535.751 56.2037H567.386C567.386 53.2239 567.076 50.4957 566.457 48.0191C565.877 45.5037 565.006 43.2593 563.845 41.2857C561.601 37.4159 557.828 35.481 552.526 35.481C549.082 35.481 546.141 36.4485 543.703 38.3833C541.265 40.3182 539.369 42.8916 538.014 46.1035C537.279 47.9223 536.718 49.6444 536.331 51.2697C535.944 52.8563 535.751 54.501 535.751 56.2037ZM588.167 77.797H589.096C590.605 80.3124 592.617 82.4214 595.132 84.1241C597.648 85.7881 600.202 86.6201 602.795 86.6201C604.691 86.6201 606.529 86.1557 608.309 85.227C610.128 84.2982 611.598 83.0018 612.721 81.3378C613.881 79.6738 614.462 77.8357 614.462 75.8234C614.462 72.3019 613.398 69.8833 611.269 68.5676C609.141 67.2519 605.658 65.8781 600.821 64.4463C596.022 63.0145 592.404 61.3118 589.966 59.3382C587.567 57.3259 586.367 54.0172 586.367 49.4122C586.367 43.9558 588.186 39.6604 591.824 36.5259C595.5 33.3913 600.144 31.8241 605.755 31.8241C608.541 31.8241 611.192 32.153 613.707 32.8109C616.223 33.43 618.061 34.1266 619.222 34.9005C618.177 37.1837 617.209 40.0087 616.319 43.3754H615.275C614.81 42.0983 614.017 40.8407 612.895 39.6023C611.85 38.3253 610.65 37.3192 609.296 36.5839C607.98 35.8486 606.606 35.481 605.174 35.481C602.117 35.481 599.544 36.3517 597.454 38.0931C595.403 39.8345 594.378 42.2531 594.378 45.3489C594.378 48.7156 595.442 51.0956 597.57 52.4887C599.737 53.8431 603.201 55.2943 607.961 56.8422C612.721 58.3514 616.319 60.1121 618.757 62.1244C621.195 64.1367 622.414 67.2712 622.414 71.528C622.414 75.5138 621.35 78.9386 619.222 81.8022C617.132 84.6659 614.385 86.8136 610.979 88.2454C607.574 89.6385 604.091 90.3351 600.531 90.3351C594.997 90.3351 590.044 89.058 585.671 86.504C587.064 82.2085 587.896 79.3062 588.167 77.797Z" fill="white"/>
</svg>
