<svg width="283" height="200" viewBox="0 0 283 200" fill="none" xmlns="http://www.w3.org/2000/svg">
<path opacity="0.2" d="M17.187 12.4365V45.1168L19.683 45.1748L22.7595 45.2328C26.6293 45.2328 29.8799 45.0007 32.5113 44.5363C37.0777 43.6075 40.7539 41.6533 43.5402 38.6736C46.3264 35.6552 47.7195 31.9402 47.7195 27.5286C47.7195 19.0151 43.366 14.0231 34.659 12.5526C33.382 12.3204 30.9247 12.2043 27.2871 12.2043C26.668 12.2043 25.7973 12.2237 24.675 12.2624C23.5528 12.3011 22.7401 12.3204 22.2371 12.3204C21.7727 12.3204 20.9794 12.3398 19.8572 12.3785C18.7349 12.4172 17.8449 12.4365 17.187 12.4365ZM6.68058 89.3483V8.02496H31.8728C40.9281 8.02496 47.5841 9.53418 51.8408 12.5526C56.1363 15.5323 58.284 20.06 58.284 26.1355C58.284 29.3861 57.6262 32.3078 56.3104 34.9005C55.0334 37.4933 53.234 39.7184 50.9121 41.5759C48.5902 43.4334 45.9975 44.9426 43.1339 46.1035C40.2702 47.2258 37.1938 48.0965 33.9044 48.7156L58.4001 79.7125L64.1467 86.3879L66.3525 89.3483L63.5663 89.1741H62.8117C62.5408 89.1741 62.1731 89.1354 61.7088 89.058L59.503 89H57.5294L55.6139 89.1161L52.7115 89.3483C49.2674 84.4724 46.7714 81.0283 45.2235 79.016L31.1763 60.8474L21.6566 49.6444H17.187V89.3483L15.0393 89.1741C14.3427 89.1741 13.859 89.1354 13.5881 89.058L11.9048 89L9.52486 89.1161L6.68058 89.3483ZM121.323 77.1004L121.207 83.3114C118.149 85.4785 114.802 87.2006 111.164 88.4776C109.384 89.0967 107.662 89.5611 105.998 89.8707C104.334 90.1803 102.593 90.3351 100.774 90.3351C95.3565 90.3351 90.4999 89.1741 86.2044 86.8523C81.9477 84.5304 78.639 81.1444 76.2785 76.6941C73.9179 72.2052 72.7376 67.0003 72.7376 61.0796C72.7376 55.5071 73.7825 50.5151 75.8722 46.1035C77.9618 41.692 81.0576 38.2092 85.1596 35.6552C89.3003 33.1011 94.2342 31.8241 99.9615 31.8241C103.251 31.8241 106.327 32.3658 109.191 33.4494C112.055 34.5329 114.609 36.1582 116.853 38.3253C119.098 40.4537 120.878 43.2206 122.193 46.626C123.509 50.0314 124.167 53.9398 124.167 58.3514L124.109 59.7445L124.051 60.9635C121.381 60.9635 117.375 60.9054 112.035 60.7893C106.695 60.6732 102.67 60.6152 99.9615 60.6152H83.186L83.0699 63.1112C83.0699 66.207 83.515 69.09 84.405 71.7602C85.2951 74.3916 86.6108 76.7328 88.3522 78.7838C90.1323 80.7961 92.3574 82.402 95.0275 83.6017C97.6977 84.7626 100.6 85.3431 103.735 85.3431C109.81 85.3431 115.673 82.5955 121.323 77.1004ZM83.186 56.2037H114.821C114.821 53.2239 114.512 50.4957 113.893 48.0191C113.312 45.5037 112.442 43.2593 111.281 41.2857C109.036 37.4159 105.263 35.481 99.9615 35.481C96.5174 35.481 93.5764 36.4485 91.1384 38.3833C88.7005 40.3182 86.8043 42.8916 85.4498 46.1035C84.7146 47.9223 84.1535 49.6444 83.7665 51.2697C83.3795 52.8563 83.186 54.501 83.186 56.2037ZM136.647 20.7372L146.167 17.0802V32.5206H158.763L158.531 34.9005C158.531 35.5971 158.608 36.313 158.763 37.0483H146.167V66.8842V71.1797C146.167 75.6686 146.747 79.2869 147.908 82.0344C149.069 84.7819 151.429 86.1557 154.99 86.1557C155.415 86.1557 156.015 86.0977 156.789 85.9816C157.602 85.8655 158.782 85.6526 160.33 85.3431V88.1873C156.267 89.6192 152.939 90.3351 150.346 90.3351C148.179 90.3351 146.263 90.0642 144.599 89.5224C142.974 88.9807 141.562 88.0132 140.362 86.6201C139.162 85.1883 138.234 83.1953 137.576 80.6413C136.957 78.0872 136.647 75.0882 136.647 71.6441V37.0483H129.275C129.469 36.4678 129.565 35.7132 129.565 34.7845C129.565 33.6622 129.469 32.9076 129.275 32.5206H136.647V20.7372ZM210.308 51.7921V79.3643C210.308 80.0221 210.308 80.6606 210.308 81.2798C210.308 81.8603 210.347 82.4407 210.424 83.0212C210.54 83.563 210.831 84.0854 211.295 84.5885C211.759 85.0915 212.495 85.3431 213.501 85.3431C214.313 85.3431 215.474 85.1689 216.983 84.8206V87.4327C215.629 88.0132 214.371 88.4195 213.21 88.6517C212.05 88.8839 210.85 89 209.612 89C208.489 89 207.425 88.8452 206.419 88.5356C205.452 88.226 204.581 87.8004 203.807 87.2586C202.375 86.1751 201.485 84.3369 201.137 81.7442L200.092 82.8471C195.1 87.8391 189.237 90.3351 182.504 90.3351C178.208 90.3351 174.493 89 171.359 86.3299C168.224 83.621 166.657 80.1189 166.657 75.8234C166.657 71.6441 167.625 68.4128 169.559 66.1296C171.533 63.8078 173.913 62.2018 176.699 61.3118C179.524 60.4217 183.51 59.551 188.657 58.6997C192.41 58.1192 195.061 57.5968 196.609 57.1324C198.196 56.6293 199.357 55.9134 200.092 54.9847C200.866 54.0172 201.253 52.6048 201.253 50.7473C201.253 46.3357 200.034 42.911 197.596 40.473C195.197 38.0351 191.791 36.8161 187.38 36.8161C184.826 36.8161 182.523 37.2805 180.472 38.2092C178.421 39.138 176.796 40.2215 175.596 41.4598C174.435 42.6981 173.642 43.8784 173.216 45.0007H171.881V38.3833C178.305 34.0105 184.69 31.8241 191.037 31.8241C197.306 31.8241 202.085 33.5074 205.374 36.8741C208.663 40.2021 210.308 45.1748 210.308 51.7921ZM200.788 77.1004V59.7445L196.609 60.6152L189.353 62.0664C187.148 62.5307 185.077 63.1886 183.142 64.04C181.246 64.8526 179.64 66.0909 178.324 67.7549C177.047 69.4189 176.409 71.5473 176.409 74.1401C176.409 77.855 177.415 80.6606 179.427 82.5568C181.478 84.4143 184.361 85.3431 188.076 85.3431C189.469 85.3431 191.114 84.8787 193.01 83.9499C194.906 83.0212 196.435 81.9764 197.596 80.8154L198.873 79.5964L200.15 78.2033C200.498 77.739 200.711 77.3713 200.788 77.1004ZM241.944 32.5206V89.3483L239.97 89.1741C239.389 89.1741 238.964 89.1354 238.693 89.058L237.184 89H235.733L234.456 89.1161L232.424 89.3483V32.5206L235.152 32.7528L237.184 32.8689L239.099 32.7528L241.944 32.5206ZM243.221 12.2043C243.221 13.8296 242.621 15.2421 241.421 16.4417C240.221 17.6414 238.809 18.2412 237.184 18.2412C235.558 18.2412 234.127 17.6414 232.888 16.4417C231.689 15.2421 231.089 13.8296 231.089 12.2043C231.089 10.5403 231.669 9.12785 232.83 7.96692C234.03 6.76729 235.481 6.16747 237.184 6.16747C238.77 6.16747 240.163 6.76729 241.363 7.96692C242.601 9.12785 243.221 10.5403 243.221 12.2043ZM265.51 89.3483V0.0725776L268.239 0.304764L270.27 0.420857L272.186 0.304764L275.03 0.0725776V89.3483L273.057 89.1741C272.476 89.1741 272.05 89.1354 271.779 89.058L270.27 89H268.819L267.542 89.1161L265.51 89.3483ZM3.48801 157.797H4.41676C5.92597 160.312 7.93825 162.421 10.4536 164.124C12.969 165.788 15.523 166.62 18.1158 166.62C20.012 166.62 21.8501 166.156 23.6302 165.227C25.449 164.298 26.9195 163.002 28.0417 161.338C29.2027 159.674 29.7831 157.836 29.7831 155.823C29.7831 152.302 28.7189 149.883 26.5906 148.568C24.4622 147.252 20.9794 145.878 16.1422 144.446C11.3437 143.014 7.72542 141.312 5.28746 139.338C2.8882 137.326 1.68857 134.017 1.68857 129.412C1.68857 123.956 3.50736 119.66 7.14495 116.526C10.8212 113.391 15.465 111.824 21.0761 111.824C23.8624 111.824 26.5132 112.153 29.0285 112.811C31.5439 113.43 33.382 114.127 34.543 114.901C33.4981 117.184 32.5307 120.009 31.6406 123.375H30.5958C30.1314 122.098 29.3381 120.841 28.2159 119.602C27.171 118.325 25.9714 117.319 24.617 116.584C23.3013 115.849 21.9275 115.481 20.4957 115.481C17.4386 115.481 14.8652 116.352 12.7755 118.093C10.7245 119.835 9.699 122.253 9.699 125.349C9.699 128.716 10.7632 131.096 12.8916 132.489C15.0586 133.843 18.5221 135.294 23.2819 136.842C28.0417 138.351 31.6406 140.112 34.0786 142.124C36.5165 144.137 37.7355 147.271 37.7355 151.528C37.7355 155.514 36.6713 158.939 34.543 161.802C32.4533 164.666 29.7057 166.814 26.3003 168.245C22.8949 169.639 19.4121 170.335 15.8519 170.335C10.3182 170.335 5.36485 169.058 0.992009 166.504C2.38513 162.209 3.21713 159.306 3.48801 157.797ZM59.6771 142.473C59.6771 149.206 61.1283 154.701 64.0306 158.958C66.9717 163.215 71.3445 165.343 77.1492 165.343C80.9803 165.343 84.0954 164.201 86.4947 161.918C88.8939 159.635 90.6547 156.559 91.7769 152.689C92.8992 148.78 93.4603 144.388 93.4603 139.512C93.4603 135.333 92.9572 131.483 91.9511 127.961C90.9449 124.401 89.2035 121.499 86.7269 119.254C84.2502 117.01 81.0189 115.887 77.0331 115.887C72.7763 115.887 69.3709 117.222 66.8169 119.893C64.2628 122.563 62.4247 125.968 61.3024 130.109C60.2189 134.211 59.6771 138.332 59.6771 142.473ZM59.6771 158.9V199.765L57.7036 199.591C57.1231 199.591 56.6974 199.552 56.4265 199.474L54.9173 199.416L53.292 199.474L51.9569 199.591L50.1575 199.765V112.521L52.8857 112.753L54.9173 112.869L56.8329 112.753L59.6771 112.521V124.536H59.9093C61.8055 120.899 64.0693 117.88 66.7008 115.481C69.3709 113.043 73.8018 111.824 79.9935 111.824C81.8509 111.824 83.5923 111.998 85.2177 112.346C86.8817 112.695 88.4683 113.237 89.9775 113.972C92.9185 115.365 95.4339 117.339 97.5235 119.893C99.6132 122.447 101.2 125.368 102.283 128.658C103.367 131.908 103.909 135.372 103.909 139.048C103.909 148.722 101.548 156.365 96.827 161.976C92.1059 167.549 85.8949 170.335 78.194 170.335C70.0288 170.335 63.9339 166.523 59.9093 158.9H59.6771ZM157.602 131.792V159.364C157.602 160.022 157.602 160.661 157.602 161.28C157.602 161.86 157.64 162.441 157.718 163.021C157.834 163.563 158.124 164.085 158.589 164.588C159.053 165.092 159.788 165.343 160.794 165.343C161.607 165.343 162.768 165.169 164.277 164.821V167.433C162.923 168.013 161.665 168.42 160.504 168.652C159.343 168.884 158.144 169 156.905 169C155.783 169 154.719 168.845 153.713 168.536C152.745 168.226 151.875 167.8 151.101 167.259C149.669 166.175 148.779 164.337 148.43 161.744L147.386 162.847C142.394 167.839 136.531 170.335 129.797 170.335C125.502 170.335 121.787 169 118.653 166.33C115.518 163.621 113.951 160.119 113.951 155.823C113.951 151.644 114.918 148.413 116.853 146.13C118.827 143.808 121.207 142.202 123.993 141.312C126.818 140.422 130.804 139.551 135.95 138.7C139.704 138.119 142.355 137.597 143.903 137.132C145.489 136.629 146.65 135.913 147.386 134.985C148.16 134.017 148.547 132.605 148.547 130.747C148.547 126.336 147.328 122.911 144.89 120.473C142.49 118.035 139.085 116.816 134.673 116.816C132.119 116.816 129.817 117.28 127.766 118.209C125.715 119.138 124.09 120.221 122.89 121.46C121.729 122.698 120.936 123.878 120.51 125.001H119.175V118.383C125.599 114.011 131.984 111.824 138.33 111.824C144.599 111.824 149.379 113.507 152.668 116.874C155.957 120.202 157.602 125.175 157.602 131.792ZM148.082 157.1V139.745L143.903 140.615L136.647 142.066C134.441 142.531 132.371 143.189 130.436 144.04C128.54 144.853 126.934 146.091 125.618 147.755C124.341 149.419 123.703 151.547 123.703 154.14C123.703 157.855 124.709 160.661 126.721 162.557C128.772 164.414 131.655 165.343 135.37 165.343C136.763 165.343 138.408 164.879 140.304 163.95C142.2 163.021 143.729 161.976 144.89 160.815L146.167 159.596L147.444 158.203C147.792 157.739 148.005 157.371 148.082 157.1ZM222.382 116.7L219.654 124.536H218.667C217.119 122.369 216.055 121.053 215.474 120.589C214.313 119.196 212.572 118.074 210.25 117.222C207.928 116.332 205.742 115.887 203.691 115.887C197.306 115.887 192.275 118.267 188.599 123.027C186.819 125.426 185.484 128.038 184.593 130.863C183.703 133.688 183.258 136.803 183.258 140.209C183.258 142.763 183.471 145.123 183.897 147.291C184.323 149.458 185.019 151.586 185.987 153.676C187.767 157.584 190.301 160.661 193.591 162.905C196.88 165.15 200.653 166.272 204.91 166.272C208.006 166.272 210.792 165.653 213.268 164.414C215.745 163.137 218.435 161.183 221.337 158.552L222.034 158.9L221.453 164.356C215.958 168.342 209.882 170.335 203.226 170.335C196.841 170.335 191.366 169.077 186.799 166.562C182.233 164.008 178.75 160.486 176.351 155.998C173.99 151.509 172.81 146.459 172.81 140.847C172.81 134.888 174.106 129.722 176.699 125.349C179.292 120.976 182.91 117.629 187.554 115.307C192.236 112.985 197.577 111.824 203.575 111.824C210.889 111.824 217.158 113.449 222.382 116.7ZM280.022 157.1L279.906 163.311C276.849 165.479 273.502 167.201 269.864 168.478C268.084 169.097 266.362 169.561 264.698 169.871C263.034 170.18 261.292 170.335 259.474 170.335C254.056 170.335 249.199 169.174 244.904 166.852C240.647 164.53 237.338 161.144 234.978 156.694C232.617 152.205 231.437 147 231.437 141.08C231.437 135.507 232.482 130.515 234.572 126.104C236.661 121.692 239.757 118.209 243.859 115.655C248 113.101 252.934 111.824 258.661 111.824C261.95 111.824 265.027 112.366 267.89 113.449C270.754 114.533 273.308 116.158 275.553 118.325C277.797 120.454 279.577 123.221 280.893 126.626C282.209 130.031 282.866 133.94 282.866 138.351L282.808 139.745L282.75 140.963C280.08 140.963 276.075 140.905 270.735 140.789C265.394 140.673 261.37 140.615 258.661 140.615H241.885L241.769 143.111C241.769 146.207 242.214 149.09 243.104 151.76C243.995 154.392 245.31 156.733 247.052 158.784C248.832 160.796 251.057 162.402 253.727 163.602C256.397 164.763 259.299 165.343 262.434 165.343C268.51 165.343 274.372 162.596 280.022 157.1ZM241.885 136.204H273.521C273.521 133.224 273.211 130.496 272.592 128.019C272.012 125.504 271.141 123.259 269.98 121.286C267.736 117.416 263.963 115.481 258.661 115.481C255.217 115.481 252.276 116.448 249.838 118.383C247.4 120.318 245.504 122.892 244.149 126.104C243.414 127.922 242.853 129.644 242.466 131.27C242.079 132.856 241.885 134.501 241.885 136.204Z" fill="white"/>
</svg>
