<svg width="1910" height="273" viewBox="0 0 1910 273" fill="none" xmlns="http://www.w3.org/2000/svg">
<path opacity="0.05" d="M138.67 266.626C166.871 266.626 190.579 260.948 209.796 249.593V134.107H238.808V243.416C212.229 262.508 178.85 272.054 138.67 272.054C113.464 272.054 90.3165 266.189 69.2282 254.459C48.2647 242.605 31.6063 226.321 19.2528 205.607C7.02412 184.893 0.909774 163.555 0.909774 141.594C0.909774 119.632 4.52847 100.291 11.7659 83.5697C19.0032 66.8488 28.7363 52.4988 40.965 40.5197C53.3184 28.5406 67.9804 19.1195 84.9508 12.2564C102.046 5.26862 119.952 1.77471 138.67 1.77471C171.238 1.77471 199.813 8.88731 224.395 23.1125V36.7762C213.789 27.2927 200.936 19.993 185.838 14.8769C170.739 9.63601 155.016 7.01557 138.67 7.01557C108.722 7.01557 83.6406 19.2443 63.4258 43.7016C43.2111 68.159 33.1037 99.2299 33.1037 136.914C33.1037 155.756 35.8489 173.226 41.3393 189.323C46.8297 205.42 54.2543 219.146 63.613 230.501C73.0965 241.856 84.2645 250.716 97.1171 257.08C110.094 263.444 123.945 266.626 138.67 266.626ZM450.688 267L418.869 185.767H309.559L277.74 267H271.937L376.755 0.0901418L481.572 267H450.688ZM364.214 46.6964L311.805 180.339H416.81L364.214 46.6964ZM518.82 267V6.64123H548.019V261.572H648.344V267H518.82ZM687.65 267V6.64123H716.85V261.572H817.175V267H687.65ZM999.669 12.0693H885.68V131.486H981.139V136.914H885.68V261.572H999.669V267H856.481V6.64123H999.669V12.0693ZM1111.79 147.583H1074.91L1221.1 267H1212.86L1072.48 152.45V267H1043.28V6.64123H1111.79C1136.87 6.64123 1158.21 12.506 1175.8 24.2356C1193.39 35.9651 1202.19 53.6219 1202.19 77.2058C1202.19 92.8036 1196.01 108.464 1183.66 124.186C1171.43 139.784 1147.47 147.583 1111.79 147.583ZM1072.48 142.155H1102.05C1125.89 142.155 1143.29 136.789 1154.27 126.058C1165.38 115.327 1170.93 99.0427 1170.93 77.2058C1170.93 55.3688 1165.44 39.0847 1154.46 28.3534C1143.48 17.4973 1126.01 12.0693 1102.05 12.0693H1072.48V142.155ZM1301.77 267V150.204L1216.98 6.64123H1249.73L1330.22 143.652L1410.52 6.64123H1416.69L1330.97 153.385V267H1301.77ZM1631.19 261.572H1712.05V267H1521.32V261.572H1602.18V29.1021L1550.15 64.6651V58.114L1631.19 1.77471V261.572ZM1828.47 261.572H1909.33V267H1718.6V261.572H1799.46V29.1021L1747.43 64.6651V58.114L1828.47 1.77471V261.572Z" fill="black"/>
</svg>
