<svg width="1043" height="97" viewBox="0 0 1043 97" fill="none" xmlns="http://www.w3.org/2000/svg">
<path opacity="0.05" d="M10.3054 17.8654C10.3054 20.1726 10.616 21.9695 11.2371 23.2562C11.9027 24.4985 12.4351 25.4524 12.8344 26.118C13.2337 26.7835 13.9658 27.6265 15.0307 28.647C16.0955 29.6231 16.9163 30.3995 17.4931 30.9763C18.1143 31.5531 19.2457 32.4405 20.8873 33.6384C22.5289 34.8364 23.7491 35.7237 24.5477 36.3005C25.3907 36.8773 26.8992 37.92 29.0733 39.4285C31.2917 40.8927 32.889 41.9797 33.8651 42.6896C34.8412 43.3551 36.2831 44.3756 38.191 45.751C40.0988 47.1264 41.4964 48.2135 42.3838 49.0121C43.3155 49.8107 44.5135 50.8977 45.9777 52.2732C47.4862 53.6042 49.0613 55.379 50.7029 57.5974C52.3445 59.8158 53.5647 62.0786 54.3633 64.3858C55.1619 66.6486 55.5612 69.3328 55.5612 72.4386C55.5612 75.5001 54.9179 78.4284 53.6312 81.2236C52.3445 84.0188 50.6807 86.326 48.6398 88.1451C46.6432 89.9642 44.2917 91.4949 41.5852 92.7372C38.8787 93.9352 36.15 94.7782 33.3992 95.2662C30.6927 95.7986 27.2098 96.0648 22.9504 96.0648C18.691 96.0648 14.4095 95.1553 10.1058 93.3362C5.84638 91.5171 2.89588 89.942 1.25424 88.6109L0.0562949 87.7458V83.2202C0.76619 84.0632 3.33956 86.1041 7.77641 89.343C12.2133 92.5819 18.3583 94.2014 26.2115 94.2014C31.9794 94.2014 36.7712 92.5376 40.5869 89.2099C44.4026 85.8823 46.3104 81.7782 46.3104 76.8977C46.3104 72.0171 44.8684 67.7578 41.9845 64.1196C39.1005 60.4813 34.1313 56.1554 27.0767 51.1418C24.3702 49.1896 22.3514 47.7476 21.0204 46.8159C19.7337 45.8841 18.0255 44.5974 15.8958 42.9558C13.7661 41.2698 11.6143 39.4063 9.44022 37.3654C7.31054 35.2801 5.58017 32.9285 4.24911 30.3108C2.96243 27.6487 2.31909 24.7204 2.31909 21.5258C2.31909 18.3313 3.09553 15.403 4.64843 12.7409C6.20133 10.0344 8.9078 7.43884 12.7679 4.95421C16.6279 2.42521 21.6416 1.16071 27.8088 1.16071C33.976 1.16071 39.3889 2.11463 44.0476 4.02247L46.1773 4.95421V9.14703C45.9555 8.96955 45.4896 8.59242 44.7797 8.01563C44.0698 7.43884 42.1176 6.48492 38.9231 5.15387C35.7285 3.77844 31.8907 3.09073 27.4095 3.09073C22.9282 3.09073 18.9573 4.46616 15.4965 7.217C12.0358 9.92348 10.3054 13.473 10.3054 17.8654ZM120.517 4.35523H79.9861V46.8159H113.928V48.7459H79.9861V93.07H120.517V95H69.6039V2.42521H120.517V4.35523ZM160.382 52.5394H147.271L199.249 95H196.32L146.406 54.2698V95H136.023V2.42521H160.382C169.3 2.42521 176.887 4.51052 183.143 8.68116C189.399 12.8518 192.527 19.1299 192.527 27.5156C192.527 33.0616 190.33 38.6299 185.938 44.2203C181.59 49.7664 173.071 52.5394 160.382 52.5394ZM146.406 50.6094H156.921C165.395 50.6094 171.585 48.7015 175.489 44.8858C179.438 41.0701 181.412 35.2801 181.412 27.5156C181.412 19.7511 179.46 13.961 175.556 10.1453C171.651 6.28526 165.44 4.35523 156.921 4.35523H146.406V50.6094ZM198.583 2.42521H209.564L240.245 80.0922L271.059 2.42521H273.189L235.919 96.5973L198.583 2.42521ZM286.699 95V2.42521H297.014V95H286.699ZM323.702 48.7459C323.702 62.2339 327.185 73.3038 334.151 81.9557C341.117 90.5632 349.902 94.8669 360.506 94.8669C366.362 94.8669 371.953 93.7577 377.277 91.5393C382.601 89.2765 387.215 86.2594 391.12 82.4881V87.6792C383.045 93.7133 372.84 96.7526 360.506 96.7969C353.762 96.7969 347.395 95.5546 341.405 93.07C335.46 90.5853 330.357 87.2355 326.098 83.0205C321.839 78.7611 318.444 73.6588 315.915 67.7134C313.431 61.768 312.188 55.4455 312.188 48.7459C312.188 42.0462 313.431 35.7237 315.915 29.7784C318.444 23.833 321.839 18.7306 326.098 14.4712C330.357 10.2119 335.46 6.86205 341.405 4.42179C347.395 1.93715 353.762 0.694837 360.506 0.694837C370.888 0.694837 380.25 2.86889 388.591 7.217V12.0753C380.605 5.77503 371.243 2.60268 360.506 2.55831C353.54 2.55831 347.262 4.51052 341.671 8.41495C336.081 12.3194 331.688 17.7989 328.494 24.8535C325.299 31.8637 323.702 39.8278 323.702 48.7459ZM458.604 4.35523H418.074V46.8159H452.016V48.7459H418.074V93.07H458.604V95H407.692V2.42521H458.604V4.35523ZM480.7 17.8654C480.7 20.1726 481.01 21.9695 481.632 23.2562C482.297 24.4985 482.83 25.4524 483.229 26.118C483.628 26.7835 484.36 27.6265 485.425 28.647C486.49 29.6231 487.311 30.3995 487.888 30.9763C488.509 31.5531 489.64 32.4405 491.282 33.6384C492.923 34.8364 494.143 35.7237 494.942 36.3005C495.785 36.8773 497.294 37.92 499.468 39.4285C501.686 40.8927 503.283 41.9797 504.259 42.6896C505.236 43.3551 506.678 44.3756 508.585 45.751C510.493 47.1264 511.891 48.2135 512.778 49.0121C513.71 49.8107 514.908 50.8977 516.372 52.2732C517.881 53.6042 519.456 55.379 521.097 57.5974C522.739 59.8158 523.959 62.0786 524.758 64.3858C525.556 66.6486 525.956 69.3328 525.956 72.4386C525.956 75.5001 525.312 78.4284 524.026 81.2236C522.739 84.0188 521.075 86.326 519.034 88.1451C517.038 89.9642 514.686 91.4949 511.98 92.7372C509.273 93.9352 506.544 94.7782 503.794 95.2662C501.087 95.7986 497.604 96.0648 493.345 96.0648C489.085 96.0648 484.804 95.1553 480.5 93.3362C476.241 91.5171 473.29 89.942 471.649 88.6109L470.451 87.7458V83.2202C471.161 84.0632 473.734 86.1041 478.171 89.343C482.608 92.5819 488.753 94.2014 496.606 94.2014C502.374 94.2014 507.166 92.5376 510.981 89.2099C514.797 85.8823 516.705 81.7782 516.705 76.8977C516.705 72.0171 515.263 67.7578 512.379 64.1196C509.495 60.4813 504.526 56.1554 497.471 51.1418C494.765 49.1896 492.746 47.7476 491.415 46.8159C490.128 45.8841 488.42 44.5974 486.29 42.9558C484.161 41.2698 482.009 39.4063 479.835 37.3654C477.705 35.2801 475.975 32.9285 474.644 30.3108C473.357 27.6487 472.713 24.7204 472.713 21.5258C472.713 18.3313 473.49 15.403 475.043 12.7409C476.596 10.0344 479.302 7.43884 483.162 4.95421C487.022 2.42521 492.036 1.16071 498.203 1.16071C504.37 1.16071 509.783 2.11463 514.442 4.02247L516.572 4.95421V9.14703C516.35 8.96955 515.884 8.59242 515.174 8.01563C514.464 7.43884 512.512 6.48492 509.317 5.15387C506.123 3.77844 502.285 3.09073 497.804 3.09073C493.323 3.09073 489.352 4.46616 485.891 7.217C482.43 9.92348 480.7 13.473 480.7 17.8654ZM630.643 95L619.329 66.1161H580.462L569.148 95H567.085L604.355 0.0958624L641.624 95H630.643ZM599.896 16.6675L581.261 64.1861H618.597L599.896 16.6675ZM723.218 2.42521H725.148V96.5973L656.798 18.8637V95H654.868V0.894495L723.218 78.4949V2.42521ZM766.277 95H742.452V2.42521H766.277C775.373 2.42521 783.714 4.3996 791.301 8.3484C798.888 12.2528 804.922 17.7545 809.404 24.8535C813.929 31.9524 816.192 39.9166 816.192 48.7459C816.192 57.5308 813.929 65.495 809.404 72.6383C804.922 79.7372 798.888 85.2389 791.301 89.1434C783.714 93.0478 775.373 95 766.277 95ZM752.834 4.35523V93.07H766.011C776.882 93.07 785.068 90.1417 790.569 84.285C796.115 78.384 799.931 72.6383 802.016 67.0479C804.102 61.4131 805.144 55.3124 805.144 48.7459C805.144 42.135 804.102 36.0343 802.016 30.4439C799.931 24.8091 796.115 19.0634 790.569 13.2067C785.068 7.30574 776.882 4.35523 766.011 4.35523H752.834ZM951.826 29.7784C954.4 35.7237 955.686 42.0684 955.686 48.8124C955.686 55.5564 954.4 61.9455 951.826 67.9796C949.297 73.9693 945.837 79.0495 941.444 83.2202C937.096 87.3908 931.905 90.6963 925.871 93.1365C919.881 95.5768 913.536 96.7969 906.837 96.7969C900.181 96.7969 893.837 95.5768 887.803 93.1365C881.769 90.6963 876.555 87.3908 872.163 83.2202C867.815 79.0495 864.354 73.9693 861.781 67.9796C859.207 61.9455 857.92 55.024 857.92 47.2152C857.92 39.4063 860.095 31.7971 864.443 24.3876C868.835 16.9781 874.78 11.188 882.279 7.01734C889.777 2.80234 897.431 0.694837 905.239 0.694837C913.048 0.694837 919.948 1.93715 925.937 4.42179C931.927 6.86205 937.096 10.2119 941.444 14.4712C945.837 18.7306 949.297 23.833 951.826 29.7784ZM879.683 82.0888C886.605 90.6075 895.656 94.8669 906.837 94.8669C918.018 94.8669 927.047 90.6075 933.924 82.0888C940.845 73.5257 944.306 62.4335 944.306 48.8124C944.306 35.1913 940.845 24.077 933.924 15.4695C927.047 6.86205 918.018 2.55831 906.837 2.55831C895.656 2.55831 886.605 6.86205 879.683 15.4695C872.806 24.077 869.368 35.1913 869.368 48.8124C869.368 62.4335 872.806 73.5257 879.683 82.0888ZM1020.97 4.35523H980.444V46.8159H1014.39V48.7459H980.444V95H970.062V2.42521H1020.97V4.35523ZM1085.4 4.35523H1044.87V46.8159H1078.81V48.7459H1044.87V95H1034.48V2.42521H1085.4V4.35523ZM1099.71 95V2.42521H1110.02V95H1099.71ZM1136.71 48.7459C1136.71 62.2339 1140.19 73.3038 1147.16 81.9557C1154.12 90.5632 1162.91 94.8669 1173.51 94.8669C1179.37 94.8669 1184.96 93.7577 1190.28 91.5393C1195.61 89.2765 1200.22 86.2594 1204.13 82.4881V87.6792C1196.05 93.7133 1185.85 96.7526 1173.51 96.7969C1166.77 96.7969 1160.4 95.5546 1154.41 93.07C1148.47 90.5853 1143.36 87.2355 1139.11 83.0205C1134.85 78.7611 1131.45 73.6588 1128.92 67.7134C1126.44 61.768 1125.2 55.4455 1125.2 48.7459C1125.2 42.0462 1126.44 35.7237 1128.92 29.7784C1131.45 23.833 1134.85 18.7306 1139.11 14.4712C1143.36 10.2119 1148.47 6.86205 1154.41 4.42179C1160.4 1.93715 1166.77 0.694837 1173.51 0.694837C1183.9 0.694837 1193.26 2.86889 1201.6 7.217V12.0753C1193.61 5.77503 1184.25 2.60268 1173.51 2.55831C1166.55 2.55831 1160.27 4.51052 1154.68 8.41495C1149.09 12.3194 1144.7 17.7989 1141.5 24.8535C1138.31 31.8637 1136.71 39.8278 1136.71 48.7459ZM1271.61 4.35523H1231.08V46.8159H1265.02V48.7459H1231.08V93.07H1271.61V95H1220.7V2.42521H1271.61V4.35523ZM1293.71 17.8654C1293.71 20.1726 1294.02 21.9695 1294.64 23.2562C1295.3 24.4985 1295.84 25.4524 1296.24 26.118C1296.64 26.7835 1297.37 27.6265 1298.43 28.647C1299.5 29.6231 1300.32 30.3995 1300.9 30.9763C1301.52 31.5531 1302.65 32.4405 1304.29 33.6384C1305.93 34.8364 1307.15 35.7237 1307.95 36.3005C1308.79 36.8773 1310.3 37.92 1312.48 39.4285C1314.69 40.8927 1316.29 41.9797 1317.27 42.6896C1318.24 43.3551 1319.69 44.3756 1321.59 45.751C1323.5 47.1264 1324.9 48.2135 1325.79 49.0121C1326.72 49.8107 1327.92 50.8977 1329.38 52.2732C1330.89 53.6042 1332.46 55.379 1334.1 57.5974C1335.75 59.8158 1336.97 62.0786 1337.77 64.3858C1338.56 66.6486 1338.96 69.3328 1338.96 72.4386C1338.96 75.5001 1338.32 78.4284 1337.03 81.2236C1335.75 84.0188 1334.08 86.326 1332.04 88.1451C1330.05 89.9642 1327.69 91.4949 1324.99 92.7372C1322.28 93.9352 1319.55 94.7782 1316.8 95.2662C1314.09 95.7986 1310.61 96.0648 1306.35 96.0648C1302.09 96.0648 1297.81 95.1553 1293.51 93.3362C1289.25 91.5171 1286.3 89.942 1284.66 88.6109L1283.46 87.7458V83.2202C1284.17 84.0632 1286.74 86.1041 1291.18 89.343C1295.62 92.5819 1301.76 94.2014 1309.61 94.2014C1315.38 94.2014 1320.17 92.5376 1323.99 89.2099C1327.8 85.8823 1329.71 81.7782 1329.71 76.8977C1329.71 72.0171 1328.27 67.7578 1325.39 64.1196C1322.5 60.4813 1317.53 56.1554 1310.48 51.1418C1307.77 49.1896 1305.75 47.7476 1304.42 46.8159C1303.14 45.8841 1301.43 44.5974 1299.3 42.9558C1297.17 41.2698 1295.02 39.4063 1292.84 37.3654C1290.71 35.2801 1288.98 32.9285 1287.65 30.3108C1286.36 27.6487 1285.72 24.7204 1285.72 21.5258C1285.72 18.3313 1286.5 15.403 1288.05 12.7409C1289.6 10.0344 1292.31 7.43884 1296.17 4.95421C1300.03 2.42521 1305.04 1.16071 1311.21 1.16071C1317.38 1.16071 1322.79 2.11463 1327.45 4.02247L1329.58 4.95421V9.14703C1329.36 8.96955 1328.89 8.59242 1328.18 8.01563C1327.47 7.43884 1325.52 6.48492 1322.33 5.15387C1319.13 3.77844 1315.29 3.09073 1310.81 3.09073C1306.33 3.09073 1302.36 4.46616 1298.9 7.217C1295.44 9.92348 1293.71 13.473 1293.71 17.8654Z" fill="#37474F"/>
</svg>
