<svg width="32" height="33" viewBox="0 0 32 33" fill="none" xmlns="http://www.w3.org/2000/svg">
<path fill-rule="evenodd" clip-rule="evenodd" d="M16 32.6641C24.8366 32.6641 32 25.5006 32 16.6641C32 7.82751 24.8366 0.664062 16 0.664062C7.16344 0.664062 0 7.82751 0 16.6641C0 25.5006 7.16344 32.6641 16 32.6641ZM9.96421 18.0624L5.66304 16.4571C5.22618 16.2933 5.22238 15.6766 5.658 15.5086L23.3101 8.69894C23.6843 8.55421 24.0705 8.88206 23.989 9.27505L20.8212 24.5127C20.7465 24.8725 20.3247 25.0356 20.027 24.8192L15.7027 21.6797C15.44 21.489 15.0821 21.4992 14.8307 21.704L12.4332 23.6585C12.1549 23.8861 11.7356 23.7593 11.629 23.4164L9.96421 18.0624ZM19.7668 12.0305L11.3607 17.2078C11.0385 17.4067 10.8868 17.7958 10.9909 18.16L11.8998 21.3536C11.9643 21.5799 12.2928 21.5567 12.3241 21.3228L12.5604 19.5715C12.605 19.2418 12.7623 18.938 13.0061 18.711L19.9436 12.2623C20.0733 12.142 19.9179 11.9377 19.7668 12.0305Z" fill="white"/>
</svg>
