<svg width="32" height="32" viewBox="0 0 32 32" fill="none" xmlns="http://www.w3.org/2000/svg">
<path d="M16.0052 8.43699e-07C12.8405 -0.00102666 9.74653 0.936488 7.11466 2.69397C4.48279 4.45145 2.43122 6.94994 1.21943 9.87347C0.00762741 12.797 -0.309967 16.0142 0.30681 19.1183C0.923586 22.2223 2.44703 25.0737 4.68446 27.3119C6.92189 29.55 9.77281 31.0744 12.8766 31.6922C15.9805 32.31 19.1978 31.9934 22.1217 30.7826C25.0457 29.5717 27.5448 27.521 29.3032 24.8897C31.0615 22.2584 32 19.1647 32 16C32 11.7574 30.315 7.68856 27.3155 4.68813C24.3161 1.6877 20.2478 0.0013783 16.0052 8.43699e-07V8.43699e-07ZM24.0831 22.1195H22.1091C21.3558 22.1195 21.1377 21.5325 19.7974 20.2182C18.6234 19.1065 18.1195 18.961 17.8286 18.961C17.2 18.961 17.3091 19.1688 17.3091 21.3662C17.3091 21.8442 17.1533 22.1195 15.8961 22.1195C13.8182 22.1195 11.5117 20.8727 9.87533 18.5766C7.42858 15.2052 6.75845 12.6546 6.75845 12.1403C6.75845 11.8546 6.87273 11.6208 7.43377 11.6208H9.4078C9.92728 11.6208 10.1039 11.8338 10.3013 12.374C11.2675 15.1377 12.8987 17.5688 13.5636 17.5688C13.8182 17.5688 13.9273 17.4546 13.9273 16.8312V13.974C13.8546 12.6598 13.1429 12.5507 13.1429 12.0831C13.1467 12.0196 13.1634 11.9574 13.1919 11.9005C13.2204 11.8435 13.26 11.7929 13.3086 11.7517C13.3571 11.7105 13.4134 11.6795 13.4742 11.6605C13.535 11.6416 13.599 11.6352 13.6623 11.6416H16.7792C17.1948 11.6416 17.3403 11.8597 17.3403 12.3533V16.1922C17.3403 16.6026 17.5273 16.7481 17.6519 16.7481C17.9013 16.7481 18.1143 16.6026 18.5714 16.1507C19.568 14.9541 20.3852 13.6189 20.9974 12.187C21.0666 12.0196 21.1878 11.8787 21.343 11.7852C21.4982 11.6917 21.6793 11.6505 21.8597 11.6675H23.7974C24.3948 11.6675 24.5195 11.9688 24.3948 12.3792C24.1455 13.5065 21.7403 16.8364 21.7351 16.8416C21.5273 17.1688 21.4442 17.361 21.7351 17.7039C21.8494 17.8597 24.3844 20.2234 24.7584 21.3714C24.9403 21.8442 24.6545 22.1195 24.0935 22.1195H24.0831Z" fill="white"/>
</svg>
