<svg width="1912" height="511" viewBox="0 0 1912 511" fill="none" xmlns="http://www.w3.org/2000/svg">
<path opacity="0.05" d="M-4.30888 9.6945H53.9956L216.895 422.066L380.501 9.6945H391.808L193.926 509.699L-4.30888 9.6945ZM463.54 501.219V9.6945H518.311V501.219H463.54ZM741.281 501.219H614.778V9.6945H741.281C789.574 9.6945 833.862 20.1775 874.145 41.1436C914.428 61.874 946.466 91.0852 970.259 128.777C994.287 166.469 1006.3 208.754 1006.3 255.633C1006.3 302.277 994.287 344.562 970.259 382.49C946.466 420.181 914.428 449.393 874.145 470.123C833.862 490.854 789.574 501.219 741.281 501.219ZM669.903 19.9419V490.971H739.868C797.584 490.971 841.047 475.423 870.258 444.328C899.705 412.996 919.964 382.49 931.036 352.807C942.108 322.89 947.644 290.498 947.644 255.633C947.644 220.533 942.108 188.141 931.036 158.459C919.964 128.541 899.705 98.0346 870.258 66.9389C841.047 35.6076 797.584 19.9419 739.868 19.9419H669.903ZM1348.71 19.9419H1133.51V245.386H1313.73V255.633H1133.51V490.971H1348.71V501.219H1078.39V9.6945H1348.71V19.9419ZM1891.12 154.926C1904.78 186.492 1911.61 220.179 1911.61 255.987C1911.61 291.794 1904.78 325.716 1891.12 357.754C1877.69 389.557 1859.31 416.53 1835.99 438.674C1812.91 460.818 1785.34 478.368 1753.31 491.325C1721.5 504.281 1687.82 510.759 1652.24 510.759C1616.91 510.759 1583.22 504.281 1551.18 491.325C1519.15 478.368 1491.47 460.818 1468.14 438.674C1445.06 416.53 1426.68 389.557 1413.02 357.754C1399.36 325.716 1392.52 288.967 1392.52 247.506C1392.52 206.045 1404.07 165.644 1427.15 126.303C1450.48 86.9626 1482.04 56.2203 1521.85 34.0764C1561.67 11.6969 1602.3 0.507127 1643.76 0.507127C1685.22 0.507127 1721.86 7.10319 1753.66 20.2953C1785.46 33.2519 1812.91 51.0377 1835.99 73.6527C1859.31 96.2678 1877.69 123.359 1891.12 154.926ZM1508.07 432.667C1544.82 477.897 1592.88 500.512 1652.24 500.512C1711.61 500.512 1759.55 477.897 1796.06 432.667C1832.81 387.201 1851.19 328.308 1851.19 255.987C1851.19 183.666 1832.81 124.654 1796.06 78.9531C1759.55 33.2519 1711.61 10.4012 1652.24 10.4012C1592.88 10.4012 1544.82 33.2519 1508.07 78.9531C1471.56 124.654 1453.3 183.666 1453.3 255.987C1453.3 328.308 1471.56 387.201 1508.07 432.667Z" fill="#37474F"/>
</svg>
