<svg width="1176" height="135" viewBox="0 0 1176 135" fill="none" xmlns="http://www.w3.org/2000/svg">
<path opacity="0.05" d="M0.839755 2.72582H16.2002L59.1162 111.366L102.218 2.72582H105.197L53.0652 134.453L0.839755 2.72582ZM124.095 132.219V2.72582H138.525V132.219H124.095ZM197.267 132.219H163.939V2.72582H197.267C209.99 2.72582 221.657 5.48759 232.27 11.0111C242.883 16.4726 251.323 24.1683 257.591 34.0983C263.922 44.0283 267.087 55.1684 267.087 67.5188C267.087 79.8072 263.922 90.9473 257.591 100.939C251.323 110.869 242.883 118.565 232.27 124.027C221.657 129.488 209.99 132.219 197.267 132.219ZM178.462 5.42553V129.519H196.894C212.1 129.519 223.55 125.423 231.246 117.231C239.004 108.976 244.341 100.939 247.258 93.1195C250.175 85.2376 251.633 76.704 251.633 67.5188C251.633 58.2716 250.175 49.738 247.258 41.9181C244.341 34.0362 239.004 25.9992 231.246 17.8069C223.55 9.55267 212.1 5.42553 196.894 5.42553H178.462ZM357.294 5.42553H300.601V64.8191H348.078V67.5188H300.601V129.519H357.294V132.219H286.078V2.72582H357.294V5.42553ZM500.193 40.9872C503.792 49.3036 505.592 58.1785 505.592 67.6119C505.592 77.0454 503.792 85.9824 500.193 94.4228C496.655 102.801 491.814 109.907 485.67 115.741C479.588 121.575 472.327 126.199 463.886 129.612C455.508 133.026 446.633 134.732 437.262 134.732C427.952 134.732 419.077 133.026 410.637 129.612C402.196 126.199 394.904 121.575 388.76 115.741C382.678 109.907 377.837 102.801 374.237 94.4228C370.638 85.9824 368.838 76.3006 368.838 65.3777C368.838 54.4547 371.879 43.811 377.961 33.4466C384.105 23.0822 392.422 14.9831 402.91 9.14926C413.399 3.25335 424.104 0.305388 435.027 0.305388C445.95 0.305388 455.601 2.04313 463.979 5.51862C472.358 8.93204 479.588 13.6177 485.67 19.5757C491.814 25.5337 496.655 32.6709 500.193 40.9872ZM399.28 114.159C408.961 126.075 421.622 132.033 437.262 132.033C452.901 132.033 465.531 126.075 475.151 114.159C484.832 102.181 489.673 86.665 489.673 67.6119C489.673 48.5588 484.832 33.0122 475.151 20.9721C465.531 8.93204 452.901 2.912 437.262 2.912C421.622 2.912 408.961 8.93204 399.28 20.9721C389.66 33.0122 384.85 48.5588 384.85 67.6119C384.85 86.665 389.66 102.181 399.28 114.159ZM603.34 72.8252H585.001L657.707 132.219H653.611L583.791 75.2456V132.219H569.268V2.72582H603.34C615.815 2.72582 626.427 5.64274 635.178 11.4766C643.929 17.3105 648.304 26.0923 648.304 37.822C648.304 45.5798 645.232 53.3686 639.088 61.1885C633.006 68.9463 621.09 72.8252 603.34 72.8252ZM583.791 70.1254H598.499C610.353 70.1254 619.011 67.4568 624.472 62.1194C629.996 56.7821 632.758 48.6829 632.758 37.822C632.758 26.9611 630.027 18.862 624.566 13.5247C619.104 8.12523 610.415 5.42553 598.499 5.42553H583.791V70.1254ZM743.446 5.42553H686.752V64.8191H734.23V67.5188H686.752V129.519H743.446V132.219H672.229V2.72582H743.446V5.42553ZM797.719 72.8252H779.659V132.219H765.137V2.72582H797.719C810.256 2.72582 820.9 5.64274 829.65 11.4766C838.401 17.3105 842.777 26.0923 842.777 37.822C842.777 45.5798 839.673 53.3686 833.467 61.1885C827.323 68.9463 815.407 72.8252 797.719 72.8252ZM779.659 5.42553V70.1254H792.972C804.825 70.1254 813.483 67.4568 818.945 62.1194C824.468 56.7821 827.23 48.6829 827.23 37.822C827.23 26.9611 824.499 18.862 819.038 13.5247C813.576 8.12523 804.888 5.42553 792.972 5.42553H779.659ZM986.885 40.9872C990.485 49.3036 992.285 58.1785 992.285 67.6119C992.285 77.0454 990.485 85.9824 986.885 94.4228C983.348 102.801 978.507 109.907 972.363 115.741C966.28 121.575 959.019 126.199 950.579 129.612C942.2 133.026 933.325 134.732 923.954 134.732C914.645 134.732 905.77 133.026 897.329 129.612C888.889 126.199 881.597 121.575 875.452 115.741C869.37 109.907 864.529 102.801 860.93 94.4228C857.33 85.9824 855.53 76.3006 855.53 65.3777C855.53 54.4547 858.571 43.811 864.654 33.4466C870.798 23.0822 879.114 14.9831 889.603 9.14926C900.091 3.25335 910.797 0.305388 921.72 0.305388C932.643 0.305388 942.293 2.04313 950.672 5.51862C959.05 8.93204 966.28 13.6177 972.363 19.5757C978.507 25.5337 983.348 32.6709 986.885 40.9872ZM885.972 114.159C895.654 126.075 908.314 132.033 923.954 132.033C939.594 132.033 952.223 126.075 961.843 114.159C971.525 102.181 976.366 86.665 976.366 67.6119C976.366 48.5588 971.525 33.0122 961.843 20.9721C952.223 8.93204 939.594 2.912 923.954 2.912C908.314 2.912 895.654 8.93204 885.972 20.9721C876.352 33.0122 871.542 48.5588 871.542 67.6119C871.542 86.665 876.352 102.181 885.972 114.159ZM1046.46 72.8252H1028.13L1100.83 132.219H1096.74L1026.92 75.2456V132.219H1012.39V2.72582H1046.46C1058.94 2.72582 1069.55 5.64274 1078.3 11.4766C1087.05 17.3105 1091.43 26.0923 1091.43 37.822C1091.43 45.5798 1088.36 53.3686 1082.21 61.1885C1076.13 68.9463 1064.21 72.8252 1046.46 72.8252ZM1026.92 70.1254H1041.62C1053.48 70.1254 1062.14 67.4568 1067.6 62.1194C1073.12 56.7821 1075.88 48.6829 1075.88 37.822C1075.88 26.9611 1073.15 18.862 1067.69 13.5247C1062.23 8.12523 1053.54 5.42553 1041.62 5.42553H1026.92V70.1254ZM1193.18 2.72582V5.42553H1153.52V132.219H1139.09V5.42553H1099.44V2.72582H1193.18Z" fill="#37474F"/>
</svg>
